<svg xmlns="http://www.w3.org/2000/svg" xmlns:xlink="http://www.w3.org/1999/xlink" width="108" height="102.506" viewBox="0 0 108 102.506">
  <defs>
    <clipPath id="clip-path">
      <rect id="Rect치ngulo_383557" data-name="Rect치ngulo 383557" width="98.854" height="102.506" fill="none"/>
    </clipPath>
  </defs>
  <g id="Grupo_1095368" data-name="Grupo 1095368" transform="translate(-213 -987.494)">
    <g id="Grupo_1095366" data-name="Grupo 1095366" transform="translate(0 557.247)">
      <rect id="Rect치ngulo_382579" data-name="Rect치ngulo 382579" width="108" height="95" rx="8" transform="translate(213 434)" fill="#ffce00"/>
    </g>
    <g id="Grupo_1095365" data-name="Grupo 1095365" transform="translate(215.572 987.494)">
      <g id="Grupo_1095364" data-name="Grupo 1095364" clip-path="url(#clip-path)">
        <path id="Trazado_829969" data-name="Trazado 829969" d="M566.527,349.734l.317.02.315.023.313.025.311.027.309.03.307.032.305.035.3.037.3.039.3.042.3.044.3.047.294.049.292.051.29.054.288.056.286.059.285.061.283.063.281.066.279.068.277.071.275.073.273.075.271.078.27.08.268.083.266.085.264.087.262.09.26.092.258.095.256.1.254.1.251.1.249.1.246.1.244.107.241.109.239.111.236.113.234.115.231.117.229.119.227.12.224.122.222.125.219.126.217.128.214.13.212.132.209.134.207.136.2.138.2.14.2.142.2.144.195.146.192.148.19.15.187.152.185.154.182.156.18.158.177.16.174.162.172.164.169.166.166.167.163.169.161.171.158.173.155.174.152.176.15.178.147.18.144.182.141.183q.07.092.139.185l.136.187.133.189.13.191.128.192q.063.1.125.194t.122.2q.06.1.119.2t.117.2q.058.1.114.2t.111.2q.055.1.109.2t.106.207q.052.1.1.208t.1.21q.05.106.1.212t.095.214q.047.107.092.216t.089.217q.044.109.086.219t.082.22q.04.11.079.221t.076.222q.037.112.072.224t.069.225q.034.113.066.226t.063.228q.03.114.059.229t.056.23q.027.115.053.232t.049.233q.024.117.046.234t.043.235q.02.118.039.237t.036.238q.017.119.033.239t.029.241q.014.12.026.242t.023.243q.011.122.019.244t.016.246q.007.123.013.247t.009.248q0,.125.006.25t0,.251q0,.126,0,.252t0,.253q0,.127-.007.255t-.01.256q-.006.128-.014.257-.006.1-.012.189t-.015.188q-.008.094-.017.186t-.019.185q-.01.092-.021.183t-.023.182q-.012.091-.025.18t-.027.179q-.014.089-.029.177t-.032.176q-.016.088-.034.174t-.036.173q-.018.086-.038.171t-.04.17q-.021.085-.042.169t-.044.167q-.023.083-.046.166t-.049.164q-.025.082-.051.163t-.053.161q-.027.08-.055.159c-.019.053-.038.106-.057.158s-.039.1-.059.157-.041.1-.061.155-.042.1-.063.154-.043.1-.066.152-.045.1-.068.151-.046.1-.07.149l-.072.148-.074.146-.076.145-.078.143-.08.142-.081.141-.082.14-.083.139-.084.138-.085.137-.086.136-.087.135-.088.134-.089.133-.09.132-.091.131-.092.13-.094.13-.095.129-.1.128-.1.127-.1.126-.1.125-.1.124-.1.123-.1.122-.1.121-.1.12-.105.119-.106.118-.107.117-.108.116-.109.115-.11.114-.111.113-.112.112-.113.111-.114.111-.114.11-.115.109-.115.108-.116.107-.116.106-.116.106-.117.1-.117.1-.118.1-.118.1-.119.1-.119.1-.12.1-.12.1-.121.1-.121.1-.122.1-.122.1-.122.095-.123.094-.123.093-.124.092-.124.091-.125.09-.125.09-.126.089-.126.088-.127.087-.127.086-.128.085-.127.085-.127.084-.126.084-.126.084-.125.083-.125.083-.124.082-.124.082-.123.081-.123.081-.122.081-.122.08-.121.08-.12.079-.12.079-.119.078-.119.078-.118.077-.118.077-.117.076-.117.076-.116.076-.116.075-.115.075-.115.074-.114.074-.113.073-.113.073-.112.073-.112.072-.111.072-.111.071-.11.071-.109.071-.108.071-.107.071-.105.07-.1.07-.1.07-.1.07-.1.07-.1.07-.1.07-.1.069-.1.069-.1.069-.094.069-.093.069-.092.069-.091.068-.09.068-.089.068-.088.068-.087.068-.085.068-.084.068-.083.067-.082.067-.081.067-.08.067-.079.067-.078.067-.077.067-.075.066-.074.067-.072.067-.069.067-.067.067-.065.067-.063.068-.061.068-.058.068-.056.068-.054.068-.052.069-.049.069-.047.069-.045.069-.043.07-.041.07-.039.07-.036.07-.034.07-.032.071-.03.071q-.014.036-.028.071l-.025.071c-.008.024-.016.048-.023.071s-.014.048-.021.072-.013.048-.019.072-.011.048-.016.072-.01.048-.014.072-.008.048-.012.073-.007.048-.01.073-.005.049-.008.073,0,.049-.005.073l-.007.118-.007.118-.007.118-.007.118-.007.118-.007.118-.007.118-.007.118-.007.118-.007.118-.007.118-.007.118-.007.118-.007.118-.007.118-.007.118-.007.118-.007.118-.007.118-.007.118-.007.118-.007.118-.007.118-.007.118-.007.118-.007.118-.007.118-.007.118-.007.118-.007.118-.007.118-.007.118-.475-.028-.475-.028-.475-.028-.475-.028-.475-.028-.475-.028-.475-.028-.475-.028-.475-.028-.475-.028-.475-.028-.475-.028-.475-.028-.475-.028-.475-.028-.475-.028-.475-.028L563,392l-.475-.028-.475-.028-.475-.028-.475-.028-.475-.028-.475-.028-.475-.028-.475-.028-.475-.028-.475-.028-.475-.028-.475-.028-.475-.028-.475-.028.012-.2.012-.2.012-.2.012-.2.012-.2.012-.2.012-.2.012-.2.012-.2.012-.2.012-.2.012-.2.012-.2.012-.2.012-.2.012-.2.012-.2.012-.2.012-.2.012-.2.012-.2.012-.2.012-.2.012-.2.012-.2.012-.2.012-.2.012-.2.012-.2.012-.2.012-.2.012-.2c0-.033,0-.067.007-.1s.005-.067.008-.1.007-.066.01-.1.007-.066.012-.1.009-.066.013-.1.01-.065.015-.1.011-.065.017-.1.012-.065.018-.1.013-.065.02-.1.014-.064.022-.1.015-.064.023-.1.016-.064.025-.1.017-.063.026-.1.018-.063.028-.095l.03-.094c.01-.031.021-.062.031-.094s.022-.062.033-.093l.035-.093.036-.092.038-.092.039-.091.041-.091.043-.091.044-.09.046-.09.048-.089.049-.089.051-.088.053-.088.054-.088.056-.087.057-.087.059-.086.06-.086.06-.086.061-.086.062-.085.063-.085.064-.085.065-.085.066-.085.067-.084.067-.084.069-.084.069-.084.07-.083.071-.083.072-.083.073-.083.074-.083.075-.082.076-.082.076-.082.077-.082.078-.081.079-.081.08-.081.081-.081.082-.081.083-.08.083-.08.084-.08.085-.08.086-.079.087-.079.087-.079.087-.079.088-.079.088-.079.088-.079.089-.079.089-.078.089-.078.09-.078.09-.078.09-.078.091-.078.091-.078.091-.078.092-.078.092-.078.092-.077.093-.077.093-.077.093-.077.094-.077.094-.077.094-.077.095-.077.095-.077.1-.077.1-.076.1-.076.1-.076.1-.076.1-.076.1-.076.1-.076.1-.076.1-.077.1-.077.1-.077.095-.077.095-.078.094-.078.094-.078.094-.078.093-.079.093-.079.093-.079.093-.079.092-.079.092-.08.091-.08.091-.08.091-.08.09-.081.09-.081.09-.081.089-.081.089-.082.089-.082.089-.082.088-.082.088-.083.088-.083.087-.083.087-.083.086-.083.085-.084.085-.084.084-.084.083-.085.082-.085.081-.085.08-.085.079-.086.078-.086.078-.086.077-.086.076-.087.075-.087.074-.087.073-.088.072-.088.071-.088.07-.088.07-.089.069-.089.068-.089.067-.089.066-.09.065-.09.064-.09.064-.091.063-.091.062-.091.061-.091.06-.092.059-.092.058-.092.056-.093.055-.094.053-.094.051-.095.05-.1.048-.1.046-.1.045-.1.043-.1.042-.1.04-.1.038-.1.037-.1.035-.1q.017-.051.034-.1l.032-.1c.01-.035.021-.069.03-.1s.019-.07.029-.1.018-.07.027-.105.017-.071.025-.106.016-.071.024-.107.015-.072.022-.107.014-.072.021-.108.013-.073.019-.109.012-.073.017-.109.011-.073.016-.11.01-.074.014-.111.009-.074.012-.112.008-.075.011-.112.006-.075.009-.113.005-.076.008-.114,0-.051,0-.076,0-.051,0-.076,0-.051,0-.076,0-.05,0-.076,0-.05,0-.076,0-.05,0-.075,0-.05,0-.075,0-.05,0-.075,0-.05,0-.075,0-.05,0-.075,0-.05,0-.075,0-.05,0-.075,0-.05-.005-.074,0-.05-.006-.074,0-.049-.007-.074,0-.049-.008-.074-.005-.049-.008-.074-.006-.049-.009-.074l-.01-.074c0-.025-.007-.049-.011-.074s-.007-.049-.011-.074-.008-.049-.012-.073-.008-.049-.013-.073l-.014-.073-.014-.073-.015-.073-.016-.073-.017-.073-.018-.073-.018-.072-.019-.072-.02-.072-.021-.072-.021-.071-.022-.071-.023-.07-.024-.07-.024-.069-.025-.069-.026-.068-.027-.068-.027-.067-.028-.067-.029-.066-.03-.066-.03-.065-.031-.065-.032-.064-.033-.064-.034-.063-.034-.063-.035-.062-.036-.062-.036-.061-.037-.061-.038-.06-.039-.06-.039-.059-.04-.059-.041-.058-.042-.058-.042-.057-.043-.057-.044-.056-.045-.056-.045-.055-.046-.054-.047-.054-.047-.053-.048-.052-.049-.052-.049-.051-.05-.051-.051-.05-.052-.05-.052-.049-.053-.048-.053-.048-.054-.047-.055-.047-.055-.046-.056-.045-.057-.045-.057-.044-.058-.044-.059-.043-.06-.042-.06-.042-.061-.041-.062-.04-.062-.04-.063-.039-.064-.039-.064-.038-.065-.038-.065-.037-.066-.036-.067-.035-.068-.034-.068-.033-.069-.032-.07-.031-.07-.03-.071-.029-.072-.028-.072-.027-.073-.026-.074-.025-.074-.024-.075-.023-.075-.022-.076-.021-.077-.02-.077-.019-.078-.018-.079-.017-.079-.016-.08-.016-.081-.014-.081-.014-.082-.013-.083-.012-.083-.011-.084-.01-.085-.009-.085-.008-.086-.007-.087-.006-.113-.006-.112,0-.111,0-.11,0h-.215l-.106,0-.1,0-.1,0-.1.006-.1.007-.1.009-.1.01-.1.012-.1.013-.094.014-.093.016-.092.017-.09.018-.089.02-.088.021-.087.022-.085.024-.084.025-.083.026-.081.028-.08.029-.079.03-.078.032-.076.033-.075.034-.074.036-.073.037-.072.038-.071.039-.07.039-.069.04-.068.041-.067.042-.066.043-.065.043-.064.044-.063.045-.062.046-.061.047-.061.048-.059.048-.059.049-.058.05-.057.051-.056.052-.055.053-.054.053-.053.054-.052.055-.051.056-.05.057-.049.057-.048.058-.047.059-.047.06-.046.061-.045.062-.044.062-.043.063-.042.064-.041.064-.041.065-.04.066-.039.066-.038.067-.038.068-.037.068-.036.069-.035.07-.034.07-.034.071-.033.072-.032.072-.031.073-.031.073-.03.074-.029.075-.028.075-.027.076-.027.077-.026.077-.025.078-.024.079-.024.079-.023.08-.022.08-.021.081-.02.082-.02.082-.019.083-.018.083-.018.084-.018.084-.017.084-.017.084-.016.084-.016.084-.016.084-.015.084-.015.084-.014.085-.014.085-.013.085-.013.085-.013.085-.012.085-.012.085-.011.085-.011.085-.01.086-.01.086-.01.086-.009.086-.009.086-.008.086c0,.029-.005.057-.008.086s-.005.057-.007.086,0,.057-.007.086,0,.058-.007.086l-.006.087c0,.029,0,.058-.006.087s0,.058-.005.087l0,.038,0,.038,0,.038,0,.038c0,.013,0,.025,0,.038l0,.038,0,.038,0,.038,0,.038,0,.038c0,.013,0,.025,0,.038s0,.025,0,.038l0,.037c0,.013,0,.025,0,.037l0,.037,0,.037,0,.037,0,.037,0,.037,0,.037,0,.037c0,.012,0,.025,0,.037s0,.025,0,.037,0,.025,0,.037l0,.037c0,.012,0,.025,0,.037s0,.025,0,.037l0,.037c0,.012,0,.024,0,.037s0,.024,0,.037l0,.037c0,.012,0,.024,0,.037l0,.037c0,.012,0,.024,0,.037l0,.037,0,.037c0,.012,0,.025,0,.037s0,.025,0,.037v.037q0,.019,0,.037c0,.012,0,.025,0,.037s0,.025,0,.037,0,.025,0,.037,0,.025,0,.037,0,.025,0,.037,0,.025,0,.037v.037q0,.019,0,.037v.038c0,.013,0,.025,0,.038s0,.025,0,.038v.038c0,.013,0,.025,0,.038s0,.025,0,.038,0,.025,0,.038l0,.038,0,.038,0,.038,0,.038,0,.038,0,.038,0,.038,0,.038c0,.013,0,.026,0,.038l-.512-.031-.512-.031-.512-.031-.512-.031-.512-.031-.512-.031-.512-.031-.512-.031-.512-.031-.512-.031-.512-.031-.512-.031-.512-.031-.512-.031-.512-.031-.512-.031-.512-.031-.512-.031-.512-.031-.512-.031-.512-.031-.512-.031-.512-.031-.512-.031-.512-.031-.512-.031-.512-.031-.512-.031-.512-.031-.512-.031-.512-.031-.512-.031c0-.018,0-.036,0-.055s0-.036,0-.054,0-.036,0-.054l0-.054c0-.018,0-.036,0-.054s0-.036,0-.054l0-.054,0-.054c0-.018,0-.036,0-.053s0-.036,0-.053l0-.053,0-.053c0-.018,0-.035,0-.053l0-.053c0-.018,0-.035,0-.053l0-.053,0-.052c0-.018,0-.035,0-.052l0-.052c0-.017,0-.035,0-.052l0-.052,0-.052,0-.052,0-.052,0-.052c0-.017,0-.034,0-.051l0-.051,0-.051,0-.051c0-.017,0-.034,0-.051l0-.051,0-.051,0-.051c0-.017,0-.034,0-.051s0-.034,0-.051l0-.051,0-.051q0-.026,0-.051c0-.017,0-.034,0-.051s0-.034,0-.051,0-.034,0-.052,0-.034,0-.052,0-.034,0-.052,0-.035,0-.052,0-.035,0-.052,0-.035,0-.052,0-.035,0-.052,0-.035,0-.052,0-.035,0-.053,0-.035,0-.053,0-.035,0-.053,0-.035,0-.053,0-.035,0-.053v-.053c0-.018,0-.035,0-.053s0-.036,0-.053,0-.036,0-.053l0-.054,0-.054,0-.054c0-.018,0-.036,0-.054s0-.036,0-.054l0-.054c0-.018,0-.036,0-.054q.008-.136.018-.271t.021-.269q.012-.134.025-.267t.028-.265q.015-.132.032-.263t.035-.261q.018-.13.039-.259t.042-.257q.022-.128.046-.255t.049-.253q.025-.126.053-.251t.056-.25q.029-.124.06-.248t.063-.246q.032-.122.066-.244t.07-.242q.036-.12.073-.24t.077-.238q.039-.119.08-.236t.084-.234q.043-.117.087-.232t.091-.23q.046-.115.094-.229t.1-.227q.05-.113.1-.225t.1-.223q.053-.111.108-.221t.111-.219q.057-.109.115-.217t.118-.215q.06-.107.122-.213t.125-.211q.064-.105.128-.209t.131-.207q.066-.1.134-.205t.136-.2l.139-.2.142-.2q.071-.1.144-.2t.147-.194l.149-.192.152-.19.155-.188.157-.186.16-.183.163-.181.165-.179.168-.177.171-.175.173-.173.176-.17.178-.168.181-.166.184-.164.186-.162.189-.16.192-.158.194-.155.2-.153.2-.151.2-.149.2-.147.208-.145.21-.142.213-.14.215-.138.217-.135.219-.133.221-.131.224-.128.226-.126.228-.123.23-.121.233-.119.235-.116.237-.114.24-.112.242-.109.244-.107.246-.1.249-.1.251-.1.253-.1.255-.095.257-.092.26-.09.262-.088.264-.085.266-.083.269-.08.271-.078.273-.076.275-.073.278-.071.28-.068.282-.066.284-.063.285-.061.287-.058.288-.056.29-.053.291-.05.292-.048.294-.045.3-.042.3-.04.3-.037.3-.034.3-.032.3-.029.3-.026.305-.024.307-.021.308-.019.31-.016.311-.013.312-.011.314-.008.315-.005.317,0h.318l.319,0,.321.005.322.008.324.01.325.013.326.016.328.018" transform="translate(-511.263 -330.39)" fill="#1682fb"/>
        <path id="Trazado_829970" data-name="Trazado 829970" d="M812.69,1227.53l-.48-.029-.48-.029-.48-.029-.48-.029-.48-.029-.48-.029-.48-.029-.48-.029-.48-.029-.48-.029-.48-.029-.48-.029-.48-.029-.48-.029-.48-.029-.48-.029-.48-.029-.48-.029-.48-.029-.48-.029-.48-.029-.48-.029-.48-.029-.48-.029-.48-.029-.48-.029-.48-.029-.48-.029-.48-.029-.48-.029-.48-.029-.48-.029.027-.448.027-.448.027-.448.027-.448.027-.448.027-.448.027-.448.027-.448.027-.448.027-.448.027-.448.027-.448.027-.448.027-.448.027-.448.027-.448.027-.448.027-.448.027-.448.027-.448.027-.448.027-.448.027-.448.027-.449.027-.448.027-.448.027-.449.027-.448.027-.448.027-.449.027-.448.027-.448.48.029.48.029.48.029.48.029.48.029.48.029.48.029.48.029.48.029.48.029.48.029.48.029.48.029.48.029.48.029.48.029.48.029.48.029.48.029.48.029.48.029.48.029.48.029.48.029.48.029.48.029.48.029.48.029.48.029.48.029.48.029.48.029-.027.448-.027.448-.027.449-.027.448-.027.448-.027.449-.027.448-.027.448-.027.449-.027.448-.027.448-.027.449-.027.448-.027.448-.027.449-.027.448-.027.448-.027.448-.027.449-.027.448-.027.448-.027.449-.027.448-.027.448-.027.448-.027.448-.027.448-.027.448-.027.448-.027.448-.027.448Z" transform="translate(-753.374 -1145.448)" fill="#1682fb"/>
        <path id="Trazado_829971" data-name="Trazado 829971" d="M501.148,378.129H485.609v-6.51q0-.051,0-.1t0-.1c0-.034,0-.068,0-.1s0-.068.006-.1,0-.068.008-.1.006-.068.009-.1.007-.067.011-.1.008-.067.013-.1.009-.067.015-.1.011-.067.016-.1.012-.067.018-.1.013-.066.02-.1.014-.066.021-.1.015-.066.023-.1.016-.066.025-.1.017-.065.026-.1.018-.065.028-.1.02-.065.03-.1.021-.065.031-.1l.033-.1.035-.1.037-.1.038-.1.04-.1.042-.095.043-.094.045-.094.047-.093.048-.093.05-.093.052-.092.053-.092.054-.09.055-.09.056-.09.057-.09.058-.09.059-.09.059-.09.06-.089.061-.089.062-.089.063-.089.064-.089.065-.089.066-.089.067-.088.068-.088.069-.088.07-.088.07-.088.071-.088.072-.087.073-.087.074-.087.075-.087.076-.087.077-.086.077-.086.078-.086.079-.086.08-.085.081-.085.082-.085.082-.085.082-.085.083-.084.083-.084.084-.084.084-.084.084-.084.085-.084.085-.084.085-.084.086-.084.086-.084.086-.084.087-.084.087-.084.087-.083.088-.083.088-.083.088-.083.089-.083.089-.083.089-.083.089-.083.09-.082.09-.082.09-.082.091-.082.091-.082.091-.082.091-.082.092-.081.092-.081.092-.081.091-.082.091-.082.091-.082.091-.082.09-.083.09-.083.09-.083.089-.083.089-.083.089-.084.088-.084.088-.084.088-.084.087-.085.087-.085.087-.085.086-.085.086-.085.086-.085.085-.086.085-.086.085-.086.084-.086.084-.086.083-.087.083-.087.083-.087.082-.087.082-.087.081-.087.081-.087.08-.087.079-.087.078-.088.077-.088.077-.088.076-.089.075-.089.074-.089.073-.089.072-.09.072-.09.071-.09.07-.09.069-.091.068-.091.067-.091.066-.091.066-.091.065-.092.064-.092.063-.092.062-.092.061-.092.06-.093.059-.093.058-.093.057-.093.056-.093.056-.093.055-.094.054-.094.053-.094.051-.093.049-.094.048-.094.046-.095.044-.1.043-.1.041-.1.04-.1.038-.1.036-.1.035-.1.033-.1.032-.1.03-.1q.015-.051.028-.1t.027-.1q.013-.051.025-.1t.024-.1q.011-.052.022-.1t.02-.1q.01-.053.019-.105t.017-.106q.008-.053.015-.106t.014-.107q.007-.054.012-.107t.011-.108c0-.036.006-.072.009-.108s.005-.073.007-.109,0-.073.006-.11,0-.073,0-.11,0-.074,0-.111,0-.074,0-.111,0-.049,0-.074,0-.049,0-.074,0-.049,0-.074,0-.049,0-.074,0-.049,0-.074,0-.049,0-.074,0-.049,0-.073,0-.049-.006-.073,0-.049-.006-.073,0-.049-.007-.073-.005-.049-.008-.073l-.009-.073c0-.024-.006-.048-.009-.073l-.01-.072-.011-.072q-.006-.036-.012-.072l-.012-.072-.013-.072-.014-.072-.015-.071-.015-.071-.016-.071-.017-.071-.018-.071-.018-.07-.019-.07-.02-.07-.02-.07-.021-.07-.022-.069-.023-.069-.023-.069-.024-.068-.025-.068-.026-.067-.026-.067-.027-.066-.028-.066-.028-.065-.029-.065-.03-.064-.031-.064-.031-.063-.032-.063-.033-.062-.033-.062-.034-.061-.035-.061-.036-.06-.036-.06-.037-.059-.038-.058-.038-.058-.039-.057-.04-.057-.04-.056-.041-.056-.042-.055-.042-.055-.043-.054-.044-.053-.044-.053-.045-.052-.046-.052-.046-.051-.047-.051-.048-.05-.048-.049-.049-.049-.05-.048-.05-.048-.051-.047-.052-.046-.052-.046-.053-.045-.054-.045-.054-.044-.055-.043-.056-.043-.056-.042-.057-.042-.057-.041-.058-.04-.059-.04-.059-.039-.06-.038-.06-.038-.061-.037-.062-.037-.062-.036-.063-.035-.063-.035-.064-.034-.065-.033-.065-.033-.066-.032-.066-.031-.067-.03-.067-.029-.068-.028-.069-.027-.069-.026-.07-.025-.071-.024-.071-.023-.072-.022-.072-.021-.073-.02-.074-.019-.074-.018-.075-.017-.075-.016-.076-.015-.077-.014-.077-.013-.078-.012-.078-.011-.079-.01-.079-.009-.08-.008-.08-.008-.081-.006-.082-.005-.082,0-.083,0-.083,0h-.278l-.109,0-.108,0-.107,0-.105.006-.1.007-.1.008-.1.009-.1.011-.1.012-.1.013-.1.014-.1.016-.094.017-.092.018-.091.019-.09.02-.088.022-.087.023-.086.024-.084.025-.083.027-.082.028-.08.029-.079.03-.077.031-.076.033-.075.034-.073.035-.072.036-.07.038-.069.039-.068.04-.067.041-.066.041-.065.042-.064.043-.063.044-.062.044-.062.045-.061.046-.06.047-.059.047-.058.048-.057.049-.056.05-.055.05-.054.051-.053.052-.052.053-.051.053-.05.054-.049.055-.048.056-.047.056-.046.057-.045.058-.044.058-.043.059-.042.06-.041.06-.04.061-.039.062-.038.063-.038.064-.037.064-.036.065-.036.066-.035.066-.034.067-.033.067-.033.068-.032.069-.031.069-.03.07-.029.071-.029.071-.028.072-.027.072-.026.073-.026.074-.025.074-.024.075-.023.075-.022.076-.022.076-.021.077-.02.078-.019.078-.018.079-.018.079-.017.08-.016.08-.015.081-.015.081-.014.082-.013.083-.013.083-.012.083-.012.083-.012.084-.011.084-.011.084-.01.084-.01.084q0,.042-.009.084l-.009.085-.009.085q0,.042-.008.085t-.008.085q0,.043-.007.085l-.007.085-.007.085-.006.085q0,.043-.006.085t-.005.085c0,.029,0,.057,0,.086s0,.057,0,.086,0,.057,0,.086,0,.057,0,.086,0,.057,0,.086,0,.057,0,.086,0,.057,0,.086,0,.057,0,.086,0,.057,0,.086,0,.057,0,.086,0,.057,0,.086,0,.057,0,.086v1.2c0,.012,0,.024,0,.036s0,.024,0,.036,0,.024,0,.036,0,.024,0,.036,0,.024,0,.036,0,.024,0,.036,0,.024,0,.036v.036c0,.012,0,.024,0,.037l0,.037,0,.037c0,.012,0,.024,0,.037s0,.025,0,.037l0,.037c0,.012,0,.025,0,.037l0,.037,0,.037,0,.037,0,.037,0,.037,0,.037,0,.037,0,.037,0,.037,0,.037,0,.037,0,.037,0,.037,0,.037,0,.037.005.037.005.037v.174H469.214v-.137l-.006-.054-.005-.054-.006-.054-.005-.054-.005-.054-.005-.054-.005-.054-.006-.053-.005-.053-.005-.053-.005-.053-.005-.053-.005-.053-.005-.053-.005-.053-.005-.052-.005-.052-.005-.052-.005-.052-.005-.052-.005-.052-.005-.052-.005-.052-.005-.051-.005-.051-.005-.051-.005-.051-.005-.051-.005-.051-.005-.051-.005-.051-.005-.05-.005-.05-.005-.051-.005-.051,0-.051,0-.051,0-.051,0-.052,0-.052,0-.052,0-.052,0-.052,0-.052,0-.052,0-.053q0-.026,0-.053l0-.053q0-.027,0-.053l0-.053,0-.053,0-.053,0-.054q0-.027,0-.054t0-.054c0-.018,0-.036,0-.054s0-.036,0-.054,0-.036,0-.054,0-.036,0-.054,0-.036,0-.054,0-.036,0-.055,0-.036,0-.055,0-.036,0-.055,0-.037,0-.055q0-.137,0-.272t.005-.271q0-.135.009-.269t.013-.268q.007-.134.016-.266t.02-.265q.011-.132.024-.263t.027-.262q.014-.13.031-.26t.034-.258q.018-.129.038-.257t.042-.255q.022-.127.045-.254t.049-.252q.025-.125.052-.25t.056-.248q.029-.124.06-.247t.063-.245q.033-.122.067-.243t.07-.242q.036-.12.074-.24t.078-.238q.04-.119.081-.236t.085-.234q.043-.117.088-.233t.092-.231q.047-.115.1-.229t.1-.227q.05-.113.1-.225t.106-.223q.054-.111.11-.222t.113-.22q.057-.109.116-.218t.119-.216q.06-.107.122-.214t.125-.212q.063-.105.128-.21t.131-.208l.133-.206q.067-.1.136-.2t.139-.2q.07-.1.142-.2t.145-.2l.148-.2.15-.195.153-.193.156-.191.159-.189.162-.187.164-.185.167-.183.17-.181.173-.178.175-.177.178-.174.181-.172.183-.17.186-.168.189-.166.192-.164L475.3,341l.2-.16.2-.158.2-.155.2-.153.207-.151.21-.149.212-.146.215-.144.217-.142.22-.14.222-.138.225-.135.227-.133.23-.131.232-.129.234-.127.237-.124.239-.122.242-.12.244-.118.246-.115.249-.113.251-.111.253-.108.256-.106.258-.1.26-.1.263-.1.265-.1.267-.095.269-.092.271-.09.274-.088.276-.085.278-.083.28-.08.282-.078.283-.075.285-.073.287-.07.289-.068.29-.065.292-.063.294-.06.3-.058.3-.055.3-.053.3-.05.3-.047.3-.045.305-.042.307-.04.308-.037.31-.035.311-.032.313-.03.314-.027.316-.024.317-.022.319-.019.32-.017.322-.014.323-.012.324-.009.326-.006.327,0h.646l.316,0,.314.006.313.009.311.011.31.014.308.016.307.019.3.022.3.024.3.027.3.029.3.032.3.034.3.037.293.039.292.042.29.044.288.047.286.049.285.052.283.054.281.057.279.059.277.062.275.064.273.067.272.069.27.072.268.074.266.077.264.079.262.082.26.084.258.086.255.088.253.09.251.093.249.095.247.1.244.1.242.1.24.1.238.106.235.108.233.11.231.112.228.114.226.116.224.118.221.121.219.123.217.125.214.127.212.129.209.131.207.133.2.135.2.137.2.139.2.142.195.144.192.146.19.148.187.15.185.152.182.154.18.156.177.158.174.16.172.162.169.165.167.167.164.169.162.171.159.173.156.175.154.177.151.179.149.181.146.183q.072.092.143.185l.141.186.138.188.135.19q.067.1.133.192l.13.194.127.2.124.2q.061.1.122.2t.119.2q.059.1.116.2t.114.205q.056.1.111.207t.108.209q.053.1.105.211t.1.213q.05.107.1.214t.1.216q.047.108.093.218t.089.219q.044.11.086.221t.083.223q.041.112.08.224t.077.226q.037.113.073.227t.07.229q.034.115.067.23t.064.232q.031.116.06.234t.057.235q.028.118.054.237t.051.238q.025.119.047.24t.044.241q.021.121.041.242t.038.244q.018.122.034.245t.031.247q.015.124.028.248t.025.249q.012.125.021.251t.018.252q.008.126.015.253t.011.255q0,.128.008.256t0,.257q0,.129,0,.259,0,.1,0,.191t0,.19q0,.095-.006.189t-.008.187q0,.093-.01.186t-.012.185q-.007.092-.015.184t-.017.182q-.009.091-.019.181t-.021.18q-.011.09-.024.178t-.026.177q-.013.088-.028.176t-.03.175q-.016.087-.033.173t-.035.172q-.018.086-.037.17t-.039.169q-.02.084-.042.168t-.044.166q-.022.083-.046.165t-.048.164q-.025.081-.05.162t-.053.161q-.027.08-.055.159t-.057.158q-.029.079-.059.156t-.061.155q-.031.077-.064.153t-.066.152q-.034.076-.068.151t-.07.149l-.072.147-.073.146-.074.146-.075.145-.076.144-.078.143-.079.142-.08.141-.081.141-.082.14-.083.139-.084.138-.086.137-.087.136-.088.135-.089.134-.09.134-.091.133-.092.132-.093.131-.094.13-.1.129-.1.128-.1.127-.1.126-.1.125-.1.124-.1.123-.1.122-.1.121-.1.12-.106.119-.107.118-.107.117-.108.117-.108.116-.109.115-.11.115-.11.114-.111.113-.111.112-.112.111-.112.111-.113.11-.113.109-.114.108-.114.107-.115.107-.115.106-.116.105-.116.1-.117.1-.117.1-.118.1-.118.1-.119.1-.119.1-.12.1-.12.1-.121.1-.121.1-.121.095-.122.094-.122.093-.122.092-.121.092-.121.091-.121.091-.12.09-.12.09-.119.09-.119.089-.118.089-.118.088-.117.088-.117.087-.116.087-.116.086-.115.086-.115.086-.114.085-.114.085-.113.084-.113.084-.112.083-.112.083-.111.082-.111.082-.11.081-.109.081-.109.08-.108.08-.108.079-.107.078-.106.078-.106.077-.1.077-.1.076-.1.076-.1.076-.1.076-.1.076-.1.076-.1.075-.1.075-.1.075-.094.075-.093.075-.092.075-.091.074-.09.074-.089.074-.088.074-.086.074-.085.073-.084.073-.083.073-.082.073-.081.072-.08.072-.079.072-.077.072-.076.071-.075.071-.074.071-.073.071-.072.07-.071.07-.067.068-.065.068-.062.068-.06.068-.058.068-.056.068-.054.068-.052.068-.05.068-.048.068-.046.069-.044.069-.041.069-.039.069-.037.069-.035.069-.033.069-.031.069q-.015.034-.029.069l-.027.069q-.013.035-.025.069t-.022.069c-.007.023-.014.046-.02.069s-.012.046-.018.069-.011.046-.016.069-.01.046-.014.069-.008.046-.012.069-.007.046-.01.069-.005.046-.008.069,0,.046-.005.069,0,.046,0,.069,0,.046,0,.069v3.941Zm-15.234-.3h14.93v-3.637q0-.039,0-.077t0-.077q0-.038.006-.077t.008-.077c0-.026.007-.051.01-.077s.008-.051.013-.077.01-.051.015-.077.011-.051.017-.077.013-.051.02-.076.014-.051.022-.076.016-.051.024-.076.017-.051.027-.076.019-.051.029-.076l.031-.076.033-.076.036-.076.038-.076.04-.075.043-.075.045-.075.047-.075.049-.075.052-.075.054-.075.056-.074.058-.074.061-.074.063-.074.065-.074.068-.074.07-.073.072-.073.072-.071.073-.071.074-.072.075-.072.076-.072.077-.072.079-.073.08-.073.081-.073.082-.073.083-.074.084-.074.085-.074.086-.074.087-.074.089-.075.09-.075.091-.075.092-.075.093-.075.094-.076.1-.076.1-.076.1-.076.1-.076.1-.077.1-.077.1-.077.1-.077.1-.077.1-.077.106-.077.106-.077.106-.078.107-.078.107-.079.108-.079.109-.08.109-.08.11-.081.11-.081.111-.082.111-.083.112-.083.113-.083.113-.084.114-.084.114-.085.115-.085.115-.086.116-.086.116-.087.117-.087.117-.088.118-.088.118-.089.119-.089.119-.089.12-.09.12-.09.12-.091.121-.091.121-.092.122-.092.121-.092.12-.093.12-.094.12-.094.119-.1.119-.1.118-.1.118-.1.117-.1.117-.1.117-.1.116-.1.115-.1.115-.1.115-.1.114-.1.114-.105.113-.106.113-.107.112-.108.112-.109.111-.109.111-.11.11-.111.109-.112.109-.112.108-.113.108-.114.107-.115.107-.115.106-.116.105-.117.1-.117.1-.118.1-.119.1-.12.1-.121.1-.122.1-.123.1-.124.1-.125.095-.126.094-.127.093-.128.092-.129.091-.13.089-.13.088-.131.087-.132.086-.133.085-.134.084-.135.083-.136.082-.137.081-.137.08-.138.078-.139.077-.14.076-.141.075-.142.074-.142.073-.143.072-.144.071-.145.068-.145q.034-.073.066-.147t.064-.148q.032-.074.062-.15t.06-.151q.029-.076.058-.152t.055-.154q.027-.077.053-.155t.051-.157q.025-.079.049-.158t.047-.159q.023-.08.045-.161t.043-.162q.021-.081.04-.164t.038-.165q.019-.083.036-.166t.034-.168q.016-.084.032-.169t.03-.17q.014-.086.027-.172t.025-.173q.012-.087.023-.174t.021-.176q.01-.088.019-.177t.016-.178q.008-.089.014-.179t.012-.181q.005-.091.01-.182t.008-.183q0-.092.006-.184t0-.186q0-.093,0-.187,0-.127,0-.254t0-.253q0-.126-.008-.252t-.011-.25q-.006-.125-.015-.249t-.018-.248q-.01-.124-.021-.246t-.024-.245q-.013-.122-.027-.244t-.031-.242q-.016-.121-.034-.241t-.037-.24q-.019-.119-.04-.238t-.043-.237q-.022-.118-.047-.235t-.05-.234q-.026-.117-.053-.232t-.056-.231q-.029-.115-.059-.229t-.062-.228q-.032-.114-.066-.226t-.069-.225q-.035-.112-.072-.223t-.075-.222q-.038-.11-.078-.22t-.081-.219q-.042-.109-.085-.217t-.088-.215q-.045-.107-.091-.214t-.094-.212q-.048-.106-.1-.21t-.1-.209q-.051-.1-.1-.207t-.106-.205q-.054-.1-.109-.2t-.111-.2l-.114-.2-.117-.2q-.059-.1-.12-.2t-.122-.194q-.062-.1-.125-.193l-.128-.191q-.064-.095-.13-.189l-.133-.187-.135-.185-.138-.183-.141-.181-.143-.179-.146-.177-.148-.175-.151-.174-.154-.171-.156-.17-.159-.168-.161-.166-.164-.164-.166-.162-.169-.16-.171-.158-.174-.156-.176-.153-.179-.151-.181-.149-.184-.147-.187-.145-.189-.143-.192-.141-.194-.139-.2-.137-.2-.135-.2-.133-.2-.131-.206-.129-.209-.127-.211-.125-.214-.123-.216-.121-.218-.119-.221-.117-.223-.115-.225-.113-.228-.111-.23-.108-.232-.106-.234-.1-.237-.1-.239-.1-.241-.1-.243-.1-.246-.094-.248-.091-.25-.089-.252-.087-.254-.085-.256-.083-.258-.08-.261-.078-.263-.076-.265-.073-.267-.071-.269-.068-.271-.066-.273-.063-.274-.061-.276-.059-.278-.056-.28-.054-.282-.051-.284-.049-.285-.046-.287-.044-.289-.041-.291-.039-.292-.036-.294-.034-.3-.031-.3-.029-.3-.026-.3-.024-.3-.021-.3-.019-.305-.016-.307-.014-.308-.011-.31-.009-.312-.006-.313,0h-.64l-.324,0-.323.006-.322.009-.32.012-.319.014-.318.017-.316.019-.315.022-.313.024-.312.027-.31.029-.309.032-.307.034-.306.037-.3.039-.3.042-.3.044-.3.047-.3.05-.3.052-.294.055-.293.057-.291.06-.289.062-.288.065-.286.067-.284.07-.282.072-.281.075-.279.077-.277.08-.275.082-.273.084-.27.087-.268.089-.266.091-.264.093-.262.1-.259.1-.257.1-.255.1-.253.1-.25.107-.248.109-.246.112-.243.114-.241.116-.239.118-.236.121-.234.123-.231.125-.229.127-.227.129-.224.131-.222.134-.219.136-.217.138-.214.14-.212.142-.209.145-.207.147-.2.149-.2.151-.2.153-.2.155-.194.157-.191.159-.188.161-.186.163-.183.165-.18.167-.178.169-.175.172-.172.174-.17.176-.167.178-.164.18-.162.182-.159.184-.156.185-.153.187-.151.189-.148.191-.145.193-.142.2-.14.2q-.069.1-.137.2t-.134.2l-.131.2q-.065.1-.128.2t-.125.207q-.062.1-.123.208t-.12.21q-.059.105-.117.212t-.114.214q-.056.107-.111.216t-.107.217q-.053.109-.1.219t-.1.221q-.049.111-.1.223t-.094.225q-.046.113-.09.227t-.087.228q-.042.115-.083.23t-.08.232q-.039.116-.076.234t-.073.235q-.035.118-.069.237t-.065.239q-.032.12-.062.241t-.059.242q-.028.122-.055.244t-.051.246q-.025.123-.048.247t-.044.249q-.021.125-.041.251t-.037.252q-.018.127-.034.254t-.03.255q-.014.128-.027.257t-.023.259q-.011.13-.02.26t-.016.262q-.007.131-.012.263t-.009.265q0,.133-.005.266t0,.268c0,.018,0,.036,0,.054s0,.036,0,.054,0,.036,0,.054,0,.036,0,.053,0,.036,0,.053,0,.036,0,.053,0,.036,0,.053,0,.035,0,.053,0,.035,0,.053,0,.035,0,.053,0,.035,0,.053l0,.053c0,.017,0,.035,0,.052s0,.035,0,.052l0,.052,0,.052,0,.052,0,.052,0,.052,0,.051,0,.051c0,.017,0,.034,0,.051l0,.051,0,.051,0,.051,0,.05,0,.05,0,.05,0,.05,0,.05.005.05.005.049,0,.047.005.047,0,.047,0,.047.005.047.005.047,0,.047.005.047.005.047,0,.047.005.048.005.048.005.048.005.048,0,.048.005.048.005.048.005.048.005.048.005.048.005.049.005.049.005.049.005.049.005.049.005.049.005.049.005.049.005.049.005.05.005.05.005.05h16.1l0-.033,0-.033,0-.033,0-.033,0-.033,0-.033,0-.033,0-.033,0-.033,0-.033,0-.033,0-.033,0-.033,0-.033,0-.033,0-.033,0-.033,0-.033,0-.033,0-.033v-.1c0-.011,0-.022,0-.032v-.1c0-.011,0-.022,0-.032s0-.022,0-.032,0-.021,0-.032,0-.021,0-.032,0-.021,0-.032v-1.2q0-.044,0-.088t0-.088c0-.029,0-.058,0-.088s0-.058,0-.088,0-.058,0-.087,0-.058,0-.087,0-.058,0-.087,0-.058,0-.087,0-.058,0-.087,0-.058,0-.087,0-.058,0-.087,0-.058,0-.087,0-.058.005-.087,0-.058.006-.087l.006-.087.007-.087.007-.087.007-.087.008-.086.008-.086.009-.086.009-.086.01-.086.01-.086.011-.086q.005-.043.011-.086l.011-.085.012-.085.012-.085.013-.085.013-.085.013-.085q.007-.043.014-.086l.015-.085.016-.084q.008-.042.017-.084l.018-.083.018-.083.019-.082.02-.082.021-.081.022-.081.023-.08.023-.079.024-.079.025-.078.026-.078.027-.077.028-.076.028-.076.029-.075.03-.075.031-.074.032-.073.033-.073.033-.072.034-.071.035-.071.036-.07.037-.069.037-.069.038-.068.039-.068.04-.067.041-.067.042-.066.043-.065.044-.064.045-.064.046-.063.047-.062.048-.061.049-.061.05-.06.051-.059.052-.058.053-.058.054-.057.055-.056.056-.055.057-.054.058-.054.059-.053.06-.052.061-.051.062-.05.063-.05.064-.049.065-.048.066-.047.067-.046.068-.046.069-.045.07-.044.071-.043.072-.042.073-.041.075-.04.076-.039.078-.037.079-.036.081-.035.082-.033.083-.032.085-.031.086-.03.088-.028.089-.027.09-.026.092-.024.093-.023.094-.022.1-.02.1-.019.1-.018.1-.016.1-.015.1-.014.1-.013.105-.011.107-.01.108-.009.109-.007.111-.006.112,0,.113,0,.114,0h.2l.088,0,.087,0,.087,0,.086,0,.086.006.085.007.085.008.084.009.084.01.083.011.082.012.082.013.081.014.081.015.08.016.079.017.079.018.078.019.078.021.077.022.076.023.076.024.075.025.075.026.074.027.073.028.073.029.072.03.071.031.071.032.07.033.069.034.069.034.068.035.067.036.067.036.066.037.065.038.065.038.064.039.064.04.063.04.062.041.062.042.061.042.06.043.06.044.059.044.058.045.058.046.057.046.057.047.056.048.055.048.054.049.054.049.053.05.052.051.052.051.051.052.05.053.05.053.049.054.048.055.048.055.047.056.046.056.045.057.045.058.044.058.043.059.043.059.042.06.041.061.04.061.04.062.039.062.038.063.037.063.037.064.036.064.035.065.034.066.034.066.033.067.032.067.031.068.031.068.03.069.029.069.028.07.028.07.027.071.026.071.025.072.025.072.024.072.023.073.022.073.021.073.021.073.02.073.019.074.018.074.018.074.017.074.016.074.015.075.014.075.014.075q.007.037.013.075c0,.025.008.05.012.075s.008.05.011.075.007.05.011.076.007.051.01.076.006.051.009.076.006.051.008.076.005.051.007.076,0,.051.007.076,0,.051.006.077,0,.051.005.077,0,.051,0,.077,0,.051,0,.077,0,.051,0,.077,0,.051,0,.077,0,.051,0,.077,0,.052,0,.077,0,.077,0,.116,0,.077,0,.115,0,.077,0,.115,0,.076-.006.114,0,.076-.008.114-.006.076-.009.113-.007.075-.011.113-.008.075-.013.112-.009.075-.014.112-.011.074-.016.111-.012.074-.018.111-.013.073-.02.11-.014.073-.021.109-.015.073-.023.109-.016.072-.025.108-.017.072-.026.108-.018.071-.028.107-.02.071-.03.106-.021.071-.031.106l-.033.105q-.017.052-.035.1l-.036.1-.038.1-.04.1-.042.1-.043.1-.045.1-.047.1-.048.1-.05.1-.052.1-.053.1-.054.1-.055.1-.056.1-.057.1-.058.1-.059.1-.059.095-.06.095-.061.095-.062.094-.063.094-.064.094-.065.094-.066.093-.067.093-.068.093-.069.093-.07.093-.07.092-.071.092-.072.092-.073.092-.074.091-.075.091-.076.091-.076.091-.077.09-.078.09-.079.09-.08.089-.081.089-.082.089-.082.088-.082.088-.082.088-.083.088-.083.087-.084.087-.084.087-.084.087-.085.087-.085.087-.086.087-.086.086-.086.086-.087.086-.087.086-.087.086-.088.085-.088.085-.088.085-.089.085-.089.085-.089.084-.09.084-.09.084-.09.084-.091.083-.091.083-.091.083-.092.083-.092.082-.092.082-.092.082-.091.081-.091.081-.091.081-.09.081-.09.081-.09.082-.09.082-.089.082-.089.082-.089.082-.089.082-.088.082-.088.082-.088.083-.087.083-.087.083-.087.083-.087.083-.086.083-.086.083-.086.083-.085.083-.085.084-.084.084-.084.084-.084.084-.083.084-.083.084-.083.084-.082.084-.082.084-.082.084-.08.083-.079.084-.078.084-.078.084-.077.084-.076.084-.075.085-.074.085-.073.085-.073.085-.072.085-.071.086-.07.086-.069.086-.068.086-.067.086-.066.086-.065.087-.065.087-.064.087-.063.087-.062.087-.061.087-.06.087-.059.088-.058.088-.057.088-.056.088-.056.088-.055.088-.054.088-.053.088-.051.087-.049.088-.048.088-.046.089-.044.089-.043.089-.041.09-.04.09-.038.09-.036.091-.035.091-.033.091-.032.092-.03.092q-.015.046-.028.093t-.027.093q-.013.046-.025.093t-.024.093q-.011.047-.022.094t-.02.094q-.01.047-.019.094t-.017.095q-.008.047-.015.1c0,.032-.009.064-.014.1s-.008.064-.012.1-.007.064-.011.1-.006.064-.009.1-.005.064-.007.1,0,.064-.006.1,0,.065,0,.1,0,.065,0,.1,0,.065,0,.1v6.205Z" transform="translate(-443.093 -316.94)"/>
        <path id="Trazado_829972" data-name="Trazado 829972" d="M787.985,1221.172h-15.7v-14.68h15.7v14.68Zm-15.4-.3h15.1V1206.8h-15.1v14.071Z" transform="translate(-729.716 -1139.997)"/>
        <path id="Trazado_829973" data-name="Trazado 829973" d="M1100.92,83.581l-.007-.006-.007-.007-.007-.006-.007-.006-.007-.007-.007-.006-.007-.006-.007-.007-.007-.006-.007-.006-.007-.006-.007-.006-.007-.007-.007-.006-.007-.006-.007-.007-.007-.006-.007-.006-.007-.007-.007-.006-.007-.006-.007-.007-.007-.006-.007-.006-.007-.007-.007-.006-.007-.006-.007-.007-.007-.006-.007-.007-.007-.006-.007-.006.369-.4.369-.4.369-.4.369-.4.369-.4.369-.4.369-.4.369-.4.369-.4.369-.4.369-.4.369-.4.369-.4.369-.4.369-.4.369-.4.369-.4.369-.4.369-.4.369-.4.369-.4.369-.4.369-.4.369-.4.369-.4.369-.4.369-.4.369-.4.369-.4.369-.4.369-.4.369-.4.007.007.007.006.007.006.007.006.007.007.007.006.007.007.007.006.007.006.007.006.007.007.007.006.007.006.007.007.007.006.007.006.007.007.007.006.007.006.007.007.007.006.007.006.007.007.007.006.007.006.007.007.007.006.007.006.007.007.007.006.007.006.007.007-.369.4-.369.4-.369.4-.369.4-.369.4-.369.4-.369.4-.369.4-.369.4-.369.4-.369.4-.369.4-.369.4-.369.4-.369.4-.369.4-.369.4-.369.4-.369.4-.369.4-.369.4-.369.4-.369.4-.369.4-.369.4-.369.4-.369.4-.369.4-.369.4-.369.4-.369.4Z" transform="translate(-1040.032 -66.746)"/>
        <path id="Trazado_829974" data-name="Trazado 829974" d="M1271.441,320.845l0-.008,0-.009,0-.008,0-.009,0-.008,0-.009,0-.008,0-.008,0-.009,0-.008,0-.009,0-.008,0-.009,0-.008,0-.008,0-.009,0-.008,0-.009,0-.008,0-.008,0-.009,0-.008,0-.009,0-.008,0-.009,0-.009,0-.009,0-.008,0-.008,0-.009,0-.008,0-.009.173-.086.173-.086.173-.086.173-.086.173-.086.173-.086.173-.086.173-.086.172-.086.173-.086.173-.086.173-.086.173-.086.173-.086.173-.086.173-.086.173-.086.173-.086.172-.086.173-.086.173-.086.173-.086.173-.086.173-.086.173-.086.173-.086.173-.086.173-.086.173-.086.173-.086.173-.086.173-.086,0,.008,0,.009,0,.008,0,.009,0,.008,0,.009,0,.009,0,.008,0,.009,0,.008,0,.009,0,.009,0,.009,0,.008,0,.008,0,.009,0,.008,0,.009,0,.008,0,.009,0,.008,0,.009,0,.009,0,.008,0,.009,0,.008,0,.009,0,.008,0,.008,0,.009,0,.008,0,.009-.173.086-.173.086-.173.086-.173.086-.173.086-.173.086-.173.086-.172.086-.173.086-.173.086-.173.086-.173.086-.173.086-.173.086-.173.086-.173.086-.173.086-.173.086-.173.086-.173.086-.173.086-.173.086-.173.086-.173.086-.173.086-.173.086-.173.086-.173.086-.173.086-.173.086-.173.086Z" transform="translate(-1201.238 -300.295)"/>
        <path id="Trazado_829975" data-name="Trazado 829975" d="M1386.052,414.837l0-.009,0-.009,0-.009,0-.009,0-.009,0-.009,0-.009,0-.009,0-.009,0-.009,0-.009,0-.009,0-.009,0-.009,0-.009,0-.009,0-.009,0-.009,0-.009,0-.009,0-.009,0-.009,0-.009,0-.009,0-.009,0-.009,0-.009,0-.009,0-.009,0-.009,0-.009,0-.009.6-.158.6-.158.6-.158.6-.158.6-.158.6-.158.6-.158.6-.158.6-.158.6-.158.6-.158.6-.158.6-.158.6-.158.6-.158.6-.158.6-.158.6-.158.6-.158.6-.158.6-.158.6-.158.6-.158.6-.158.6-.158.6-.158.6-.158.6-.158.6-.158.6-.158.6-.158.6-.158,0,.009,0,.009,0,.009,0,.009,0,.009,0,.009,0,.009,0,.009,0,.009,0,.009,0,.009,0,.009,0,.009,0,.009,0,.009,0,.009,0,.009,0,.009,0,.009,0,.009,0,.009,0,.009,0,.009,0,.009,0,.009,0,.009,0,.009,0,.009,0,.009,0,.009,0,.009,0,.009-.6.158-.6.158-.6.158-.6.158-.6.158-.6.158-.6.158-.6.158-.6.158-.6.158-.6.158-.6.158-.6.158-.6.158-.6.158-.6.158-.6.158-.6.158-.6.158-.6.158-.6.158-.6.158-.6.158-.6.158-.6.158-.6.158-.6.158-.6.158-.6.158-.6.158-.6.158Z" transform="translate(-1309.587 -386.911)"/>
        <path id="Trazado_829976" data-name="Trazado 829976" d="M1456.109,630.395v-.3l.35-.024.35-.024.35-.024.35-.024.35-.024.35-.024.35-.024.35-.024.35-.024.35-.024.35-.024.35-.024.35-.024.35-.024.35-.024.35-.024.35-.024.35-.024.35-.024.35-.024.35-.024.35-.024.35-.024.35-.024.35-.024.35-.024.35-.024.35-.024.35-.024.35-.024.35-.024.35-.024v.3l-.35.024-.35.024-.35.024-.35.024-.35.024-.35.024-.35.024-.35.024-.35.024-.35.024-.35.024-.35.024-.35.024-.35.024-.35.024-.35.024-.35.024-.35.024-.35.024-.35.024-.35.024-.35.024-.35.024-.35.024-.35.024-.35.024-.35.024-.35.024-.35.024-.35.024-.35.024Z" transform="translate(-1375.837 -594.639)"/>
        <path id="Trazado_829977" data-name="Trazado 829977" d="M1471.722,811.2l-.585-.106-.585-.106-.585-.105-.585-.105-.585-.105-.585-.106-.585-.105-.585-.105-.585-.105-.585-.105-.585-.106-.585-.105-.585-.105-.585-.106-.585-.105-.585-.105-.585-.105-.585-.106-.585-.106-.585-.105-.585-.105-.585-.105-.585-.105-.585-.106-.585-.106-.585-.105-.585-.105-.585-.105-.585-.106-.585-.105-.585-.105-.585-.105,0-.009,0-.009,0-.009,0-.009,0-.009,0-.009,0-.009,0-.009,0-.009,0-.009,0-.009,0-.009,0-.009,0-.009,0-.009,0-.009,0-.009,0-.009,0-.009,0-.009,0-.009,0-.009,0-.009,0-.009,0-.009,0-.009,0-.009,0-.009,0-.009,0-.009,0-.009,0-.009.585.105.585.106.585.105.585.105.585.105.585.106.585.105.585.105.585.105.585.105.585.105.585.106.585.106.585.105.585.105.585.106.585.106.585.105.585.105.585.105.585.106.585.106.585.105.585.105.585.105.585.105.585.106.585.105.585.106.585.105.585.105.585.106,0,.009,0,.009,0,.009,0,.009,0,.009,0,.009,0,.009,0,.009,0,.009,0,.009,0,.009,0,.009,0,.009,0,.009,0,.009,0,.009,0,.009,0,.009,0,.009,0,.009,0,.009,0,.009,0,.009,0,.009,0,.009,0,.009,0,.009,0,.009,0,.009,0,.009,0,.009Z" transform="translate(-1372.922 -763.022)"/>
        <path id="Trazado_829978" data-name="Trazado 829978" d="M1350.653,953.616l-.3-.115-.3-.115-.3-.115-.3-.115-.3-.115-.3-.115-.3-.115-.3-.115-.3-.115-.3-.115-.3-.115-.3-.115-.3-.115-.3-.115-.3-.115-.3-.115-.3-.115-.3-.115-.3-.115-.3-.115-.3-.115-.3-.115-.3-.115-.3-.115-.3-.115-.3-.115-.3-.115-.3-.115-.3-.115-.3-.115-.3-.115-.3-.115,0-.009,0-.009,0-.009,0-.009,0-.009,0-.009,0-.009,0-.009,0-.009,0-.009,0-.009,0-.009,0-.009,0-.009,0-.009,0-.009,0-.009,0-.009,0-.009,0-.009,0-.009,0-.009,0-.009,0-.009,0-.009,0-.009,0-.009,0-.009,0-.009,0-.009,0-.009,0-.009.3.115.3.115.3.115.3.115.3.115.3.115.3.115.3.115.3.115.3.115.3.115.3.115.3.115.3.115.3.115.3.115.3.115.3.115.3.115.3.115.3.115.3.115.3.115.3.115.3.115.3.115.3.115.3.115.3.115.3.115.3.115.3.115,0,.009,0,.009,0,.009,0,.009,0,.009,0,.009,0,.009,0,.009,0,.009,0,.009,0,.009,0,.009,0,.009,0,.009,0,.009,0,.009,0,.009,0,.009,0,.009,0,.009,0,.009,0,.009,0,.009,0,.009,0,.009,0,.009,0,.009,0,.009,0,.009,0,.009,0,.009Z" transform="translate(-1267.224 -897.31)"/>
        <path id="Trazado_829979" data-name="Trazado 829979" d="M1208.348,1057.281l-.566-.388-.566-.388-.566-.388-.566-.388-.566-.388-.566-.388-.566-.388-.566-.388-.566-.388-.566-.388-.566-.388-.566-.388-.566-.389-.566-.388-.566-.388-.566-.388-.566-.388-.566-.388-.566-.388-.566-.388-.566-.388-.566-.388-.566-.388-.566-.389-.566-.388-.566-.388-.566-.389-.566-.388-.566-.388-.566-.388-.566-.388-.566-.388.005-.008.005-.008.005-.008.005-.008.005-.008.005-.008.005-.008.005-.008.005-.008.005-.008.005-.008.005-.008.005-.008.005-.008.005-.008.005-.008.005-.008.005-.008.005-.008.005-.008.005-.008.005-.008.005-.008.005-.008.005-.008.005-.008.005-.008.005-.008.005-.008.005-.008.005-.008.005-.008.566.388.566.389.566.388.566.388.566.388.566.388.566.388.566.388.566.388.566.388.566.389.566.388.566.389.566.388.566.388.566.389.566.388.566.388.566.388.566.388.566.388.566.388.566.388.566.388.566.389.566.388.566.388.566.388.566.388.566.388.566.388.566.388-.005.008-.005.008-.005.008-.005.008-.005.008-.005.008-.005.008-.005.008-.005.008-.005.008-.005.008-.005.008-.005.008-.005.008-.005.008-.005.008-.005.008-.005.008-.005.008-.005.008-.005.008-.005.008-.005.008-.005.008-.005.008-.005.008-.005.008-.005.008-.005.008-.005.008-.005.008Z" transform="translate(-1124.644 -987.029)"/>
        <path id="Trazado_829980" data-name="Trazado 829980" d="M1161.893,1208.317l-.254-.23-.254-.23-.254-.23-.254-.23-.254-.23-.254-.23-.254-.23-.254-.23-.254-.23-.254-.23-.254-.23-.254-.23-.254-.23-.254-.23-.254-.23-.254-.23-.254-.23-.254-.23-.254-.23-.254-.23-.254-.23-.254-.23-.254-.23-.254-.23-.254-.23-.254-.23-.254-.23-.254-.23-.254-.23-.254-.23-.254-.23-.254-.23.006-.007.006-.007.006-.007.006-.007.006-.007.006-.007.006-.007.006-.007.006-.007.006-.007.006-.007.006-.007.006-.007.006-.007.006-.007.006-.007.006-.007.006-.007.006-.007.006-.007.006-.007.006-.007.006-.007.006-.007.006-.007.006-.007.006-.007.006-.007.006-.007.006-.007.006-.007.006-.007.254.23.254.23.254.23.254.23.254.23.254.23.254.23.254.23.254.23.254.23.254.23.254.23.254.23.254.23.254.23.254.23.254.23.254.23.254.23.254.23.254.23.254.23.254.23.254.23.254.23.254.23.254.23.254.23.254.23.254.23.254.23.254.23-.006.007-.006.007-.006.007-.006.007-.006.007-.006.007-.006.007-.006.007-.006.007-.006.007-.006.007-.006.007-.007.007-.006.007-.006.007-.006.007-.006.007-.006.007-.006.007-.006.007-.006.007-.006.007-.006.007-.006.007-.006.007-.006.007-.006.007-.006.007-.006.007-.006.007-.006.007Z" transform="translate(-1090.172 -1134.549)"/>
        <path id="Trazado_829981" data-name="Trazado 829981" d="M1142.292,1412.6l-.436-.6-.436-.6-.436-.6-.436-.6-.436-.6-.436-.6-.436-.6-.436-.6-.436-.6-.436-.6-.436-.6-.436-.6-.436-.6-.436-.6-.436-.6-.436-.6-.436-.6-.436-.6-.436-.6-.436-.6-.436-.6-.436-.6-.436-.6-.436-.6-.436-.6-.436-.6-.436-.6-.436-.6-.436-.6-.436-.6-.436-.6-.436-.6.008-.006.008-.005.008-.006.008-.006.008-.006.008-.006.008-.005.008-.006.008-.006.008-.006.008-.006.008-.006.008-.005.008-.006.008-.006.008-.006.008-.005.008-.005.008-.006.008-.006.008-.006.008-.005.008-.006.008-.006.008-.006.008-.005.008-.006.008-.006.008-.006.008-.006.008-.006.008-.005.436.6.436.6.436.6.436.6.436.6.436.6.436.6.436.6.436.6.436.6.436.6.436.6.436.6.436.6.436.6.436.6.436.6.436.6.436.6.436.6.436.6.436.6.436.6.436.6.436.6.436.6.436.6.436.6.436.6.436.6.436.6.436.6-.008.006-.008.006-.008.005-.008.006-.008.006-.008.006-.008.006-.008.005-.008.006-.008.006-.008.005-.008.006-.008.006-.008.005-.008.006-.008.006-.008.006-.008.006-.008.005-.008.006-.008.006-.008.006-.008.006-.008.005-.008.006-.008.005-.008.006-.008.005-.008.006-.008.006-.008.005Z" transform="translate(-1066.142 -1316.451)"/>
        <path id="Trazado_829982" data-name="Trazado 829982" d="M1057.83,1555.106l-.072-.245-.072-.244-.072-.245-.072-.245-.072-.244-.072-.244-.072-.245-.072-.245-.072-.245-.072-.244-.072-.245-.072-.244-.072-.245-.072-.245-.072-.244-.072-.245-.072-.244-.072-.245-.072-.244-.072-.245-.072-.244-.072-.244-.072-.245-.072-.245-.072-.245-.072-.244-.072-.244-.072-.245-.072-.245-.072-.245-.072-.244-.072-.245.009,0,.009,0,.009,0,.009,0,.009,0,.009,0,.009,0,.009,0,.009,0,.009,0,.009,0,.009,0,.009,0,.009,0,.009,0,.009,0,.009,0,.009,0,.009,0,.009,0,.009,0,.009,0,.009,0,.009,0,.009,0,.009,0,.009,0,.009,0,.009,0,.009,0,.009,0,.009,0,.072.245.072.244.072.245.072.244.072.245.072.245.072.244.072.245.072.244.072.245.072.245.072.244.072.244.072.245.072.244.072.245.072.245.072.244.072.245.072.244.072.245.072.245.072.244.072.245.072.244.072.245.072.245.072.244.072.244.072.245.072.245.072.245-.009,0-.009,0-.009,0-.009,0-.009,0-.009,0-.009,0-.009,0-.009,0-.009,0-.009,0-.009,0-.009,0-.009,0-.009,0-.009,0-.009,0-.009,0-.009,0-.009,0-.009,0-.009,0-.009,0-.009,0-.009,0-.009,0-.009,0-.009,0-.009,0-.009,0-.009,0Z" transform="translate(-997.354 -1461.922)"/>
        <path id="Trazado_829983" data-name="Trazado 829983" d="M897.046,1570.331h-.3l.019-.527.019-.527.019-.527.019-.527.019-.527.019-.527.019-.527.019-.527.019-.527.019-.527.019-.527.019-.527.019-.527.019-.527.019-.527.019-.527.019-.527.019-.528.019-.527.019-.527.019-.527.019-.527.019-.527.019-.528.019-.527.019-.527.019-.528.019-.527.019-.527.019-.527.019-.527.019-.527h.3l-.019.527-.019.528-.019.527-.019.527-.019.527-.019.527-.019.527-.019.527-.019.527-.019.527-.019.527-.019.527-.019.527-.019.527-.019.527-.019.527-.019.527-.019.527-.019.527-.019.527-.019.527-.019.527-.019.527-.019.527-.019.527-.019.527-.019.527-.019.527-.019.527-.019.527-.019.528Z" transform="translate(-847.318 -1467.825)"/>
        <path id="Trazado_829984" data-name="Trazado 829984" d="M688.5,1540.634l-.009,0-.009,0-.009,0-.009,0-.009,0-.009,0-.008,0-.009,0-.009,0-.009,0-.009,0-.009,0-.008,0-.009,0-.009,0-.009,0-.009,0-.009,0-.009,0-.009,0-.008,0-.009,0-.009,0-.009,0-.009,0-.009,0-.009,0-.009,0-.009,0-.009,0-.009,0-.008,0,.158-.326.158-.326.158-.326.158-.326.158-.326.158-.326.158-.326.158-.326.158-.326.158-.326.158-.326.158-.326.158-.326.158-.326.158-.326.158-.326.158-.326.158-.326.158-.326.158-.326.158-.326.158-.326.158-.326.158-.326.158-.326.158-.326.158-.326.158-.326.158-.326.158-.326.158-.326.158-.326.009,0,.009,0,.008,0,.009,0,.009,0,.009,0,.009,0,.009,0,.009,0,.009,0,.009,0,.009,0,.009,0,.009,0,.009,0,.009,0,.009,0,.009,0,.009,0,.008,0,.009,0,.009,0,.009,0,.009,0,.009,0,.008,0,.009,0,.008,0,.009,0,.009,0,.009,0,.009,0-.158.326-.158.326-.158.326-.158.326-.158.326-.158.326-.158.326-.158.326-.158.326-.158.326-.158.326-.158.326-.158.326-.158.326-.158.326-.158.326-.158.326-.158.326-.158.326-.158.326-.158.326-.158.326-.158.326-.158.326-.158.326-.158.326-.158.326-.158.326-.158.326-.158.326-.158.326Z" transform="translate(-650.291 -1445.739)"/>
        <path id="Trazado_829985" data-name="Trazado 829985" d="M335.745,1386.86l-.005-.008-.005-.008-.005-.008-.005-.008-.005-.008-.005-.008-.005-.008-.005-.008-.005-.008-.005-.008-.005-.008-.005-.008-.005-.008-.005-.008-.005-.008-.005-.008-.005-.008-.005-.008-.005-.008-.005-.008-.005-.008-.005-.008-.005-.008-.005-.008-.005-.008-.005-.008-.005-.008-.005-.008-.005-.008-.005-.008-.005-.008-.005-.008.6-.422.6-.422.6-.422.6-.422.6-.422.6-.422.6-.422.6-.422.6-.422.6-.422.6-.422.6-.422.6-.422.6-.422.6-.422.6-.422.6-.422.6-.422.6-.422.6-.422.6-.422.6-.422.6-.422.6-.422.6-.422.6-.422.6-.422.6-.422.6-.422.6-.422.6-.422.6-.422.005.008.005.008.005.008.005.008.005.008.005.008.005.008.005.008.005.008.005.008.005.008.005.008.005.008.005.008.005.008.005.008.005.008.005.008.005.008.005.008.005.008.005.008.005.008.005.008.005.008.005.008.005.008.005.008.005.008.005.008.005.008.005.008-.6.422-.6.422-.6.422-.6.422-.6.422-.6.422-.6.422-.6.422-.6.422-.6.422-.6.422-.6.422-.6.422-.6.422-.6.422-.6.422-.6.422-.6.422-.6.422-.6.422-.6.422-.6.422-.6.422-.6.422-.6.422-.6.422-.6.422-.6.422-.6.422-.6.422-.6.422Z" transform="translate(-317.076 -1297.43)"/>
        <path id="Trazado_829986" data-name="Trazado 829986" d="M464.114,1208.729l0-.008,0-.009,0-.008,0-.009,0-.009,0-.009,0-.008,0-.009,0-.009,0-.008,0-.009,0-.008,0-.008,0-.009,0-.008,0-.009,0-.009,0-.008,0-.009,0-.009,0-.009,0-.008,0-.009,0-.009,0-.008,0-.009,0-.008,0-.009,0-.008,0-.009,0-.009,0-.009.336-.168.336-.168.336-.168.336-.168.336-.168.336-.168.336-.168.336-.168.336-.168.336-.168.336-.168.336-.168.336-.168.336-.168.336-.168.336-.168.336-.168.336-.168.336-.168.336-.168.336-.168.336-.168.336-.168.336-.168.336-.168.336-.168.336-.168.336-.168.336-.168.336-.168.336-.168.336-.168,0,.009,0,.008,0,.009,0,.009,0,.008,0,.009,0,.009,0,.009,0,.008,0,.009,0,.008,0,.009,0,.009,0,.008,0,.009,0,.009,0,.008,0,.009,0,.009,0,.008,0,.009,0,.009,0,.008,0,.009,0,.009,0,.008,0,.009,0,.008,0,.009,0,.009,0,.008,0,.009-.336.168-.336.168-.336.168-.336.168-.336.168-.336.168-.336.168-.336.168-.336.168-.336.168-.336.168-.336.168-.336.168-.336.168-.336.168-.336.168-.336.168-.336.168-.336.168-.336.168-.336.168-.336.168-.336.168-.336.168-.336.168-.336.168-.336.168-.336.168-.336.168-.336.168-.336.168Z" transform="translate(-438.406 -1136.779)"/>
        <path id="Trazado_829987" data-name="Trazado 829987" d="M225.152,1037.182l0-.009,0-.009,0-.009,0-.009,0-.009,0-.009,0-.009,0-.009,0-.009,0-.009,0-.009,0-.009,0-.009,0-.009,0-.009,0-.009,0-.009,0-.009,0-.009,0-.009,0-.009,0-.009,0-.009,0-.009,0-.009,0-.009,0-.009,0-.009,0-.009,0-.009,0-.009,0-.009.758-.206.758-.206.758-.206.758-.206.758-.206.758-.206.758-.206.758-.206.758-.206.758-.206.758-.206.758-.206.758-.206.758-.206.758-.206.758-.206.758-.206.758-.206.758-.206.758-.206.758-.206.758-.206.758-.206.758-.206.758-.206.758-.206.758-.206.758-.206.758-.206.758-.206.758-.206.758-.206,0,.009,0,.009,0,.009,0,.009,0,.009,0,.009,0,.009,0,.009,0,.009,0,.009,0,.009,0,.009,0,.009,0,.009,0,.009,0,.009,0,.009,0,.009,0,.009,0,.009,0,.009,0,.009,0,.009,0,.009,0,.009,0,.009,0,.009,0,.009,0,.009,0,.009,0,.009,0,.009-.758.206-.758.206-.758.206-.758.206-.758.206-.758.206-.758.206-.758.206-.758.206-.758.206-.758.206-.758.206-.758.206-.758.206-.758.206-.758.206-.758.206-.758.206-.758.206-.758.206-.758.206-.758.206-.758.206-.758.206-.758.206-.758.206-.758.206-.758.206-.758.206-.758.206-.758.206Z" transform="translate(-212.667 -973.507)"/>
        <path id="Trazado_829988" data-name="Trazado 829988" d="M367.339,893.645l0-.009,0-.009,0-.009,0-.009,0-.009,0-.009,0-.009,0-.009,0-.009,0-.009,0-.009,0-.009,0-.009,0-.009,0-.009,0-.009,0-.009,0-.009,0-.009,0-.009,0-.009,0-.009,0-.009,0-.009,0-.009,0-.009,0-.009,0-.009,0-.009,0-.01,0-.009,0-.009.4-.072.4-.072.4-.072.4-.072.4-.072.4-.072.4-.072.4-.072.4-.072.4-.072.4-.072.4-.072.4-.072.4-.072.4-.072.4-.072.4-.072.4-.072.4-.072.4-.072.4-.072.4-.072.4-.072.4-.072.4-.072.4-.072.4-.072.4-.072.4-.072.4-.072.4-.072.4-.072,0,.009,0,.009,0,.009,0,.009,0,.009,0,.009,0,.009,0,.009,0,.009,0,.009,0,.009,0,.01,0,.009,0,.009,0,.009,0,.009,0,.009,0,.009,0,.009,0,.009,0,.01,0,.009,0,.009,0,.009,0,.009,0,.009,0,.009,0,.009,0,.009,0,.009,0,.009,0,.009-.4.072-.4.072-.4.072-.4.072-.4.072-.4.072-.4.072-.4.072-.4.072-.4.072-.4.072-.4.072-.4.072-.4.072-.4.072-.4.072-.4.072-.4.072-.4.072-.4.072-.4.072-.4.072-.4.072-.4.072-.4.072-.4.072-.4.072-.4.072-.4.072-.4.072-.4.072Z" transform="translate(-347.042 -841.934)"/>
        <path id="Trazado_829989" data-name="Trazado 829989" d="M.034,740.508v-.3l.642-.072.643-.072.642-.072.643-.072.642-.072.643-.072L4.5,739.7l.643-.072.642-.072.643-.072.642-.072.643-.072.642-.072L9,739.2l.642-.072.643-.072.642-.072.643-.072.642-.072.643-.072.642-.072.643-.072.642-.072.643-.072.643-.072.642-.072.643-.072.642-.072.643-.072.642-.072.643-.072.642-.072v.3l-.642.072-.643.072-.642.072-.643.072-.642.072-.643.072-.642.072-.643.072-.642.072-.643.072-.642.072-.642.072-.643.072-.642.072-.643.072-.642.072-.643.072-.642.072-.643.072-.642.072-.643.072-.642.072-.643.072-.642.072L4.531,740l-.642.072-.643.072-.642.072-.643.072-.642.072-.642.072Z" transform="translate(0 -697.235)"/>
        <path id="Trazado_829990" data-name="Trazado 829990" d="M56.584,445.193l-.657-.235-.657-.235-.657-.235-.657-.235-.657-.235-.657-.235-.657-.235-.657-.235-.657-.235-.657-.235-.657-.235-.657-.235-.657-.235-.657-.235-.657-.235-.657-.235-.657-.235-.657-.235-.657-.235-.657-.235-.657-.235-.657-.235-.657-.235-.657-.235-.657-.235-.657-.235-.657-.235-.657-.235-.657-.235-.657-.235-.657-.235-.657-.235,0-.009,0-.009,0-.009,0-.009,0-.009,0-.009,0-.009,0-.009,0-.009,0-.009,0-.009,0-.009,0-.009,0-.009,0-.009,0-.009,0-.009,0-.009,0-.009,0-.009,0-.009,0-.009,0-.009,0-.009,0-.009,0-.009,0-.009,0-.009,0-.009,0-.009,0-.009,0-.009.657.235.657.235.657.235.657.235.657.235.657.235.657.235.657.235.657.235.657.235.657.235.657.235.657.235.657.235.657.235.657.235.657.235.657.235.657.235.657.235.657.235.657.235.657.235.657.235.657.235.657.235.657.235.657.235.657.235.657.235.657.235.657.235,0,.009,0,.009,0,.009,0,.009,0,.009,0,.009,0,.009,0,.009,0,.009,0,.009,0,.009,0,.009,0,.009,0,.009,0,.009,0,.009,0,.009,0,.009,0,.009,0,.009,0,.009,0,.009,0,.009,0,.009,0,.009,0,.009,0,.009,0,.009,0,.009,0,.009,0,.009Z" transform="translate(-33.603 -413.282)"/>
        <path id="Trazado_829991" data-name="Trazado 829991" d="M337.349,301.6l-.321-.259-.321-.259-.321-.259-.321-.259-.321-.259-.321-.259-.321-.259-.321-.259-.321-.259-.321-.259-.321-.259-.321-.259-.321-.259-.321-.259-.321-.259-.321-.259-.321-.259-.321-.259-.321-.259-.321-.259-.321-.259-.321-.259-.321-.259-.321-.259-.321-.259-.321-.259-.321-.259-.321-.259-.321-.259-.321-.259-.321-.259-.321-.259.006-.007.006-.007.006-.007.006-.007.006-.007.006-.007.006-.007.006-.007.006-.007.006-.007.006-.007.006-.007.006-.007.006-.007.006-.007.006-.007.006-.007.006-.007.006-.007.006-.007.006-.007.006-.007.006-.007.006-.007.006-.007.006-.007.006-.007.006-.007.006-.007.006-.007.006-.007.006-.007.321.259.321.259.321.259.321.259.321.259.321.259.321.259.321.259.321.259.321.259.321.259.321.259.321.259.321.259.321.259.321.259.321.259.321.259.321.259.321.259.321.259.321.259.321.259.321.259.321.259.321.259.321.259.321.259.321.259.321.259.321.259.321.259-.006.007-.006.007-.006.007-.006.007-.006.007-.006.007-.006.007-.006.007-.006.007-.006.007-.006.007-.006.007-.006.007-.006.007-.006.007-.006.007-.006.007-.006.007-.006.007-.006.007-.006.007-.006.007-.006.007-.006.007-.006.007-.006.007-.006.007-.006.007-.006.007-.006.007-.006.007Z" transform="translate(-309.042 -276.924)"/>
        <path id="Trazado_829992" data-name="Trazado 829992" d="M441.188,40.832l-.364-.532-.364-.532-.364-.532-.364-.532-.364-.532L439,37.639l-.364-.532-.364-.532-.364-.532-.364-.532-.364-.532-.364-.532-.364-.532-.364-.532-.364-.532-.364-.532-.364-.532-.364-.532-.364-.532-.364-.532-.364-.532-.364-.532-.364-.532-.364-.532-.364-.532-.364-.532-.364-.532-.364-.532-.364-.532-.364-.532-.364-.532-.364-.532.008-.005.008-.005.008-.005.008-.005.008-.005.008-.005.008-.005.008-.005.008-.005.008-.005.008-.005.008-.005.008-.005.008-.005.008-.005.008-.005.008-.005.008-.005.008-.005.008-.005.008-.005.008-.005.008-.005.008-.005.008-.005.008-.005.008-.005.008-.005.008-.005.008-.005.008-.005.008-.005.364.532.364.532.364.532.364.532.364.532.364.532.364.532.364.532.364.532.364.532.364.532.364.532.364.532.364.532.364.532.364.532.364.532.364.532.364.532.364.532.364.532.364.532.364.532.364.532.364.532.364.532.364.532.364.532.364.532.364.532.364.532.364.532-.008.005-.008.005-.008.005-.008.005-.008.005-.008.005-.008.005-.008.005-.008.005-.008.005-.008.005-.008.005-.008.005-.008.005-.008.005-.008.005-.008.005-.008.005-.008.005-.008.005-.008.005-.008.005-.008.005-.008.005-.008.005-.008.005-.008.005-.008.005-.008.005-.008.005-.008.005Z" transform="translate(-405.854 -22.326)"/>
        <path id="Trazado_829993" data-name="Trazado 829993" d="M757.463,112l-.081-.3-.082-.3-.081-.3-.082-.3-.081-.3-.081-.3-.082-.3-.081-.3-.082-.3-.081-.3-.082-.3-.081-.3-.082-.3-.082-.3-.081-.3-.082-.3-.081-.3-.082-.3-.082-.3-.081-.3-.082-.3-.081-.3-.082-.3-.081-.3-.082-.3-.082-.3-.081-.3-.082-.3-.081-.3-.082-.3-.082-.3-.081-.3.009,0,.009,0,.009,0,.009,0,.009,0,.009,0,.009,0,.009,0,.009,0,.009,0,.009,0,.009,0,.009,0,.009,0,.009,0,.009,0,.009,0,.009,0,.009,0,.009,0,.009,0,.009,0,.009,0,.009,0,.009,0,.009,0,.009,0,.009,0,.009,0,.009,0,.009,0,.009,0,.081.3.082.3.081.3.082.3.082.3.081.3.082.3.081.3.082.3.081.3.082.3.081.3.081.3.082.3.082.3.081.3.082.3.081.3.082.3.082.3.081.3.081.3.082.3.082.3.081.3.082.3.081.3.082.3.081.3.082.3.082.3.081.3-.009,0-.009,0-.009,0-.009,0-.009,0-.009,0-.009,0-.009,0-.009,0-.009,0-.009,0-.009,0-.009,0-.009,0-.009,0-.009,0-.009,0-.009,0-.009,0-.009,0-.009,0-.009,0-.009,0-.009,0-.009,0-.009,0-.009,0-.009,0-.009,0-.009,0-.009,0Z" transform="translate(-713.251 -96.766)"/>
        <path id="Trazado_829994" data-name="Trazado 829994" d="M952.723,15.358h-.3l.024-.479.024-.479.024-.48.024-.479.024-.479.024-.48.024-.479.024-.479.024-.48.024-.479.024-.479.024-.48.024-.479.024-.479.024-.48.024-.479.024-.479.024-.48.024-.479.024-.479.024-.48.024-.479.024-.479.024-.479.024-.479.024-.479.024-.48.024-.479.024-.479.024-.48.024-.479L953.186,0h.3l-.024.479-.024.479-.024.479-.024.48-.024.479-.024.479-.024.479-.024.479-.024.479-.024.48-.024.479-.024.479-.024.479-.024.48-.024.479-.024.48-.024.479-.024.479-.024.48-.024.479-.024.479-.024.479-.024.479-.024.479-.024.48-.024.479-.024.479-.024.479-.024.479-.024.479-.024.479Z" transform="translate(-899.927 0)"/>
      </g>
    </g>
  </g>
</svg>
