<svg id="Grupo_1096001" data-name="Grupo 1096001" xmlns="http://www.w3.org/2000/svg" xmlns:xlink="http://www.w3.org/1999/xlink" width="255.859" height="200.295" viewBox="0 0 255.859 200.295">
  <defs>
    <clipPath id="clip-path">
      <rect id="Rectángulo_387527" data-name="Rectángulo 387527" width="255.859" height="200.295" fill="none"/>
    </clipPath>
    <clipPath id="clip-path-3">
      <rect id="Rectángulo_387463" data-name="Rectángulo 387463" width="220.835" height="195.706" fill="#ffe888"/>
    </clipPath>
    <clipPath id="clip-path-15">
      <path id="Trazado_839782" data-name="Trazado 839782" d="M122.728,100.618c-8.043,3.77-6.283,16.967-6.283,16.967s1.759,5.655.629,9.3a18.374,18.374,0,0,1-3.77,6.409l18.348,8.169s.629-2.639.88-3.393,2.136-1.005,2.136-1.005,3.142,1.508,4.4,1.382.879-.754,1.885-2.639,4.65-11.563,4.65-13.573-1.634-3.268-1.634-4.274,1.005-2.387,1.76-4.524.5-6.661.5-6.661,0-3.77-1.885-5.655c-1.156-1.155-5.991-2.5-11.415-2.5a24.429,24.429,0,0,0-10.2,2" transform="translate(-113.303 -98.621)" fill="none"/>
    </clipPath>
    <clipPath id="clip-path-16">
      <rect id="Rectángulo_387517" data-name="Rectángulo 387517" width="25.849" height="38.836" fill="none"/>
    </clipPath>
    <clipPath id="clip-path-17">
      <rect id="Rectángulo_387518" data-name="Rectángulo 387518" width="11.073" height="6.765" fill="none"/>
    </clipPath>
    <clipPath id="clip-path-20">
      <path id="Trazado_839803" data-name="Trazado 839803" d="M107.6,149.254l-3.394,5.655s10.181,2.388,15.459,4.525,12.316,7.792,12.316,7.792-1.131-6.409-2.137-8.043-11.436-7.164-15.709-8.8a15.85,15.85,0,0,0-5.564-1.2,4.946,4.946,0,0,0-.971.073" transform="translate(-104.208 -149.181)" fill="none"/>
    </clipPath>
    <clipPath id="clip-path-21">
      <rect id="Rectángulo_387522" data-name="Rectángulo 387522" width="20.039" height="12.064" fill="none"/>
    </clipPath>
    <clipPath id="clip-path-23">
      <path id="Trazado_839812" data-name="Trazado 839812" d="M127.977,189.686s-3.524,4.78-4.655,8.55.251,9.174.629,10.431,20.485,40.844,22.622,44.741,4.524,4.147,6.283,3.519,21.993-15.081,22.747-15.835,4.147-3.645,4.147-3.645.629-4.021-2.136-6.157-4.148-1.005-4.148-1.005l-17.594,4.776s-9.928-34.185-11.059-40.72.629-6.158-2.89-9.677a49.577,49.577,0,0,0-7.79-6.17Z" transform="translate(-122.886 -178.493)" fill="none"/>
    </clipPath>
    <clipPath id="clip-path-24">
      <rect id="Rectángulo_387524" data-name="Rectángulo 387524" width="56.924" height="77.43" fill="none"/>
    </clipPath>
  </defs>
  <g id="Grupo_1096000" data-name="Grupo 1096000" clip-path="url(#clip-path)">
    <g id="Grupo_1095944" data-name="Grupo 1095944">
      <g id="Grupo_1095943" data-name="Grupo 1095943" clip-path="url(#clip-path)">
        <path id="Trazado_839670" data-name="Trazado 839670" d="M34.23,129.273s9.312,37.46,46.048,55.43,80.546,9.821,116.213,4.154,58.373-31.86,55.951-63.033S221.252,91.93,199.289,60.847s-23.095-42.7-58.477-56.8S59.981,14,42.474,56.065s-8.244,73.208-8.244,73.208" transform="translate(-11.139 0)" fill="#c6ff00"/>
        <g id="Grupo_1095942" data-name="Grupo 1095942" transform="translate(20.643)" style="isolation: isolate">
          <g id="Grupo_1095941" data-name="Grupo 1095941">
            <g id="Grupo_1095940" data-name="Grupo 1095940" clip-path="url(#clip-path-3)">
              <path id="Trazado_839671" data-name="Trazado 839671" d="M34.23,129.273s9.312,37.46,46.048,55.43,80.546,9.821,116.213,4.154,58.373-31.86,55.951-63.033S221.252,91.93,199.289,60.847s-23.095-42.7-58.477-56.8S59.981,14,42.474,56.065s-8.244,73.208-8.244,73.208" transform="translate(-31.782 0)" fill="#ffe888"/>
            </g>
          </g>
        </g>
      </g>
    </g>
    <g id="Grupo_1095948" data-name="Grupo 1095948">
      <g id="Grupo_1095947" data-name="Grupo 1095947" clip-path="url(#clip-path)">
        <rect id="Rectángulo_387466" data-name="Rectángulo 387466" width="101.185" height="114.714" transform="translate(96.975 85.257)" fill="none" stroke="#263238" stroke-miterlimit="10" stroke-width="1"/>
        <rect id="Rectángulo_387467" data-name="Rectángulo 387467" width="92.596" height="104.977" transform="translate(96.975 94.994)" fill="none" stroke="#263238" stroke-miterlimit="10" stroke-width="1"/>
      </g>
    </g>
    <path id="Trazado_839673" data-name="Trazado 839673" d="M291.865,141V245.975h8.589V131.262Z" transform="translate(-102.293 -46.005)" fill="#263238"/>
    <rect id="Rectángulo_387469" data-name="Rectángulo 387469" width="4.182" height="21.133" transform="translate(193.978 178.837)" fill="#fff"/>
    <g id="Grupo_1095950" data-name="Grupo 1095950">
      <g id="Grupo_1095949" data-name="Grupo 1095949" clip-path="url(#clip-path)">
        <rect id="Rectángulo_387470" data-name="Rectángulo 387470" width="4.182" height="21.133" transform="translate(193.978 178.837)" fill="none" stroke="#263238" stroke-linecap="round" stroke-linejoin="round" stroke-width="1"/>
      </g>
    </g>
    <path id="Trazado_839674" data-name="Trazado 839674" d="M305.087,267.435v21.133h18.166V252.791Z" transform="translate(-106.927 -88.598)" fill="#263238"/>
    <g id="Grupo_1095952" data-name="Grupo 1095952">
      <g id="Grupo_1095951" data-name="Grupo 1095951" clip-path="url(#clip-path)">
        <path id="Trazado_839675" data-name="Trazado 839675" d="M323.254,288.568V252.791l-18.167,14.645v21.133Z" transform="translate(-106.927 -88.598)" fill="none" stroke="#263238" stroke-linecap="round" stroke-linejoin="round" stroke-width="1"/>
      </g>
    </g>
    <rect id="Rectángulo_387473" data-name="Rectángulo 387473" width="4.182" height="21.133" transform="translate(51.763 178.837)" fill="#fff"/>
    <g id="Grupo_1095954" data-name="Grupo 1095954">
      <g id="Grupo_1095953" data-name="Grupo 1095953" clip-path="url(#clip-path)">
        <rect id="Rectángulo_387474" data-name="Rectángulo 387474" width="4.182" height="21.133" transform="translate(51.763 178.837)" fill="none" stroke="#263238" stroke-linecap="round" stroke-linejoin="round" stroke-width="1"/>
      </g>
    </g>
    <path id="Trazado_839676" data-name="Trazado 839676" d="M86.133,267.435v21.133H104.3V252.791Z" transform="translate(-30.188 -88.598)" fill="#263238"/>
    <g id="Grupo_1095956" data-name="Grupo 1095956">
      <g id="Grupo_1095955" data-name="Grupo 1095955" clip-path="url(#clip-path)">
        <path id="Trazado_839677" data-name="Trazado 839677" d="M104.3,288.568V252.791L86.133,267.436v21.133Z" transform="translate(-30.188 -88.598)" fill="none" stroke="#263238" stroke-linecap="round" stroke-linejoin="round" stroke-width="1"/>
      </g>
    </g>
    <path id="Trazado_839678" data-name="Trazado 839678" d="M222.4,269.36H54.856l-.068-1.369L248.9,247.613v1.378Z" transform="translate(-19.202 -86.783)" fill="#fff"/>
    <path id="Trazado_839679" data-name="Trazado 839679" d="M222.4,269.36H54.856l-.068-1.369L248.9,247.613v1.378Z" transform="translate(-19.202 -86.783)" fill="none" stroke="#263238" stroke-linecap="round" stroke-linejoin="round" stroke-width="1"/>
    <path id="Trazado_839680" data-name="Trazado 839680" d="M222.438,267.981H54.892l42.269-20.369H248.933Z" transform="translate(-19.239 -86.783)" fill="#fff"/>
    <path id="Trazado_839681" data-name="Trazado 839681" d="M222.438,267.981H54.892l42.269-20.369H248.933Z" transform="translate(-19.239 -86.783)" fill="none" stroke="#263238" stroke-linecap="round" stroke-linejoin="round" stroke-width="1"/>
    <path id="Trazado_839682" data-name="Trazado 839682" d="M288.246,269.256H270.5l10.24-8.194h18.684Z" transform="translate(-94.806 -91.497)" fill="#3ee2a8"/>
    <path id="Trazado_839683" data-name="Trazado 839683" d="M288.246,269.256H270.5l10.24-8.194h18.684Z" transform="translate(-94.806 -91.497)" fill="none" stroke="#263238" stroke-linecap="round" stroke-linejoin="round" stroke-width="1"/>
    <path id="Trazado_839684" data-name="Trazado 839684" d="M312.845,269.36v-1.378l26.495-20.369v1.378Z" transform="translate(-109.646 -86.783)" fill="#263238"/>
    <path id="Trazado_839685" data-name="Trazado 839685" d="M312.845,269.36v-1.378l26.495-20.369v1.378Z" transform="translate(-109.646 -86.783)" fill="none" stroke="#263238" stroke-linecap="round" stroke-linejoin="round" stroke-width="1"/>
    <g id="Grupo_1095958" data-name="Grupo 1095958">
      <g id="Grupo_1095957" data-name="Grupo 1095957" clip-path="url(#clip-path)">
        <path id="Trazado_839686" data-name="Trazado 839686" d="M278.86,249.058h30.574s4.53-.425,3.68,1.84-4.812,2.406-13.588,2.69-11.041,5.661-11.041,5.661" transform="translate(-97.735 -87.279)" fill="none" stroke="#263238" stroke-linecap="round" stroke-linejoin="round" stroke-width="1"/>
        <path id="Trazado_839687" data-name="Trazado 839687" d="M292.9,261.911a9.289,9.289,0,0,0-4.923.509c-1.281.64-2.427,2.891-3.1,4.474a1.177,1.177,0,0,0,1.085,1.638h3.867a1.178,1.178,0,0,0,.879-.393l3.893-4.361s-.17-1.7-1.7-1.867" transform="translate(-99.81 -91.75)" fill="#263238"/>
        <path id="Trazado_839688" data-name="Trazado 839688" d="M293.544,268.055a4.384,4.384,0,0,1,2.4-4.245" transform="translate(-102.875 -92.46)" fill="none" stroke="#fff" stroke-linecap="round" stroke-linejoin="round" stroke-width="0.5"/>
        <path id="Trazado_839689" data-name="Trazado 839689" d="M228.281,268.92H165.949l15.162-12.1h62.332Z" transform="translate(-58.162 -90.011)" fill="#fff"/>
        <path id="Trazado_839690" data-name="Trazado 839690" d="M228.281,268.92H165.949l15.162-12.1h62.332Z" transform="translate(-58.162 -90.011)" fill="none" stroke="#263238" stroke-linecap="round" stroke-linejoin="round" stroke-width="1"/>
        <path id="Trazado_839691" data-name="Trazado 839691" d="M277.077,257.579v-.757l-15.162,12.1v.757Z" transform="translate(-91.796 -90.011)" fill="none" stroke="#263238" stroke-linecap="round" stroke-linejoin="round" stroke-width="1"/>
        <rect id="Rectángulo_387477" data-name="Rectángulo 387477" width="62.332" height="0.757" transform="translate(107.787 178.909)" fill="#fff"/>
        <rect id="Rectángulo_387478" data-name="Rectángulo 387478" width="62.332" height="0.757" transform="translate(107.787 178.909)" fill="none" stroke="#263238" stroke-linecap="round" stroke-linejoin="round" stroke-width="1"/>
        <path id="Trazado_839692" data-name="Trazado 839692" d="M196.159,267.406l-2,1.617h4.116l2-1.617Z" transform="translate(-68.048 -93.72)" fill="none" stroke="#263238" stroke-linecap="round" stroke-linejoin="round" stroke-width="1"/>
        <path id="Trazado_839693" data-name="Trazado 839693" d="M202.5,267.406l-2,1.617h4.116l2-1.617Z" transform="translate(-70.269 -93.72)" fill="none" stroke="#263238" stroke-linecap="round" stroke-linejoin="round" stroke-width="1"/>
        <path id="Trazado_839694" data-name="Trazado 839694" d="M189.822,267.406l-2,1.617h4.116l2-1.617Z" transform="translate(-65.827 -93.72)" fill="none" stroke="#263238" stroke-linecap="round" stroke-linejoin="round" stroke-width="1"/>
        <path id="Trazado_839695" data-name="Trazado 839695" d="M197.022,264.916h-4.116l-2,1.617h4.116Z" transform="translate(-66.908 -92.848)" fill="none" stroke="#263238" stroke-linecap="round" stroke-linejoin="round" stroke-width="1"/>
        <path id="Trazado_839696" data-name="Trazado 839696" d="M204.44,264.044l2-1.617h-4.116l-2,1.617Z" transform="translate(-70.21 -91.975)" fill="none" stroke="#263238" stroke-linecap="round" stroke-linejoin="round" stroke-width="1"/>
        <path id="Trazado_839697" data-name="Trazado 839697" d="M200.106,262.427H195.99l-2,1.617H198.1Z" transform="translate(-67.989 -91.975)" fill="none" stroke="#263238" stroke-linecap="round" stroke-linejoin="round" stroke-width="1"/>
        <path id="Trazado_839698" data-name="Trazado 839698" d="M208.833,267.406l-2,1.617h4.116l2-1.617Z" transform="translate(-72.49 -93.72)" fill="none" stroke="#263238" stroke-linecap="round" stroke-linejoin="round" stroke-width="1"/>
        <path id="Trazado_839699" data-name="Trazado 839699" d="M240.517,267.406l-2,1.617h4.116l2-1.617Z" transform="translate(-83.595 -93.72)" fill="none" stroke="#263238" stroke-linecap="round" stroke-linejoin="round" stroke-width="1"/>
        <path id="Trazado_839700" data-name="Trazado 839700" d="M210.777,264.044l2-1.617h-4.116l-2,1.617Z" transform="translate(-72.431 -91.975)" fill="none" stroke="#263238" stroke-linecap="round" stroke-linejoin="round" stroke-width="1"/>
        <path id="Trazado_839701" data-name="Trazado 839701" d="M215.17,267.406l-2,1.617h4.116l2-1.617Z" transform="translate(-74.711 -93.72)" fill="none" stroke="#263238" stroke-linecap="round" stroke-linejoin="round" stroke-width="1"/>
        <path id="Trazado_839702" data-name="Trazado 839702" d="M251.188,269.023H255.3l2-1.617h-4.116Z" transform="translate(-88.036 -93.72)" fill="none" stroke="#263238" stroke-linecap="round" stroke-linejoin="round" stroke-width="1"/>
        <path id="Trazado_839703" data-name="Trazado 839703" d="M254.272,266.533h4.116l2-1.617h-4.116Z" transform="translate(-89.117 -92.848)" fill="none" stroke="#263238" stroke-linecap="round" stroke-linejoin="round" stroke-width="1"/>
        <path id="Trazado_839704" data-name="Trazado 839704" d="M246.854,267.406l-2,1.617h4.116l2-1.617Z" transform="translate(-85.816 -93.72)" fill="none" stroke="#263238" stroke-linecap="round" stroke-linejoin="round" stroke-width="1"/>
        <path id="Trazado_839705" data-name="Trazado 839705" d="M234.181,267.406l-2,1.617h4.116l2-1.617Z" transform="translate(-81.374 -93.72)" fill="none" stroke="#263238" stroke-linecap="round" stroke-linejoin="round" stroke-width="1"/>
        <path id="Trazado_839706" data-name="Trazado 839706" d="M221.507,267.406l-2,1.617h4.116l2-1.617Z" transform="translate(-76.932 -93.72)" fill="none" stroke="#263238" stroke-linecap="round" stroke-linejoin="round" stroke-width="1"/>
        <path id="Trazado_839707" data-name="Trazado 839707" d="M227.844,267.406l-2,1.617h4.116l2-1.617Z" transform="translate(-79.153 -93.72)" fill="none" stroke="#263238" stroke-linecap="round" stroke-linejoin="round" stroke-width="1"/>
        <path id="Trazado_839708" data-name="Trazado 839708" d="M236.124,264.044l2-1.617h-4.116l-2,1.617Z" transform="translate(-81.314 -91.975)" fill="none" stroke="#263238" stroke-linecap="round" stroke-linejoin="round" stroke-width="1"/>
        <path id="Trazado_839709" data-name="Trazado 839709" d="M243.6,264.916l-2,1.617h4.116l2-1.617Z" transform="translate(-84.675 -92.848)" fill="none" stroke="#263238" stroke-linecap="round" stroke-linejoin="round" stroke-width="1"/>
        <path id="Trazado_839710" data-name="Trazado 839710" d="M230.928,264.916l-2,1.617h4.116l2-1.617Z" transform="translate(-80.234 -92.848)" fill="none" stroke="#263238" stroke-linecap="round" stroke-linejoin="round" stroke-width="1"/>
        <path id="Trazado_839711" data-name="Trazado 839711" d="M218.254,264.916l-2,1.617h4.116l2-1.617Z" transform="translate(-75.792 -92.848)" fill="none" stroke="#263238" stroke-linecap="round" stroke-linejoin="round" stroke-width="1"/>
        <path id="Trazado_839712" data-name="Trazado 839712" d="M237.265,264.916l-2,1.617h4.116l2-1.617Z" transform="translate(-82.455 -92.848)" fill="none" stroke="#263238" stroke-linecap="round" stroke-linejoin="round" stroke-width="1"/>
        <path id="Trazado_839713" data-name="Trazado 839713" d="M217.114,264.044l2-1.617H215l-2,1.617Z" transform="translate(-74.652 -91.975)" fill="none" stroke="#263238" stroke-linecap="round" stroke-linejoin="round" stroke-width="1"/>
        <path id="Trazado_839714" data-name="Trazado 839714" d="M199.243,264.916l-2,1.617h4.116l2-1.617Z" transform="translate(-69.129 -92.848)" fill="none" stroke="#263238" stroke-linecap="round" stroke-linejoin="round" stroke-width="1"/>
        <path id="Trazado_839715" data-name="Trazado 839715" d="M211.917,264.916l-2,1.617h4.116l2-1.617Z" transform="translate(-73.571 -92.848)" fill="none" stroke="#263238" stroke-linecap="round" stroke-linejoin="round" stroke-width="1"/>
        <path id="Trazado_839716" data-name="Trazado 839716" d="M205.58,264.916l-2,1.617h4.116l2-1.617Z" transform="translate(-71.35 -92.848)" fill="none" stroke="#263238" stroke-linecap="round" stroke-linejoin="round" stroke-width="1"/>
        <path id="Trazado_839717" data-name="Trazado 839717" d="M224.591,264.916l-2,1.617H226.7l2-1.617Z" transform="translate(-78.013 -92.848)" fill="none" stroke="#263238" stroke-linecap="round" stroke-linejoin="round" stroke-width="1"/>
        <path id="Trazado_839718" data-name="Trazado 839718" d="M229.788,264.044l2-1.617h-4.116l-2,1.617Z" transform="translate(-79.093 -91.975)" fill="none" stroke="#263238" stroke-linecap="round" stroke-linejoin="round" stroke-width="1"/>
        <path id="Trazado_839719" data-name="Trazado 839719" d="M257.356,264.044h4.116l2-1.617h-4.116Z" transform="translate(-90.198 -91.975)" fill="none" stroke="#263238" stroke-linecap="round" stroke-linejoin="round" stroke-width="1"/>
        <path id="Trazado_839720" data-name="Trazado 839720" d="M223.451,264.044l2-1.617h-4.116l-2,1.617Z" transform="translate(-76.872 -91.975)" fill="none" stroke="#263238" stroke-linecap="round" stroke-linejoin="round" stroke-width="1"/>
        <path id="Trazado_839721" data-name="Trazado 839721" d="M248.8,264.044l2-1.617h-4.116l-2,1.617Z" transform="translate(-85.756 -91.975)" fill="none" stroke="#263238" stroke-linecap="round" stroke-linejoin="round" stroke-width="1"/>
        <path id="Trazado_839722" data-name="Trazado 839722" d="M255.135,264.044l2-1.617h-4.116l-2,1.617Z" transform="translate(-87.977 -91.975)" fill="none" stroke="#263238" stroke-linecap="round" stroke-linejoin="round" stroke-width="1"/>
        <path id="Trazado_839723" data-name="Trazado 839723" d="M247.935,266.533h4.116l2-1.617h-4.116Z" transform="translate(-86.896 -92.848)" fill="none" stroke="#263238" stroke-linecap="round" stroke-linejoin="round" stroke-width="1"/>
        <path id="Trazado_839724" data-name="Trazado 839724" d="M242.461,264.044l2-1.617h-4.116l-2,1.617Z" transform="translate(-83.535 -91.975)" fill="none" stroke="#263238" stroke-linecap="round" stroke-linejoin="round" stroke-width="1"/>
        <path id="Trazado_839725" data-name="Trazado 839725" d="M224.76,269.9l-2,1.617h4.116l2-1.617Z" transform="translate(-78.072 -94.593)" fill="none" stroke="#263238" stroke-linecap="round" stroke-linejoin="round" stroke-width="1"/>
        <path id="Trazado_839726" data-name="Trazado 839726" d="M231.1,269.9l-2,1.617h4.116l2-1.617Z" transform="translate(-80.293 -94.593)" fill="none" stroke="#263238" stroke-linecap="round" stroke-linejoin="round" stroke-width="1"/>
        <path id="Trazado_839727" data-name="Trazado 839727" d="M218.423,269.9l-2,1.617h4.116l2-1.617Z" transform="translate(-75.851 -94.593)" fill="none" stroke="#263238" stroke-linecap="round" stroke-linejoin="round" stroke-width="1"/>
        <path id="Trazado_839728" data-name="Trazado 839728" d="M237.433,269.9l-2,1.617h4.116l2-1.617Z" transform="translate(-82.514 -94.593)" fill="none" stroke="#263238" stroke-linecap="round" stroke-linejoin="round" stroke-width="1"/>
        <path id="Trazado_839729" data-name="Trazado 839729" d="M212.086,269.9l-2,1.617H214.2l2-1.617Z" transform="translate(-73.63 -94.593)" fill="none" stroke="#263238" stroke-linecap="round" stroke-linejoin="round" stroke-width="1"/>
        <path id="Trazado_839730" data-name="Trazado 839730" d="M205.749,269.9l-2,1.617h4.116l2-1.617Z" transform="translate(-71.409 -94.593)" fill="none" stroke="#263238" stroke-linecap="round" stroke-linejoin="round" stroke-width="1"/>
        <path id="Trazado_839731" data-name="Trazado 839731" d="M243.77,269.9l-2,1.617h4.116l2-1.617Z" transform="translate(-84.735 -94.593)" fill="none" stroke="#263238" stroke-linecap="round" stroke-linejoin="round" stroke-width="1"/>
        <path id="Trazado_839732" data-name="Trazado 839732" d="M193.075,269.9l-2,1.617h4.116l2-1.617Z" transform="translate(-66.967 -94.593)" fill="none" stroke="#263238" stroke-linecap="round" stroke-linejoin="round" stroke-width="1"/>
        <path id="Trazado_839733" data-name="Trazado 839733" d="M199.412,269.9l-2,1.617h4.116l2-1.617Z" transform="translate(-69.188 -94.593)" fill="none" stroke="#263238" stroke-linecap="round" stroke-linejoin="round" stroke-width="1"/>
        <path id="Trazado_839734" data-name="Trazado 839734" d="M260.609,266.533h4.116l2-1.617h-4.116Z" transform="translate(-91.338 -92.848)" fill="none" stroke="#263238" stroke-linecap="round" stroke-linejoin="round" stroke-width="1"/>
        <path id="Trazado_839735" data-name="Trazado 839735" d="M268.78,259.937l-2,1.617h4.116l2-1.617Z" transform="translate(-93.5 -91.103)" fill="none" stroke="#263238" stroke-linecap="round" stroke-linejoin="round" stroke-width="1"/>
        <path id="Trazado_839736" data-name="Trazado 839736" d="M263.693,264.044h4.116l2-1.617H265.7Z" transform="translate(-92.419 -91.975)" fill="none" stroke="#263238" stroke-linecap="round" stroke-linejoin="round" stroke-width="1"/>
        <path id="Trazado_839737" data-name="Trazado 839737" d="M186.738,269.9l-2,1.617h4.116l2-1.617Z" transform="translate(-64.746 -94.593)" fill="none" stroke="#263238" stroke-linecap="round" stroke-linejoin="round" stroke-width="1"/>
        <path id="Trazado_839738" data-name="Trazado 839738" d="M250.107,269.9l-2,1.617h4.116l2-1.617Z" transform="translate(-86.956 -94.593)" fill="none" stroke="#263238" stroke-linecap="round" stroke-linejoin="round" stroke-width="1"/>
        <path id="Trazado_839739" data-name="Trazado 839739" d="M254.441,271.512h4.116l2-1.617h-4.116Z" transform="translate(-89.177 -94.593)" fill="none" stroke="#263238" stroke-linecap="round" stroke-linejoin="round" stroke-width="1"/>
        <path id="Trazado_839740" data-name="Trazado 839740" d="M257.525,269.023h4.116l2-1.617h-4.116Z" transform="translate(-90.257 -93.72)" fill="none" stroke="#263238" stroke-linecap="round" stroke-linejoin="round" stroke-width="1"/>
        <path id="Trazado_839741" data-name="Trazado 839741" d="M190.685,264.916h-4.116l-2,1.617h4.116Z" transform="translate(-64.687 -92.848)" fill="none" stroke="#263238" stroke-linecap="round" stroke-linejoin="round" stroke-width="1"/>
        <path id="Trazado_839742" data-name="Trazado 839742" d="M232.872,261.554l2-1.617h-4.116l-2,1.617Z" transform="translate(-80.174 -91.103)" fill="none" stroke="#263238" stroke-linecap="round" stroke-linejoin="round" stroke-width="1"/>
        <path id="Trazado_839743" data-name="Trazado 839743" d="M239.208,261.554l2-1.617H237.1l-2,1.617Z" transform="translate(-82.395 -91.103)" fill="none" stroke="#263238" stroke-linecap="round" stroke-linejoin="round" stroke-width="1"/>
        <path id="Trazado_839744" data-name="Trazado 839744" d="M226.535,261.554l2-1.617h-4.116l-2,1.617Z" transform="translate(-77.953 -91.103)" fill="none" stroke="#263238" stroke-linecap="round" stroke-linejoin="round" stroke-width="1"/>
        <path id="Trazado_839745" data-name="Trazado 839745" d="M245.545,261.554l2-1.617h-4.116l-2,1.617Z" transform="translate(-84.616 -91.103)" fill="none" stroke="#263238" stroke-linecap="round" stroke-linejoin="round" stroke-width="1"/>
        <path id="Trazado_839746" data-name="Trazado 839746" d="M258.219,261.554l2-1.617h-4.116l-2,1.617Z" transform="translate(-89.058 -91.103)" fill="none" stroke="#263238" stroke-linecap="round" stroke-linejoin="round" stroke-width="1"/>
        <path id="Trazado_839747" data-name="Trazado 839747" d="M251.882,261.554l2-1.617h-4.116l-2,1.617Z" transform="translate(-86.837 -91.103)" fill="none" stroke="#263238" stroke-linecap="round" stroke-linejoin="round" stroke-width="1"/>
        <path id="Trazado_839748" data-name="Trazado 839748" d="M220.2,261.554l2-1.617h-4.116l-2,1.617Z" transform="translate(-75.732 -91.103)" fill="none" stroke="#263238" stroke-linecap="round" stroke-linejoin="round" stroke-width="1"/>
        <path id="Trazado_839749" data-name="Trazado 839749" d="M187.6,267.406h-4.116l-2,1.617H185.6Z" transform="translate(-63.606 -93.72)" fill="none" stroke="#263238" stroke-linecap="round" stroke-linejoin="round" stroke-width="1"/>
        <path id="Trazado_839750" data-name="Trazado 839750" d="M193.769,262.427h-4.116l-2,1.617h4.116Z" transform="translate(-65.768 -91.975)" fill="none" stroke="#263238" stroke-linecap="round" stroke-linejoin="round" stroke-width="1"/>
        <path id="Trazado_839751" data-name="Trazado 839751" d="M264.556,261.554l2-1.617h-4.116l-2,1.617Z" transform="translate(-91.279 -91.103)" fill="none" stroke="#263238" stroke-linecap="round" stroke-linejoin="round" stroke-width="1"/>
        <path id="Trazado_839752" data-name="Trazado 839752" d="M180.4,269.9l-2,1.617h4.116l2-1.617Z" transform="translate(-62.525 -94.593)" fill="none" stroke="#263238" stroke-linecap="round" stroke-linejoin="round" stroke-width="1"/>
        <path id="Trazado_839753" data-name="Trazado 839753" d="M196.853,259.937h-4.116l-2,1.617h4.116Z" transform="translate(-66.849 -91.103)" fill="none" stroke="#263238" stroke-linecap="round" stroke-linejoin="round" stroke-width="1"/>
        <path id="Trazado_839754" data-name="Trazado 839754" d="M207.524,261.554l2-1.617h-4.116l-2,1.617Z" transform="translate(-71.29 -91.103)" fill="none" stroke="#263238" stroke-linecap="round" stroke-linejoin="round" stroke-width="1"/>
        <path id="Trazado_839755" data-name="Trazado 839755" d="M201.187,261.554l2-1.617h-4.116l-2,1.617Z" transform="translate(-69.07 -91.103)" fill="none" stroke="#263238" stroke-linecap="round" stroke-linejoin="round" stroke-width="1"/>
        <path id="Trazado_839756" data-name="Trazado 839756" d="M213.861,261.554l2-1.617h-4.116l-2,1.617Z" transform="translate(-73.511 -91.103)" fill="none" stroke="#263238" stroke-linecap="round" stroke-linejoin="round" stroke-width="1"/>
      </g>
    </g>
    <g id="Grupo_1095960" data-name="Grupo 1095960">
      <g id="Grupo_1095959" data-name="Grupo 1095959" clip-path="url(#clip-path)">
        <path id="Trazado_839757" data-name="Trazado 839757" d="M276.891,252.89H255.4a.34.34,0,0,1-.147-.646l4.415-2.128a.34.34,0,0,1,.147-.034h19.838a.34.34,0,0,1,.207.609L277.1,252.82a.342.342,0,0,1-.207.07" transform="translate(-89.395 -87.649)" fill="#263238"/>
        <path id="Trazado_839758" data-name="Trazado 839758" d="M276.891,252.89H255.4a.34.34,0,0,1-.147-.646l4.415-2.128a.34.34,0,0,1,.147-.034h19.838a.34.34,0,0,1,.207.609L277.1,252.82A.342.342,0,0,1,276.891,252.89Z" transform="translate(-89.395 -87.649)" fill="none" stroke="#263238" stroke-linecap="round" stroke-linejoin="round" stroke-width="1"/>
        <rect id="Rectángulo_387480" data-name="Rectángulo 387480" width="3.951" height="15.048" transform="translate(177.242 149.019)" fill="#fff"/>
        <rect id="Rectángulo_387481" data-name="Rectángulo 387481" width="3.951" height="15.048" transform="translate(177.242 149.019)" fill="none" stroke="#263238" stroke-linecap="round" stroke-linejoin="round" stroke-width="1"/>
        <rect id="Rectángulo_387482" data-name="Rectángulo 387482" width="5.186" height="10.926" transform="translate(176.624 149.019)" fill="#263238"/>
        <rect id="Rectángulo_387483" data-name="Rectángulo 387483" width="5.186" height="10.926" transform="translate(176.624 149.019)" fill="none" stroke="#263238" stroke-linecap="round" stroke-linejoin="round" stroke-width="1"/>
        <rect id="Rectángulo_387484" data-name="Rectángulo 387484" width="65.395" height="51.152" transform="translate(147.453 98.957)" fill="#fff"/>
        <rect id="Rectángulo_387485" data-name="Rectángulo 387485" width="65.395" height="51.152" transform="translate(147.453 98.957)" fill="none" stroke="#263238" stroke-linecap="round" stroke-linejoin="round" stroke-width="1"/>
        <rect id="Rectángulo_387486" data-name="Rectángulo 387486" width="58.398" height="45.679" transform="translate(150.951 101.694)" fill="#263238"/>
        <rect id="Rectángulo_387487" data-name="Rectángulo 387487" width="58.398" height="45.679" transform="translate(150.951 101.694)" fill="none" stroke="#263238" stroke-linecap="round" stroke-linejoin="round" stroke-width="1"/>
        <path id="Trazado_839759" data-name="Trazado 839759" d="M239.946,160.973h-1.506a.372.372,0,0,1,0-.743h1.506a.372.372,0,0,1,0,.743m.371,1.348a.371.371,0,0,0-.371-.372h-1.506a.371.371,0,0,0,0,.742h1.506a.37.37,0,0,0,.371-.371m0,1.72a.37.37,0,0,0-.371-.371h-1.506a.371.371,0,0,0,0,.742h1.506a.37.37,0,0,0,.371-.372m0,1.721a.371.371,0,0,0-.371-.372h-1.506a.372.372,0,0,0,0,.744h1.506a.371.371,0,0,0,.371-.372m0,1.72a.371.371,0,0,0-.371-.371h-1.506a.371.371,0,0,0,0,.742h1.506a.371.371,0,0,0,.371-.372m0,1.721a.371.371,0,0,0-.371-.371h-1.506a.371.371,0,0,0,0,.742h1.506a.37.37,0,0,0,.371-.372m0,1.721a.371.371,0,0,0-.371-.371h-1.506a.372.372,0,0,0,0,.743h1.506a.371.371,0,0,0,.371-.372m0,1.721a.371.371,0,0,0-.371-.372h-1.506a.371.371,0,0,0,0,.742h1.506a.371.371,0,0,0,.371-.371m5.632-12.043a.371.371,0,0,0-.372-.371h-3.952a.372.372,0,0,0,0,.743h3.952a.372.372,0,0,0,.372-.372m0,1.721a.372.372,0,0,0-.372-.372h-3.952a.371.371,0,0,0,0,.742h3.952a.371.371,0,0,0,.372-.371m0,1.72a.371.371,0,0,0-.372-.371h-3.952a.371.371,0,0,0,0,.742h3.952a.371.371,0,0,0,.372-.372m0,1.721a.372.372,0,0,0-.372-.372h-3.952a.372.372,0,0,0,0,.744h3.952a.372.372,0,0,0,.372-.372m0,1.72a.372.372,0,0,0-.372-.371h-3.952a.371.371,0,0,0,0,.742h3.952a.371.371,0,0,0,.372-.372m4.73,1.721a.371.371,0,0,0-.372-.371h-3.951a.371.371,0,1,0,0,.742h3.951a.371.371,0,0,0,.372-.372m0,1.721a.371.371,0,0,0-.372-.371h-3.951a.372.372,0,0,0,0,.743h3.951a.372.372,0,0,0,.372-.372m0,1.721a.371.371,0,0,0-.372-.372h-3.951a.371.371,0,1,0,0,.742h3.951a.371.371,0,0,0,.372-.371M247.688,160.6a.43.43,0,1,0-.43.43.431.431,0,0,0,.43-.43m1.29,0a.43.43,0,1,0-.43.43.43.43,0,0,0,.43-.43m1.291,0a.43.43,0,1,0-.431.43.431.431,0,0,0,.431-.43m1.29,0a.43.43,0,1,0-.43.43.43.43,0,0,0,.43-.43m1.291,0a.43.43,0,1,0-.431.43.431.431,0,0,0,.431-.43m1.29,0a.43.43,0,1,0-.43.43.43.43,0,0,0,.43-.43m-6.451,3.442a.43.43,0,1,0-.43.43.431.431,0,0,0,.43-.43m1.29,0a.43.43,0,1,0-.43.43.431.431,0,0,0,.43-.43m1.291,0a.43.43,0,1,0-.431.43.431.431,0,0,0,.431-.43m1.29,0a.43.43,0,1,0-.43.43.431.431,0,0,0,.43-.43m1.291,0a.43.43,0,1,0-.431.43.431.431,0,0,0,.431-.43m1.29,0a.43.43,0,1,0-.43.43.431.431,0,0,0,.43-.43m-2.043,4.945a.43.43,0,1,0-.43.431.43.43,0,0,0,.43-.431m1.29,0a.43.43,0,1,0-.43.431.43.43,0,0,0,.43-.431m1.291,0a.43.43,0,1,0-.43.431.43.43,0,0,0,.43-.431m1.29,0a.43.43,0,1,0-.43.431.43.43,0,0,0,.43-.431m1.29,0a.43.43,0,1,0-.43.431.43.43,0,0,0,.43-.431m1.291,0a.43.43,0,1,0-.43.431.43.43,0,0,0,.43-.431m-6.451,3.548a.43.43,0,1,0-.43.43.43.43,0,0,0,.43-.43m1.29,0a.43.43,0,1,0-.43.43.43.43,0,0,0,.43-.43m1.291,0a.43.43,0,1,0-.43.43.43.43,0,0,0,.43-.43m1.29,0a.43.43,0,1,0-.43.43.43.43,0,0,0,.43-.43m1.29,0a.43.43,0,1,0-.43.43.43.43,0,0,0,.43-.43m1.291,0a.43.43,0,1,0-.43.43.43.43,0,0,0,.43-.43" transform="translate(-83.439 -56.137)" fill="#3ee2a8"/>
        <path id="Trazado_839760" data-name="Trazado 839760" d="M239.946,182.168h-1.506a.371.371,0,0,1,0-.742h1.506a.371.371,0,0,1,0,.742m.371,1.349a.371.371,0,0,0-.371-.372h-1.506a.372.372,0,0,0,0,.743h1.506a.371.371,0,0,0,.371-.372m0,1.72a.371.371,0,0,0-.371-.371h-1.506a.371.371,0,0,0,0,.742h1.506a.371.371,0,0,0,.371-.372m0,1.721a.371.371,0,0,0-.371-.372h-1.506a.372.372,0,0,0,0,.743h1.506a.371.371,0,0,0,.371-.372m0,1.72a.371.371,0,0,0-.371-.371h-1.506a.371.371,0,0,0,0,.742h1.506a.371.371,0,0,0,.371-.372m0,1.721a.371.371,0,0,0-.371-.371h-1.506a.371.371,0,0,0,0,.742h1.506a.37.37,0,0,0,.371-.372m0,1.721a.371.371,0,0,0-.371-.372h-1.506a.372.372,0,0,0,0,.743h1.506a.371.371,0,0,0,.371-.372m0,1.721a.371.371,0,0,0-.371-.372h-1.506a.371.371,0,0,0,0,.742h1.506a.37.37,0,0,0,.371-.371m5.632-12.043a.371.371,0,0,0-.372-.371h-3.952a.371.371,0,0,0,0,.742h3.952a.371.371,0,0,0,.372-.372m0,1.721a.371.371,0,0,0-.372-.372h-3.952a.372.372,0,0,0,0,.743h3.952a.371.371,0,0,0,.372-.372m0,1.72a.371.371,0,0,0-.372-.371h-3.952a.371.371,0,0,0,0,.742h3.952a.371.371,0,0,0,.372-.372m0,1.721a.371.371,0,0,0-.372-.372h-3.952a.372.372,0,0,0,0,.743h3.952a.371.371,0,0,0,.372-.372m0,1.72a.371.371,0,0,0-.372-.371h-3.952a.371.371,0,0,0,0,.742h3.952a.371.371,0,0,0,.372-.372m4.73,1.721a.371.371,0,0,0-.372-.371h-3.951a.371.371,0,1,0,0,.742h3.951a.371.371,0,0,0,.372-.372m0,1.721a.371.371,0,0,0-.372-.372h-3.951a.372.372,0,0,0,0,.743h3.951a.371.371,0,0,0,.372-.372m0,1.721a.371.371,0,0,0-.372-.372h-3.951a.371.371,0,1,0,0,.742h3.951a.37.37,0,0,0,.372-.371M247.688,181.8a.43.43,0,1,0-.43.431.43.43,0,0,0,.43-.431m1.29,0a.43.43,0,1,0-.43.431.43.43,0,0,0,.43-.431m1.291,0a.43.43,0,1,0-.431.431.431.431,0,0,0,.431-.431m1.29,0a.43.43,0,1,0-.43.431.43.43,0,0,0,.43-.431m1.291,0a.43.43,0,1,0-.431.431.431.431,0,0,0,.431-.431m1.29,0a.43.43,0,1,0-.43.431.43.43,0,0,0,.43-.431m-6.451,3.441a.43.43,0,1,0-.43.43.431.431,0,0,0,.43-.43m1.29,0a.43.43,0,1,0-.43.43.43.43,0,0,0,.43-.43m1.291,0a.43.43,0,1,0-.431.43.431.431,0,0,0,.431-.43m1.29,0a.43.43,0,1,0-.43.43.43.43,0,0,0,.43-.43m1.291,0a.43.43,0,1,0-.431.43.431.431,0,0,0,.431-.43m1.29,0a.43.43,0,1,0-.43.43.43.43,0,0,0,.43-.43m-2.043,4.945a.43.43,0,1,0-.43.43.43.43,0,0,0,.43-.43m1.29,0a.43.43,0,1,0-.43.43.43.43,0,0,0,.43-.43m1.291,0a.43.43,0,1,0-.43.43.43.43,0,0,0,.43-.43m1.29,0a.43.43,0,1,0-.43.43.43.43,0,0,0,.43-.43m1.29,0a.43.43,0,1,0-.43.43.43.43,0,0,0,.43-.43m1.291,0a.43.43,0,1,0-.43.43.43.43,0,0,0,.43-.43m-6.451,3.548a.43.43,0,1,0-.43.43.43.43,0,0,0,.43-.43m1.29,0a.43.43,0,1,0-.43.43.43.43,0,0,0,.43-.43m1.291,0a.43.43,0,1,0-.43.43.43.43,0,0,0,.43-.43m1.29,0a.43.43,0,1,0-.43.43.43.43,0,0,0,.43-.43m1.29,0a.43.43,0,1,0-.43.43.43.43,0,0,0,.43-.43m1.291,0a.43.43,0,1,0-.43.43.43.43,0,0,0,.43-.43" transform="translate(-83.439 -63.565)" fill="#3ee2a8"/>
        <path id="Trazado_839761" data-name="Trazado 839761" d="M239.946,203.874h-1.506a.371.371,0,0,1,0-.742h1.506a.371.371,0,0,1,0,.742m.371,1.349a.371.371,0,0,0-.371-.372h-1.506a.371.371,0,0,0,0,.742h1.506a.37.37,0,0,0,.371-.371m0,1.721a.37.37,0,0,0-.371-.372h-1.506a.371.371,0,0,0,0,.742h1.506a.371.371,0,0,0,.371-.371m0,1.72a.371.371,0,0,0-.371-.372h-1.506a.371.371,0,0,0,0,.742h1.506a.37.37,0,0,0,.371-.371m0,1.72a.371.371,0,0,0-.371-.371h-1.506a.371.371,0,0,0,0,.742h1.506a.371.371,0,0,0,.371-.372m0,1.721a.371.371,0,0,0-.371-.372h-1.506a.371.371,0,0,0,0,.742h1.506a.371.371,0,0,0,.371-.371m0,1.72a.371.371,0,0,0-.371-.372h-1.506a.372.372,0,0,0,0,.743h1.506a.371.371,0,0,0,.371-.372m0,1.721a.371.371,0,0,0-.371-.372h-1.506a.371.371,0,0,0,0,.742h1.506a.371.371,0,0,0,.371-.371m5.632-12.043a.371.371,0,0,0-.372-.371h-3.952a.371.371,0,0,0,0,.742h3.952a.371.371,0,0,0,.372-.372m0,1.721a.371.371,0,0,0-.372-.372h-3.952a.371.371,0,0,0,0,.742h3.952a.371.371,0,0,0,.372-.371m0,1.721a.371.371,0,0,0-.372-.372h-3.952a.371.371,0,0,0,0,.742h3.952a.371.371,0,0,0,.372-.371m0,1.72a.371.371,0,0,0-.372-.372h-3.952a.371.371,0,0,0,0,.742h3.952a.371.371,0,0,0,.372-.371m0,1.72a.371.371,0,0,0-.372-.371h-3.952a.371.371,0,0,0,0,.742h3.952a.371.371,0,0,0,.372-.372m4.73,1.721a.371.371,0,0,0-.372-.372h-3.951a.371.371,0,1,0,0,.742h3.951a.371.371,0,0,0,.372-.371m0,1.72a.371.371,0,0,0-.372-.372h-3.951a.372.372,0,0,0,0,.743h3.951a.371.371,0,0,0,.372-.372m0,1.721a.371.371,0,0,0-.372-.372h-3.951a.371.371,0,1,0,0,.742h3.951a.371.371,0,0,0,.372-.371M247.688,203.5a.43.43,0,1,0-.43.43.43.43,0,0,0,.43-.43m1.29,0a.43.43,0,1,0-.43.43.43.43,0,0,0,.43-.43m1.291,0a.43.43,0,1,0-.431.43.431.431,0,0,0,.431-.43m1.29,0a.43.43,0,1,0-.43.43.43.43,0,0,0,.43-.43m1.291,0a.43.43,0,1,0-.431.43.431.431,0,0,0,.431-.43m1.29,0a.43.43,0,1,0-.43.43.43.43,0,0,0,.43-.43m-6.451,3.441a.43.43,0,1,0-.43.43.431.431,0,0,0,.43-.43m1.29,0a.43.43,0,1,0-.43.43.43.43,0,0,0,.43-.43m1.291,0a.43.43,0,1,0-.431.43.431.431,0,0,0,.431-.43m1.29,0a.43.43,0,1,0-.43.43.43.43,0,0,0,.43-.43m1.291,0a.43.43,0,1,0-.431.43.431.431,0,0,0,.431-.43m1.29,0a.43.43,0,1,0-.43.43.43.43,0,0,0,.43-.43m-2.043,4.945a.43.43,0,1,0-.43.43.431.431,0,0,0,.43-.43m1.29,0a.43.43,0,1,0-.43.43.43.43,0,0,0,.43-.43m1.291,0a.43.43,0,1,0-.43.43.431.431,0,0,0,.43-.43m1.29,0a.43.43,0,1,0-.43.43.43.43,0,0,0,.43-.43m1.29,0a.43.43,0,1,0-.43.43.43.43,0,0,0,.43-.43m1.291,0a.43.43,0,1,0-.43.43.431.431,0,0,0,.43-.43m-6.451,3.548a.43.43,0,1,0-.43.43.43.43,0,0,0,.43-.43m1.29,0a.43.43,0,1,0-.43.43.43.43,0,0,0,.43-.43m1.291,0a.43.43,0,1,0-.43.43.43.43,0,0,0,.43-.43m1.29,0a.43.43,0,1,0-.43.43.43.43,0,0,0,.43-.43m1.29,0a.43.43,0,1,0-.43.43.43.43,0,0,0,.43-.43m1.291,0a.43.43,0,1,0-.43.43.43.43,0,0,0,.43-.43" transform="translate(-83.439 -71.173)" fill="#3ee2a8"/>
        <path id="Trazado_839762" data-name="Trazado 839762" d="M275.527,160.973h-1.506a.372.372,0,0,1,0-.743h1.506a.372.372,0,0,1,0,.743m.372,1.348a.372.372,0,0,0-.372-.372h-1.506a.371.371,0,0,0,0,.742h1.506a.371.371,0,0,0,.372-.371m0,1.72a.371.371,0,0,0-.372-.371h-1.506a.371.371,0,0,0,0,.742h1.506a.371.371,0,0,0,.372-.372m0,1.721a.372.372,0,0,0-.372-.372h-1.506a.372.372,0,0,0,0,.744h1.506a.372.372,0,0,0,.372-.372m0,1.72a.372.372,0,0,0-.372-.371h-1.506a.371.371,0,0,0,0,.742h1.506a.371.371,0,0,0,.372-.372m0,1.721a.371.371,0,0,0-.372-.371h-1.506a.371.371,0,0,0,0,.742h1.506a.371.371,0,0,0,.372-.372m0,1.721a.371.371,0,0,0-.372-.371h-1.506a.372.372,0,0,0,0,.743h1.506a.372.372,0,0,0,.372-.372m0,1.721a.372.372,0,0,0-.372-.372h-1.506a.371.371,0,0,0,0,.742h1.506a.371.371,0,0,0,.372-.371M281.53,160.6a.371.371,0,0,0-.372-.371h-3.951a.372.372,0,0,0,0,.743h3.951a.372.372,0,0,0,.372-.372m0,1.721a.372.372,0,0,0-.372-.372h-3.951a.371.371,0,1,0,0,.742h3.951a.371.371,0,0,0,.372-.371m0,1.72a.371.371,0,0,0-.372-.371h-3.951a.371.371,0,1,0,0,.742h3.951a.371.371,0,0,0,.372-.372m0,1.721a.372.372,0,0,0-.372-.372h-3.951a.372.372,0,0,0,0,.744h3.951a.372.372,0,0,0,.372-.372m0,1.72a.372.372,0,0,0-.372-.371h-3.951a.371.371,0,1,0,0,.742h3.951a.371.371,0,0,0,.372-.372m4.73,1.721a.371.371,0,0,0-.371-.371h-3.952a.371.371,0,1,0,0,.742h3.952a.37.37,0,0,0,.371-.372m0,1.721a.371.371,0,0,0-.371-.371h-3.952a.372.372,0,0,0,0,.743h3.952a.371.371,0,0,0,.371-.372m0,1.721a.371.371,0,0,0-.371-.372h-3.952a.371.371,0,1,0,0,.742h3.952a.371.371,0,0,0,.371-.371M283.269,160.6a.43.43,0,1,0-.43.43.431.431,0,0,0,.43-.43m1.29,0a.43.43,0,1,0-.43.43.43.43,0,0,0,.43-.43m1.291,0a.43.43,0,1,0-.431.43.431.431,0,0,0,.431-.43m1.29,0a.43.43,0,1,0-.43.43.43.43,0,0,0,.43-.43m1.291,0a.43.43,0,1,0-.431.43.431.431,0,0,0,.431-.43m1.29,0a.43.43,0,1,0-.43.43.43.43,0,0,0,.43-.43m-6.451,3.442a.43.43,0,1,0-.43.43.431.431,0,0,0,.43-.43m1.29,0a.43.43,0,1,0-.43.43.431.431,0,0,0,.43-.43m1.291,0a.43.43,0,1,0-.431.43.431.431,0,0,0,.431-.43m1.29,0a.43.43,0,1,0-.43.43.431.431,0,0,0,.43-.43m1.291,0a.43.43,0,1,0-.431.43.431.431,0,0,0,.431-.43m1.29,0a.43.43,0,1,0-.43.43.431.431,0,0,0,.43-.43m-2.043,4.945a.43.43,0,1,0-.43.431.431.431,0,0,0,.43-.431m1.29,0a.43.43,0,1,0-.43.431.43.43,0,0,0,.43-.431m1.291,0a.43.43,0,1,0-.43.431.43.43,0,0,0,.43-.431m1.29,0a.43.43,0,1,0-.43.431.43.43,0,0,0,.43-.431m1.291,0a.43.43,0,1,0-.43.431.43.43,0,0,0,.43-.431m1.29,0a.43.43,0,1,0-.43.431.43.43,0,0,0,.43-.431m-6.451,3.548a.43.43,0,1,0-.43.43.43.43,0,0,0,.43-.43m1.29,0a.43.43,0,1,0-.43.43.43.43,0,0,0,.43-.43m1.291,0a.43.43,0,1,0-.43.43.43.43,0,0,0,.43-.43m1.29,0a.43.43,0,1,0-.43.43.43.43,0,0,0,.43-.43m1.291,0a.43.43,0,1,0-.43.43.43.43,0,0,0,.43-.43m1.29,0a.43.43,0,1,0-.43.43.43.43,0,0,0,.43-.43" transform="translate(-95.909 -56.137)" fill="#1682fb"/>
        <path id="Trazado_839763" data-name="Trazado 839763" d="M275.527,182.678h-1.506a.371.371,0,0,1,0-.742h1.506a.371.371,0,1,1,0,.742m.372,1.349a.371.371,0,0,0-.372-.372h-1.506a.372.372,0,0,0,0,.743h1.506a.371.371,0,0,0,.372-.372m0,1.721a.371.371,0,0,0-.372-.372h-1.506a.371.371,0,0,0,0,.742h1.506a.371.371,0,0,0,.372-.371m0,1.72a.371.371,0,0,0-.372-.372h-1.506a.372.372,0,0,0,0,.743h1.506a.371.371,0,0,0,.372-.372m0,1.72a.371.371,0,0,0-.372-.371h-1.506a.371.371,0,0,0,0,.742h1.506a.371.371,0,0,0,.372-.372m0,1.721a.371.371,0,0,0-.372-.372h-1.506a.371.371,0,0,0,0,.742h1.506a.371.371,0,0,0,.372-.371m0,1.72a.371.371,0,0,0-.372-.372h-1.506a.372.372,0,0,0,0,.743h1.506a.371.371,0,0,0,.372-.372m0,1.721a.371.371,0,0,0-.372-.372h-1.506a.371.371,0,0,0,0,.742h1.506a.371.371,0,0,0,.372-.371m5.631-12.043a.371.371,0,0,0-.372-.371h-3.951a.371.371,0,1,0,0,.742h3.951a.371.371,0,0,0,.372-.372m0,1.721a.371.371,0,0,0-.372-.372h-3.951a.372.372,0,0,0,0,.743h3.951a.371.371,0,0,0,.372-.372m0,1.721a.371.371,0,0,0-.372-.372h-3.951a.371.371,0,1,0,0,.742h3.951a.371.371,0,0,0,.372-.371m0,1.72a.371.371,0,0,0-.372-.372h-3.951a.372.372,0,0,0,0,.743h3.951a.371.371,0,0,0,.372-.372m0,1.72a.371.371,0,0,0-.372-.371h-3.951a.371.371,0,1,0,0,.742h3.951a.371.371,0,0,0,.372-.372m4.73,1.721a.371.371,0,0,0-.371-.372h-3.952a.371.371,0,1,0,0,.742h3.952a.371.371,0,0,0,.371-.371m0,1.72a.371.371,0,0,0-.371-.372h-3.952a.372.372,0,0,0,0,.743h3.952a.371.371,0,0,0,.371-.372m0,1.721a.371.371,0,0,0-.371-.372h-3.952a.371.371,0,1,0,0,.742h3.952a.37.37,0,0,0,.371-.371m-2.992-12.043a.43.43,0,1,0-.43.431.431.431,0,0,0,.43-.431m1.29,0a.43.43,0,1,0-.43.431.43.43,0,0,0,.43-.431m1.291,0a.43.43,0,1,0-.431.431.431.431,0,0,0,.431-.431m1.29,0a.43.43,0,1,0-.43.431.43.43,0,0,0,.43-.431m1.291,0a.43.43,0,1,0-.431.431.431.431,0,0,0,.431-.431m1.29,0a.43.43,0,1,0-.43.431.43.43,0,0,0,.43-.431m-6.451,3.441a.43.43,0,1,0-.43.43.431.431,0,0,0,.43-.43m1.29,0a.43.43,0,1,0-.43.43.43.43,0,0,0,.43-.43m1.291,0a.43.43,0,1,0-.431.43.431.431,0,0,0,.431-.43m1.29,0a.43.43,0,1,0-.43.43.43.43,0,0,0,.43-.43m1.291,0a.43.43,0,1,0-.431.43.431.431,0,0,0,.431-.43m1.29,0a.43.43,0,1,0-.43.43.43.43,0,0,0,.43-.43m-2.043,4.945a.43.43,0,1,0-.43.43.431.431,0,0,0,.43-.43m1.29,0a.43.43,0,1,0-.43.43.43.43,0,0,0,.43-.43m1.291,0a.43.43,0,1,0-.43.43.43.43,0,0,0,.43-.43m1.29,0a.43.43,0,1,0-.43.43.43.43,0,0,0,.43-.43m1.291,0a.43.43,0,1,0-.43.43.43.43,0,0,0,.43-.43m1.29,0a.43.43,0,1,0-.43.43.43.43,0,0,0,.43-.43m-6.451,3.548a.43.43,0,1,0-.43.43.43.43,0,0,0,.43-.43m1.29,0a.43.43,0,1,0-.43.43.43.43,0,0,0,.43-.43m1.291,0a.43.43,0,1,0-.43.43.43.43,0,0,0,.43-.43m1.29,0a.43.43,0,1,0-.43.43.43.43,0,0,0,.43-.43m1.291,0a.43.43,0,1,0-.43.43.43.43,0,0,0,.43-.43m1.29,0a.43.43,0,1,0-.43.43.43.43,0,0,0,.43-.43" transform="translate(-95.909 -63.744)" fill="#3ee2a8"/>
      </g>
    </g>
    <g id="Grupo_1095962" data-name="Grupo 1095962">
      <g id="Grupo_1095961" data-name="Grupo 1095961" clip-path="url(#clip-path)">
        <path id="Trazado_839764" data-name="Trazado 839764" d="M226.748,138.052H205.262a.34.34,0,0,1-.148-.646l4.415-2.128a.34.34,0,0,1,.147-.034h19.838a.34.34,0,0,1,.207.609l-2.767,2.128a.342.342,0,0,1-.207.07" transform="translate(-71.821 -47.401)" fill="#263238"/>
        <path id="Trazado_839765" data-name="Trazado 839765" d="M226.748,138.052H205.262a.34.34,0,0,1-.148-.646l4.415-2.128a.34.34,0,0,1,.147-.034h19.838a.34.34,0,0,1,.207.609l-2.767,2.128A.342.342,0,0,1,226.748,138.052Z" transform="translate(-71.821 -47.401)" fill="none" stroke="#263238" stroke-linecap="round" stroke-linejoin="round" stroke-width="1"/>
        <rect id="Rectángulo_387489" data-name="Rectángulo 387489" width="3.951" height="15.048" transform="translate(144.673 74.43)" fill="#fff"/>
        <rect id="Rectángulo_387490" data-name="Rectángulo 387490" width="3.951" height="15.048" transform="translate(144.673 74.43)" fill="none" stroke="#263238" stroke-linecap="round" stroke-linejoin="round" stroke-width="1"/>
        <rect id="Rectángulo_387491" data-name="Rectángulo 387491" width="5.186" height="10.926" transform="translate(144.055 74.43)" fill="#263238"/>
        <rect id="Rectángulo_387492" data-name="Rectángulo 387492" width="5.186" height="10.926" transform="translate(144.055 74.43)" fill="none" stroke="#263238" stroke-linecap="round" stroke-linejoin="round" stroke-width="1"/>
        <rect id="Rectángulo_387493" data-name="Rectángulo 387493" width="65.395" height="51.152" transform="translate(114.884 24.367)" fill="#fff"/>
        <rect id="Rectángulo_387494" data-name="Rectángulo 387494" width="65.395" height="51.152" transform="translate(114.884 24.367)" fill="none" stroke="#263238" stroke-linecap="round" stroke-linejoin="round" stroke-width="1"/>
        <rect id="Rectángulo_387495" data-name="Rectángulo 387495" width="58.398" height="45.679" transform="translate(118.382 27.104)" fill="#263238"/>
        <rect id="Rectángulo_387496" data-name="Rectángulo 387496" width="58.398" height="45.679" transform="translate(118.382 27.104)" fill="none" stroke="#263238" stroke-linecap="round" stroke-linejoin="round" stroke-width="1"/>
        <rect id="Rectángulo_387497" data-name="Rectángulo 387497" width="23.798" height="10.577" transform="translate(122.949 32.212)" fill="none" stroke="#3ee2a8" stroke-miterlimit="10" stroke-width="1"/>
        <path id="Trazado_839766" data-name="Trazado 839766" d="M194.062,77.173h5.546a17.082,17.082,0,0,1,7.241,1.611L209.438,80a10.173,10.173,0,0,0,9.215-.3l.743-.409a17.08,17.08,0,0,1,8.231-2.114h6.555" transform="translate(-68.015 -27.048)" fill="none" stroke="#3ee2a8" stroke-miterlimit="10" stroke-width="1"/>
        <path id="Trazado_839767" data-name="Trazado 839767" d="M194.062,83.139h5.546a17.082,17.082,0,0,1,7.241,1.611l2.589,1.211a10.171,10.171,0,0,0,9.215-.3l.743-.408a17.073,17.073,0,0,1,8.231-2.115h6.555" transform="translate(-68.015 -29.139)" fill="none" stroke="#3ee2a8" stroke-miterlimit="10" stroke-width="1"/>
        <path id="Trazado_839768" data-name="Trazado 839768" d="M194.062,100.257h5.546a17.082,17.082,0,0,0,7.241-1.611l2.589-1.212a10.173,10.173,0,0,1,9.215.3l.743.409a17.08,17.08,0,0,0,8.231,2.114h6.555" transform="translate(-68.015 -33.813)" fill="none" stroke="#3ee2a8" stroke-miterlimit="10" stroke-width="1"/>
        <path id="Trazado_839769" data-name="Trazado 839769" d="M194.062,94.291h5.546a17.082,17.082,0,0,0,7.241-1.611l2.589-1.212a10.173,10.173,0,0,1,9.215.3l.743.409a17.08,17.08,0,0,0,8.231,2.114h6.555" transform="translate(-68.015 -31.722)" fill="none" stroke="#3ee2a8" stroke-miterlimit="10" stroke-width="1"/>
        <rect id="Rectángulo_387498" data-name="Rectángulo 387498" width="3.722" height="3.722" transform="translate(166.823 47.549)" fill="#3ee2a8"/>
        <rect id="Rectángulo_387499" data-name="Rectángulo 387499" width="3.722" height="3.722" transform="translate(166.823 52.13)" fill="#3ee2a8"/>
        <rect id="Rectángulo_387500" data-name="Rectángulo 387500" width="3.722" height="3.722" transform="translate(166.823 60.003)" fill="#3ee2a8"/>
        <rect id="Rectángulo_387501" data-name="Rectángulo 387501" width="3.722" height="3.722" transform="translate(166.823 64.584)" fill="#3ee2a8"/>
        <rect id="Rectángulo_387502" data-name="Rectángulo 387502" width="3.722" height="3.722" transform="translate(121.587 47.549)" fill="#3ee2a8"/>
        <rect id="Rectángulo_387503" data-name="Rectángulo 387503" width="3.722" height="3.722" transform="translate(121.587 52.13)" fill="#3ee2a8"/>
        <rect id="Rectángulo_387504" data-name="Rectángulo 387504" width="3.722" height="3.722" transform="translate(121.587 60.003)" fill="#3ee2a8"/>
        <rect id="Rectángulo_387505" data-name="Rectángulo 387505" width="3.722" height="3.722" transform="translate(121.587 64.584)" fill="#3ee2a8"/>
        <path id="Trazado_839770" data-name="Trazado 839770" d="M233.04,48.881h-1.506a.371.371,0,0,1,0-.742h1.506a.371.371,0,0,1,0,.742m.371,1.349a.371.371,0,0,0-.371-.372h-1.506a.372.372,0,0,0,0,.743h1.506a.371.371,0,0,0,.371-.372m0,1.72a.371.371,0,0,0-.371-.371h-1.506a.371.371,0,0,0,0,.742h1.506a.371.371,0,0,0,.371-.372m0,1.721a.371.371,0,0,0-.371-.372h-1.506a.372.372,0,0,0,0,.743h1.506a.371.371,0,0,0,.371-.372m0,1.721a.371.371,0,0,0-.371-.372h-1.506a.371.371,0,0,0,0,.742h1.506a.37.37,0,0,0,.371-.371m0,1.721a.371.371,0,0,0-.371-.372h-1.506a.371.371,0,0,0,0,.742h1.506a.37.37,0,0,0,.371-.371m0,1.72a.37.37,0,0,0-.371-.371h-1.506a.371.371,0,0,0,0,.742h1.506a.371.371,0,0,0,.371-.372m0,1.721a.371.371,0,0,0-.371-.372h-1.506a.371.371,0,0,0,0,.742h1.506a.37.37,0,0,0,.371-.371m5.631-12.043a.37.37,0,0,0-.371-.371H234.72a.371.371,0,0,0,0,.742h3.952a.371.371,0,0,0,.371-.372m0,1.721a.371.371,0,0,0-.371-.372H234.72a.372.372,0,0,0,0,.743h3.952a.371.371,0,0,0,.371-.372m0,1.72a.371.371,0,0,0-.371-.371H234.72a.371.371,0,0,0,0,.742h3.952a.371.371,0,0,0,.371-.372m0,1.721a.371.371,0,0,0-.371-.372H234.72a.372.372,0,0,0,0,.743h3.952a.371.371,0,0,0,.371-.372m0,1.721a.371.371,0,0,0-.371-.372H234.72a.371.371,0,0,0,0,.742h3.952a.37.37,0,0,0,.371-.371m4.731,1.721a.371.371,0,0,0-.372-.372h-3.951a.371.371,0,1,0,0,.742H243.4a.371.371,0,0,0,.372-.371m0,1.72a.371.371,0,0,0-.372-.371h-3.951a.371.371,0,1,0,0,.742H243.4a.371.371,0,0,0,.372-.372m0,1.721a.371.371,0,0,0-.372-.372h-3.951a.371.371,0,1,0,0,.742H243.4a.371.371,0,0,0,.372-.371m-2.992-12.043a.43.43,0,1,0-.43.43.43.43,0,0,0,.43-.43m1.29,0a.43.43,0,1,0-.43.43.43.43,0,0,0,.43-.43m1.291,0a.43.43,0,1,0-.431.43.431.431,0,0,0,.431-.43m1.29,0a.43.43,0,1,0-.43.43.43.43,0,0,0,.43-.43m1.29,0a.43.43,0,1,0-.43.43.43.43,0,0,0,.43-.43m1.291,0a.43.43,0,1,0-.43.43.43.43,0,0,0,.43-.43m-6.451,3.441a.43.43,0,1,0-.43.43.431.431,0,0,0,.43-.43m1.29,0a.43.43,0,1,0-.43.43.43.43,0,0,0,.43-.43m1.291,0a.43.43,0,1,0-.431.43.431.431,0,0,0,.431-.43m1.29,0a.43.43,0,1,0-.43.43.43.43,0,0,0,.43-.43m1.29,0a.43.43,0,1,0-.43.43.43.43,0,0,0,.43-.43m1.291,0a.43.43,0,1,0-.43.43.431.431,0,0,0,.43-.43M245.19,56.9a.43.43,0,1,0-.43.43.43.43,0,0,0,.43-.43m1.29,0a.43.43,0,1,0-.43.43.43.43,0,0,0,.43-.43m1.291,0a.43.43,0,1,0-.431.43.431.431,0,0,0,.431-.43m1.29,0a.43.43,0,1,0-.43.43.43.43,0,0,0,.43-.43m1.291,0a.43.43,0,1,0-.431.43.431.431,0,0,0,.431-.43m1.29,0a.43.43,0,1,0-.43.43.43.43,0,0,0,.43-.43m-6.451,3.548a.43.43,0,1,0-.43.43.43.43,0,0,0,.43-.43m1.29,0a.43.43,0,1,0-.43.43.43.43,0,0,0,.43-.43m1.291,0a.43.43,0,1,0-.431.43.43.43,0,0,0,.431-.43m1.29,0a.43.43,0,1,0-.43.43.43.43,0,0,0,.43-.43m1.291,0a.43.43,0,1,0-.431.43.43.43,0,0,0,.431-.43m1.29,0a.43.43,0,1,0-.43.43.43.43,0,0,0,.43-.43" transform="translate(-81.018 -16.851)" fill="#1682fb"/>
      </g>
    </g>
    <g id="Grupo_1095964" data-name="Grupo 1095964">
      <g id="Grupo_1095963" data-name="Grupo 1095963" clip-path="url(#clip-path)">
        <path id="Trazado_839771" data-name="Trazado 839771" d="M159,252.89H137.511a.34.34,0,0,1-.147-.646l4.415-2.128a.34.34,0,0,1,.147-.034h19.838a.34.34,0,0,1,.207.609L159.2,252.82a.342.342,0,0,1-.207.07" transform="translate(-48.076 -87.649)" fill="#263238"/>
        <path id="Trazado_839772" data-name="Trazado 839772" d="M159,252.89H137.511a.34.34,0,0,1-.147-.646l4.415-2.128a.34.34,0,0,1,.147-.034h19.838a.34.34,0,0,1,.207.609L159.2,252.82A.342.342,0,0,1,159,252.89Z" transform="translate(-48.076 -87.649)" fill="none" stroke="#263238" stroke-linecap="round" stroke-linejoin="round" stroke-width="1"/>
        <rect id="Rectángulo_387507" data-name="Rectángulo 387507" width="3.951" height="15.048" transform="translate(100.667 149.019)" fill="#fff"/>
        <rect id="Rectángulo_387508" data-name="Rectángulo 387508" width="3.951" height="15.048" transform="translate(100.667 149.019)" fill="none" stroke="#263238" stroke-linecap="round" stroke-linejoin="round" stroke-width="1"/>
        <rect id="Rectángulo_387509" data-name="Rectángulo 387509" width="5.186" height="10.926" transform="translate(100.049 149.019)" fill="#263238"/>
        <rect id="Rectángulo_387510" data-name="Rectángulo 387510" width="5.186" height="10.926" transform="translate(100.049 149.019)" fill="none" stroke="#263238" stroke-linecap="round" stroke-linejoin="round" stroke-width="1"/>
        <rect id="Rectángulo_387511" data-name="Rectángulo 387511" width="65.395" height="51.152" transform="translate(70.878 98.957)" fill="#fff"/>
        <rect id="Rectángulo_387512" data-name="Rectángulo 387512" width="65.395" height="51.152" transform="translate(70.878 98.957)" fill="none" stroke="#263238" stroke-linecap="round" stroke-linejoin="round" stroke-width="1"/>
        <rect id="Rectángulo_387513" data-name="Rectángulo 387513" width="58.398" height="45.679" transform="translate(74.376 101.694)" fill="#263238"/>
        <rect id="Rectángulo_387514" data-name="Rectángulo 387514" width="58.398" height="45.679" transform="translate(74.376 101.694)" fill="none" stroke="#263238" stroke-linecap="round" stroke-linejoin="round" stroke-width="1"/>
        <path id="Trazado_839773" data-name="Trazado 839773" d="M133.449,160.973h-1.506a.372.372,0,0,1,0-.743h1.506a.372.372,0,0,1,0,.743m.371,1.348a.372.372,0,0,0-.371-.372h-1.506a.371.371,0,0,0,0,.742h1.506a.371.371,0,0,0,.371-.371m0,1.72a.371.371,0,0,0-.371-.371h-1.506a.371.371,0,0,0,0,.742h1.506a.371.371,0,0,0,.371-.372m0,1.721a.372.372,0,0,0-.371-.372h-1.506a.372.372,0,0,0,0,.744h1.506a.372.372,0,0,0,.371-.372m0,1.72a.372.372,0,0,0-.371-.371h-1.506a.371.371,0,0,0,0,.742h1.506a.371.371,0,0,0,.371-.372m0,1.721a.371.371,0,0,0-.371-.371h-1.506a.371.371,0,0,0,0,.742h1.506a.371.371,0,0,0,.371-.372m0,1.721a.371.371,0,0,0-.371-.371h-1.506a.372.372,0,0,0,0,.743h1.506a.372.372,0,0,0,.371-.372m0,1.721a.372.372,0,0,0-.371-.372h-1.506a.371.371,0,0,0,0,.742h1.506a.371.371,0,0,0,.371-.371m5.632-12.043a.371.371,0,0,0-.372-.371h-3.952a.372.372,0,0,0,0,.743h3.952a.372.372,0,0,0,.372-.372m0,1.721a.372.372,0,0,0-.372-.372h-3.952a.371.371,0,0,0,0,.742h3.952a.371.371,0,0,0,.372-.371m0,1.72a.371.371,0,0,0-.372-.371h-3.952a.371.371,0,0,0,0,.742h3.952a.371.371,0,0,0,.372-.372m0,1.721a.372.372,0,0,0-.372-.372h-3.952a.372.372,0,0,0,0,.744h3.952a.372.372,0,0,0,.372-.372m0,1.72a.372.372,0,0,0-.372-.371h-3.952a.371.371,0,0,0,0,.742h3.952a.371.371,0,0,0,.372-.372m4.73,1.721a.371.371,0,0,0-.371-.371H139.86a.371.371,0,0,0,0,.742h3.952a.371.371,0,0,0,.371-.372m0,1.721a.371.371,0,0,0-.371-.371H139.86a.372.372,0,0,0,0,.743h3.952a.372.372,0,0,0,.371-.372m0,1.721a.372.372,0,0,0-.371-.372H139.86a.371.371,0,0,0,0,.742h3.952a.371.371,0,0,0,.371-.371M141.191,160.6a.431.431,0,1,0-.431.43.431.431,0,0,0,.431-.43m1.29,0a.43.43,0,1,0-.431.43.431.431,0,0,0,.431-.43m1.291,0a.43.43,0,1,0-.431.43.431.431,0,0,0,.431-.43m1.29,0a.43.43,0,1,0-.43.43.43.43,0,0,0,.43-.43m1.291,0a.431.431,0,1,0-.431.43.431.431,0,0,0,.431-.43m1.29,0a.43.43,0,1,0-.431.43.43.43,0,0,0,.431-.43m-6.451,3.442a.431.431,0,1,0-.431.43.432.432,0,0,0,.431-.43m1.29,0a.43.43,0,1,0-.431.43.431.431,0,0,0,.431-.43m1.291,0a.43.43,0,1,0-.431.43.431.431,0,0,0,.431-.43m1.29,0a.43.43,0,1,0-.43.43.431.431,0,0,0,.43-.43m1.291,0a.431.431,0,1,0-.431.43.431.431,0,0,0,.431-.43m1.29,0a.43.43,0,1,0-.431.43.431.431,0,0,0,.431-.43m-2.043,4.945a.43.43,0,1,0-.429.431.43.43,0,0,0,.429-.431m1.291,0a.43.43,0,1,0-.43.431.431.431,0,0,0,.43-.431m1.291,0a.43.43,0,1,0-.431.431.431.431,0,0,0,.431-.431m1.289,0a.43.43,0,1,0-.429.431.43.43,0,0,0,.429-.431m1.291,0a.431.431,0,1,0-.431.431.431.431,0,0,0,.431-.431m1.29,0a.43.43,0,1,0-.43.431.431.431,0,0,0,.43-.431m-6.452,3.548a.43.43,0,1,0-.429.43.43.43,0,0,0,.429-.43m1.291,0a.43.43,0,1,0-.43.43.43.43,0,0,0,.43-.43m1.291,0a.43.43,0,1,0-.431.43.43.43,0,0,0,.431-.43m1.289,0a.43.43,0,1,0-.429.43.429.429,0,0,0,.429-.43m1.291,0a.431.431,0,1,0-.431.43.431.431,0,0,0,.431-.43m1.29,0a.43.43,0,1,0-.43.43.43.43,0,0,0,.43-.43" transform="translate(-46.114 -56.137)" fill="#3ee2a8"/>
        <path id="Trazado_839774" data-name="Trazado 839774" d="M133.449,182.168h-1.506a.371.371,0,0,1,0-.742h1.506a.371.371,0,0,1,0,.742m.371,1.349a.371.371,0,0,0-.371-.372h-1.506a.372.372,0,0,0,0,.743h1.506a.371.371,0,0,0,.371-.372m0,1.72a.371.371,0,0,0-.371-.371h-1.506a.371.371,0,0,0,0,.742h1.506a.371.371,0,0,0,.371-.372m0,1.721a.371.371,0,0,0-.371-.372h-1.506a.372.372,0,0,0,0,.743h1.506a.371.371,0,0,0,.371-.372m0,1.72a.371.371,0,0,0-.371-.371h-1.506a.371.371,0,0,0,0,.742h1.506a.371.371,0,0,0,.371-.372m0,1.721a.371.371,0,0,0-.371-.371h-1.506a.371.371,0,0,0,0,.742h1.506a.371.371,0,0,0,.371-.372m0,1.721a.371.371,0,0,0-.371-.372h-1.506a.372.372,0,0,0,0,.743h1.506a.371.371,0,0,0,.371-.372m0,1.721a.371.371,0,0,0-.371-.372h-1.506a.371.371,0,0,0,0,.742h1.506a.371.371,0,0,0,.371-.371m5.632-12.043a.371.371,0,0,0-.372-.371h-3.952a.371.371,0,0,0,0,.742h3.952a.371.371,0,0,0,.372-.372m0,1.721a.371.371,0,0,0-.372-.372h-3.952a.372.372,0,0,0,0,.743h3.952a.371.371,0,0,0,.372-.372m0,1.72a.371.371,0,0,0-.372-.371h-3.952a.371.371,0,0,0,0,.742h3.952a.371.371,0,0,0,.372-.372m0,1.721a.371.371,0,0,0-.372-.372h-3.952a.372.372,0,0,0,0,.743h3.952a.371.371,0,0,0,.372-.372m0,1.72a.371.371,0,0,0-.372-.371h-3.952a.371.371,0,0,0,0,.742h3.952a.371.371,0,0,0,.372-.372m4.73,1.721a.371.371,0,0,0-.371-.371H139.86a.371.371,0,0,0,0,.742h3.952a.371.371,0,0,0,.371-.372m0,1.721a.371.371,0,0,0-.371-.372H139.86a.372.372,0,0,0,0,.743h3.952a.371.371,0,0,0,.371-.372m0,1.721a.371.371,0,0,0-.371-.372H139.86a.371.371,0,0,0,0,.742h3.952a.371.371,0,0,0,.371-.371M141.191,181.8a.431.431,0,1,0-.431.431.431.431,0,0,0,.431-.431m1.29,0a.43.43,0,1,0-.431.431.431.431,0,0,0,.431-.431m1.291,0a.43.43,0,1,0-.431.431.431.431,0,0,0,.431-.431m1.29,0a.43.43,0,1,0-.43.431.43.43,0,0,0,.43-.431m1.291,0a.431.431,0,1,0-.431.431.431.431,0,0,0,.431-.431m1.29,0a.43.43,0,1,0-.431.431.43.43,0,0,0,.431-.431m-6.451,3.441a.431.431,0,1,0-.431.43.431.431,0,0,0,.431-.43m1.29,0a.43.43,0,1,0-.431.43.431.431,0,0,0,.431-.43m1.291,0a.43.43,0,1,0-.431.43.431.431,0,0,0,.431-.43m1.29,0a.43.43,0,1,0-.43.43.43.43,0,0,0,.43-.43m1.291,0a.431.431,0,1,0-.431.43.431.431,0,0,0,.431-.43m1.29,0a.43.43,0,1,0-.431.43.43.43,0,0,0,.431-.43m-2.043,4.945a.43.43,0,1,0-.429.43.43.43,0,0,0,.429-.43m1.291,0a.43.43,0,1,0-.43.43.431.431,0,0,0,.43-.43m1.291,0a.43.43,0,1,0-.431.43.431.431,0,0,0,.431-.43m1.289,0a.43.43,0,1,0-.429.43.43.43,0,0,0,.429-.43m1.291,0a.431.431,0,1,0-.431.43.431.431,0,0,0,.431-.43m1.29,0a.43.43,0,1,0-.43.43.431.431,0,0,0,.43-.43m-6.452,3.548a.43.43,0,1,0-.429.43.43.43,0,0,0,.429-.43m1.291,0a.43.43,0,1,0-.43.43.43.43,0,0,0,.43-.43m1.291,0a.43.43,0,1,0-.431.43.43.43,0,0,0,.431-.43m1.289,0a.43.43,0,1,0-.429.43.429.429,0,0,0,.429-.43m1.291,0a.431.431,0,1,0-.431.43.431.431,0,0,0,.431-.43m1.29,0a.43.43,0,1,0-.43.43.43.43,0,0,0,.43-.43" transform="translate(-46.114 -63.565)" fill="#3ee2a8"/>
        <path id="Trazado_839775" data-name="Trazado 839775" d="M133.449,203.874h-1.506a.371.371,0,0,1,0-.742h1.506a.371.371,0,0,1,0,.742m.371,1.349a.371.371,0,0,0-.371-.372h-1.506a.371.371,0,0,0,0,.742h1.506a.371.371,0,0,0,.371-.371m0,1.721a.371.371,0,0,0-.371-.372h-1.506a.371.371,0,0,0,0,.742h1.506a.371.371,0,0,0,.371-.371m0,1.72a.371.371,0,0,0-.371-.372h-1.506a.371.371,0,0,0,0,.742h1.506a.371.371,0,0,0,.371-.371m0,1.72a.371.371,0,0,0-.371-.371h-1.506a.371.371,0,0,0,0,.742h1.506a.371.371,0,0,0,.371-.372m0,1.721a.371.371,0,0,0-.371-.372h-1.506a.371.371,0,0,0,0,.742h1.506a.371.371,0,0,0,.371-.371m0,1.72a.371.371,0,0,0-.371-.372h-1.506a.372.372,0,0,0,0,.743h1.506a.371.371,0,0,0,.371-.372m0,1.721a.371.371,0,0,0-.371-.372h-1.506a.371.371,0,0,0,0,.742h1.506a.371.371,0,0,0,.371-.371m5.632-12.043a.371.371,0,0,0-.372-.371h-3.952a.371.371,0,0,0,0,.742h3.952a.371.371,0,0,0,.372-.372m0,1.721a.371.371,0,0,0-.372-.372h-3.952a.371.371,0,0,0,0,.742h3.952a.371.371,0,0,0,.372-.371m0,1.721a.371.371,0,0,0-.372-.372h-3.952a.371.371,0,0,0,0,.742h3.952a.371.371,0,0,0,.372-.371m0,1.72a.371.371,0,0,0-.372-.372h-3.952a.371.371,0,0,0,0,.742h3.952a.371.371,0,0,0,.372-.371m0,1.72a.371.371,0,0,0-.372-.371h-3.952a.371.371,0,0,0,0,.742h3.952a.371.371,0,0,0,.372-.372m4.73,1.721a.371.371,0,0,0-.371-.372H139.86a.371.371,0,0,0,0,.742h3.952a.371.371,0,0,0,.371-.371m0,1.72a.371.371,0,0,0-.371-.372H139.86a.372.372,0,0,0,0,.743h3.952a.371.371,0,0,0,.371-.372m0,1.721a.371.371,0,0,0-.371-.372H139.86a.371.371,0,0,0,0,.742h3.952a.371.371,0,0,0,.371-.371M141.191,203.5a.431.431,0,1,0-.431.43.431.431,0,0,0,.431-.43m1.29,0a.43.43,0,1,0-.431.43.431.431,0,0,0,.431-.43m1.291,0a.43.43,0,1,0-.431.43.431.431,0,0,0,.431-.43m1.29,0a.43.43,0,1,0-.43.43.43.43,0,0,0,.43-.43m1.291,0a.431.431,0,1,0-.431.43.431.431,0,0,0,.431-.43m1.29,0a.43.43,0,1,0-.431.43.43.43,0,0,0,.431-.43m-6.451,3.441a.431.431,0,1,0-.431.43.431.431,0,0,0,.431-.43m1.29,0a.43.43,0,1,0-.431.43.431.431,0,0,0,.431-.43m1.291,0a.43.43,0,1,0-.431.43.431.431,0,0,0,.431-.43m1.29,0a.43.43,0,1,0-.43.43.43.43,0,0,0,.43-.43m1.291,0a.431.431,0,1,0-.431.43.431.431,0,0,0,.431-.43m1.29,0a.43.43,0,1,0-.431.43.43.43,0,0,0,.431-.43m-2.043,4.945a.43.43,0,1,0-.429.43.43.43,0,0,0,.429-.43m1.291,0a.43.43,0,1,0-.43.43.431.431,0,0,0,.43-.43m1.291,0a.43.43,0,1,0-.431.43.431.431,0,0,0,.431-.43m1.289,0a.43.43,0,1,0-.429.43.43.43,0,0,0,.429-.43m1.291,0a.431.431,0,1,0-.431.43.431.431,0,0,0,.431-.43m1.29,0a.43.43,0,1,0-.43.43.431.431,0,0,0,.43-.43m-6.452,3.548a.43.43,0,1,0-.429.43.43.43,0,0,0,.429-.43m1.291,0a.43.43,0,1,0-.43.43.43.43,0,0,0,.43-.43m1.291,0a.43.43,0,1,0-.431.43.43.43,0,0,0,.431-.43m1.289,0a.43.43,0,1,0-.429.43.429.429,0,0,0,.429-.43m1.291,0a.431.431,0,1,0-.431.43.431.431,0,0,0,.431-.43m1.29,0a.43.43,0,1,0-.43.43.43.43,0,0,0,.43-.43" transform="translate(-46.114 -71.173)" fill="#c6ff00"/>
        <path id="Trazado_839776" data-name="Trazado 839776" d="M169.03,160.973h-1.5a.372.372,0,0,1,0-.743h1.5a.372.372,0,1,1,0,.743m.372,1.348a.372.372,0,0,0-.372-.372h-1.5a.371.371,0,0,0,0,.742h1.5a.371.371,0,0,0,.372-.371m0,1.72a.371.371,0,0,0-.372-.371h-1.5a.371.371,0,0,0,0,.742h1.5a.372.372,0,0,0,.372-.372m0,1.721a.372.372,0,0,0-.372-.372h-1.5a.372.372,0,0,0,0,.744h1.5a.373.373,0,0,0,.372-.372m0,1.72a.372.372,0,0,0-.372-.371h-1.5a.371.371,0,0,0,0,.742h1.5a.372.372,0,0,0,.372-.372m0,1.721a.372.372,0,0,0-.372-.371h-1.5a.371.371,0,0,0,0,.742h1.5a.372.372,0,0,0,.372-.372m0,1.721a.372.372,0,0,0-.372-.371h-1.5a.372.372,0,0,0,0,.743h1.5a.373.373,0,0,0,.372-.372m0,1.721a.372.372,0,0,0-.372-.372h-1.5a.371.371,0,0,0,0,.742h1.5a.372.372,0,0,0,.372-.371m5.631-12.043a.371.371,0,0,0-.372-.371h-3.95a.372.372,0,1,0,0,.743h3.95a.372.372,0,0,0,.372-.372m0,1.721a.372.372,0,0,0-.372-.372h-3.95a.371.371,0,1,0,0,.742h3.95a.371.371,0,0,0,.372-.371m0,1.72a.371.371,0,0,0-.372-.371h-3.95a.371.371,0,1,0,0,.742h3.95a.371.371,0,0,0,.372-.372m0,1.721a.372.372,0,0,0-.372-.372h-3.95a.372.372,0,1,0,0,.744h3.95a.372.372,0,0,0,.372-.372m0,1.72a.372.372,0,0,0-.372-.371h-3.95a.371.371,0,1,0,0,.742h3.95a.372.372,0,0,0,.372-.372m4.73,1.721a.371.371,0,0,0-.371-.371h-3.952a.371.371,0,1,0,0,.742h3.952a.371.371,0,0,0,.371-.372m0,1.721a.371.371,0,0,0-.371-.371h-3.952a.372.372,0,1,0,0,.743h3.952a.372.372,0,0,0,.371-.372m0,1.721a.372.372,0,0,0-.371-.372h-3.952a.371.371,0,1,0,0,.742h3.952a.371.371,0,0,0,.371-.371M176.772,160.6a.431.431,0,1,0-.431.43.431.431,0,0,0,.431-.43m1.289,0a.43.43,0,1,0-.43.43.43.43,0,0,0,.43-.43m1.291,0a.43.43,0,1,0-.431.43.431.431,0,0,0,.431-.43m1.291,0a.43.43,0,1,0-.431.43.431.431,0,0,0,.431-.43m1.291,0a.431.431,0,1,0-.431.43.431.431,0,0,0,.431-.43m1.289,0a.43.43,0,1,0-.43.43.431.431,0,0,0,.43-.43m-6.45,3.442a.431.431,0,1,0-.431.43.432.432,0,0,0,.431-.43m1.289,0a.43.43,0,1,0-.43.43.431.431,0,0,0,.43-.43m1.291,0a.43.43,0,1,0-.431.43.431.431,0,0,0,.431-.43m1.291,0a.43.43,0,1,0-.431.43.431.431,0,0,0,.431-.43m1.291,0a.431.431,0,1,0-.431.43.431.431,0,0,0,.431-.43m1.289,0a.43.43,0,1,0-.43.43.431.431,0,0,0,.43-.43m-2.043,4.945a.43.43,0,1,0-.429.431.43.43,0,0,0,.429-.431m1.29,0a.43.43,0,1,0-.43.431.43.43,0,0,0,.43-.431m1.291,0a.43.43,0,1,0-.43.431.43.43,0,0,0,.43-.431m1.29,0a.43.43,0,1,0-.429.431.43.43,0,0,0,.429-.431m1.291,0a.431.431,0,1,0-.431.431.431.431,0,0,0,.431-.431m1.289,0a.43.43,0,1,0-.43.431.43.43,0,0,0,.43-.431m-6.451,3.548a.43.43,0,1,0-.429.43.43.43,0,0,0,.429-.43m1.29,0a.43.43,0,1,0-.43.43.43.43,0,0,0,.43-.43m1.291,0a.43.43,0,1,0-.43.43.43.43,0,0,0,.43-.43m1.29,0a.43.43,0,1,0-.429.43.43.43,0,0,0,.429-.43m1.291,0a.431.431,0,1,0-.431.43.431.431,0,0,0,.431-.43m1.289,0a.43.43,0,1,0-.43.43.43.43,0,0,0,.43-.43" transform="translate(-58.584 -56.137)" fill="#3ee2a8"/>
        <path id="Trazado_839777" data-name="Trazado 839777" d="M169.03,182.678h-1.5a.371.371,0,0,1,0-.742h1.5a.371.371,0,1,1,0,.742m.372,1.349a.372.372,0,0,0-.372-.372h-1.5a.372.372,0,0,0,0,.743h1.5a.372.372,0,0,0,.372-.372m0,1.721a.372.372,0,0,0-.372-.372h-1.5a.371.371,0,0,0,0,.742h1.5a.372.372,0,0,0,.372-.371m0,1.72a.372.372,0,0,0-.372-.372h-1.5a.372.372,0,0,0,0,.743h1.5a.372.372,0,0,0,.372-.372m0,1.72a.372.372,0,0,0-.372-.371h-1.5a.371.371,0,0,0,0,.742h1.5a.372.372,0,0,0,.372-.372m0,1.721a.372.372,0,0,0-.372-.372h-1.5a.371.371,0,0,0,0,.742h1.5a.372.372,0,0,0,.372-.371m0,1.72a.372.372,0,0,0-.372-.372h-1.5a.372.372,0,0,0,0,.743h1.5a.372.372,0,0,0,.372-.372m0,1.721a.372.372,0,0,0-.372-.372h-1.5a.371.371,0,0,0,0,.742h1.5a.371.371,0,0,0,.372-.371m5.631-12.043a.371.371,0,0,0-.372-.371h-3.95a.371.371,0,1,0,0,.742h3.95a.372.372,0,0,0,.372-.372m0,1.721a.372.372,0,0,0-.372-.372h-3.95a.372.372,0,1,0,0,.743h3.95a.372.372,0,0,0,.372-.372m0,1.721a.372.372,0,0,0-.372-.372h-3.95a.371.371,0,1,0,0,.742h3.95a.371.371,0,0,0,.372-.371m0,1.72a.372.372,0,0,0-.372-.372h-3.95a.372.372,0,1,0,0,.743h3.95a.372.372,0,0,0,.372-.372m0,1.72a.371.371,0,0,0-.372-.371h-3.95a.371.371,0,1,0,0,.742h3.95a.372.372,0,0,0,.372-.372m4.73,1.721a.371.371,0,0,0-.371-.372h-3.952a.371.371,0,1,0,0,.742h3.952a.371.371,0,0,0,.371-.371m0,1.72a.371.371,0,0,0-.371-.372h-3.952a.372.372,0,1,0,0,.743h3.952a.371.371,0,0,0,.371-.372m0,1.721a.371.371,0,0,0-.371-.372h-3.952a.371.371,0,1,0,0,.742h3.952a.371.371,0,0,0,.371-.371m-2.991-12.043a.431.431,0,1,0-.431.431.431.431,0,0,0,.431-.431m1.289,0a.43.43,0,1,0-.43.431.43.43,0,0,0,.43-.431m1.291,0a.43.43,0,1,0-.431.431.431.431,0,0,0,.431-.431m1.291,0a.43.43,0,1,0-.431.431.431.431,0,0,0,.431-.431m1.291,0a.431.431,0,1,0-.431.431.431.431,0,0,0,.431-.431m1.289,0a.43.43,0,1,0-.43.431.431.431,0,0,0,.43-.431m-6.45,3.441a.431.431,0,1,0-.431.43.431.431,0,0,0,.431-.43m1.289,0a.43.43,0,1,0-.43.43.43.43,0,0,0,.43-.43m1.291,0a.43.43,0,1,0-.431.43.431.431,0,0,0,.431-.43m1.291,0a.43.43,0,1,0-.431.43.431.431,0,0,0,.431-.43m1.291,0a.431.431,0,1,0-.431.43.431.431,0,0,0,.431-.43m1.289,0a.43.43,0,1,0-.43.43.431.431,0,0,0,.43-.43m-2.043,4.945a.43.43,0,1,0-.429.43.43.43,0,0,0,.429-.43m1.29,0a.43.43,0,1,0-.43.43.43.43,0,0,0,.43-.43m1.291,0a.43.43,0,1,0-.43.43.43.43,0,0,0,.43-.43m1.29,0a.43.43,0,1,0-.429.43.43.43,0,0,0,.429-.43m1.291,0a.431.431,0,1,0-.431.43.431.431,0,0,0,.431-.43m1.289,0a.43.43,0,1,0-.43.43.43.43,0,0,0,.43-.43m-6.451,3.548a.43.43,0,1,0-.429.43.43.43,0,0,0,.429-.43m1.29,0a.43.43,0,1,0-.43.43.43.43,0,0,0,.43-.43m1.291,0a.43.43,0,1,0-.43.43.43.43,0,0,0,.43-.43m1.29,0a.43.43,0,1,0-.429.43.43.43,0,0,0,.429-.43m1.291,0a.431.431,0,1,0-.431.43.431.431,0,0,0,.431-.43m1.289,0a.43.43,0,1,0-.43.43.43.43,0,0,0,.43-.43" transform="translate(-58.584 -63.744)" fill="#3ee2a8"/>
      </g>
    </g>
    <g id="Grupo_1095966" data-name="Grupo 1095966">
      <g id="Grupo_1095965" data-name="Grupo 1095965" clip-path="url(#clip-path)">
        <path id="Trazado_839778" data-name="Trazado 839778" d="M164.441,128.2c-.191,2.456-1.356,4.369-2.6,4.273s-2.1-2.166-1.91-4.623,1.356-4.369,2.6-4.273S164.631,125.745,164.441,128.2Z" transform="translate(-56.043 -43.31)" fill="none" stroke="#263238" stroke-linecap="round" stroke-linejoin="round" stroke-width="1"/>
        <path id="Trazado_839779" data-name="Trazado 839779" d="M146.229,106.776s.251,4.525-.5,6.661-1.76,3.519-1.76,4.525,1.634,2.262,1.634,4.273-3.645,11.688-4.651,13.574-.628,2.513-1.885,2.639-4.4-1.383-4.4-1.383-1.886.251-2.137,1.005-.879,3.394-.879,3.394L113.3,133.294a18.363,18.363,0,0,0,3.77-6.409c1.131-3.645-.628-9.3-.628-9.3s-1.76-13.2,6.283-16.966,19.731-1.382,21.617.5,1.885,5.655,1.885,5.655" transform="translate(-39.71 -34.565)" fill="#fff"/>
      </g>
    </g>
    <g id="Grupo_1095974" data-name="Grupo 1095974" transform="translate(73.593 64.056)">
      <g id="Grupo_1095973" data-name="Grupo 1095973" clip-path="url(#clip-path-15)">
        <g id="Grupo_1095969" data-name="Grupo 1095969" transform="translate(0 0.996)" opacity="0.4">
          <g id="Grupo_1095968" data-name="Grupo 1095968">
            <g id="Grupo_1095967" data-name="Grupo 1095967" clip-path="url(#clip-path-16)">
              <path id="Trazado_839780" data-name="Trazado 839780" d="M134.5,128.171a65.389,65.389,0,0,0-1.353-13.305s.225-1.8-3.157-7.442a74.562,74.562,0,0,0-4.578-7.269,18.64,18.64,0,0,0-2.684,1c-8.043,3.77-6.283,16.967-6.283,16.967s1.76,5.655.628,9.3a18.363,18.363,0,0,1-3.77,6.409l10.661,4.746,8.507-1.16s.436.195,1.077.453a6.5,6.5,0,0,1,1.12-.269s3.142,1.508,4.4,1.382c.839-1.013-4.792-4.949-4.566-10.813" transform="translate(-113.303 -100.155)"/>
            </g>
          </g>
        </g>
        <g id="Grupo_1095972" data-name="Grupo 1095972" transform="translate(22.036 5.559)" opacity="0.4">
          <g id="Grupo_1095971" data-name="Grupo 1095971">
            <g id="Grupo_1095970" data-name="Grupo 1095970" clip-path="url(#clip-path-17)">
              <path id="Trazado_839781" data-name="Trazado 839781" d="M147.97,111.24l4.51-.225s-2.707,2.931.451,2.931,5.184-.791,5.187-2.481,1.578-4.284-4.51-4.284-7.442,2.481-5.638,4.059" transform="translate(-147.23 -107.18)"/>
            </g>
          </g>
        </g>
      </g>
    </g>
    <g id="Grupo_1095976" data-name="Grupo 1095976">
      <g id="Grupo_1095975" data-name="Grupo 1095975" clip-path="url(#clip-path)">
        <path id="Trazado_839783" data-name="Trazado 839783" d="M146.229,106.776s.251,4.525-.5,6.661-1.76,3.519-1.76,4.525,1.634,2.262,1.634,4.273-3.645,11.688-4.651,13.574-.628,2.513-1.885,2.639-4.4-1.383-4.4-1.383-1.886.251-2.137,1.005-.879,3.394-.879,3.394L113.3,133.294a18.363,18.363,0,0,0,3.77-6.409c1.131-3.645-.628-9.3-.628-9.3s-1.76-13.2,6.283-16.966,19.731-1.382,21.617.5S146.229,106.776,146.229,106.776Z" transform="translate(-39.71 -34.565)" fill="none" stroke="#263238" stroke-linecap="round" stroke-linejoin="round" stroke-width="1"/>
        <path id="Trazado_839784" data-name="Trazado 839784" d="M132.111,114.986s3.016.879,3.393,0-.754-1.131.629-1.634,4.65-2.514,4.65-4.525-3.77-5.4-1.885-5.907,7.666-.251,7.666-.251-4.021,1.885-2.01,2.765,6.912-.251,8.8-3.016-.754-7.164-4.4-9.551-10.934-4.4-18.1-4.148-12.442,2.765-13.95,6.912.879,18.726,1,22.622,2.514,5.027,5.279,5.027a6.545,6.545,0,0,0,5.781-4.524c.628-2.137.879-4.273,1.257-4.776s1.885,1.005,1.885,1.005" transform="translate(-40.798 -31.087)" fill="#12263f"/>
        <path id="Trazado_839785" data-name="Trazado 839785" d="M132.111,114.986s3.016.879,3.393,0-.754-1.131.629-1.634,4.65-2.514,4.65-4.525-3.77-5.4-1.885-5.907,7.666-.251,7.666-.251-4.021,1.885-2.01,2.765,6.912-.251,8.8-3.016-.754-7.164-4.4-9.551-10.934-4.4-18.1-4.148-12.442,2.765-13.95,6.912.879,18.726,1,22.622,2.514,5.027,5.279,5.027a6.545,6.545,0,0,0,5.781-4.524c.628-2.137.879-4.273,1.257-4.776S132.111,114.986,132.111,114.986Z" transform="translate(-40.798 -31.087)" fill="none" stroke="#263238" stroke-linecap="round" stroke-linejoin="round" stroke-width="1"/>
        <path id="Trazado_839786" data-name="Trazado 839786" d="M126.891,128.346a9.39,9.39,0,0,1-1.535,1.363" transform="translate(-43.935 -44.983)" fill="none" stroke="#0f2946" stroke-linecap="round" stroke-linejoin="round" stroke-width="1"/>
        <path id="Trazado_839787" data-name="Trazado 839787" d="M157.534,103.323s-.839,1.258-4.194,2.1-10.486-2.727-18.245.839c-5.285,2.429-3.954,6.122-4.689,9.754" transform="translate(-45.705 -36.213)" fill="none" stroke="#152e4a" stroke-linecap="round" stroke-linejoin="round" stroke-width="1"/>
        <path id="Trazado_839788" data-name="Trazado 839788" d="M142.555,113.009s-2.726.42-4.823,3.985-1.888,9.017-8.179,10.695" transform="translate(-45.406 -39.607)" fill="none" stroke="#162d46" stroke-linecap="round" stroke-linejoin="round" stroke-width="1"/>
        <line id="Línea_291" data-name="Línea 291" x2="17.972" y2="1.885" transform="translate(90.182 81.763)" fill="none" stroke="#263238" stroke-linecap="round" stroke-linejoin="round" stroke-width="1"/>
        <path id="Trazado_839789" data-name="Trazado 839789" d="M139.67,128.027s.251-4.4-1.382-6.535-3.016-.628-3.77,3.645-.754,6.535.879,7.164a4.628,4.628,0,0,0,3.268-.126" transform="translate(-46.975 -42.243)" fill="#fff"/>
        <path id="Trazado_839790" data-name="Trazado 839790" d="M139.67,128.027s.251-4.4-1.382-6.535-3.016-.628-3.77,3.645-.754,6.535.879,7.164a4.628,4.628,0,0,0,3.268-.126" transform="translate(-46.975 -42.243)" fill="none" stroke="#263238" stroke-linecap="round" stroke-linejoin="round" stroke-width="1"/>
        <path id="Trazado_839791" data-name="Trazado 839791" d="M161.6,298.24c-1.511-1.491-5.505-5.019-10.525-6.214-6.433-1.532-34.612-4.747-34.612-4.747l-1.378-5.666a37.52,37.52,0,0,0-4.9-1.226c-.919,0-5.054,1.378-14.243,3.37s-25.645-2.883-25.645-2.883a12.5,12.5,0,0,0-4.475,9.545c0,3.878.366,7.135.816,7.822Z" transform="translate(-23.068 -98.27)" fill="#273a89"/>
        <path id="Trazado_839792" data-name="Trazado 839792" d="M161.6,298.24c-1.511-1.491-5.505-5.019-10.525-6.214-6.433-1.532-34.612-4.747-34.612-4.747l-1.378-5.666a37.52,37.52,0,0,0-4.9-1.226c-.919,0-5.054,1.378-14.243,3.37s-25.645-2.883-25.645-2.883a12.5,12.5,0,0,0-4.475,9.545c0,3.878.366,7.135.816,7.822Z" transform="translate(-23.068 -98.27)" fill="none" stroke="#263238" stroke-linecap="round" stroke-linejoin="round" stroke-width="1"/>
        <path id="Trazado_839793" data-name="Trazado 839793" d="M93.653,155.873l-.459.315c-1.768,1.217-8.288,5.738-13.24,9.614-5.781,4.524-6.158,12.944-6.409,19.48s-4.467,47.224-5.472,52.251,7.986,6.314,16.658,7.571,19.857-.126,25.261-2.64,6.661-2.388,6.661-5.153.125-9.048.125-9.551,3.9-31.293,3.645-40.342.5-13.95-1.634-18.474-7.54-8.043-14.7-10.431-10.431-2.639-10.431-2.639" transform="translate(-23.831 -54.63)" fill="#3ee2a8"/>
      </g>
    </g>
    <g id="Grupo_1095983" data-name="Grupo 1095983">
      <g id="Grupo_1095982" data-name="Grupo 1095982" clip-path="url(#clip-path)">
        <path id="Trazado_839800" data-name="Trazado 839800" d="M93.653,155.873l-.459.315c-1.768,1.217-8.288,5.738-13.24,9.614-5.781,4.524-6.158,12.944-6.409,19.48s-4.467,47.224-5.472,52.251,7.986,6.314,16.658,7.571,19.857-.126,25.261-2.64,6.661-2.388,6.661-5.153.125-9.048.125-9.551,3.9-31.293,3.645-40.342.5-13.95-1.634-18.474-7.54-8.043-14.7-10.431S93.653,155.873,93.653,155.873Z" transform="translate(-23.831 -54.63)" fill="none" stroke="#263238" stroke-linecap="round" stroke-linejoin="round" stroke-width="1"/>
        <path id="Trazado_839801" data-name="Trazado 839801" d="M107.6,149.255l-3.393,5.655s10.18,2.388,15.458,4.525,12.316,7.792,12.316,7.792-1.131-6.409-2.136-8.043-11.437-7.164-15.709-8.8-6.535-1.131-6.535-1.131" transform="translate(-36.523 -52.285)" fill="#3ee2a8"/>
      </g>
    </g>
    <g id="Grupo_1095988" data-name="Grupo 1095988" transform="translate(67.685 96.896)">
      <g id="Grupo_1095987" data-name="Grupo 1095987" clip-path="url(#clip-path-20)">
        <g id="Grupo_1095986" data-name="Grupo 1095986" transform="translate(0.001 0.001)" opacity="0.4">
          <g id="Grupo_1095985" data-name="Grupo 1095985">
            <g id="Grupo_1095984" data-name="Grupo 1095984" clip-path="url(#clip-path-21)">
              <path id="Trazado_839802" data-name="Trazado 839802" d="M123.291,161.245a1.361,1.361,0,0,0,.939-1.055c.362-2.992-4.706-7.257-4.964-7.472-1.985-.989-3.838-1.839-5.129-2.332-4.273-1.634-6.535-1.131-6.535-1.131l-3.393,5.655s10.179,2.388,15.458,4.525a30.179,30.179,0,0,1,3.624,1.811" transform="translate(-104.209 -149.182)"/>
            </g>
          </g>
        </g>
      </g>
    </g>
    <g id="Grupo_1095990" data-name="Grupo 1095990">
      <g id="Grupo_1095989" data-name="Grupo 1095989" clip-path="url(#clip-path)">
        <path id="Trazado_839804" data-name="Trazado 839804" d="M107.6,149.255l-3.393,5.655s10.18,2.388,15.458,4.525,12.316,7.792,12.316,7.792-1.131-6.409-2.136-8.043-11.437-7.164-15.709-8.8S107.6,149.255,107.6,149.255Z" transform="translate(-36.523 -52.285)" fill="none" stroke="#263238" stroke-linecap="round" stroke-linejoin="round" stroke-width="1"/>
        <path id="Trazado_839805" data-name="Trazado 839805" d="M201.621,252.766a24.212,24.212,0,0,0,4.776-5.53c1.508-2.764,2.514-3.518,3.644-3.267a10.286,10.286,0,0,0,2.011.251s4.021-2.388,5.278-2.64,3.77,2.765,3.77,2.765,4.273,3.268,3.77,4.022-1.257.377-1.76.377-1.634-.879-2.262-.628-3.393,2.011-3.393,2.011a19.087,19.087,0,0,1,4.147.377c.88.377,4.147,3.268,3.519,3.644s-.629.5-1.382.377a11.308,11.308,0,0,1-2.514-1.257l-3.394.628s2.011,2.137,2.64,2.64,3.016,1.257,2.011,1.885-1.76.377-3.016-.5a18.6,18.6,0,0,0-4.525-2.262c-.5,0-1.885,1.76-4.147,2.514a22,22,0,0,1-5.655.754l-.629.628-3.77-4.524-.754-.629Z" transform="translate(-70.092 -84.664)" fill="#fff"/>
        <path id="Trazado_839806" data-name="Trazado 839806" d="M201.621,252.766a24.212,24.212,0,0,0,4.776-5.53c1.508-2.764,2.514-3.518,3.644-3.267a10.286,10.286,0,0,0,2.011.251s4.021-2.388,5.278-2.64,3.77,2.765,3.77,2.765,4.273,3.268,3.77,4.022-1.257.377-1.76.377-1.634-.879-2.262-.628-3.393,2.011-3.393,2.011a19.087,19.087,0,0,1,4.147.377c.88.377,4.147,3.268,3.519,3.644s-.629.5-1.382.377a11.308,11.308,0,0,1-2.514-1.257l-3.394.628s2.011,2.137,2.64,2.64,3.016,1.257,2.011,1.885-1.76.377-3.016-.5a18.6,18.6,0,0,0-4.525-2.262c-.5,0-1.885,1.76-4.147,2.514a22,22,0,0,1-5.655.754l-.629.628-3.77-4.524-.754-.629Z" transform="translate(-70.092 -84.664)" fill="none" stroke="#263238" stroke-linecap="round" stroke-linejoin="round" stroke-width="1"/>
        <path id="Trazado_839807" data-name="Trazado 839807" d="M228.492,245.645s-1.131-.628-1.885-.251-5.53,3.142-5.53,3.142" transform="translate(-77.483 -85.964)" fill="none" stroke="#263238" stroke-linecap="round" stroke-linejoin="round" stroke-width="1"/>
        <line id="Línea_292" data-name="Línea 292" x1="2.262" y2="1.508" transform="translate(139.698 159.556)" fill="none" stroke="#263238" stroke-linecap="round" stroke-linejoin="round" stroke-width="1"/>
        <path id="Trazado_839808" data-name="Trazado 839808" d="M164.2,254.5s8.294-.125,9.551-.879,4.273-2.891,4.4-3.77-.629-1.383-1.886-.88a41.356,41.356,0,0,1-5.027,1.76,17.913,17.913,0,0,1-2.639-.754,53.985,53.985,0,0,1,5.153-4.147,4.113,4.113,0,0,1,4.022,0c.879.5,2.262-1.131,1.131-2.011a6.258,6.258,0,0,0-4.022-1.382,5.624,5.624,0,0,0-1.76.377s-1.383-2.262-2.388-2.011a4.283,4.283,0,0,0-1.76,1.005,2.279,2.279,0,0,0-2.262.126,35.054,35.054,0,0,0-3.519,2.011c-1.257,1.005-4.9,3.393-5.4,4.273S164.2,254.5,164.2,254.5" transform="translate(-55.294 -84.39)" fill="#fff"/>
        <path id="Trazado_839809" data-name="Trazado 839809" d="M164.2,254.5s8.294-.125,9.551-.879,4.273-2.891,4.4-3.77-.629-1.383-1.886-.88a41.356,41.356,0,0,1-5.027,1.76,17.913,17.913,0,0,1-2.639-.754,53.985,53.985,0,0,1,5.153-4.147,4.113,4.113,0,0,1,4.022,0c.879.5,2.262-1.131,1.131-2.011a6.258,6.258,0,0,0-4.022-1.382,5.624,5.624,0,0,0-1.76.377s-1.383-2.262-2.388-2.011a4.283,4.283,0,0,0-1.76,1.005,2.279,2.279,0,0,0-2.262.126,35.054,35.054,0,0,0-3.519,2.011c-1.257,1.005-4.9,3.393-5.4,4.273S164.2,254.5,164.2,254.5Z" transform="translate(-55.294 -84.39)" fill="none" stroke="#263238" stroke-linecap="round" stroke-linejoin="round" stroke-width="1"/>
        <line id="Línea_293" data-name="Línea 293" x1="3.519" y2="2.011" transform="translate(114.311 158.425)" fill="none" stroke="#263238" stroke-linecap="round" stroke-linejoin="round" stroke-width="1"/>
        <line id="Línea_294" data-name="Línea 294" x1="2.514" y2="1.76" transform="translate(111.169 157.42)" fill="none" stroke="#263238" stroke-linecap="round" stroke-linejoin="round" stroke-width="1"/>
        <path id="Trazado_839810" data-name="Trazado 839810" d="M127.978,189.686s-3.524,4.78-4.655,8.551.251,9.174.629,10.431,20.485,40.845,22.621,44.741,4.525,4.147,6.284,3.519,21.993-15.081,22.747-15.835,4.147-3.644,4.147-3.644.627-4.022-2.137-6.158-4.148-1.005-4.148-1.005l-17.594,4.775s-9.928-34.184-11.059-40.719.629-6.158-2.89-9.677a49.532,49.532,0,0,0-7.79-6.17" transform="translate(-43.069 -62.559)" fill="#3ee2a8"/>
      </g>
    </g>
    <g id="Grupo_1095995" data-name="Grupo 1095995" transform="translate(79.817 115.935)">
      <g id="Grupo_1095994" data-name="Grupo 1095994" clip-path="url(#clip-path-23)">
        <g id="Grupo_1095993" data-name="Grupo 1095993" transform="translate(0 1.368)" opacity="0.4">
          <g id="Grupo_1095992" data-name="Grupo 1095992">
            <g id="Grupo_1095991" data-name="Grupo 1095991" clip-path="url(#clip-path-24)">
              <path id="Trazado_839811" data-name="Trazado 839811" d="M175.6,241.83c.754-.754,4.147-3.644,4.147-3.644a8.54,8.54,0,0,0-.16-2.928c-7.075,2.8-21.569,8.6-22.414,9.449-1.121,1.121-.561-.84-.561-3.083s-3.363,3.924-3.924,5.325-1.837-3.985-2.242-6.166-7.007-19.058-8.969-26.906-5.447-26.817-7.568-31.109a22.148,22.148,0,0,0-1.261-2.168l-5.31,9.452a56.232,56.232,0,0,0-4.021,8.923c-1.131,3.77.251,9.174.628,10.431.205.685,6.26,12.733,12.078,24.2l.128-.105s10.656,26.972,15.889,24.355c5.136-3.257,22.9-15.364,23.557-16.021" transform="translate(-122.886 -180.599)"/>
            </g>
          </g>
        </g>
      </g>
    </g>
    <g id="Grupo_1095997" data-name="Grupo 1095997">
      <g id="Grupo_1095996" data-name="Grupo 1095996" clip-path="url(#clip-path)">
        <path id="Trazado_839813" data-name="Trazado 839813" d="M127.978,189.686s-3.524,4.78-4.655,8.551.251,9.174.629,10.431,20.485,40.845,22.621,44.741,4.525,4.147,6.284,3.519,21.993-15.081,22.747-15.835,4.147-3.644,4.147-3.644.627-4.022-2.137-6.158-4.148-1.005-4.148-1.005l-17.594,4.775s-9.928-34.184-11.059-40.719.629-6.158-2.89-9.677a49.532,49.532,0,0,0-7.79-6.17" transform="translate(-43.069 -62.559)" fill="none" stroke="#263238" stroke-linecap="round" stroke-linejoin="round" stroke-width="1"/>
        <path id="Trazado_839814" data-name="Trazado 839814" d="M197.084,259.971s5.707.723,6.033,8.294" transform="translate(-69.074 -91.115)" fill="none" stroke="#263238" stroke-linecap="round" stroke-linejoin="round" stroke-width="1"/>
      </g>
    </g>
    <g id="Grupo_1095999" data-name="Grupo 1095999">
      <g id="Grupo_1095998" data-name="Grupo 1095998" clip-path="url(#clip-path)">
        <path id="Trazado_839815" data-name="Trazado 839815" d="M77.185,253.111H80.1c-4.465-8.336-29.1-54.358-29.939-56.446-.918-2.3-2.3-2.3-2.756-3.216s.153-4.9,0-7.5-8.576-26.8-10.874-30.783-5.82-3.522-5.82-3.522l-.918,2.45,14.549,39.666Z" transform="translate(-10.443 -53.141)" fill="#fff"/>
        <path id="Trazado_839816" data-name="Trazado 839816" d="M77.185,253.111H80.1c-4.465-8.336-29.1-54.358-29.939-56.446-.918-2.3-2.3-2.3-2.756-3.216s.153-4.9,0-7.5-8.576-26.8-10.874-30.783-5.82-3.522-5.82-3.522l-.918,2.45,14.549,39.666Z" transform="translate(-10.443 -53.141)" fill="none" stroke="#263238" stroke-linecap="round" stroke-linejoin="round" stroke-width="1"/>
        <path id="Trazado_839817" data-name="Trazado 839817" d="M9.893,195.5c6.042,13.965,23.214,53.061,24.641,56.9H66.915c-3.8-6.843-26.389-47.688-31.155-60.582-5.207-14.089-13.324-39.206-15.314-40.891S8.5,149.245,4.518,150.47.383,152.155.536,154.759,3.87,181.583,9.893,195.5" transform="translate(-0.175 -52.433)" fill="#273a89"/>
        <path id="Trazado_839818" data-name="Trazado 839818" d="M9.893,195.5c6.042,13.965,23.214,53.061,24.641,56.9H66.915c-3.8-6.843-26.389-47.688-31.155-60.582-5.207-14.089-13.324-39.206-15.314-40.891S8.5,149.245,4.518,150.47.383,152.155.536,154.759,3.87,181.583,9.893,195.5Z" transform="translate(-0.175 -52.433)" fill="none" stroke="#263238" stroke-linecap="round" stroke-linejoin="round" stroke-width="1"/>
        <line id="Línea_295" data-name="Línea 295" x2="234.223" transform="translate(21.31 199.97)" fill="#fff"/>
        <line id="Línea_296" data-name="Línea 296" x2="234.223" transform="translate(21.31 199.97)" fill="none" stroke="#263238" stroke-linecap="round" stroke-linejoin="round" stroke-width="1"/>
      </g>
    </g>
  </g>
</svg>
