<svg xmlns="http://www.w3.org/2000/svg" xmlns:xlink="http://www.w3.org/1999/xlink" width="190" height="157" viewBox="0 0 190 157">
  <defs>
    <linearGradient id="linear-gradient" x1="0.5" y1="-0.056" x2="0.5" y2="1" gradientUnits="objectBoundingBox">
      <stop offset="0" stop-color="#3ee2a8"/>
      <stop offset="0.56" stop-color="#3ee2a8"/>
      <stop offset="1" stop-color="#1682fb"/>
    </linearGradient>
  </defs>
  <g id="Grupo_1096003" data-name="Grupo 1096003" transform="translate(-1020 -1086)">
    <g id="Grupo_1095589" data-name="Grupo 1095589" transform="translate(105 -3516)">
      <g id="Grupo_1095436" data-name="Grupo 1095436" transform="translate(-258 3799)">
        <rect id="Rectángulo_386917" data-name="Rectángulo 386917" width="190" height="157" rx="15" transform="translate(1173 803)" fill="url(#linear-gradient)"/>
      </g>
    </g>
    <g id="noun-calendar-6664124" transform="translate(1065 1114.463)">
      <path id="Trazado_839819" data-name="Trazado 839819" d="M93.926,17.832h-12.3V15.148a5.43,5.43,0,0,0-10.859,0v2.684H55.43V15.148a5.43,5.43,0,0,0-10.859,0v2.684H29.234V15.148a5.43,5.43,0,0,0-10.859,0v2.684H6.074A1.074,1.074,0,0,0,5,18.906v70.3a1.076,1.076,0,0,0,1.074,1.074H93.926A1.08,1.08,0,0,0,95,89.2v-70.3a1.076,1.076,0,0,0-1.074-1.074ZM72.918,15.148a3.277,3.277,0,1,1,6.555,0v7.516a3.277,3.277,0,1,1-6.555,0Zm-26.2,0a3.279,3.279,0,0,1,6.559,0v7.516a3.277,3.277,0,1,1-6.555,0Zm-26.195,0a3.277,3.277,0,0,1,6.555,0v7.516a3.277,3.277,0,1,1-6.555,0Zm-2.152,4.836v2.68a5.428,5.428,0,1,0,10.856,0v-2.68H44.571v2.68a5.43,5.43,0,1,0,10.859,0v-2.68H70.767v2.68a5.43,5.43,0,1,0,10.859,0v-2.68H92.849v12.57H7.154V19.984ZM7.153,88.129V34.707h85.7V88.129Zm9.188-29.1h15.5a1.089,1.089,0,0,0,.762-.312,1.076,1.076,0,0,0,.316-.762v-15.5a1.077,1.077,0,0,0-1.078-1.074h-15.5a1.074,1.074,0,0,0-1.074,1.074v15.5a1.089,1.089,0,0,0,.313.762,1.076,1.076,0,0,0,.762.316Zm1.074-15.5H30.758V56.879H17.41ZM57.75,41.375H42.25v0a1.077,1.077,0,0,0-1.078,1.074v15.5a1.076,1.076,0,0,0,.316.762,1.089,1.089,0,0,0,.762.313h15.5a1.067,1.067,0,0,0,1.074-1.074v-15.5a1.073,1.073,0,0,0-1.074-1.07Zm-1.074,15.5-13.348,0V43.531H56.672Zm26.988-15.5h-15.5v0a1.077,1.077,0,0,0-1.078,1.074v15.5a1.076,1.076,0,0,0,.316.762,1.089,1.089,0,0,0,.762.313h15.5a1.067,1.067,0,0,0,1.074-1.074v-15.5a1.073,1.073,0,0,0-1.074-1.07Zm-1.074,15.5-13.348,0V43.531H82.59Zm1.074,7.875h-15.5v0a1.077,1.077,0,0,0-1.078,1.074v15.5a1.1,1.1,0,0,0,.32.762,1.06,1.06,0,0,0,.758.309h15.5a1.059,1.059,0,0,0,.762-.312,1.076,1.076,0,0,0,.316-.762v-15.5a1.076,1.076,0,0,0-1.078-1.07ZM82.59,80.25l-13.348,0V66.906H82.59ZM57.75,64.75H42.25v0a1.077,1.077,0,0,0-1.078,1.074v15.5A1.074,1.074,0,0,0,42.25,82.4h15.5a1.074,1.074,0,0,0,1.078-1.074v-15.5a1.079,1.079,0,0,0-1.078-1.07Zm-1.074,15.5-13.348,0V66.906H56.672ZM32.91,78.027v3.3a1.076,1.076,0,0,1-.316.762,1.064,1.064,0,0,1-.758.313h-15.5a1.059,1.059,0,0,1-.762-.312,1.076,1.076,0,0,1-.316-.762v-15.5a1.074,1.074,0,0,1,1.078-1.074h11a1.076,1.076,0,0,1,0,2.152H17.41V80.254H30.758V78.028a1.077,1.077,0,1,1,2.152,0Zm3.316-11.176v0a1.075,1.075,0,0,1,0,1.523l-9.4,9.4a1.075,1.075,0,0,1-1.523,0l-4.57-4.57a1.077,1.077,0,0,1,.754-1.859,1.079,1.079,0,0,1,.766.34l3.813,3.813,8.641-8.641a1.075,1.075,0,0,1,1.52,0Z"/>
    </g>
  </g>
</svg>
