<svg xmlns="http://www.w3.org/2000/svg" xmlns:xlink="http://www.w3.org/1999/xlink" width="190" height="157" viewBox="0 0 190 157">
  <defs>
    <linearGradient id="linear-gradient" x1="0.5" y1="-0.056" x2="0.5" y2="1" gradientUnits="objectBoundingBox">
      <stop offset="0" stop-color="#3ee2a8"/>
      <stop offset="0.56" stop-color="#3ee2a8"/>
      <stop offset="1" stop-color="#1682fb"/>
    </linearGradient>
  </defs>
  <g id="Grupo_1096065" data-name="Grupo 1096065" transform="translate(1127 10699)">
    <g id="Grupo_1096011" data-name="Grupo 1096011" transform="translate(-2147 -11785)">
      <g id="Grupo_1095589" data-name="Grupo 1095589" transform="translate(105 -3516)">
        <g id="Grupo_1095436" data-name="Grupo 1095436" transform="translate(-258 3799)">
          <rect id="Rectángulo_386917" data-name="Rectángulo 386917" width="190" height="157" rx="15" transform="translate(1173 803)" fill="url(#linear-gradient)"/>
        </g>
      </g>
    </g>
    <g id="noun-assessment-3793324" transform="translate(-1092.8 -10677.2)">
      <g id="Grupo_1096012" data-name="Grupo 1096012" transform="translate(11.8 24.2)">
        <path id="Trazado_839820" data-name="Trazado 839820" d="M104.712,24.2H16.529A4.8,4.8,0,0,0,11.8,28.929V85.417a4.8,4.8,0,0,0,4.729,4.729h88.055a4.8,4.8,0,0,0,4.729-4.729V28.929A4.692,4.692,0,0,0,104.712,24.2ZM16.529,26.245h88.055a2.7,2.7,0,0,1,2.684,2.684v7.285H13.845V28.929A2.886,2.886,0,0,1,16.529,26.245ZM104.712,88.1H16.529a2.7,2.7,0,0,1-2.684-2.684V38.258h93.423V85.289A2.709,2.709,0,0,1,104.712,88.1Z" transform="translate(-11.8 -24.2)"/>
        <path id="Trazado_839821" data-name="Trazado 839821" d="M20.312,33.023A2.812,2.812,0,1,0,17.5,30.212,2.837,2.837,0,0,0,20.312,33.023Zm0-4.345a1.661,1.661,0,1,1-1.661,1.661A1.692,1.692,0,0,1,20.312,28.678Z" transform="translate(-10.215 -23.31)"/>
        <path id="Trazado_839822" data-name="Trazado 839822" d="M27.612,33.023A2.812,2.812,0,1,0,24.8,30.212,3.021,3.021,0,0,0,27.612,33.023Zm0-4.345a1.661,1.661,0,1,1-1.661,1.661A1.9,1.9,0,0,1,27.612,28.678Z" transform="translate(-8.186 -23.31)"/>
        <path id="Trazado_839823" data-name="Trazado 839823" d="M35.012,33.023A2.812,2.812,0,1,0,32.2,30.212,2.925,2.925,0,0,0,35.012,33.023Zm0-4.345a1.661,1.661,0,1,1-1.661,1.661A1.786,1.786,0,0,1,35.012,28.678Z" transform="translate(-6.129 -23.31)"/>
        <path id="Trazado_839824" data-name="Trazado 839824" d="M67.55,66.41a2.052,2.052,0,0,0-2.3-.639l-3.706-3.578A13,13,0,0,0,50.808,42h0A12.872,12.872,0,0,0,37.9,54.908a13.3,13.3,0,0,0,3.834,9.2,13.066,13.066,0,0,0,9.2,3.834h0a13.178,13.178,0,0,0,7.285-2.173l3.706,3.706a1.868,1.868,0,0,0,.639,2.173L69.211,78.3a3.568,3.568,0,0,0,2.556,1.022h0a3.615,3.615,0,0,0,2.556-6.134Zm-16.614,0h0A11.345,11.345,0,0,1,39.561,55.036a11.594,11.594,0,0,1,11.374-11.5h0a11.438,11.438,0,0,1,0,22.876Zm9.713-3.067,3.323,3.323c-.256.128-.383.383-.639.639l-.767.767-3.323-3.323A7.324,7.324,0,0,0,60.649,63.343Zm12.4,13.8a2.2,2.2,0,0,1-3.067,0L63.332,70.5c-.383-.383-.256-.511-.128-.767a11.623,11.623,0,0,1,2.428-2.556h.128c.128,0,.256.128.511.256l6.646,6.646a2.116,2.116,0,0,1,.639,1.534A1.756,1.756,0,0,1,73.045,77.145Z" transform="translate(-4.544 -19.251)"/>
        <path id="Trazado_839825" data-name="Trazado 839825" d="M54.446,46.91a.856.856,0,0,0-1.022.383L48.183,57.9l-3.2-6.646a.66.66,0,0,0-.895-.383.8.8,0,0,0-.383,1.022l3.834,8.051a.7.7,0,0,0,.639.383h0a.7.7,0,0,0,.639-.383l6.007-12.013C55.085,47.549,54.829,47.166,54.446,46.91Z" transform="translate(-2.942 -17.899)"/>
      </g>
    </g>
  </g>
</svg>
