<svg xmlns="http://www.w3.org/2000/svg" xmlns:xlink="http://www.w3.org/1999/xlink" width="190" height="157" viewBox="0 0 190 157">
  <defs>
    <linearGradient id="linear-gradient" x1="0.5" y1="-0.056" x2="0.5" y2="1" gradientUnits="objectBoundingBox">
      <stop offset="0" stop-color="#3ee2a8"/>
      <stop offset="0.56" stop-color="#3ee2a8"/>
      <stop offset="1" stop-color="#1682fb"/>
    </linearGradient>
  </defs>
  <g id="Grupo_1096066" data-name="Grupo 1096066" transform="translate(1127 9209)">
    <g id="Grupo_1096039" data-name="Grupo 1096039" transform="translate(-817 999)">
      <g id="Grupo_1096020" data-name="Grupo 1096020" transform="translate(-1330 -11294)">
        <g id="Grupo_1095589" data-name="Grupo 1095589" transform="translate(105 -3516)">
          <g id="Grupo_1095436" data-name="Grupo 1095436" transform="translate(-258 3799)">
            <rect id="Rectángulo_386917" data-name="Rectángulo 386917" width="190" height="157" rx="15" transform="translate(1173 803)" fill="url(#linear-gradient)"/>
          </g>
        </g>
      </g>
    </g>
    <g id="noun-analysis-6661414" transform="translate(-1081.078 -9174.784)">
      <g id="Grupo_1096031" data-name="Grupo 1096031" transform="translate(12.078 0)">
        <path id="Trazado_839827" data-name="Trazado 839827" d="M82.816,97.569H15.341a3.266,3.266,0,0,1-3.263-3.263V3.263A3.266,3.266,0,0,1,15.341,0H82.816a3.266,3.266,0,0,1,3.263,3.263V94.307A3.266,3.266,0,0,1,82.816,97.569ZM15.341,1.494a1.753,1.753,0,0,0-1.753,1.753V94.291a1.753,1.753,0,0,0,1.753,1.753H82.816a1.753,1.753,0,0,0,1.753-1.753V3.262a1.753,1.753,0,0,0-1.753-1.753H15.341Z" transform="translate(-12.078 0)"/>
        <path id="Trazado_839828" data-name="Trazado 839828" d="M19.919,22.256a.79.79,0,0,1-.534-.213.764.764,0,0,1,0-1.067l3.933-3.933a.764.764,0,0,1,1.067,0l3.689,3.689a.764.764,0,0,1,0,1.067.75.75,0,0,1-1.067,0l-3.156-3.156-3.4,3.4a.748.748,0,0,1-.534.213Z" transform="translate(-12.251 -0.409)"/>
        <path id="Trazado_839829" data-name="Trazado 839829" d="M23.95,81.239a.748.748,0,0,1-.747-.747V17.576a.747.747,0,0,1,1.494,0V80.492A.748.748,0,0,1,23.95,81.239Z" transform="translate(-12.349 -0.409)"/>
        <path id="Trazado_839830" data-name="Trazado 839830" d="M19.919,22.256a.79.79,0,0,1-.534-.213.764.764,0,0,1,0-1.067l3.933-3.933a.764.764,0,0,1,1.067,0l3.689,3.689a.764.764,0,0,1,0,1.067.75.75,0,0,1-1.067,0l-3.156-3.156-3.4,3.4a.748.748,0,0,1-.534.213Z" transform="translate(-12.251 -0.409)"/>
        <path id="Trazado_839831" data-name="Trazado 839831" d="M23.95,81.239a.748.748,0,0,1-.747-.747V17.576a.747.747,0,0,1,1.494,0V80.492A.748.748,0,0,1,23.95,81.239Z" transform="translate(-12.349 -0.409)"/>
        <path id="Trazado_839832" data-name="Trazado 839832" d="M23.866,28.291H20.5a.747.747,0,0,1,0-1.494h3.369a.747.747,0,0,1,0,1.494Z" transform="translate(-12.265 -0.652)"/>
        <path id="Trazado_839833" data-name="Trazado 839833" d="M23.8,37.994H17.622a.747.747,0,0,1,0-1.494H23.8a.747.747,0,0,1,0,1.494Z" transform="translate(-12.195 -0.888)"/>
        <path id="Trazado_839834" data-name="Trazado 839834" d="M23.866,47.713H20.5a.747.747,0,0,1,0-1.494h3.369a.747.747,0,0,1,0,1.494Z" transform="translate(-12.265 -1.124)"/>
        <path id="Trazado_839835" data-name="Trazado 839835" d="M23.8,57.416H17.622a.747.747,0,0,1,0-1.494H23.8a.747.747,0,0,1,0,1.494Z" transform="translate(-12.195 -1.36)"/>
        <path id="Trazado_839836" data-name="Trazado 839836" d="M23.866,67.135H20.5a.747.747,0,0,1,0-1.494h3.369a.747.747,0,0,1,0,1.494Z" transform="translate(-12.265 -1.596)"/>
        <path id="Trazado_839837" data-name="Trazado 839837" d="M78.309,80.664a.79.79,0,0,1-.534-.213.764.764,0,0,1,0-1.067l3.4-3.4L78.02,72.828a.764.764,0,0,1,0-1.067.75.75,0,0,1,1.067,0l3.689,3.689a.764.764,0,0,1,0,1.067L78.843,80.45a.819.819,0,0,1-.534.213Z" transform="translate(-13.67 -1.739)"/>
        <path id="Trazado_839838" data-name="Trazado 839838" d="M80.773,76.822H17.856a.747.747,0,0,1,0-1.494H80.773a.748.748,0,0,1,.747.747A.758.758,0,0,1,80.773,76.822Z" transform="translate(-12.2 -1.831)"/>
        <path id="Trazado_839839" data-name="Trazado 839839" d="M78.309,80.664a.79.79,0,0,1-.534-.213.764.764,0,0,1,0-1.067l3.4-3.4L78.02,72.828a.764.764,0,0,1,0-1.067.75.75,0,0,1,1.067,0l3.689,3.689a.764.764,0,0,1,0,1.067L78.843,80.45a.819.819,0,0,1-.534.213Z" transform="translate(-13.67 -1.739)"/>
        <path id="Trazado_839840" data-name="Trazado 839840" d="M80.773,76.822H17.856a.747.747,0,0,1,0-1.494H80.773a.748.748,0,0,1,.747.747A.758.758,0,0,1,80.773,76.822Z" transform="translate(-12.2 -1.831)"/>
        <path id="Trazado_839841" data-name="Trazado 839841" d="M23.825,82.981a.748.748,0,0,1-.747-.747V76.06a.747.747,0,0,1,1.494,0v6.174A.748.748,0,0,1,23.825,82.981Z" transform="translate(-12.346 -1.831)"/>
        <path id="Trazado_839842" data-name="Trazado 839842" d="M34.981,76.461a.748.748,0,0,1-.747-.747V62.588h-4.8V75.714a.747.747,0,0,1-1.494,0V61.841a.748.748,0,0,1,.747-.747h6.3a.748.748,0,0,1,.747.747V75.714a.748.748,0,0,1-.747.747Z" transform="translate(-12.464 -1.485)"/>
        <path id="Trazado_839843" data-name="Trazado 839843" d="M63.544,76.461a.748.748,0,0,1-.747-.747V62.588h-4.8V75.714a.747.747,0,0,1-1.494,0V61.841a.748.748,0,0,1,.747-.747h6.3a.748.748,0,0,1,.747.747V75.714a.748.748,0,0,1-.747.747Z" transform="translate(-13.158 -1.485)"/>
        <path id="Trazado_839844" data-name="Trazado 839844" d="M44.528,76.207a.748.748,0,0,1-.747-.747V52.15h-4.8V75.46a.747.747,0,0,1-1.494,0V51.4a.748.748,0,0,1,.747-.747h6.3a.748.748,0,0,1,.747.747V75.46a.748.748,0,0,1-.747.747Z" transform="translate(-12.696 -1.232)"/>
        <path id="Trazado_839845" data-name="Trazado 839845" d="M73.184,76.207a.748.748,0,0,1-.747-.747V52.15h-4.8V75.46a.747.747,0,1,1-1.494,0V51.4a.748.748,0,0,1,.747-.747h6.3a.748.748,0,0,1,.747.747V75.46a.748.748,0,0,1-.747.747Z" transform="translate(-13.392 -1.232)"/>
        <path id="Trazado_839846" data-name="Trazado 839846" d="M53.95,76.32a.748.748,0,0,1-.747-.747V56.791H48.4V75.573a.747.747,0,0,1-1.494,0V56.044a.748.748,0,0,1,.747-.747h6.3a.748.748,0,0,1,.747.747V75.588a.745.745,0,0,1-.747.732Z" transform="translate(-12.925 -1.344)"/>
        <path id="Trazado_839847" data-name="Trazado 839847" d="M51.048,33.659a13.744,13.744,0,1,1,9.711-4.025,13.712,13.712,0,0,1-9.711,4.025Zm0-25.978a12.242,12.242,0,1,0,8.659,3.583A12.187,12.187,0,0,0,51.048,7.682Z" transform="translate(-12.691 -0.151)"/>
        <path id="Trazado_839848" data-name="Trazado 839848" d="M72,41.622a.79.79,0,0,1-.534-.213l-11.2-11.2a.755.755,0,0,1,1.067-1.067l11.19,11.2a.764.764,0,0,1,0,1.067.753.753,0,0,1-.518.213Z" transform="translate(-13.244 -0.703)"/>
      </g>
    </g>
  </g>
</svg>
