<svg xmlns="http://www.w3.org/2000/svg" width="85" height="91" viewBox="0 0 85 91">
  <g id="Grupo_1096064" data-name="Grupo 1096064" transform="translate(-180 -1384)">
    <rect id="Rectángulo_387537" data-name="Rectángulo 387537" width="85" height="91" rx="8" transform="translate(180 1384)" fill="#1682fb"/>
    <g id="noun-laptop-6217426" transform="translate(187.5 1390.496)">
      <g id="Grupo_1095593" data-name="Grupo 1095593" transform="translate(12.037 14.504)">
        <path id="Trazado_836088" data-name="Trazado 836088" d="M62.262,47.093H17.119a.892.892,0,0,1-.892-.892V18.278A3.778,3.778,0,0,1,20,14.5H59.38a3.778,3.778,0,0,1,3.774,3.774V46.2A.892.892,0,0,1,62.262,47.093Zm-44.25-1.784H61.37V18.278a1.992,1.992,0,0,0-1.99-1.99H20a1.992,1.992,0,0,0-1.99,1.99Z" transform="translate(-16.228 -14.504)" fill="#fff"/>
      </g>
      <g id="Grupo_1095594" data-name="Grupo 1095594" transform="translate(32.852 18.022)">
        <path id="Trazado_836089" data-name="Trazado 836089" d="M50.592,21.351H47.081a.892.892,0,1,1,0-1.784h3.512a.892.892,0,1,1,0,1.784Z" transform="translate(-46.189 -19.567)" fill="#fff"/>
      </g>
      <g id="Grupo_1095595" data-name="Grupo 1095595" transform="translate(40.182 18.022)">
        <path id="Trazado_836090" data-name="Trazado 836090" d="M58.387,21.351h-.756a.892.892,0,0,1,0-1.784h.756a.892.892,0,0,1,0,1.784Z" transform="translate(-56.739 -19.567)" fill="#fff"/>
      </g>
      <g id="Grupo_1095596" data-name="Grupo 1095596" transform="translate(18.768 23.125)">
        <path id="Trazado_836091" data-name="Trazado 836091" d="M48.214,45.885a.893.893,0,0,1-.869-1.1,5.041,5.041,0,0,0,.134-1.146,4.83,4.83,0,1,0-9.661,0,5.041,5.041,0,0,0,.134,1.146.892.892,0,1,1-1.737.406,6.827,6.827,0,0,1-.18-1.551,6.614,6.614,0,0,1,13.229,0,6.827,6.827,0,0,1-.18,1.551A.893.893,0,0,1,48.214,45.885Zm10.274,0a.892.892,0,0,1-.892-.892v-2.6l-2.8-.55a.892.892,0,0,1-.7-.684,11.749,11.749,0,0,0-1.6-3.847.892.892,0,0,1,.01-.98l1.6-2.373-1.766-1.766-2.374,1.6a.892.892,0,0,1-.98.009,11.75,11.75,0,0,0-3.847-1.6.892.892,0,0,1-.684-.7L43.9,28.7H41.4l-.551,2.8a.892.892,0,0,1-.684.7,11.75,11.75,0,0,0-3.847,1.6.89.89,0,0,1-.98-.009l-2.374-1.6L31.2,33.959l1.6,2.373a.892.892,0,0,1,.01.98,11.749,11.749,0,0,0-1.6,3.847.892.892,0,0,1-.7.684l-2.8.55v2.6a.892.892,0,1,1-1.784,0V41.661a.892.892,0,0,1,.72-.875L29.6,40.2a13.515,13.515,0,0,1,1.391-3.351l-1.686-2.507a.892.892,0,0,1,.11-1.128l2.8-2.8a.891.891,0,0,1,1.128-.11l2.507,1.686A13.5,13.5,0,0,1,39.207,30.6l.582-2.964a.892.892,0,0,1,.875-.72h3.967a.892.892,0,0,1,.875.72l.582,2.964a13.5,13.5,0,0,1,3.351,1.392L51.947,30.3a.894.894,0,0,1,1.128.11l2.8,2.8a.892.892,0,0,1,.11,1.128L54.3,36.853A13.515,13.515,0,0,1,55.7,40.2l2.965.582a.892.892,0,0,1,.72.875v3.332A.892.892,0,0,1,58.488,45.885Z" transform="translate(-25.916 -26.913)" fill="#fff"/>
      </g>
      <g id="Grupo_1095597" data-name="Grupo 1095597" transform="translate(2.5 45.309)">
        <path id="Trazado_836092" data-name="Trazado 836092" d="M67.608,71.8H3.392a.892.892,0,0,1-.678-1.471l9.537-11.173a.891.891,0,0,1,.678-.313H58.071a.891.891,0,0,1,.678.313l9.537,11.173a.892.892,0,0,1-.678,1.471ZM5.326,70.018H65.674l-8.014-9.39H13.34Z" transform="translate(-2.5 -58.845)" fill="#fff"/>
      </g>
      <g id="Grupo_1095598" data-name="Grupo 1095598" transform="translate(2.5 56.482)">
        <path id="Trazado_836093" data-name="Trazado 836093" d="M65.2,82.27H5.8a3.306,3.306,0,0,1-3.3-3.3V75.819a.892.892,0,0,1,.892-.892H67.608a.892.892,0,0,1,.892.892v3.148A3.306,3.306,0,0,1,65.2,82.27ZM4.284,76.711v2.256A1.52,1.52,0,0,0,5.8,80.486H65.2a1.52,1.52,0,0,0,1.518-1.519V76.711Z" transform="translate(-2.5 -74.927)" fill="#fff"/>
      </g>
      <g id="Grupo_1095604" data-name="Grupo 1095604" transform="translate(15.659 48.678)">
        <g id="Grupo_1095599" data-name="Grupo 1095599">
          <path id="Trazado_836094" data-name="Trazado 836094" d="M26.041,65.478H22.332a.892.892,0,0,1,0-1.784h3.708a.892.892,0,0,1,0,1.784Z" transform="translate(-21.44 -63.694)" fill="#fff"/>
        </g>
        <g id="Grupo_1095600" data-name="Grupo 1095600" transform="translate(8.548)">
          <path id="Trazado_836095" data-name="Trazado 836095" d="M38.344,65.478H34.636a.892.892,0,0,1,0-1.784h3.708a.892.892,0,1,1,0,1.784Z" transform="translate(-33.744 -63.694)" fill="#fff"/>
        </g>
        <g id="Grupo_1095601" data-name="Grupo 1095601" transform="translate(17.095)">
          <path id="Trazado_836096" data-name="Trazado 836096" d="M50.648,65.478H46.939a.892.892,0,0,1,0-1.784h3.708a.892.892,0,0,1,0,1.784Z" transform="translate(-46.047 -63.694)" fill="#fff"/>
        </g>
        <g id="Grupo_1095602" data-name="Grupo 1095602" transform="translate(25.643)">
          <path id="Trazado_836097" data-name="Trazado 836097" d="M62.951,65.478H59.243a.892.892,0,0,1,0-1.784h3.708a.892.892,0,1,1,0,1.784Z" transform="translate(-58.351 -63.694)" fill="#fff"/>
        </g>
        <g id="Grupo_1095603" data-name="Grupo 1095603" transform="translate(34.191)">
          <path id="Trazado_836098" data-name="Trazado 836098" d="M75.255,65.478H71.546a.892.892,0,0,1,0-1.784h3.708a.892.892,0,1,1,0,1.784Z" transform="translate(-70.654 -63.694)" fill="#fff"/>
        </g>
      </g>
      <g id="Grupo_1095609" data-name="Grupo 1095609" transform="translate(19.642 52.58)">
        <g id="Grupo_1095605" data-name="Grupo 1095605">
          <path id="Trazado_836099" data-name="Trazado 836099" d="M31.848,71.094H28.066a.892.892,0,1,1,0-1.784h3.781a.892.892,0,1,1,0,1.784Z" transform="translate(-27.174 -69.31)" fill="#fff"/>
        </g>
        <g id="Grupo_1095606" data-name="Grupo 1095606" transform="translate(8.717)">
          <path id="Trazado_836100" data-name="Trazado 836100" d="M44.395,71.094H40.613a.892.892,0,1,1,0-1.784h3.781a.892.892,0,0,1,0,1.784Z" transform="translate(-39.721 -69.31)" fill="#fff"/>
        </g>
        <g id="Grupo_1095607" data-name="Grupo 1095607" transform="translate(17.434)">
          <path id="Trazado_836101" data-name="Trazado 836101" d="M56.942,71.094H53.16a.892.892,0,1,1,0-1.784h3.781a.892.892,0,0,1,0,1.784Z" transform="translate(-52.268 -69.31)" fill="#fff"/>
        </g>
        <g id="Grupo_1095608" data-name="Grupo 1095608" transform="translate(26.15)">
          <path id="Trazado_836102" data-name="Trazado 836102" d="M69.488,71.094H65.707a.892.892,0,0,1,0-1.784h3.781a.892.892,0,1,1,0,1.784Z" transform="translate(-64.815 -69.31)" fill="#fff"/>
        </g>
      </g>
    </g>
  </g>
</svg>
