<svg xmlns="http://www.w3.org/2000/svg" xmlns:xlink="http://www.w3.org/1999/xlink" width="190" height="157" viewBox="0 0 190 157">
  <defs>
    <linearGradient id="linear-gradient" x1="0.5" y1="-0.056" x2="0.5" y2="1" gradientUnits="objectBoundingBox">
      <stop offset="0" stop-color="#3ee2a8"/>
      <stop offset="0.56" stop-color="#3ee2a8"/>
      <stop offset="1" stop-color="#1682fb"/>
    </linearGradient>
  </defs>
  <g id="Grupo_1095611" data-name="Grupo 1095611" transform="translate(6608 5834)">
    <g id="Grupo_1095468" data-name="Grupo 1095468" transform="translate(-7781 -6637)">
      <rect id="Rectángulo_386917" data-name="Rectángulo 386917" width="190" height="157" rx="15" transform="translate(1173 803)" fill="url(#linear-gradient)"/>
    </g>
    <g id="segunds" transform="translate(-6562.222 -5804.198)">
      <path id="Trazado_836087" data-name="Trazado 836087" d="M17.775,40.661a1.017,1.017,0,0,1-1.017,1.017H14.32a1.018,1.018,0,0,1,0-2.035h2.438A1.017,1.017,0,0,1,17.775,40.661Zm46.839,1.017h2.438a1.018,1.018,0,1,0,0-2.035H64.614a1.018,1.018,0,1,0,0,2.035ZM23.047,24.46a1.018,1.018,0,1,0,1.439-1.439L22.762,21.3a1.018,1.018,0,0,0-1.436,1.439Zm17.639-6.707A1.018,1.018,0,0,0,41.7,16.736V14.294a1.018,1.018,0,0,0-2.035,0v2.438a1.017,1.017,0,0,0,1.017,1.022Zm0,45.82a1.017,1.017,0,0,0-1.017,1.018V67.03a1.018,1.018,0,0,0,2.035,0V64.588a1.018,1.018,0,0,0-1.018-1.018Zm16.92-38.81a1.014,1.014,0,0,0,.719-.3l1.724-1.724A1.017,1.017,0,1,0,58.611,21.3l-1.724,1.718a1.017,1.017,0,0,0,.719,1.739Zm-34.559,32.1-1.721,1.724a1.018,1.018,0,0,0,1.439,1.439L24.486,58.3a1.017,1.017,0,0,0-1.439-1.438Zm20.8-16.2a3.163,3.163,0,0,1-6.159,1.017H24.237a1.018,1.018,0,1,1,0-2.035H37.692a3.178,3.178,0,0,1,1.977-1.977V22.854a1.018,1.018,0,1,1,2.035,0V37.666a3.17,3.17,0,0,1,2.147,2.995Zm-2.035,0a1.13,1.13,0,1,0-1.13,1.13,1.13,1.13,0,0,0,1.13-1.13ZM86.131,65.27v3.322a2.626,2.626,0,0,1-2.189,2.595l-4.053.695q-.14.366-.3.726l2.374,3.361a2.627,2.627,0,0,1-.287,3.387L79.326,81.7a2.626,2.626,0,0,1-3.387.288L72.584,79.61c-.239.107-.481.208-.725.3l-.695,4.053a2.629,2.629,0,0,1-2.595,2.189H65.247a2.627,2.627,0,0,1-2.595-2.189l-.695-4.053c-.244-.092-.487-.194-.726-.3l-3.357,2.375a2.627,2.627,0,0,1-3.387-.288l-2.349-2.349a2.67,2.67,0,0,1-.429-.562A39.65,39.65,0,1,1,78.792,51.754a2.6,2.6,0,0,1,.535.412l2.35,2.349a2.627,2.627,0,0,1,.287,3.387l-2.375,3.357c.107.239.208.481.3.725l4.053.695A2.628,2.628,0,0,1,86.131,65.27ZM40.686,78.306a37.64,37.64,0,0,0,10.8-1.573,2.629,2.629,0,0,1,.373-.768l2.375-3.358c-.108-.239-.209-.481-.3-.726l-.641-.109A33.549,33.549,0,1,1,71.76,53.36l.1.589c.244.092.487.194.726.3l3.357-2.375a2.646,2.646,0,0,1,.8-.384A37.651,37.651,0,1,0,40.685,78.3ZM52.144,54.514l2.349-2.344a2.627,2.627,0,0,1,3.387-.288l3.355,2.371c.239-.107.481-.208.726-.3l.695-4.053A2.626,2.626,0,0,1,65.25,47.71h3.322a2.626,2.626,0,0,1,2.434,1.632A31.494,31.494,0,1,0,49.273,71.006a2.625,2.625,0,0,1-1.586-2.414V65.27a2.627,2.627,0,0,1,2.189-2.6l4.052-.694c.092-.245.194-.487.3-.727L51.855,57.9a2.626,2.626,0,0,1,.289-3.382ZM84.1,65.27a.589.589,0,0,0-.5-.589l-4.64-.795a1.017,1.017,0,0,1-.794-.683,11.811,11.811,0,0,0-.661-1.592,1.018,1.018,0,0,1,.078-1.045L80.3,56.722a.589.589,0,0,0-.065-.769L77.888,53.6a.589.589,0,0,0-.768-.066l-3.844,2.719a1.016,1.016,0,0,1-1.045.079,11.8,11.8,0,0,0-1.593-.661,1.017,1.017,0,0,1-.683-.794l-.795-4.639a.59.59,0,0,0-.59-.5H65.249a.59.59,0,0,0-.589.5l-.8,4.64a1.015,1.015,0,0,1-.683.794,11.894,11.894,0,0,0-1.593.661,1.017,1.017,0,0,1-1.044-.079L56.7,53.539a.59.59,0,0,0-.769.066l-2.349,2.349a.589.589,0,0,0-.066.768l2.719,3.844a1.018,1.018,0,0,1,.078,1.045,11.791,11.791,0,0,0-.66,1.593,1.017,1.017,0,0,1-.795.683l-4.639.8a.589.589,0,0,0-.5.589v3.322a.589.589,0,0,0,.5.589l4.64.8a1.017,1.017,0,0,1,.794.683,11.843,11.843,0,0,0,.661,1.592,1.019,1.019,0,0,1-.079,1.045l-2.719,3.844a.589.589,0,0,0,.065.769l2.349,2.349a.59.59,0,0,0,.769.066l3.844-2.719a1.017,1.017,0,0,1,1.045-.078,11.614,11.614,0,0,0,1.592.66,1.018,1.018,0,0,1,.683.795l.8,4.639a.59.59,0,0,0,.589.5H68.57a.59.59,0,0,0,.59-.5l.794-4.639a1.02,1.02,0,0,1,.683-.794,11.73,11.73,0,0,0,1.593-.66,1.016,1.016,0,0,1,1.044.078l3.844,2.719a.589.589,0,0,0,.768-.066l2.35-2.349a.59.59,0,0,0,.065-.769L77.584,73.3a1.016,1.016,0,0,1-.078-1.044,11.911,11.911,0,0,0,.662-1.594,1.017,1.017,0,0,1,.794-.683l4.64-.8a.589.589,0,0,0,.5-.589Zm-10.2,1.66a6.983,6.983,0,1,1-6.982-6.98,6.983,6.983,0,0,1,6.982,6.98Zm-2.036,0a4.948,4.948,0,1,0-4.948,4.948A4.948,4.948,0,0,0,71.857,66.931Z" transform="translate(5.156 5.159)"/>
    </g>
  </g>
</svg>
