<svg xmlns="http://www.w3.org/2000/svg" xmlns:xlink="http://www.w3.org/1999/xlink" width="190" height="157" viewBox="0 0 190 157">
  <defs>
    <linearGradient id="linear-gradient" x1="0.5" y1="-0.056" x2="0.5" y2="1" gradientUnits="objectBoundingBox">
      <stop offset="0" stop-color="#3ee2a8"/>
      <stop offset="0.56" stop-color="#3ee2a8"/>
      <stop offset="1" stop-color="#1682fb"/>
    </linearGradient>
  </defs>
  <g id="Grupo_1095814" data-name="Grupo 1095814" transform="translate(6653 5210)">
    <g id="Grupo_1095668" data-name="Grupo 1095668" transform="translate(-7568 -9812)">
      <g id="Grupo_1095436" data-name="Grupo 1095436" transform="translate(-258 3799)">
        <rect id="Rectángulo_386917" data-name="Rectángulo 386917" width="190" height="157" rx="15" transform="translate(1173 803)" fill="url(#linear-gradient)"/>
      </g>
    </g>
    <g id="noun-performance-2308496" transform="translate(-6609 -5178.125)">
      <g id="Grupo_1095813" data-name="Grupo 1095813" transform="translate(3 7.125)">
        <g id="Grupo_1095801" data-name="Grupo 1095801">
          <g id="Grupo_1095798" data-name="Grupo 1095798" transform="translate(0 63.471)">
            <path id="Trazado_836467" data-name="Trazado 836467" d="M87.315,55.5H13.9A10.916,10.916,0,0,1,3,44.6V40.759a.971.971,0,0,1,.972-.972H97.247a.971.971,0,0,1,.972.972V44.6A10.916,10.916,0,0,1,87.315,55.5ZM4.943,41.731V44.6A8.972,8.972,0,0,0,13.9,53.559h73.41A8.972,8.972,0,0,0,96.276,44.6V41.731Z" transform="translate(-3 -39.788)"/>
          </g>
          <g id="Grupo_1095799" data-name="Grupo 1095799" transform="translate(42.91 70.357)">
            <path id="Trazado_836468" data-name="Trazado 836468" d="M33.509,45.275H26.053a.972.972,0,0,1,0-1.943h7.456a.972.972,0,0,1,0,1.943Z" transform="translate(-25.082 -43.331)"/>
          </g>
          <g id="Grupo_1095800" data-name="Grupo 1095800" transform="translate(5.275)">
            <path id="Trazado_836469" data-name="Trazado 836469" d="M89.4,72.535H6.686a.971.971,0,0,1-.972-.972V8.1a.971.971,0,0,1,.972-.972H89.4a.971.971,0,0,1,.972.972V71.563A.971.971,0,0,1,89.4,72.535ZM7.658,70.592H88.424V9.068H7.658Z" transform="translate(-5.714 -7.125)"/>
          </g>
        </g>
        <g id="Grupo_1095812" data-name="Grupo 1095812" transform="translate(16.313 9.302)">
          <g id="Grupo_1095802" data-name="Grupo 1095802">
            <path id="Trazado_836470" data-name="Trazado 836470" d="M73,44.172a.971.971,0,0,1-.972-.972,29.345,29.345,0,0,0-58.69,0,.972.972,0,0,1-1.943,0,31.288,31.288,0,0,1,62.576,0A.971.971,0,0,1,73,44.172Z" transform="translate(-11.395 -11.912)"/>
          </g>
          <g id="Grupo_1095803" data-name="Grupo 1095803" transform="translate(0.266 26.336)">
            <path id="Trazado_836471" data-name="Trazado 836471" d="M20.505,27.408h-8a.972.972,0,1,1,0-1.943h8a.972.972,0,1,1,0,1.943Z" transform="translate(-11.531 -25.465)"/>
          </g>
          <g id="Grupo_1095804" data-name="Grupo 1095804" transform="translate(6.709 11.309)">
            <path id="Trazado_836472" data-name="Trazado 836472" d="M20.062,23.917a.968.968,0,0,1-.687-.285L15.132,19.39a.972.972,0,0,1,1.374-1.374l4.243,4.242a.972.972,0,0,1-.687,1.659Z" transform="translate(-14.847 -17.732)"/>
          </g>
          <g id="Grupo_1095805" data-name="Grupo 1095805" transform="translate(16.027 3.579)">
            <path id="Trazado_836473" data-name="Trazado 836473" d="M23.574,21a.97.97,0,0,1-.849-.5l-2.959-5.3a.971.971,0,0,1,1.7-.947l2.959,5.3A.972.972,0,0,1,23.574,21Z" transform="translate(-19.642 -13.753)"/>
          </g>
          <g id="Grupo_1095806" data-name="Grupo 1095806" transform="translate(30.317)">
            <path id="Trazado_836474" data-name="Trazado 836474" d="M27.967,18.755A.971.971,0,0,1,27,17.783v-4.9a.972.972,0,0,1,1.943,0v4.9A.971.971,0,0,1,27.967,18.755Z" transform="translate(-26.996 -11.912)"/>
          </g>
          <g id="Grupo_1095807" data-name="Grupo 1095807" transform="translate(40.728 4.29)">
            <path id="Trazado_836475" data-name="Trazado 836475" d="M33.325,20.654A.972.972,0,0,1,32.638,19L37.23,14.4A.972.972,0,1,1,38.6,15.778l-4.591,4.591A.968.968,0,0,1,33.325,20.654Z" transform="translate(-32.354 -14.119)"/>
          </g>
          <g id="Grupo_1095808" data-name="Grupo 1095808" transform="translate(48.997 10.963)">
            <path id="Trazado_836476" data-name="Trazado 836476" d="M37.58,24.085a.972.972,0,0,1-.687-1.659l4.59-4.589a.972.972,0,1,1,1.374,1.374L38.267,23.8A.968.968,0,0,1,37.58,24.085Z" transform="translate(-36.608 -17.553)"/>
          </g>
          <g id="Grupo_1095809" data-name="Grupo 1095809" transform="translate(51.291 26.336)">
            <path id="Trazado_836477" data-name="Trazado 836477" d="M47.835,27.408H38.761a.972.972,0,0,1,0-1.943h9.074a.972.972,0,0,1,0,1.943Z" transform="translate(-37.789 -25.465)"/>
          </g>
          <g id="Grupo_1095810" data-name="Grupo 1095810" transform="translate(23.733 31.694)">
            <path id="Trazado_836478" data-name="Trazado 836478" d="M31.163,43.333a7.556,7.556,0,1,1,7.556-7.556A7.564,7.564,0,0,1,31.163,43.333Zm0-13.168a5.612,5.612,0,1,0,5.612,5.612A5.618,5.618,0,0,0,31.163,30.165Z" transform="translate(-23.607 -28.222)"/>
          </g>
          <g id="Grupo_1095811" data-name="Grupo 1095811" transform="translate(33.369 22.158)">
            <path id="Trazado_836479" data-name="Trazado 836479" d="M29.538,35.578a.972.972,0,0,1-.71-1.636l9.655-10.32A.972.972,0,1,1,39.9,24.951l-9.655,10.32A.972.972,0,0,1,29.538,35.578Z" transform="translate(-28.566 -23.314)"/>
          </g>
        </g>
      </g>
    </g>
  </g>
</svg>
