<svg xmlns="http://www.w3.org/2000/svg" xmlns:xlink="http://www.w3.org/1999/xlink" width="190" height="157" viewBox="0 0 190 157">
  <defs>
    <linearGradient id="linear-gradient" x1="0.5" y1="-0.056" x2="0.5" y2="1" gradientUnits="objectBoundingBox">
      <stop offset="0" stop-color="#3ee2a8"/>
      <stop offset="0.56" stop-color="#3ee2a8"/>
      <stop offset="1" stop-color="#1682fb"/>
    </linearGradient>
  </defs>
  <g id="Grupo_1095815" data-name="Grupo 1095815" transform="translate(6653 5629)">
    <g id="Grupo_1095660" data-name="Grupo 1095660" transform="translate(-7568 -10231)">
      <g id="Grupo_1095436" data-name="Grupo 1095436" transform="translate(-258 3799)">
        <rect id="Rectángulo_386917" data-name="Rectángulo 386917" width="190" height="157" rx="15" transform="translate(1173 803)" fill="url(#linear-gradient)"/>
      </g>
    </g>
    <g id="noun-network-performance-6289301" transform="translate(-6600.999 -5593.498)">
      <g id="Grupo_1095742" data-name="Grupo 1095742" transform="translate(1.999 2)">
        <path id="Trazado_836342" data-name="Trazado 836342" d="M-93.03-73.885l-10.543,6.094a.854.854,0,0,0-.427.739v12.176a.854.854,0,0,0,.427.739l10.543,6.094a.854.854,0,0,0,.856,0l10.543-6.094a.854.854,0,0,0,.427-.739l.009-12.183a.854.854,0,0,0-.427-.739l-10.55-6.087a.854.854,0,0,0-.856,0Zm.429,1.725,9.7,5.6-.009,11.2-9.689,5.6-9.691-5.6V-66.56Z" transform="translate(104 74)"/>
        <path id="Trazado_836343" data-name="Trazado 836343" d="M-82.478-66.629-92.6-60.782l-10.123-5.84a.854.854,0,0,0-1.166.314.854.854,0,0,0,.312,1.166l10.551,6.087a.854.854,0,0,0,.854,0l10.543-6.094a.854.854,0,0,0,.4-.519.854.854,0,0,0-.086-.649.854.854,0,0,0-1.166-.312Z" transform="translate(104 72.941)"/>
        <path id="Trazado_836344" data-name="Trazado 836344" d="M-90.792-59.608a.854.854,0,0,0-.854.854v11.589a.854.854,0,0,0,.854.854.854.854,0,0,0,.854-.854V-58.754A.854.854,0,0,0-90.792-59.608Z" transform="translate(102.198 71.901)"/>
        <path id="Trazado_836345" data-name="Trazado 836345" d="M-23.727-73.885-34.27-67.791a.854.854,0,0,0-.427.739v12.176a.854.854,0,0,0,.427.739l10.543,6.094a.854.854,0,0,0,.854,0l10.545-6.094a.854.854,0,0,0,.427-.739l.009-12.183a.854.854,0,0,0-.427-.739l-10.551-6.087a.854.854,0,0,0-.854,0Zm.429,1.725,9.7,5.6-.009,11.2-9.691,5.6-9.689-5.6V-66.56Z" transform="translate(93.891 74)"/>
        <path id="Trazado_836346" data-name="Trazado 836346" d="M-12.528-66.714a.854.854,0,0,0-.647.085l-10.118,5.847-10.123-5.84a.854.854,0,0,0-1.166.314.854.854,0,0,0,.312,1.166l10.55,6.087a.854.854,0,0,0,.856,0l10.543-6.094a.854.854,0,0,0,.4-.519.854.854,0,0,0-.086-.649.854.854,0,0,0-.519-.4Z" transform="translate(93.89 72.941)"/>
        <path id="Trazado_836347" data-name="Trazado 836347" d="M-21.492-59.608a.854.854,0,0,0-.854.854v11.589a.854.854,0,0,0,.854.854.854.854,0,0,0,.854-.854V-58.754A.854.854,0,0,0-21.492-59.608Z" transform="translate(92.089 71.901)"/>
        <path id="Trazado_836348" data-name="Trazado 836348" d="M-93.03-8.411l-10.543,6.094a.854.854,0,0,0-.427.739V10.6a.854.854,0,0,0,.427.739l10.543,6.094a.854.854,0,0,0,.856,0l10.543-6.094A.854.854,0,0,0-81.2,10.6L-81.2-1.582a.854.854,0,0,0-.427-.741l-10.55-6.087a.854.854,0,0,0-.856,0Zm.429,1.725,9.7,5.6-.009,11.2-9.689,5.6-9.691-5.6V-1.084Z" transform="translate(104 64.449)"/>
        <path id="Trazado_836349" data-name="Trazado 836349" d="M-82.478-1.153-92.6,4.694l-10.123-5.842a.854.854,0,0,0-1.166.314.854.854,0,0,0,.312,1.166l10.551,6.089a.854.854,0,0,0,.854,0l10.543-6.1a.854.854,0,0,0,.312-1.166.854.854,0,0,0-1.166-.312Z" transform="translate(104 63.39)"/>
        <path id="Trazado_836350" data-name="Trazado 836350" d="M-90.792,5.867a.854.854,0,0,0-.854.854V18.31a.854.854,0,0,0,.854.854.854.854,0,0,0,.854-.854V6.721A.854.854,0,0,0-90.792,5.867Z" transform="translate(102.198 62.35)"/>
        <path id="Trazado_836351" data-name="Trazado 836351" d="M-23.727-8.41-34.27-2.316a.854.854,0,0,0-.427.739V10.6a.854.854,0,0,0,.427.739l10.543,6.094a.854.854,0,0,0,.854,0l10.545-6.094A.854.854,0,0,0-11.9,10.6l.009-12.181a.854.854,0,0,0-.427-.741L-22.871-8.41a.854.854,0,0,0-.854,0Zm.429,1.725,9.7,5.6-.009,11.2-9.691,5.6-9.689-5.6V-1.084Z" transform="translate(93.891 64.449)"/>
        <path id="Trazado_836352" data-name="Trazado 836352" d="M-12.528-1.24a.854.854,0,0,0-.647.087L-23.293,4.694-33.416-1.148a.854.854,0,0,0-1.166.314A.854.854,0,0,0-34.27.332l10.55,6.089a.854.854,0,0,0,.856,0l10.543-6.1a.854.854,0,0,0,.312-1.166A.854.854,0,0,0-12.528-1.24Z" transform="translate(93.89 63.39)"/>
        <path id="Trazado_836353" data-name="Trazado 836353" d="M-21.492,5.867a.854.854,0,0,0-.854.854V18.31a.854.854,0,0,0,.854.854.854.854,0,0,0,.854-.854V6.721A.854.854,0,0,0-21.492,5.867Z" transform="translate(92.089 62.35)"/>
        <path id="Trazado_836354" data-name="Trazado 836354" d="M-90.8-45.475a.854.854,0,0,0-.854.854v31.559a.854.854,0,0,0,.854.854.854.854,0,0,0,.854-.854V-44.621A.854.854,0,0,0-90.8-45.475Z" transform="translate(102.199 69.839)"/>
        <path id="Trazado_836355" data-name="Trazado 836355" d="M-21.5-45.475a.854.854,0,0,0-.854.854v31.559a.854.854,0,0,0,.854.854.854.854,0,0,0,.854-.854V-44.621A.854.854,0,0,0-21.5-45.475Z" transform="translate(92.09 69.839)"/>
        <path id="Trazado_836356" data-name="Trazado 836356" d="M-78.449-59.739a.854.854,0,0,0-.854.854.854.854,0,0,0,.854.854h38.1a.854.854,0,0,0,.854-.854.854.854,0,0,0-.854-.854Z" transform="translate(100.397 71.92)"/>
        <path id="Trazado_836357" data-name="Trazado 836357" d="M-78.449,5.867a.854.854,0,0,0-.854.854.854.854,0,0,0,.854.854h38.1a.854.854,0,0,0,.854-.854.854.854,0,0,0-.854-.854Z" transform="translate(100.397 62.35)"/>
        <path id="Trazado_836358" data-name="Trazado 836358" d="M-38.856-21.648a.853.853,0,0,1-.854-.854A20.813,20.813,0,0,0-60.5-43.292,20.813,20.813,0,0,0-81.291-22.5a.853.853,0,0,1-.854.854A.853.853,0,0,1-83-22.5,22.524,22.524,0,0,1-60.5-45,22.524,22.524,0,0,1-38-22.5a.853.853,0,0,1-.854.854Z" transform="translate(100.937 69.77)"/>
        <path id="Trazado_836359" data-name="Trazado 836359" d="M-62.728-20.731a.842.842,0,0,1-.359-.079l-11.067-5.144.721-1.549,11.065,5.144a.854.854,0,0,1,.415,1.134A.855.855,0,0,1-62.728-20.731Z" transform="translate(99.646 67.218)"/>
        <path id="Trazado_836360" data-name="Trazado 836360" d="M-57.411-15.035a4.34,4.34,0,0,1-1.836-.407,4.377,4.377,0,0,1-2.12-5.807,4.378,4.378,0,0,1,5.807-2.12h0a4.376,4.376,0,0,1,2.12,5.806,4.379,4.379,0,0,1-3.971,2.527Zm.011-7.033a2.667,2.667,0,0,0-2.419,1.54,2.667,2.667,0,0,0,1.292,3.538,2.67,2.67,0,0,0,3.538-1.292,2.665,2.665,0,0,0-1.292-3.537h0a2.652,2.652,0,0,0-1.119-.249Z" transform="translate(97.84 66.674)"/>
      </g>
    </g>
  </g>
</svg>
