<svg xmlns="http://www.w3.org/2000/svg" xmlns:xlink="http://www.w3.org/1999/xlink" width="190" height="157" viewBox="0 0 190 157">
  <defs>
    <linearGradient id="linear-gradient" x1="0.5" y1="-0.056" x2="0.5" y2="1" gradientUnits="objectBoundingBox">
      <stop offset="0" stop-color="#3ee2a8"/>
      <stop offset="0.56" stop-color="#3ee2a8"/>
      <stop offset="1" stop-color="#1682fb"/>
    </linearGradient>
  </defs>
  <g id="Grupo_1095819" data-name="Grupo 1095819" transform="translate(6653 3135)">
    <g id="Grupo_1095708" data-name="Grupo 1095708" transform="translate(-7568 -7737)">
      <g id="Grupo_1095436" data-name="Grupo 1095436" transform="translate(-258 3799)">
        <rect id="Rectángulo_386917" data-name="Rectángulo 386917" width="190" height="157" rx="15" transform="translate(1173 803)" fill="url(#linear-gradient)"/>
      </g>
    </g>
    <g id="noun-startup-2830697" transform="translate(-6606.175 -2689)">
      <g id="Grupo_1095789" data-name="Grupo 1095789" transform="translate(0 -415)">
        <g id="Grupo_1095778" data-name="Grupo 1095778">
          <path id="Trazado_836392" data-name="Trazado 836392" d="M68,14.8H63.1a1,1,0,0,1,0-2H68a1,1,0,0,1,0,2Z"/>
        </g>
        <g id="Grupo_1095779" data-name="Grupo 1095779">
          <path id="Trazado_836393" data-name="Trazado 836393" d="M81.4,69.6H18.6a6.487,6.487,0,0,1-6.5-6.5V19.3a6.487,6.487,0,0,1,6.5-6.5h20a1,1,0,0,1,0,2h-20a4.481,4.481,0,0,0-4.5,4.5V63.1a4.481,4.481,0,0,0,4.5,4.5H81.5A4.481,4.481,0,0,0,86,63.1V19.3a4.481,4.481,0,0,0-4.5-4.5H68a1,1,0,0,1,0-2H81.4a6.487,6.487,0,0,1,6.5,6.5V63.1A6.487,6.487,0,0,1,81.4,69.6Z"/>
        </g>
        <g id="Grupo_1095780" data-name="Grupo 1095780">
          <path id="Trazado_836394" data-name="Trazado 836394" d="M72.2,78.1H27.8a1.234,1.234,0,0,1-.8-.4.972.972,0,0,1-.1-.9l3.4-8.5a1.012,1.012,0,1,1,1.9.7l-2.8,7.1H70.9l-3-7.1a1.012,1.012,0,1,1,1.9-.7l3.4,8.5a.972.972,0,0,1-.1.9A1.8,1.8,0,0,1,72.2,78.1Z"/>
        </g>
        <g id="Grupo_1095781" data-name="Grupo 1095781">
          <path id="Trazado_836395" data-name="Trazado 836395" d="M85.2,100H14.8a3.654,3.654,0,0,1-3.1-1.8,3.347,3.347,0,0,1,0-3.6L18.1,83a1.05,1.05,0,0,1,.9-.5H81.1a1.05,1.05,0,0,1,.9.5l6.4,11.6a3.825,3.825,0,0,1,0,3.6A3.957,3.957,0,0,1,85.2,100ZM19.5,84.5,13.4,95.6a1.535,1.535,0,0,0,0,1.6,1.6,1.6,0,0,0,1.4.8H85.2a1.6,1.6,0,0,0,1.4-.8,1.535,1.535,0,0,0,0-1.6L80.5,84.5Z"/>
        </g>
        <g id="Grupo_1095782" data-name="Grupo 1095782">
          <path id="Trazado_836396" data-name="Trazado 836396" d="M44.4,43.9a.875.875,0,0,1-.9-.6l-1.1-2.8A37.24,37.24,0,0,1,43,11.8,37.947,37.947,0,0,1,50.2.7l.7-.7.7.7c.1.1,13.9,14,9.5,34.1a36.175,36.175,0,0,1-1.7,5.6l-1.1,2.8a1.012,1.012,0,1,1-1.9-.7l1.1-2.8a36.808,36.808,0,0,0,1.6-5.4c3.7-16.5-5.6-28.5-8.2-31.5C48,6.2,37,20.6,44.3,39.8l1.1,2.8a1.04,1.04,0,0,1-.6,1.3Z"/>
        </g>
        <g id="Grupo_1095783" data-name="Grupo 1095783">
          <path id="Trazado_836397" data-name="Trazado 836397" d="M61.1,51.7l-1.6-1.6a11.931,11.931,0,0,0-8.6-3.5,12.535,12.535,0,0,0-8.6,3.5l-1.6,1.6-.7-1c-.1-.1-6.6-10.2.8-17.6a.99.99,0,0,1,1.4,1.4c-5,5-2.5,11.5-1.2,14.1a14,14,0,0,1,19.6,0c1.3-2.5,3.9-9-1.2-14.1a.99.99,0,0,1,1.4-1.4c7.4,7.4.9,17.5.8,17.6Z"/>
        </g>
        <g id="Grupo_1095784" data-name="Grupo 1095784">
          <path id="Trazado_836398" data-name="Trazado 836398" d="M50.9,31.4a5.6,5.6,0,1,1,5.6-5.6A5.656,5.656,0,0,1,50.9,31.4Zm0-9.2a3.6,3.6,0,1,0,3.6,3.6A3.585,3.585,0,0,0,50.9,22.2Z"/>
        </g>
        <g id="Grupo_1095785" data-name="Grupo 1095785">
          <path id="Trazado_836399" data-name="Trazado 836399" d="M50.9,12.8a10.772,10.772,0,0,1-6.4-2.2,1.075,1.075,0,0,1-.2-1.4A1.075,1.075,0,0,1,45.7,9,8.411,8.411,0,0,0,56.1,9a1,1,0,1,1,1.2,1.6A10.772,10.772,0,0,1,50.9,12.8Z"/>
        </g>
        <g id="Grupo_1095788" data-name="Grupo 1095788">
          <g id="Grupo_1095786" data-name="Grupo 1095786">
            <path id="Trazado_836400" data-name="Trazado 836400" d="M50.9,63.9l-.5-.2c-.2-.1-4.4-2.5-4.5-11.5a1,1,0,0,1,1-1h0a1,1,0,0,1,1,1c0,5.9,2,8.5,3,9.4.9-.9,2.9-3.4,3-9.4a1,1,0,0,1,1-1h0a1,1,0,0,1,1,1c0,9-4.3,11.4-4.5,11.5Z"/>
          </g>
          <g id="Grupo_1095787" data-name="Grupo 1095787">
            <path id="Trazado_836401" data-name="Trazado 836401" d="M50.9,55.4a1,1,0,0,1-1-1V49.6a1,1,0,0,1,2,0v4.8A1,1,0,0,1,50.9,55.4Z"/>
          </g>
        </g>
      </g>
    </g>
  </g>
</svg>
