<svg xmlns="http://www.w3.org/2000/svg" width="144.676" height="130.838" viewBox="0 0 144.676 130.838">
  <g id="Grupo_1096048" data-name="Grupo 1096048" transform="translate(-972.324 -1058)">
    <g id="noun-scalability-6394405" transform="translate(992 1053.001)">
      <path id="Trazado_830011" data-name="Trazado 830011" d="M104.315,5a1.38,1.38,0,0,0,0,2.759h5.516a1.38,1.38,0,0,0,0-2.759ZM90.524,5a1.38,1.38,0,0,0,0,2.759h5.517a1.38,1.38,0,0,0,0-2.759ZM76.733,5a1.38,1.38,0,0,0,0,2.759h5.516a1.38,1.38,0,0,0,0-2.759ZM62.944,5a1.38,1.38,0,0,0,0,2.759h5.523a1.38,1.38,0,0,0,0-2.759ZM49.155,5a1.38,1.38,0,0,0,0,2.759h5.516a1.38,1.38,0,0,0,0-2.759ZM35.364,5a1.38,1.38,0,0,0,0,2.759H40.88A1.38,1.38,0,0,0,40.88,5ZM21.573,5a1.38,1.38,0,0,0,0,2.759h5.517a1.38,1.38,0,0,0,0-2.759ZM125,104.315a1.38,1.38,0,0,0-2.759,0v5.516a1.38,1.38,0,0,0,2.759,0Zm0-13.789a1.38,1.38,0,0,0-2.759,0v5.516a1.38,1.38,0,0,0,2.759,0Zm0-13.792a1.38,1.38,0,0,0-2.759,0V82.25a1.38,1.38,0,0,0,2.759,0Zm0-13.791a1.38,1.38,0,0,0-2.759,0v5.524a1.38,1.38,0,0,0,2.759,0V62.944Zm0-13.789a1.38,1.38,0,0,0-2.759,0V54.67a1.38,1.38,0,0,0,2.759,0V49.155Zm0-13.791a1.38,1.38,0,0,0-2.759,0V40.88a1.38,1.38,0,0,0,2.759,0V35.364Zm0-13.789a1.38,1.38,0,0,0-2.759,0V27.09a1.38,1.38,0,0,0,2.759,0V21.575Zm0-13.789a1.384,1.384,0,0,0-.192-.7A1.379,1.379,0,0,0,123.621,5h-5.516a1.38,1.38,0,0,0,0,2.759h4.133V13.3a1.38,1.38,0,0,0,2.759,0V7.784Zm-6.895,114.457a1.38,1.38,0,0,0,0,2.759h5.621a1.373,1.373,0,0,0,.473-.133h0l.028-.013h0l.027-.013h0l.016-.009.013-.008h.012l.019-.011h.008l.02-.012h.009l.021-.015h0l.025-.017h0a1.377,1.377,0,0,0,.408-.451h0l.016-.029h0l.013-.027v-.007l.011-.02v-.009h0l.012-.027h0a1.379,1.379,0,0,0,.141-.58v-5.513a1.38,1.38,0,0,0-2.759,0v4.133Zm-13.791,0a1.38,1.38,0,0,0,0,2.759h5.516a1.38,1.38,0,0,0,0-2.759Zm-13.791,0a1.38,1.38,0,0,0,0,2.759h5.517a1.38,1.38,0,0,0,0-2.759Zm-13.789,0a1.38,1.38,0,0,0,0,2.759h5.516a1.38,1.38,0,0,0,0-2.759ZM7.759,43.9A1.38,1.38,0,0,0,5,43.9v5.516a1.38,1.38,0,0,0,2.759,0V43.9Zm0-13.791a1.38,1.38,0,0,0-2.759,0v5.516a1.38,1.38,0,0,0,2.759,0V30.106Zm0-13.789a1.38,1.38,0,0,0-2.759,0v5.516a1.38,1.38,0,0,0,2.759,0V16.316ZM7.081,5.192A1.379,1.379,0,0,0,5,6.379V8.042a1.38,1.38,0,0,0,2.759,0V7.758H13.3A1.38,1.38,0,0,0,13.3,5H7.784a1.377,1.377,0,0,0-.7.192Zm92.4,27.281L76.512,55.439a1.379,1.379,0,1,1-1.951-1.951L97.533,30.523H89.48a1.379,1.379,0,0,1,0-2.757h11.383a1.372,1.372,0,0,1,.667.173h0c.029.017.059.035.087.053h0l.084.06h0a1.38,1.38,0,0,1,.249.249h0l.06.084h0c.019.028.036.057.053.087h0a1.372,1.372,0,0,1,.173.667V40.522a1.379,1.379,0,1,1-2.757,0Z" transform="translate(0)" fill="#273a89" fill-rule="evenodd"/>
    </g>
    <g id="noun-cpu-6669624" transform="translate(967.555 1109.807)">
      <g id="Grupo_1095791" data-name="Grupo 1095791" transform="translate(5.27 5.269)">
        <path id="Trazado_836403" data-name="Trazado 836403" d="M16.58,16A.579.579,0,0,0,16,16.58V70.527a.579.579,0,0,0,.579.579H70.527a.579.579,0,0,0,.579-.579V16.58A.579.579,0,0,0,70.527,16Zm53.947,56.7H16.58A2.179,2.179,0,0,1,14.4,70.527V16.58A2.181,2.181,0,0,1,16.58,14.4H70.527a2.181,2.181,0,0,1,2.179,2.179V70.527A2.179,2.179,0,0,1,70.527,72.706Z" transform="translate(-6.923 -6.923)" fill="#273a89" stroke="#273a89" stroke-width="1" fill-rule="evenodd"/>
        <path id="Trazado_836404" data-name="Trazado 836404" d="M29.018,66.656h31.6l6.04-6.519V29.494l-6.04-6.519h-31.6l-6.04,6.519V60.137Zm31.951,1.6H28.67A.794.794,0,0,1,28.085,68l-6.491-7.006a.8.8,0,0,1-.214-.544V29.18a.8.8,0,0,1,.214-.544l6.491-7.006a.8.8,0,0,1,.585-.256h32.3a.794.794,0,0,1,.585.256l6.491,7.006a.8.8,0,0,1,.214.544V60.45a.8.8,0,0,1-.214.544L61.555,68A.8.8,0,0,1,60.97,68.256Z" transform="translate(-8.187 -8.185)" fill="#273a89" stroke="#273a89" stroke-width="1" fill-rule="evenodd"/>
        <path id="Trazado_836405" data-name="Trazado 836405" d="M59.354,32.2a.8.8,0,0,1-.422-1.478l4.335-2.71V22.175a.8.8,0,0,1,1.6,0v6.283a.8.8,0,0,1-.377.678L59.78,32.079a.787.787,0,0,1-.422.122Z" transform="translate(-14.918 -8.185)" fill="#273a89" stroke="#273a89" stroke-width="1" fill-rule="evenodd"/>
        <path id="Trazado_836406" data-name="Trazado 836406" d="M56.482,32.932a1.484,1.484,0,1,0,1.484,1.484A1.485,1.485,0,0,0,56.482,32.932Zm0,4.571a3.084,3.084,0,1,1,3.084-3.084A3.087,3.087,0,0,1,56.482,37.5Z" transform="translate(-13.984 -9.989)" fill="#273a89" stroke="#273a89" stroke-width="1" fill-rule="evenodd"/>
        <path id="Trazado_836407" data-name="Trazado 836407" d="M39.252,32.2a.786.786,0,0,1-.422-.122L34.121,29.14a.8.8,0,0,1-.374-.678V22.179a.8.8,0,1,1,1.6,0V28.02l4.335,2.71a.8.8,0,0,1-.425,1.481Z" transform="translate(-10.426 -8.186)" fill="#273a89" stroke="#273a89" stroke-width="1" fill-rule="evenodd"/>
        <path id="Trazado_836408" data-name="Trazado 836408" d="M42.154,32.932a1.484,1.484,0,1,0,1.484,1.484A1.485,1.485,0,0,0,42.154,32.932Zm0,4.571a3.084,3.084,0,1,1,3.084-3.084A3.087,3.087,0,0,1,42.154,37.5Z" transform="translate(-11.39 -9.989)" fill="#273a89" stroke="#273a89" stroke-width="1" fill-rule="evenodd"/>
        <path id="Trazado_836409" data-name="Trazado 836409" d="M64.062,76.227a.8.8,0,0,1-.8-.8V69.586l-4.335-2.71a.8.8,0,1,1,.848-1.353l4.709,2.943a.8.8,0,0,1,.377.678v6.283a.8.8,0,0,1-.8.8Z" transform="translate(-14.917 -16.157)" fill="#273a89" stroke="#273a89" stroke-width="1" fill-rule="evenodd"/>
        <path id="Trazado_836410" data-name="Trazado 836410" d="M56.482,62.733a1.484,1.484,0,1,0,1.484,1.484A1.485,1.485,0,0,0,56.482,62.733Zm0,4.571a3.084,3.084,0,1,1,3.084-3.084A3.087,3.087,0,0,1,56.482,67.3Z" transform="translate(-13.984 -15.385)" fill="#273a89" stroke="#273a89" stroke-width="1" fill-rule="evenodd"/>
        <path id="Trazado_836411" data-name="Trazado 836411" d="M34.542,76.227a.8.8,0,0,1-.8-.8V69.145a.8.8,0,0,1,.374-.678l4.709-2.943a.8.8,0,0,1,.848,1.36l-4.335,2.71v5.841a.8.8,0,0,1-.8.8Z" transform="translate(-10.425 -16.157)" fill="#273a89" stroke="#273a89" stroke-width="1" fill-rule="evenodd"/>
        <path id="Trazado_836412" data-name="Trazado 836412" d="M42.154,62.733a1.484,1.484,0,1,0,1.484,1.484A1.485,1.485,0,0,0,42.154,62.733Zm0,4.571a3.084,3.084,0,1,1,3.084-3.084A3.087,3.087,0,0,1,42.154,67.3Z" transform="translate(-11.39 -15.385)" fill="#273a89" stroke="#273a89" stroke-width="1" fill-rule="evenodd"/>
        <path id="Trazado_836413" data-name="Trazado 836413" d="M74.265,50.623H59.777a.8.8,0,1,1,0-1.6H74.265a.8.8,0,1,1,0,1.6Z" transform="translate(-14.994 -13.192)" fill="#273a89" stroke="#273a89" stroke-width="1" fill-rule="evenodd"/>
        <path id="Trazado_836414" data-name="Trazado 836414" d="M36.663,50.623H22.175a.8.8,0,1,1,0-1.6H36.663a.8.8,0,1,1,0,1.6Z" transform="translate(-8.186 -13.192)" fill="#273a89" stroke="#273a89" stroke-width="1" fill-rule="evenodd"/>
        <path id="Trazado_836415" data-name="Trazado 836415" d="M56.482,47.835a1.484,1.484,0,1,0,1.484,1.484A1.485,1.485,0,0,0,56.482,47.835Zm0,4.571a3.084,3.084,0,1,1,3.084-3.084A3.087,3.087,0,0,1,56.482,52.406Z" transform="translate(-13.984 -12.687)" fill="#273a89" stroke="#273a89" stroke-width="1" fill-rule="evenodd"/>
        <path id="Trazado_836416" data-name="Trazado 836416" d="M42.154,47.835a1.484,1.484,0,1,0,1.484,1.484A1.485,1.485,0,0,0,42.154,47.835Zm0,4.571a3.084,3.084,0,1,1,3.084-3.084A3.087,3.087,0,0,1,42.154,52.406Z" transform="translate(-11.39 -12.687)" fill="#273a89" stroke="#273a89" stroke-width="1" fill-rule="evenodd"/>
        <path id="Trazado_836417" data-name="Trazado 836417" d="M77.936,14.348a.8.8,0,0,1-.8-.8V6.069a.8.8,0,1,1,1.6,0v7.476a.8.8,0,0,1-.8.8Z" transform="translate(-18.282 -5.269)" fill="#273a89" stroke="#273a89" stroke-width="1" fill-rule="evenodd"/>
        <path id="Trazado_836418" data-name="Trazado 836418" d="M68.565,14.348a.8.8,0,0,1-.8-.8V6.069a.8.8,0,0,1,1.6,0v7.476a.8.8,0,0,1-.8.8Z" transform="translate(-16.586 -5.269)" fill="#273a89" stroke="#273a89" stroke-width="1" fill-rule="evenodd"/>
        <path id="Trazado_836419" data-name="Trazado 836419" d="M59.194,14.348a.8.8,0,0,1-.8-.8V6.069a.8.8,0,1,1,1.6,0v7.476a.8.8,0,0,1-.8.8Z" transform="translate(-14.889 -5.269)" fill="#273a89" stroke="#273a89" stroke-width="1" fill-rule="evenodd"/>
        <path id="Trazado_836420" data-name="Trazado 836420" d="M49.823,14.348a.8.8,0,0,1-.8-.8V6.069a.8.8,0,0,1,1.6,0v7.476a.8.8,0,0,1-.8.8Z" transform="translate(-13.192 -5.269)" fill="#273a89" stroke="#273a89" stroke-width="1" fill-rule="evenodd"/>
        <path id="Trazado_836421" data-name="Trazado 836421" d="M40.452,14.348a.8.8,0,0,1-.8-.8V6.069a.8.8,0,1,1,1.6,0v7.476a.8.8,0,0,1-.8.8Z" transform="translate(-11.495 -5.269)" fill="#273a89" stroke="#273a89" stroke-width="1" fill-rule="evenodd"/>
        <path id="Trazado_836422" data-name="Trazado 836422" d="M31.081,14.348a.8.8,0,0,1-.8-.8V6.069a.8.8,0,1,1,1.6,0v7.476a.8.8,0,0,1-.8.8Z" transform="translate(-9.798 -5.269)" fill="#273a89" stroke="#273a89" stroke-width="1" fill-rule="evenodd"/>
        <path id="Trazado_836423" data-name="Trazado 836423" d="M21.71,14.348a.8.8,0,0,1-.8-.8V6.069a.8.8,0,1,1,1.6,0v7.476a.8.8,0,0,1-.8.8Z" transform="translate(-8.102 -5.269)" fill="#273a89" stroke="#273a89" stroke-width="1" fill-rule="evenodd"/>
        <path id="Trazado_836424" data-name="Trazado 836424" d="M77.936,92.723a.8.8,0,0,1-.8-.8V84.444a.8.8,0,1,1,1.6,0V91.92a.8.8,0,0,1-.8.8Z" transform="translate(-18.282 -19.46)" fill="#273a89" stroke="#273a89" stroke-width="1" fill-rule="evenodd"/>
        <path id="Trazado_836425" data-name="Trazado 836425" d="M68.565,92.723a.8.8,0,0,1-.8-.8V84.444a.8.8,0,1,1,1.6,0V91.92a.8.8,0,0,1-.8.8Z" transform="translate(-16.586 -19.46)" fill="#273a89" stroke="#273a89" stroke-width="1" fill-rule="evenodd"/>
        <path id="Trazado_836426" data-name="Trazado 836426" d="M59.194,92.723a.8.8,0,0,1-.8-.8V84.444a.8.8,0,1,1,1.6,0V91.92a.8.8,0,0,1-.8.8Z" transform="translate(-14.889 -19.46)" fill="#273a89" stroke="#273a89" stroke-width="1" fill-rule="evenodd"/>
        <path id="Trazado_836427" data-name="Trazado 836427" d="M49.823,92.723a.8.8,0,0,1-.8-.8V84.444a.8.8,0,1,1,1.6,0V91.92a.8.8,0,0,1-.8.8Z" transform="translate(-13.192 -19.46)" fill="#273a89" stroke="#273a89" stroke-width="1" fill-rule="evenodd"/>
        <path id="Trazado_836428" data-name="Trazado 836428" d="M40.452,92.723a.8.8,0,0,1-.8-.8V84.444a.8.8,0,1,1,1.6,0V91.92a.8.8,0,0,1-.8.8Z" transform="translate(-11.495 -19.46)" fill="#273a89" stroke="#273a89" stroke-width="1" fill-rule="evenodd"/>
        <path id="Trazado_836429" data-name="Trazado 836429" d="M31.081,92.723a.8.8,0,0,1-.8-.8V84.444a.8.8,0,1,1,1.6,0V91.92a.8.8,0,0,1-.8.8Z" transform="translate(-9.798 -19.46)" fill="#273a89" stroke="#273a89" stroke-width="1" fill-rule="evenodd"/>
        <path id="Trazado_836430" data-name="Trazado 836430" d="M21.71,92.723a.8.8,0,0,1-.8-.8V84.444a.8.8,0,1,1,1.6,0V91.92a.8.8,0,0,1-.8.8Z" transform="translate(-8.102 -19.46)" fill="#273a89" stroke="#273a89" stroke-width="1" fill-rule="evenodd"/>
        <path id="Trazado_836431" data-name="Trazado 836431" d="M13.549,22.509H6.069a.8.8,0,0,1,0-1.6h7.479a.8.8,0,0,1,0,1.6Z" transform="translate(-5.27 -8.101)" fill="#273a89" stroke="#273a89" stroke-width="1" fill-rule="evenodd"/>
        <path id="Trazado_836432" data-name="Trazado 836432" d="M13.549,31.88H6.069a.8.8,0,0,1,0-1.6h7.479a.8.8,0,0,1,0,1.6Z" transform="translate(-5.27 -9.798)" fill="#273a89" stroke="#273a89" stroke-width="1" fill-rule="evenodd"/>
        <path id="Trazado_836433" data-name="Trazado 836433" d="M13.549,41.251H6.069a.8.8,0,1,1,0-1.6h7.479a.8.8,0,0,1,0,1.6Z" transform="translate(-5.27 -11.495)" fill="#273a89" stroke="#273a89" stroke-width="1" fill-rule="evenodd"/>
        <path id="Trazado_836434" data-name="Trazado 836434" d="M13.549,50.623H6.069a.8.8,0,1,1,0-1.6h7.479a.8.8,0,1,1,0,1.6Z" transform="translate(-5.27 -13.192)" fill="#273a89" stroke="#273a89" stroke-width="1" fill-rule="evenodd"/>
        <path id="Trazado_836435" data-name="Trazado 836435" d="M13.549,59.994H6.069a.8.8,0,1,1,0-1.6h7.479a.8.8,0,1,1,0,1.6Z" transform="translate(-5.27 -14.888)" fill="#273a89" stroke="#273a89" stroke-width="1" fill-rule="evenodd"/>
        <path id="Trazado_836436" data-name="Trazado 836436" d="M13.549,69.365H6.069a.8.8,0,0,1,0-1.6h7.479a.8.8,0,0,1,0,1.6Z" transform="translate(-5.27 -16.585)" fill="#273a89" stroke="#273a89" stroke-width="1" fill-rule="evenodd"/>
        <path id="Trazado_836437" data-name="Trazado 836437" d="M13.549,78.736H6.069a.8.8,0,0,1,0-1.6h7.479a.8.8,0,0,1,0,1.6Z" transform="translate(-5.27 -18.282)" fill="#273a89" stroke="#273a89" stroke-width="1" fill-rule="evenodd"/>
        <path id="Trazado_836438" data-name="Trazado 836438" d="M91.924,22.509H84.444a.8.8,0,0,1,0-1.6h7.479a.8.8,0,0,1,0,1.6Z" transform="translate(-19.461 -8.101)" fill="#273a89" stroke="#273a89" stroke-width="1" fill-rule="evenodd"/>
        <path id="Trazado_836439" data-name="Trazado 836439" d="M91.924,31.88H84.444a.8.8,0,0,1,0-1.6h7.479a.8.8,0,0,1,0,1.6Z" transform="translate(-19.461 -9.798)" fill="#273a89" stroke="#273a89" stroke-width="1" fill-rule="evenodd"/>
        <path id="Trazado_836440" data-name="Trazado 836440" d="M91.924,41.251H84.444a.8.8,0,0,1,0-1.6h7.479a.8.8,0,0,1,0,1.6Z" transform="translate(-19.461 -11.495)" fill="#273a89" stroke="#273a89" stroke-width="1" fill-rule="evenodd"/>
        <path id="Trazado_836441" data-name="Trazado 836441" d="M91.924,50.623H84.444a.8.8,0,0,1,0-1.6h7.479a.8.8,0,0,1,0,1.6Z" transform="translate(-19.461 -13.192)" fill="#273a89" stroke="#273a89" stroke-width="1" fill-rule="evenodd"/>
        <path id="Trazado_836442" data-name="Trazado 836442" d="M91.924,59.994H84.444a.8.8,0,0,1,0-1.6h7.479a.8.8,0,0,1,0,1.6Z" transform="translate(-19.461 -14.888)" fill="#273a89" stroke="#273a89" stroke-width="1" fill-rule="evenodd"/>
        <path id="Trazado_836443" data-name="Trazado 836443" d="M91.924,69.365H84.444a.8.8,0,0,1,0-1.6h7.479a.8.8,0,0,1,0,1.6Z" transform="translate(-19.461 -16.585)" fill="#273a89" stroke="#273a89" stroke-width="1" fill-rule="evenodd"/>
        <path id="Trazado_836444" data-name="Trazado 836444" d="M91.924,78.736H84.444a.8.8,0,0,1,0-1.6h7.479a.8.8,0,0,1,0,1.6Z" transform="translate(-19.461 -18.282)" fill="#273a89" stroke="#273a89" stroke-width="1" fill-rule="evenodd"/>
      </g>
    </g>
  </g>
</svg>
