<svg xmlns="http://www.w3.org/2000/svg" xmlns:xlink="http://www.w3.org/1999/xlink" width="190" height="157" viewBox="0 0 190 157">
  <defs>
    <linearGradient id="linear-gradient" x1="0.5" y1="-0.056" x2="0.5" y2="1" gradientUnits="objectBoundingBox">
      <stop offset="0" stop-color="#3ee2a8"/>
      <stop offset="0.56" stop-color="#3ee2a8"/>
      <stop offset="1" stop-color="#1682fb"/>
    </linearGradient>
  </defs>
  <g id="Grupo_1095743" data-name="Grupo 1095743" transform="translate(6653 4784)">
    <g id="Grupo_1095676" data-name="Grupo 1095676" transform="translate(-7568 -9386)">
      <g id="Grupo_1095436" data-name="Grupo 1095436" transform="translate(-258 3799)">
        <rect id="Rectángulo_386917" data-name="Rectángulo 386917" width="190" height="157" rx="15" transform="translate(1173 803)" fill="url(#linear-gradient)"/>
      </g>
    </g>
    <g id="noun-metrics-6193699" transform="translate(-6607.967 -4752.018)">
      <path id="Trazado_836361" data-name="Trazado 836361" d="M20.749,76.62H81.605a1.076,1.076,0,0,0,1.076-1.076V70.885a1.075,1.075,0,0,0-1.076-1.075h-2.63V18.4A1.075,1.075,0,0,0,77.9,17.321H66A1.075,1.075,0,0,0,64.922,18.4V69.81H58.2V35.675A1.076,1.076,0,0,0,57.128,34.6h-11.9a1.076,1.076,0,0,0-1.076,1.076V69.81H37.433V44.9a1.076,1.076,0,0,0-1.076-1.076h-11.9A1.076,1.076,0,0,0,23.38,44.9V69.81H20.749a1.075,1.075,0,0,0-1.075,1.075v4.659A1.075,1.075,0,0,0,20.749,76.62ZM67.073,19.472h9.75V69.81h-9.75ZM46.3,36.75h9.749V69.81H46.3ZM25.532,45.976h9.75V69.81h-9.75ZM21.825,71.961h58.7v2.507H21.83ZM95,85.7v8.228a1.076,1.076,0,1,1-2.151,0V86.772H82.679v7.152a1.076,1.076,0,1,1-2.151,0V86.772H70.358v7.152a1.076,1.076,0,1,1-2.151,0V86.772H58.038v7.152a1.076,1.076,0,0,1-2.152,0V86.772H45.717v7.152a1.076,1.076,0,1,1-2.151,0V86.772H33.4v7.152a1.076,1.076,0,1,1-2.151,0V86.772H21.076v7.152a1.076,1.076,0,0,1-2.152,0V86.772H14.3A1.076,1.076,0,0,1,13.228,85.7V81.08H6.076a1.076,1.076,0,1,1,0-2.152h7.152V68.755H6.076a1.076,1.076,0,1,1,0-2.151h7.152V56.434H6.076a1.076,1.076,0,1,1,0-2.151h7.152V44.114H6.076a1.076,1.076,0,1,1,0-2.152h7.152V31.793H6.076a1.076,1.076,0,0,1,0-2.152h7.152V19.472H6.076a1.076,1.076,0,1,1,0-2.151h7.152V7.151H6.076A1.076,1.076,0,1,1,6.076,5H14.3a1.075,1.075,0,0,1,1.075,1.076V84.62H93.924A1.076,1.076,0,0,1,95,85.7ZM22.274,18.4a1.075,1.075,0,0,1,1.076-1.075h5.22a1.076,1.076,0,1,1,0,2.151H23.35A1.076,1.076,0,0,1,22.274,18.4Zm10.288,0a1.075,1.075,0,0,1,1.075-1.075h5.221a1.076,1.076,0,1,1,0,2.151H33.637A1.075,1.075,0,0,1,32.562,18.4Zm10.287,0a1.075,1.075,0,0,1,1.076-1.075h5.221a1.076,1.076,0,1,1,0,2.151H43.925A1.076,1.076,0,0,1,42.849,18.4Zm10.288,0a1.075,1.075,0,0,1,1.076-1.075h5.221a1.076,1.076,0,0,1,0,2.151H54.213A1.076,1.076,0,0,1,53.137,18.4Z"/>
    </g>
  </g>
</svg>
