<svg xmlns="http://www.w3.org/2000/svg" xmlns:xlink="http://www.w3.org/1999/xlink" width="1030" height="540" viewBox="0 0 1030 540">
  <defs>
    <clipPath id="clip-path">
      <rect id="Rectángulo_387410" data-name="Rectángulo 387410" width="81.772" height="157.144" fill="none"/>
    </clipPath>
    <clipPath id="clip-path-4">
      <rect id="Rectángulo_387418" data-name="Rectángulo 387418" width="81.473" height="157.12" fill="none"/>
    </clipPath>
  </defs>
  <g id="Grupo_1096064" data-name="Grupo 1096064" transform="translate(-285 -7702)">
    <rect id="Rectángulo_387419" data-name="Rectángulo 387419" width="1030" height="540" rx="20" transform="translate(285 7702)" fill="#fff"/>
    <path id="Trazado_839870" data-name="Trazado 839870" d="M11.654,0H8.587L4.052-7.963V0H.967V-12.8H4.052L8.578-4.834V-12.8h3.076Zm4.939,0H13.623V-9.51h2.971ZM13.447-11.971a1.334,1.334,0,0,1,.457-1.043,1.718,1.718,0,0,1,1.187-.407,1.718,1.718,0,0,1,1.187.407,1.334,1.334,0,0,1,.457,1.043,1.334,1.334,0,0,1-.457,1.043,1.718,1.718,0,0,1-1.187.407,1.718,1.718,0,0,1-1.187-.407A1.334,1.334,0,0,1,13.447-11.971ZM22.21-3.524l1.5-5.985h3.12L23.73,0H20.707L17.6-9.51h3.129ZM32.2.176a4.889,4.889,0,0,1-3.542-1.305,4.507,4.507,0,0,1-1.354-3.4v-.246a5.84,5.84,0,0,1,.541-2.575,3.955,3.955,0,0,1,1.578-1.727,4.763,4.763,0,0,1,2.461-.611,4.117,4.117,0,0,1,3.164,1.244,4.887,4.887,0,0,1,1.16,3.467v1.151H30.322a2.135,2.135,0,0,0,.694,1.257,2.066,2.066,0,0,0,1.389.457,2.662,2.662,0,0,0,2.2-.984l1.354,1.6A3.784,3.784,0,0,1,34.387-.277,5.3,5.3,0,0,1,32.2.176ZM31.869-7.4q-1.3,0-1.547,1.723h2.988v-.229a1.467,1.467,0,0,0-.36-1.1A1.434,1.434,0,0,0,31.869-7.4ZM40.526,0H37.556V-13.5h2.971Zm5.933-4.825a5.809,5.809,0,0,1,.976-3.56,3.211,3.211,0,0,1,2.725-1.3,2.731,2.731,0,0,1,2.145,1V-13.5h2.971V0H52.611l-.149-1.02a2.8,2.8,0,0,1-2.32,1.2,3.205,3.205,0,0,1-2.689-1.3A5.993,5.993,0,0,1,46.459-4.825Zm2.962.185q0,2.531,1.477,2.531A1.458,1.458,0,0,0,52.3-2.936V-6.557A1.419,1.419,0,0,0,50.915-7.4q-1.371,0-1.485,2.215ZM61.559.176a4.889,4.889,0,0,1-3.542-1.305,4.507,4.507,0,0,1-1.354-3.4v-.246A5.84,5.84,0,0,1,57.2-7.348a3.955,3.955,0,0,1,1.578-1.727,4.763,4.763,0,0,1,2.461-.611,4.117,4.117,0,0,1,3.164,1.244,4.887,4.887,0,0,1,1.16,3.467v1.151H59.678a2.135,2.135,0,0,0,.694,1.257,2.066,2.066,0,0,0,1.389.457,2.662,2.662,0,0,0,2.2-.984l1.354,1.6A3.784,3.784,0,0,1,63.743-.277,5.3,5.3,0,0,1,61.559.176ZM61.225-7.4q-1.3,0-1.547,1.723h2.988v-.229a1.467,1.467,0,0,0-.36-1.1A1.434,1.434,0,0,0,61.225-7.4ZM75.261-2.109a1.317,1.317,0,0,0,.967-.338,1.241,1.241,0,0,0,.334-.945h2.777A3.288,3.288,0,0,1,78.218-.826a4.168,4.168,0,0,1-2.887,1,4.22,4.22,0,0,1-3.27-1.3,5.125,5.125,0,0,1-1.2-3.6v-.123A5.792,5.792,0,0,1,71.4-7.4a3.872,3.872,0,0,1,1.534-1.7A4.573,4.573,0,0,1,75.3-9.686a4.116,4.116,0,0,1,2.944,1.028,3.647,3.647,0,0,1,1.09,2.786H76.562A1.626,1.626,0,0,0,76.2-7a1.244,1.244,0,0,0-.967-.4q-1.151,0-1.345,1.468a10.357,10.357,0,0,0-.062,1.283,4.068,4.068,0,0,0,.343,1.986A1.187,1.187,0,0,0,75.261-2.109ZM85.948,0a3.344,3.344,0,0,1-.281-.853A2.754,2.754,0,0,1,83.382.176,3.374,3.374,0,0,1,81.1-.637a2.588,2.588,0,0,1-.94-2.043A2.66,2.66,0,0,1,81.3-5.019a5.821,5.821,0,0,1,3.322-.791h.914v-.5q0-1.316-1.134-1.316a.927.927,0,0,0-1.055,1.042H80.385a2.655,2.655,0,0,1,1.173-2.239,4.931,4.931,0,0,1,2.993-.86,4.323,4.323,0,0,1,2.874.888,3.086,3.086,0,0,1,1.081,2.435v4.21a4.311,4.311,0,0,0,.4,2V0ZM84.094-1.934a1.652,1.652,0,0,0,.918-.237,1.487,1.487,0,0,0,.523-.536V-4.228h-.861q-1.547,0-1.547,1.389a.848.848,0,0,0,.272.655A.986.986,0,0,0,84.094-1.934Zm11.8-4.9-.976-.07a1.752,1.752,0,0,0-1.793.879V0H90.167V-9.51h2.777l.1,1.222a2.294,2.294,0,0,1,2.083-1.4,2.888,2.888,0,0,1,.826.105Zm.554,2a6.421,6.421,0,0,1,.475-2.549,3.821,3.821,0,0,1,1.362-1.709,3.591,3.591,0,0,1,2.065-.6,2.855,2.855,0,0,1,2.32,1l.105-.826h2.689V-.36a4.009,4.009,0,0,1-.584,2.184,3.75,3.75,0,0,1-1.692,1.424,6.219,6.219,0,0,1-2.566.5,5.365,5.365,0,0,1-2.026-.4A3.657,3.657,0,0,1,97.1,2.32L98.341.58a2.716,2.716,0,0,0,2.18.976,1.764,1.764,0,0,0,1.969-2.021v-.3a2.781,2.781,0,0,1-2.153.94,3.437,3.437,0,0,1-2.812-1.332A5.517,5.517,0,0,1,96.451-4.72Zm2.971.185a3.383,3.383,0,0,0,.439,1.85,1.386,1.386,0,0,0,1.23.681,1.573,1.573,0,0,0,1.4-.642v-4a1.534,1.534,0,0,0-1.38-.65,1.4,1.4,0,0,0-1.239.708A3.858,3.858,0,0,0,99.422-4.641ZM112.509,0a3.344,3.344,0,0,1-.281-.853A2.754,2.754,0,0,1,109.942.176a3.374,3.374,0,0,1-2.285-.813,2.588,2.588,0,0,1-.94-2.043,2.66,2.66,0,0,1,1.143-2.338,5.821,5.821,0,0,1,3.322-.791h.914v-.5q0-1.316-1.134-1.316a.927.927,0,0,0-1.055,1.042h-2.962a2.655,2.655,0,0,1,1.173-2.239,4.931,4.931,0,0,1,2.993-.86,4.323,4.323,0,0,1,2.874.888,3.086,3.086,0,0,1,1.081,2.435v4.21a4.311,4.311,0,0,0,.4,2V0Zm-1.854-1.934a1.652,1.652,0,0,0,.918-.237,1.487,1.487,0,0,0,.523-.536V-4.228h-.861q-1.547,0-1.547,1.389a.848.848,0,0,0,.272.655A.986.986,0,0,0,110.654-1.934Z" transform="translate(749 7752)" fill="#12263f"/>
    <g id="Grupo_1096063" data-name="Grupo 1096063">
      <g id="Grupo_1095882" data-name="Grupo 1095882" transform="translate(629.764 7795.952)">
        <g id="Grupo_1095881" data-name="Grupo 1095881" transform="translate(0 0)" clip-path="url(#clip-path)">
          <path id="Trazado_839227" data-name="Trazado 839227" d="M153.583,15.268H136a3.713,3.713,0,0,1-3.7-3.7v-3.7A7.889,7.889,0,0,1,140.164,0h9.254a7.889,7.889,0,0,1,7.866,7.866v3.7a3.713,3.713,0,0,1-3.7,3.7" transform="translate(-103.906 0.001)" fill="#484d4d"/>
          <path id="Trazado_839228" data-name="Trazado 839228" d="M96.555,631.135H47.807a7.729,7.729,0,0,1-7.729-7.729v-8.173h64.206v8.173a7.729,7.729,0,0,1-7.729,7.729" transform="translate(-31.477 -483.198)" fill="#ff692e"/>
          <rect id="Rectángulo_387409" data-name="Rectángulo 387409" width="64.206" height="15.902" transform="translate(8.601 110.17)" fill="#ff692e"/>
          <path id="Trazado_839229" data-name="Trazado 839229" d="M64.737,201.554h-47.7A17.053,17.053,0,0,1,0,184.519V73.579A17.053,17.053,0,0,1,17.034,56.545h47.7A17.054,17.054,0,0,1,81.772,73.579v110.94a17.053,17.053,0,0,1-17.034,17.034M17.034,60.906A12.688,12.688,0,0,0,4.361,73.579v110.94a12.687,12.687,0,0,0,12.673,12.673h47.7a12.687,12.687,0,0,0,12.673-12.673V73.579A12.688,12.688,0,0,0,64.737,60.906Z" transform="translate(0 -44.41)" fill="#484d4d"/>
        </g>
      </g>
      <g id="Grupo_1095884" data-name="Grupo 1095884" transform="translate(394.382 7795.812)">
        <g id="Grupo_1095883" data-name="Grupo 1095883" transform="translate(0 0)" clip-path="url(#clip-path)">
          <path id="Trazado_839230" data-name="Trazado 839230" d="M64.738,201.554h-47.7A17.053,17.053,0,0,1,0,184.519V73.579A17.054,17.054,0,0,1,17.034,56.545h47.7A17.053,17.053,0,0,1,81.772,73.579v110.94a17.053,17.053,0,0,1-17.034,17.034M17.034,60.906A12.687,12.687,0,0,0,4.361,73.579v110.94a12.687,12.687,0,0,0,12.673,12.673h47.7a12.687,12.687,0,0,0,12.673-12.673V73.579A12.687,12.687,0,0,0,64.738,60.906Z" transform="translate(0 -44.41)" fill="#484d4d"/>
          <path id="Trazado_839231" data-name="Trazado 839231" d="M153.586,15.268H136a3.713,3.713,0,0,1-3.7-3.7v-3.7A7.889,7.889,0,0,1,140.167,0h9.254a7.889,7.889,0,0,1,7.866,7.866v3.7a3.713,3.713,0,0,1-3.7,3.7" transform="translate(-103.908 0.001)" fill="#484d4d"/>
          <path id="Trazado_839232" data-name="Trazado 839232" d="M96.556,631.135H47.808a7.729,7.729,0,0,1-7.729-7.729v-8.173h64.206v8.173a7.729,7.729,0,0,1-7.729,7.729" transform="translate(-31.478 -483.198)" fill="#f92333"/>
        </g>
      </g>
      <g id="Grupo_1095886" data-name="Grupo 1095886" transform="translate(862.997 7795.952)">
        <g id="Grupo_1095885" data-name="Grupo 1095885" transform="translate(0 0)" clip-path="url(#clip-path)">
          <path id="Trazado_839233" data-name="Trazado 839233" d="M64.737,201.554h-47.7A17.053,17.053,0,0,1,0,184.519V73.579A17.053,17.053,0,0,1,17.034,56.545h47.7A17.054,17.054,0,0,1,81.772,73.579v110.94a17.053,17.053,0,0,1-17.034,17.034M17.034,60.906A12.688,12.688,0,0,0,4.361,73.579v110.94a12.687,12.687,0,0,0,12.673,12.673h47.7a12.687,12.687,0,0,0,12.673-12.673V73.579A12.688,12.688,0,0,0,64.737,60.906Z" transform="translate(0 -44.41)" fill="#484d4d"/>
          <path id="Trazado_839234" data-name="Trazado 839234" d="M153.583,15.268H136a3.713,3.713,0,0,1-3.7-3.7v-3.7A7.889,7.889,0,0,1,140.164,0h9.254a7.889,7.889,0,0,1,7.866,7.866v3.7a3.713,3.713,0,0,1-3.7,3.7" transform="translate(-103.906 0.001)" fill="#484d4d"/>
          <path id="Trazado_839235" data-name="Trazado 839235" d="M96.555,631.135H47.807a7.729,7.729,0,0,1-7.729-7.729v-8.173h64.206v8.173a7.729,7.729,0,0,1-7.729,7.729" transform="translate(-31.477 -483.198)" fill="#ffd815"/>
          <rect id="Rectángulo_387412" data-name="Rectángulo 387412" width="64.206" height="15.902" transform="translate(8.601 110.17)" fill="#ffd815"/>
          <rect id="Rectángulo_387413" data-name="Rectángulo 387413" width="64.206" height="15.902" transform="translate(8.601 88.305)" fill="#ffd815"/>
        </g>
      </g>
      <g id="Grupo_1095888" data-name="Grupo 1095888" transform="translate(1107.764 7795.952)">
        <g id="Grupo_1095887" data-name="Grupo 1095887" transform="translate(0 0)" clip-path="url(#clip-path-4)">
          <path id="Trazado_839236" data-name="Trazado 839236" d="M64.5,201.532H16.972A17.021,17.021,0,0,1,0,184.5V73.577A17.021,17.021,0,0,1,16.972,56.545H64.5A17.021,17.021,0,0,1,81.473,73.577V184.5A17.021,17.021,0,0,1,64.5,201.532M16.972,60.906A12.663,12.663,0,0,0,4.345,73.577V184.5a12.663,12.663,0,0,0,12.627,12.671H64.5A12.663,12.663,0,0,0,77.128,184.5V73.577A12.663,12.663,0,0,0,64.5,60.906Z" transform="translate(0 -44.412)" fill="#484d4d"/>
          <path id="Trazado_839237" data-name="Trazado 839237" d="M153.506,15.266H135.987a3.706,3.706,0,0,1-3.688-3.7v-3.7A7.874,7.874,0,0,1,140.136,0h9.221a7.874,7.874,0,0,1,7.837,7.865v3.7a3.706,3.706,0,0,1-3.688,3.7" transform="translate(-104.01 0.001)" fill="#484d4d"/>
          <path id="Trazado_839238" data-name="Trazado 839238" d="M96.349,631.133H47.778a7.714,7.714,0,0,1-7.7-7.728v-8.172h63.971v8.172a7.714,7.714,0,0,1-7.7,7.728" transform="translate(-31.508 -483.218)" fill="#38e053"/>
          <rect id="Rectángulo_387415" data-name="Rectángulo 387415" width="63.971" height="15.9" transform="translate(8.57 110.153)" fill="#38e053"/>
          <rect id="Rectángulo_387416" data-name="Rectángulo 387416" width="63.971" height="15.9" transform="translate(8.57 88.291)" fill="#38e053"/>
          <rect id="Rectángulo_387417" data-name="Rectángulo 387417" width="63.971" height="15.9" transform="translate(8.932 65.808)" fill="#38e053"/>
        </g>
      </g>
      <g id="Grupo_1095889" data-name="Grupo 1095889" transform="translate(-4.084 -65.836)">
        <path id="Trazado_839239" data-name="Trazado 839239" d="M-8592.5-3695.3v22.875" transform="translate(9032 11718.971)" fill="none" stroke="#f92333" stroke-linecap="round" stroke-width="2"/>
        <path id="Polígono_1" data-name="Polígono 1" d="M7.5,0,15,13H0Z" transform="translate(447 8052) rotate(180)" fill="#f92333"/>
      </g>
      <g id="Grupo_1095890" data-name="Grupo 1095890" transform="translate(231.149 -65.836)">
        <path id="Trazado_839239-2" data-name="Trazado 839239" d="M-8592.5-3695.3v22.875" transform="translate(9032 11718.971)" fill="none" stroke="#ff692e" stroke-linecap="round" stroke-width="2"/>
        <path id="Polígono_1-2" data-name="Polígono 1" d="M7.5,0,15,13H0Z" transform="translate(447 8052) rotate(180)" fill="#ff692e"/>
      </g>
      <g id="Grupo_1095891" data-name="Grupo 1095891" transform="translate(464.383 -65.836)">
        <path id="Trazado_839239-3" data-name="Trazado 839239" d="M-8592.5-3695.3v22.875" transform="translate(9032 11718.971)" fill="none" stroke="#ffd815" stroke-linecap="round" stroke-width="2"/>
        <path id="Polígono_1-3" data-name="Polígono 1" d="M7.5,0,15,13H0Z" transform="translate(447 8052) rotate(180)" fill="#ffd815"/>
      </g>
      <g id="Grupo_1095892" data-name="Grupo 1095892" transform="translate(709 -65.836)">
        <path id="Trazado_839239-4" data-name="Trazado 839239" d="M-8592.5-3695.3v22.875" transform="translate(9032 11718.971)" fill="none" stroke="#38e053" stroke-linecap="round" stroke-width="2"/>
        <path id="Polígono_1-4" data-name="Polígono 1" d="M7.5,0,15,13H0Z" transform="translate(447 8052) rotate(180)" fill="#38e053"/>
      </g>
      <rect id="Rectángulo_387420" data-name="Rectángulo 387420" width="210" height="71" rx="8" transform="translate(329.617 7992)" fill="#ffd5d5"/>
      <path id="Trazado_839871" data-name="Trazado 839871" d="M-27.211-2.344H-31.32L-32.1,0h-2.492l4.234-11.375h2.172L-23.93,0h-2.492Zm-3.477-1.9h2.844L-29.273-8.5ZM-18.039-.859A2.831,2.831,0,0,1-20.352.156a2.67,2.67,0,0,1-2.074-.781,3.335,3.335,0,0,1-.73-2.289V-8.453H-20.9v5.467q0,1.322,1.2,1.322a1.63,1.63,0,0,0,1.578-.8V-8.453h2.266V0h-2.125Zm6.008-7.594.07.945a2.971,2.971,0,0,1,2.43-1.1A2.255,2.255,0,0,1-7.289-7.32,2.9,2.9,0,0,1-4.75-8.609a2.521,2.521,0,0,1,2.047.8A3.681,3.681,0,0,1-2.031-5.4V0H-4.3V-5.4a1.616,1.616,0,0,0-.281-1.053,1.245,1.245,0,0,0-.992-.333,1.409,1.409,0,0,0-1.406.971L-6.969,0H-9.227V-5.4A1.6,1.6,0,0,0-9.516-6.46a1.257,1.257,0,0,0-.984-.329,1.463,1.463,0,0,0-1.391.8V0h-2.258V-8.453ZM3.594.156A4.15,4.15,0,0,1,.566-.984,4.054,4.054,0,0,1-.6-4.023v-.219A5.106,5.106,0,0,1-.109-6.52,3.612,3.612,0,0,1,1.285-8.066a3.914,3.914,0,0,1,2.059-.543,3.508,3.508,0,0,1,2.73,1.094,4.444,4.444,0,0,1,1,3.1v.922H1.688a2.1,2.1,0,0,0,.66,1.328,2,2,0,0,0,1.395.5,2.437,2.437,0,0,0,2.039-.945L6.891-1.367A3.389,3.389,0,0,1,5.516-.246,4.511,4.511,0,0,1,3.594.156ZM3.336-6.789a1.411,1.411,0,0,0-1.09.455,2.357,2.357,0,0,0-.535,1.3H4.852v-.181a1.681,1.681,0,0,0-.406-1.165A1.456,1.456,0,0,0,3.336-6.789ZM10.43-8.453l.07.977a2.951,2.951,0,0,1,2.43-1.133,2.453,2.453,0,0,1,2,.789A3.682,3.682,0,0,1,15.6-5.461V0H13.344V-5.419a1.47,1.47,0,0,0-.312-1.045,1.4,1.4,0,0,0-1.039-.325,1.553,1.553,0,0,0-1.43.814V0H8.3V-8.453Zm9.586-2.078v2.078h1.445V-6.8H20.016v4.219a1.007,1.007,0,0,0,.18.672.9.9,0,0,0,.688.2,3.6,3.6,0,0,0,.664-.055V-.047a4.648,4.648,0,0,1-1.367.2,2.156,2.156,0,0,1-2.422-2.4V-6.8H16.523V-8.453h1.234v-2.078ZM22.133-4.3a5.013,5.013,0,0,1,.484-2.242A3.546,3.546,0,0,1,24.012-8.07a4.069,4.069,0,0,1,2.113-.539,3.849,3.849,0,0,1,2.793,1.047,4.2,4.2,0,0,1,1.207,2.844l.016.578A4.418,4.418,0,0,1,29.055-1.02,3.775,3.775,0,0,1,26.141.156a3.793,3.793,0,0,1-2.918-1.172A4.5,4.5,0,0,1,22.133-4.2Zm2.258.16A3.16,3.16,0,0,0,24.844-2.3a1.5,1.5,0,0,0,1.3.638,1.5,1.5,0,0,0,1.281-.63,3.457,3.457,0,0,0,.461-2.015,3.128,3.128,0,0,0-.461-1.831,1.5,1.5,0,0,0-1.3-.649,1.474,1.474,0,0,0-1.281.646A3.516,3.516,0,0,0,24.391-4.144Zm-87.172,24a5.07,5.07,0,0,1-.887,3.129,2.843,2.843,0,0,1-2.395,1.176,2.633,2.633,0,0,1-2.07-.891V27.25h-2.258v-11.7H-68.3l.078.828a2.654,2.654,0,0,1,2.141-.984,2.862,2.862,0,0,1,2.43,1.156,5.207,5.207,0,0,1,.867,3.188Zm-2.258-.172a3.345,3.345,0,0,0-.418-1.826,1.36,1.36,0,0,0-1.215-.643,1.478,1.478,0,0,0-1.461.815V21.5a1.5,1.5,0,0,0,1.477.839Q-65.039,22.336-65.039,19.679Zm8.406-2.015a6.134,6.134,0,0,0-.812-.062,1.654,1.654,0,0,0-1.68.867V24h-2.258V15.547h2.133l.063,1.008A2.092,2.092,0,0,1-57.3,15.391a2.366,2.366,0,0,1,.7.1Zm.453,2.031a5.013,5.013,0,0,1,.484-2.242A3.546,3.546,0,0,1-54.3,15.93a4.069,4.069,0,0,1,2.113-.539,3.849,3.849,0,0,1,2.793,1.047,4.2,4.2,0,0,1,1.207,2.844l.016.578a4.418,4.418,0,0,1-1.086,3.121,3.775,3.775,0,0,1-2.914,1.176,3.793,3.793,0,0,1-2.918-1.172A4.5,4.5,0,0,1-56.18,19.8Zm2.258.16a3.16,3.16,0,0,0,.453,1.843,1.5,1.5,0,0,0,1.3.638,1.5,1.5,0,0,0,1.281-.63,3.457,3.457,0,0,0,.461-2.015,3.128,3.128,0,0,0-.461-1.831,1.5,1.5,0,0,0-1.3-.649,1.474,1.474,0,0,0-1.281.646A3.516,3.516,0,0,0-53.922,19.856Zm6.813-.145a4.954,4.954,0,0,1,.926-3.133,3,3,0,0,1,2.5-1.187,2.631,2.631,0,0,1,2.164.953l.094-.8h2.047v8.172a3.613,3.613,0,0,1-.5,1.93A3.236,3.236,0,0,1-41.3,26.9a4.985,4.985,0,0,1-2.141.43,4.635,4.635,0,0,1-1.812-.371A3.217,3.217,0,0,1-46.594,26l1-1.375a2.645,2.645,0,0,0,2.047.945,1.936,1.936,0,0,0,1.4-.48,1.8,1.8,0,0,0,.5-1.363v-.453a2.612,2.612,0,0,1-2.055.883,2.992,2.992,0,0,1-2.465-1.191,4.953,4.953,0,0,1-.941-3.16Zm2.258.161a3.1,3.1,0,0,0,.461,1.809,1.465,1.465,0,0,0,1.266.655,1.567,1.567,0,0,0,1.477-.777V17.988a1.563,1.563,0,0,0-1.461-.777,1.474,1.474,0,0,0-1.277.667A3.5,3.5,0,0,0-44.852,19.872ZM-32.9,17.664a6.134,6.134,0,0,0-.812-.062,1.654,1.654,0,0,0-1.68.867V24h-2.258V15.547h2.133l.063,1.008a2.092,2.092,0,0,1,1.883-1.164,2.366,2.366,0,0,1,.7.1Zm4.828,6.492A4.15,4.15,0,0,1-31.1,23.016a4.054,4.054,0,0,1-1.168-3.039v-.219a5.106,5.106,0,0,1,.492-2.277,3.612,3.612,0,0,1,1.395-1.547,3.914,3.914,0,0,1,2.059-.543,3.508,3.508,0,0,1,2.73,1.094,4.444,4.444,0,0,1,1,3.1v.922h-5.383a2.1,2.1,0,0,0,.66,1.328,2,2,0,0,0,1.395.5,2.437,2.437,0,0,0,2.039-.945l1.109,1.242a3.389,3.389,0,0,1-1.375,1.121A4.511,4.511,0,0,1-28.07,24.156Zm-.258-6.945a1.411,1.411,0,0,0-1.09.455,2.357,2.357,0,0,0-.535,1.3h3.141v-.181a1.681,1.681,0,0,0-.406-1.165A1.456,1.456,0,0,0-28.328,17.211Zm9.594,4.453a.727.727,0,0,0-.41-.652,4.659,4.659,0,0,0-1.316-.426q-3.016-.633-3.016-2.562a2.323,2.323,0,0,1,.934-1.879,3.766,3.766,0,0,1,2.441-.754,4.053,4.053,0,0,1,2.574.758,2.388,2.388,0,0,1,.965,1.969H-18.82a1.092,1.092,0,0,0-.312-.8A1.322,1.322,0,0,0-20.109,17a1.351,1.351,0,0,0-.883.258.814.814,0,0,0-.312.656.7.7,0,0,0,.355.605,3.657,3.657,0,0,0,1.2.4,9.8,9.8,0,0,1,1.422.379,2.336,2.336,0,0,1,1.789,2.273,2.2,2.2,0,0,1-.992,1.871,4.28,4.28,0,0,1-2.562.715,4.47,4.47,0,0,1-1.887-.379,3.166,3.166,0,0,1-1.293-1.039,2.414,2.414,0,0,1-.469-1.426H-21.6a1.179,1.179,0,0,0,.445.922,1.766,1.766,0,0,0,1.109.32,1.635,1.635,0,0,0,.98-.246A.766.766,0,0,0-18.734,21.664ZM-12.7,24h-2.266V15.547H-12.7Zm-2.4-10.641a1.112,1.112,0,0,1,.34-.836,1.277,1.277,0,0,1,.926-.328,1.28,1.28,0,0,1,.922.328,1.105,1.105,0,0,1,.344.836,1.108,1.108,0,0,1-.348.844,1.283,1.283,0,0,1-.918.328,1.283,1.283,0,0,1-.918-.328A1.108,1.108,0,0,1-15.1,13.359Zm7.422,7.883,1.57-5.7H-3.75L-6.6,24H-8.758l-2.852-8.453H-9.25ZM-3.227,19.7a5.013,5.013,0,0,1,.484-2.242A3.546,3.546,0,0,1-1.348,15.93a4.069,4.069,0,0,1,2.113-.539,3.849,3.849,0,0,1,2.793,1.047,4.2,4.2,0,0,1,1.207,2.844l.016.578A4.418,4.418,0,0,1,3.7,22.98,3.775,3.775,0,0,1,.781,24.156a3.793,3.793,0,0,1-2.918-1.172A4.5,4.5,0,0,1-3.227,19.8Zm2.258.16A3.16,3.16,0,0,0-.516,21.7a1.5,1.5,0,0,0,1.3.638,1.5,1.5,0,0,0,1.281-.63,3.457,3.457,0,0,0,.461-2.015,3.128,3.128,0,0,0-.461-1.831,1.5,1.5,0,0,0-1.3-.649,1.474,1.474,0,0,0-1.281.646A3.516,3.516,0,0,0-.969,19.856ZM9.8,19.711a5.094,5.094,0,0,1,.887-3.148,2.877,2.877,0,0,1,2.426-1.172,2.589,2.589,0,0,1,2.039.922V12h2.266V24H15.383l-.109-.9A2.657,2.657,0,0,1,13.1,24.156a2.869,2.869,0,0,1-2.395-1.176A5.258,5.258,0,0,1,9.8,19.711Zm2.258.161a3.355,3.355,0,0,0,.414,1.829,1.348,1.348,0,0,0,1.2.636,1.51,1.51,0,0,0,1.477-.887V18.1a1.489,1.489,0,0,0-1.461-.887Q12.062,17.211,12.063,19.872Zm11,4.285a4.15,4.15,0,0,1-3.027-1.141,4.054,4.054,0,0,1-1.168-3.039v-.219a5.106,5.106,0,0,1,.492-2.277,3.612,3.612,0,0,1,1.395-1.547,3.914,3.914,0,0,1,2.059-.543,3.508,3.508,0,0,1,2.73,1.094,4.444,4.444,0,0,1,1,3.1v.922H21.156a2.1,2.1,0,0,0,.66,1.328,2,2,0,0,0,1.395.5,2.437,2.437,0,0,0,2.039-.945l1.109,1.242a3.389,3.389,0,0,1-1.375,1.121A4.511,4.511,0,0,1,23.063,24.156ZM22.8,17.211a1.411,1.411,0,0,0-1.09.455,2.357,2.357,0,0,0-.535,1.3H24.32v-.181a1.681,1.681,0,0,0-.406-1.165A1.456,1.456,0,0,0,22.8,17.211ZM35.32,22.336a1.481,1.481,0,0,0,1.016-.344,1.2,1.2,0,0,0,.406-.914h2.117a2.9,2.9,0,0,1-.469,1.574,3.093,3.093,0,0,1-1.262,1.109,3.949,3.949,0,0,1-1.77.395A3.67,3.67,0,0,1,32.5,23a4.56,4.56,0,0,1-1.047-3.184v-.148a4.508,4.508,0,0,1,1.039-3.117,3.627,3.627,0,0,1,2.852-1.164,3.555,3.555,0,0,1,2.543.9,3.2,3.2,0,0,1,.973,2.4H36.742a1.551,1.551,0,0,0-.406-1.072,1.51,1.51,0,0,0-2.223.163,3.333,3.333,0,0,0-.4,1.866v.235a3.375,3.375,0,0,0,.4,1.878A1.377,1.377,0,0,0,35.32,22.336ZM45.047,24a2.507,2.507,0,0,1-.227-.758,2.732,2.732,0,0,1-2.133.914,3,3,0,0,1-2.059-.719,2.312,2.312,0,0,1-.816-1.812,2.389,2.389,0,0,1,1-2.062,4.915,4.915,0,0,1,2.879-.727h1.039v-.484a1.393,1.393,0,0,0-.3-.937,1.183,1.183,0,0,0-.949-.352,1.345,1.345,0,0,0-.895.273.929.929,0,0,0-.324.75H40a2.268,2.268,0,0,1,.453-1.359,3,3,0,0,1,1.281-.98,4.669,4.669,0,0,1,1.859-.355,3.689,3.689,0,0,1,2.48.785,2.747,2.747,0,0,1,.918,2.207v3.664a4.041,4.041,0,0,0,.336,1.82V24ZM43.18,22.43a1.945,1.945,0,0,0,.922-.223,1.462,1.462,0,0,0,.625-.6V20.156h-.844q-1.7,0-1.8,1.172l-.008.133a.9.9,0,0,0,.3.7A1.153,1.153,0,0,0,43.18,22.43Zm10.3-4.766a6.134,6.134,0,0,0-.812-.062,1.654,1.654,0,0,0-1.68.867V24H48.727V15.547h2.133l.063,1.008A2.092,2.092,0,0,1,52.8,15.391a2.366,2.366,0,0,1,.7.1Zm.609,2.047a4.954,4.954,0,0,1,.926-3.133,3,3,0,0,1,2.5-1.187,2.631,2.631,0,0,1,2.164.953l.094-.8h2.047v8.172a3.613,3.613,0,0,1-.5,1.93,3.236,3.236,0,0,1-1.418,1.25,4.985,4.985,0,0,1-2.141.43,4.635,4.635,0,0,1-1.812-.371A3.217,3.217,0,0,1,54.6,26l1-1.375a2.645,2.645,0,0,0,2.047.945,1.936,1.936,0,0,0,1.4-.48,1.8,1.8,0,0,0,.5-1.363v-.453a2.612,2.612,0,0,1-2.055.883,2.992,2.992,0,0,1-2.465-1.191,4.953,4.953,0,0,1-.941-3.16Zm2.258.161a3.1,3.1,0,0,0,.461,1.809,1.465,1.465,0,0,0,1.266.655,1.567,1.567,0,0,0,1.477-.777V17.988a1.563,1.563,0,0,0-1.461-.777,1.474,1.474,0,0,0-1.277.667A3.5,3.5,0,0,0,56.344,19.872ZM68.445,24a2.507,2.507,0,0,1-.227-.758,2.732,2.732,0,0,1-2.133.914,3,3,0,0,1-2.059-.719,2.312,2.312,0,0,1-.816-1.812,2.389,2.389,0,0,1,1-2.062,4.915,4.915,0,0,1,2.879-.727h1.039v-.484a1.393,1.393,0,0,0-.3-.937,1.183,1.183,0,0,0-.949-.352,1.345,1.345,0,0,0-.895.273.929.929,0,0,0-.324.75H63.4a2.268,2.268,0,0,1,.453-1.359,3,3,0,0,1,1.281-.98,4.669,4.669,0,0,1,1.859-.355,3.689,3.689,0,0,1,2.48.785,2.747,2.747,0,0,1,.918,2.207v3.664a4.041,4.041,0,0,0,.336,1.82V24Zm-1.867-1.57a1.945,1.945,0,0,0,.922-.223,1.462,1.462,0,0,0,.625-.6V20.156h-.844q-1.7,0-1.8,1.172l-.008.133a.9.9,0,0,0,.3.7A1.153,1.153,0,0,0,66.578,22.43Z" transform="translate(435.617 8019)" fill="#12263f"/>
      <g id="Grupo_1095117" data-name="Grupo 1095117" transform="translate(-220.383 6939)">
        <circle id="Elipse_9997" data-name="Elipse 9997" cx="14.5" cy="14.5" r="14.5" transform="translate(640 1114)" fill="#ffce00"/>
        <circle id="Elipse_9998" data-name="Elipse 9998" cx="6.5" cy="6.5" r="6.5" transform="translate(648 1122)" fill="#fff"/>
      </g>
      <rect id="Rectángulo_387421" data-name="Rectángulo 387421" width="210" height="71" rx="8" transform="translate(563 7992)" fill="#ffcfb5"/>
      <path id="Trazado_839872" data-name="Trazado 839872" d="M-67.812-4.008V0h-2.344V-11.375h4.438a5.134,5.134,0,0,1,2.254.469,3.454,3.454,0,0,1,1.5,1.332,3.714,3.714,0,0,1,.523,1.965A3.266,3.266,0,0,1-62.59-4.973a4.767,4.767,0,0,1-3.168.965Zm0-1.9h2.094A2.059,2.059,0,0,0-64.3-6.344a1.591,1.591,0,0,0,.488-1.25A1.876,1.876,0,0,0-64.3-8.945a1.839,1.839,0,0,0-1.359-.531h-2.148ZM-54.922-.859A2.831,2.831,0,0,1-57.234.156a2.67,2.67,0,0,1-2.074-.781,3.335,3.335,0,0,1-.73-2.289V-8.453h2.258v5.467q0,1.322,1.2,1.322A1.63,1.63,0,0,0-55-2.462V-8.453h2.266V0h-2.125Zm5.969-7.594.07.977a2.951,2.951,0,0,1,2.43-1.133,2.453,2.453,0,0,1,2,.789,3.682,3.682,0,0,1,.672,2.359V0h-2.258V-5.419a1.47,1.47,0,0,0-.312-1.045,1.4,1.4,0,0,0-1.039-.325,1.553,1.553,0,0,0-1.43.814V0h-2.258V-8.453Zm9.586-2.078v2.078h1.445V-6.8h-1.445v4.219a1.007,1.007,0,0,0,.18.672.9.9,0,0,0,.688.2,3.6,3.6,0,0,0,.664-.055V-.047a4.648,4.648,0,0,1-1.367.2,2.156,2.156,0,0,1-2.422-2.4V-6.8h-1.234V-8.453h1.234v-2.078ZM-37.25-4.3a5.013,5.013,0,0,1,.484-2.242A3.546,3.546,0,0,1-35.371-8.07a4.069,4.069,0,0,1,2.113-.539,3.849,3.849,0,0,1,2.793,1.047,4.2,4.2,0,0,1,1.207,2.844l.016.578A4.418,4.418,0,0,1-30.328-1.02,3.775,3.775,0,0,1-33.242.156,3.793,3.793,0,0,1-36.16-1.016,4.5,4.5,0,0,1-37.25-4.2Zm2.258.16A3.16,3.16,0,0,0-34.539-2.3a1.5,1.5,0,0,0,1.3.638,1.5,1.5,0,0,0,1.281-.63A3.457,3.457,0,0,0-31.5-4.309a3.128,3.128,0,0,0-.461-1.831,1.5,1.5,0,0,0-1.3-.649,1.474,1.474,0,0,0-1.281.646A3.516,3.516,0,0,0-34.992-4.144Zm11.719,1.808a.727.727,0,0,0-.41-.652A4.659,4.659,0,0,0-25-3.414q-3.016-.633-3.016-2.562a2.323,2.323,0,0,1,.934-1.879,3.766,3.766,0,0,1,2.441-.754,4.053,4.053,0,0,1,2.574.758A2.388,2.388,0,0,1-21.1-5.883h-2.258a1.092,1.092,0,0,0-.312-.8A1.322,1.322,0,0,0-24.648-7a1.351,1.351,0,0,0-.883.258.814.814,0,0,0-.312.656.7.7,0,0,0,.355.605,3.657,3.657,0,0,0,1.2.4,9.8,9.8,0,0,1,1.422.379A2.336,2.336,0,0,1-21.078-2.43,2.2,2.2,0,0,1-22.07-.559a4.28,4.28,0,0,1-2.562.715A4.47,4.47,0,0,1-26.52-.223a3.166,3.166,0,0,1-1.293-1.039,2.414,2.414,0,0,1-.469-1.426h2.141a1.179,1.179,0,0,0,.445.922,1.766,1.766,0,0,0,1.109.32,1.635,1.635,0,0,0,.98-.246A.766.766,0,0,0-23.273-2.336Zm7.281-1.953a5.094,5.094,0,0,1,.887-3.148A2.877,2.877,0,0,1-12.68-8.609a2.589,2.589,0,0,1,2.039.922V-12h2.266V0h-2.039l-.109-.9A2.657,2.657,0,0,1-12.7.156,2.869,2.869,0,0,1-15.09-1.02,5.258,5.258,0,0,1-15.992-4.289Zm2.258.161A3.355,3.355,0,0,0-13.32-2.3a1.348,1.348,0,0,0,1.2.636,1.51,1.51,0,0,0,1.477-.887V-5.9A1.489,1.489,0,0,0-12.1-6.789Q-13.734-6.789-13.734-4.128Zm11,4.285A4.15,4.15,0,0,1-5.762-.984,4.054,4.054,0,0,1-6.93-4.023v-.219A5.106,5.106,0,0,1-6.437-6.52,3.612,3.612,0,0,1-5.043-8.066a3.914,3.914,0,0,1,2.059-.543A3.508,3.508,0,0,1-.254-7.516a4.444,4.444,0,0,1,1,3.1v.922H-4.641a2.1,2.1,0,0,0,.66,1.328,2,2,0,0,0,1.395.5A2.437,2.437,0,0,0-.547-2.609L.563-1.367A3.389,3.389,0,0,1-.812-.246,4.511,4.511,0,0,1-2.734.156Zm-.258-6.945a1.411,1.411,0,0,0-1.09.455,2.357,2.357,0,0,0-.535,1.3h3.141v-.181a1.681,1.681,0,0,0-.406-1.165A1.456,1.456,0,0,0-2.992-6.789ZM8.391,0H6.125V-8.453H8.391Zm-2.4-10.641a1.112,1.112,0,0,1,.34-.836,1.277,1.277,0,0,1,.926-.328,1.28,1.28,0,0,1,.922.328,1.105,1.105,0,0,1,.344.836,1.108,1.108,0,0,1-.348.844,1.283,1.283,0,0,1-.918.328A1.283,1.283,0,0,1,6.34-9.8,1.108,1.108,0,0,1,5.992-10.641Zm6.336,2.188.07.977a2.951,2.951,0,0,1,2.43-1.133,2.453,2.453,0,0,1,2,.789A3.682,3.682,0,0,1,17.5-5.461V0H15.242V-5.419a1.47,1.47,0,0,0-.312-1.045,1.4,1.4,0,0,0-1.039-.325,1.553,1.553,0,0,0-1.43.814V0H10.2V-8.453Zm12.547-1.812a10.85,10.85,0,0,0-1.25-.078q-1.531,0-1.531,1.316v.575h1.68V-6.8h-1.68V0H19.828V-6.8H18.57V-8.453h1.258v-.656a2.888,2.888,0,0,1,.922-2.262,3.769,3.769,0,0,1,2.563-.793q1.18,0,3.828.25V0H24.875ZM32.906.156A4.15,4.15,0,0,1,29.879-.984a4.054,4.054,0,0,1-1.168-3.039v-.219A5.106,5.106,0,0,1,29.2-6.52,3.612,3.612,0,0,1,30.6-8.066a3.914,3.914,0,0,1,2.059-.543,3.508,3.508,0,0,1,2.73,1.094,4.444,4.444,0,0,1,1,3.1v.922H31a2.1,2.1,0,0,0,.66,1.328,2,2,0,0,0,1.395.5,2.437,2.437,0,0,0,2.039-.945L36.2-1.367A3.389,3.389,0,0,1,34.828-.246,4.511,4.511,0,0,1,32.906.156Zm-.258-6.945a1.411,1.411,0,0,0-1.09.455,2.357,2.357,0,0,0-.535,1.3h3.141v-.181a1.681,1.681,0,0,0-.406-1.165A1.456,1.456,0,0,0,32.648-6.789Zm8.234.859L42.3-8.453h2.414L42.313-4.312,44.82,0H42.4L40.891-2.656,39.391,0h-2.43l2.508-4.312-2.4-4.141h2.422ZM48.188,0H45.922V-8.453h2.266Zm-2.4-10.641a1.112,1.112,0,0,1,.34-.836,1.277,1.277,0,0,1,.926-.328,1.28,1.28,0,0,1,.922.328,1.105,1.105,0,0,1,.344.836,1.108,1.108,0,0,1-.348.844,1.283,1.283,0,0,1-.918.328,1.283,1.283,0,0,1-.918-.328A1.108,1.108,0,0,1,45.789-10.641ZM49.7-4.3a5.013,5.013,0,0,1,.484-2.242A3.546,3.546,0,0,1,51.574-8.07a4.069,4.069,0,0,1,2.113-.539A3.849,3.849,0,0,1,56.48-7.562a4.2,4.2,0,0,1,1.207,2.844l.016.578A4.418,4.418,0,0,1,56.617-1.02,3.775,3.775,0,0,1,53.7.156a3.793,3.793,0,0,1-2.918-1.172A4.5,4.5,0,0,1,49.7-4.2Zm2.258.16A3.16,3.16,0,0,0,52.406-2.3a1.5,1.5,0,0,0,1.3.638,1.5,1.5,0,0,0,1.281-.63,3.457,3.457,0,0,0,.461-2.015,3.128,3.128,0,0,0-.461-1.831,1.5,1.5,0,0,0-1.3-.649,1.474,1.474,0,0,0-1.281.646A3.516,3.516,0,0,0,51.953-4.144ZM54.133-12h2.461L54.43-9.578H52.594Zm7.039,3.547.07.977a2.951,2.951,0,0,1,2.43-1.133,2.453,2.453,0,0,1,2,.789,3.682,3.682,0,0,1,.672,2.359V0H64.086V-5.419a1.47,1.47,0,0,0-.312-1.045,1.4,1.4,0,0,0-1.039-.325,1.553,1.553,0,0,0-1.43.814V0H59.047V-8.453ZM-43.172,20.8l1.563-5.258h2.422l-3.4,9.766-.187.445a2.577,2.577,0,0,1-2.5,1.656,3.552,3.552,0,0,1-1-.148V25.555l.344.008a1.857,1.857,0,0,0,.957-.2,1.283,1.283,0,0,0,.5-.648l.266-.7-2.961-8.477h2.43Zm13.438.859a.727.727,0,0,0-.41-.652,4.659,4.659,0,0,0-1.316-.426q-3.016-.633-3.016-2.562a2.323,2.323,0,0,1,.934-1.879,3.766,3.766,0,0,1,2.441-.754,4.053,4.053,0,0,1,2.574.758,2.388,2.388,0,0,1,.965,1.969H-29.82a1.092,1.092,0,0,0-.312-.8A1.322,1.322,0,0,0-31.109,17a1.351,1.351,0,0,0-.883.258.814.814,0,0,0-.312.656.7.7,0,0,0,.355.605,3.657,3.657,0,0,0,1.2.4,9.8,9.8,0,0,1,1.422.379,2.336,2.336,0,0,1,1.789,2.273,2.2,2.2,0,0,1-.992,1.871,4.28,4.28,0,0,1-2.562.715,4.47,4.47,0,0,1-1.887-.379,3.166,3.166,0,0,1-1.293-1.039,2.414,2.414,0,0,1-.469-1.426H-32.6a1.179,1.179,0,0,0,.445.922,1.766,1.766,0,0,0,1.109.32,1.635,1.635,0,0,0,.98-.246A.766.766,0,0,0-29.734,21.664Zm8.711,1.477a2.831,2.831,0,0,1-2.312,1.016,2.67,2.67,0,0,1-2.074-.781,3.335,3.335,0,0,1-.73-2.289V15.547h2.258v5.467q0,1.322,1.2,1.322a1.63,1.63,0,0,0,1.578-.8V15.547h2.266V24h-2.125Zm8.469-1.477a.727.727,0,0,0-.41-.652,4.659,4.659,0,0,0-1.316-.426q-3.016-.633-3.016-2.562a2.323,2.323,0,0,1,.934-1.879,3.766,3.766,0,0,1,2.441-.754,4.053,4.053,0,0,1,2.574.758,2.388,2.388,0,0,1,.965,1.969h-2.258a1.092,1.092,0,0,0-.312-.8A1.322,1.322,0,0,0-13.93,17a1.351,1.351,0,0,0-.883.258.814.814,0,0,0-.312.656.7.7,0,0,0,.355.605,3.657,3.657,0,0,0,1.2.4,9.8,9.8,0,0,1,1.422.379,2.336,2.336,0,0,1,1.789,2.273,2.2,2.2,0,0,1-.992,1.871,4.28,4.28,0,0,1-2.562.715,4.47,4.47,0,0,1-1.887-.379,3.166,3.166,0,0,1-1.293-1.039,2.414,2.414,0,0,1-.469-1.426h2.141a1.179,1.179,0,0,0,.445.922,1.766,1.766,0,0,0,1.109.32,1.635,1.635,0,0,0,.98-.246A.766.766,0,0,0-12.555,21.664ZM-2.539,24H-4.8V12h2.266Zm4.3,0H-.5V15.547H1.758ZM1.094,12.117H3.555L1.391,14.539H-.445Zm4.727,3.43.07.945a2.971,2.971,0,0,1,2.43-1.1,2.255,2.255,0,0,1,2.242,1.289A2.9,2.9,0,0,1,13.1,15.391a2.521,2.521,0,0,1,2.047.8,3.681,3.681,0,0,1,.672,2.41V24H13.555V18.6a1.616,1.616,0,0,0-.281-1.053,1.245,1.245,0,0,0-.992-.333,1.409,1.409,0,0,0-1.406.971L10.883,24H8.625V18.6a1.6,1.6,0,0,0-.289-1.065,1.257,1.257,0,0,0-.984-.329,1.463,1.463,0,0,0-1.391.8V24H3.7V15.547ZM19.938,24H17.672V15.547h2.266Zm-2.4-10.641a1.112,1.112,0,0,1,.34-.836,1.465,1.465,0,0,1,1.848,0,1.193,1.193,0,0,1,0,1.68,1.448,1.448,0,0,1-1.836,0A1.108,1.108,0,0,1,17.539,13.359Zm6.961.109v2.078h1.445V17.2H24.5v4.219a1.007,1.007,0,0,0,.18.672.9.9,0,0,0,.688.2,3.6,3.6,0,0,0,.664-.055v1.711a4.648,4.648,0,0,1-1.367.2,2.156,2.156,0,0,1-2.422-2.4V17.2H21.008V15.547h1.234V13.469Zm6.594,10.688a4.15,4.15,0,0,1-3.027-1.141A4.054,4.054,0,0,1,26.9,19.977v-.219a5.106,5.106,0,0,1,.492-2.277,3.612,3.612,0,0,1,1.395-1.547,3.914,3.914,0,0,1,2.059-.543,3.508,3.508,0,0,1,2.73,1.094,4.444,4.444,0,0,1,1,3.1v.922H29.188a2.1,2.1,0,0,0,.66,1.328,2,2,0,0,0,1.395.5,2.437,2.437,0,0,0,2.039-.945l1.109,1.242a3.389,3.389,0,0,1-1.375,1.121A4.511,4.511,0,0,1,31.094,24.156Zm-.258-6.945a1.411,1.411,0,0,0-1.09.455,2.357,2.357,0,0,0-.535,1.3h3.141v-.181a1.681,1.681,0,0,0-.406-1.165A1.456,1.456,0,0,0,30.836,17.211Zm9.594,4.453a.727.727,0,0,0-.41-.652,4.659,4.659,0,0,0-1.316-.426q-3.016-.633-3.016-2.562a2.323,2.323,0,0,1,.934-1.879,3.766,3.766,0,0,1,2.441-.754,4.053,4.053,0,0,1,2.574.758,2.388,2.388,0,0,1,.965,1.969H40.344a1.092,1.092,0,0,0-.312-.8A1.322,1.322,0,0,0,39.055,17a1.351,1.351,0,0,0-.883.258.814.814,0,0,0-.312.656.7.7,0,0,0,.355.605,3.657,3.657,0,0,0,1.2.4,9.8,9.8,0,0,1,1.422.379,2.336,2.336,0,0,1,1.789,2.273,2.2,2.2,0,0,1-.992,1.871,4.28,4.28,0,0,1-2.562.715,4.47,4.47,0,0,1-1.887-.379,3.166,3.166,0,0,1-1.293-1.039,2.414,2.414,0,0,1-.469-1.426h2.141a1.179,1.179,0,0,0,.445.922,1.766,1.766,0,0,0,1.109.32,1.635,1.635,0,0,0,.98-.246A.766.766,0,0,0,40.43,21.664Z" transform="translate(669 8019)" fill="#12263f"/>
      <rect id="Rectángulo_387422" data-name="Rectángulo 387422" width="210" height="71" rx="8" transform="translate(801.233 7992)" fill="#ffe888"/>
      <path id="Trazado_839873" data-name="Trazado 839873" d="M-67.484-2.344h-4.109L-72.375,0h-2.492l4.234-11.375h2.172L-64.2,0H-66.7Zm-3.477-1.9h2.844L-69.547-8.5ZM-58.312-.859A2.831,2.831,0,0,1-60.625.156,2.67,2.67,0,0,1-62.7-.625a3.335,3.335,0,0,1-.73-2.289V-8.453h2.258v5.467q0,1.322,1.2,1.322a1.63,1.63,0,0,0,1.578-.8V-8.453h2.266V0H-58.25ZM-52.3-8.453l.07.945a2.971,2.971,0,0,1,2.43-1.1A2.255,2.255,0,0,1-47.562-7.32a2.9,2.9,0,0,1,2.539-1.289,2.521,2.521,0,0,1,2.047.8A3.681,3.681,0,0,1-42.3-5.4V0H-44.57V-5.4a1.616,1.616,0,0,0-.281-1.053,1.245,1.245,0,0,0-.992-.333,1.409,1.409,0,0,0-1.406.971L-47.242,0H-49.5V-5.4a1.6,1.6,0,0,0-.289-1.065,1.257,1.257,0,0,0-.984-.329,1.463,1.463,0,0,0-1.391.8V0h-2.258V-8.453ZM-36.68.156A4.15,4.15,0,0,1-39.707-.984a4.054,4.054,0,0,1-1.168-3.039v-.219a5.106,5.106,0,0,1,.492-2.277,3.612,3.612,0,0,1,1.395-1.547,3.914,3.914,0,0,1,2.059-.543A3.508,3.508,0,0,1-34.2-7.516a4.444,4.444,0,0,1,1,3.1v.922h-5.383a2.1,2.1,0,0,0,.66,1.328,2,2,0,0,0,1.395.5,2.437,2.437,0,0,0,2.039-.945l1.109,1.242A3.389,3.389,0,0,1-34.758-.246,4.511,4.511,0,0,1-36.68.156Zm-.258-6.945a1.411,1.411,0,0,0-1.09.455,2.357,2.357,0,0,0-.535,1.3h3.141v-.181a1.681,1.681,0,0,0-.406-1.165A1.456,1.456,0,0,0-36.937-6.789Zm7.094-1.664.07.977a2.951,2.951,0,0,1,2.43-1.133,2.453,2.453,0,0,1,2,.789,3.682,3.682,0,0,1,.672,2.359V0H-26.93V-5.419a1.47,1.47,0,0,0-.312-1.045,1.4,1.4,0,0,0-1.039-.325,1.553,1.553,0,0,0-1.43.814V0h-2.258V-8.453Zm9.586-2.078v2.078h1.445V-6.8h-1.445v4.219a1.007,1.007,0,0,0,.18.672.9.9,0,0,0,.688.2,3.6,3.6,0,0,0,.664-.055V-.047a4.648,4.648,0,0,1-1.367.2,2.156,2.156,0,0,1-2.422-2.4V-6.8H-23.75V-8.453h1.234v-2.078ZM-18.141-4.3a5.013,5.013,0,0,1,.484-2.242A3.546,3.546,0,0,1-16.262-8.07a4.069,4.069,0,0,1,2.113-.539,3.849,3.849,0,0,1,2.793,1.047,4.2,4.2,0,0,1,1.207,2.844l.016.578A4.418,4.418,0,0,1-11.219-1.02,3.775,3.775,0,0,1-14.133.156a3.793,3.793,0,0,1-2.918-1.172A4.5,4.5,0,0,1-18.141-4.2Zm2.258.16A3.16,3.16,0,0,0-15.43-2.3a1.5,1.5,0,0,0,1.3.638,1.5,1.5,0,0,0,1.281-.63,3.457,3.457,0,0,0,.461-2.015,3.128,3.128,0,0,0-.461-1.831,1.5,1.5,0,0,0-1.3-.649,1.474,1.474,0,0,0-1.281.646A3.516,3.516,0,0,0-15.883-4.144Zm18.734,0A5.07,5.07,0,0,1,1.965-1.02,2.843,2.843,0,0,1-.43.156,2.633,2.633,0,0,1-2.5-.734V3.25H-4.758v-11.7h2.094l.078.828A2.654,2.654,0,0,1-.445-8.609a2.862,2.862,0,0,1,2.43,1.156,5.207,5.207,0,0,1,.867,3.188ZM.594-4.321A3.345,3.345,0,0,0,.176-6.146a1.36,1.36,0,0,0-1.215-.643A1.478,1.478,0,0,0-2.5-5.974V-2.5a1.5,1.5,0,0,0,1.477.839Q.594-1.664.594-4.321ZM9-6.336A6.134,6.134,0,0,0,8.188-6.4a1.654,1.654,0,0,0-1.68.867V0H4.25V-8.453H6.383l.063,1.008A2.092,2.092,0,0,1,8.328-8.609a2.366,2.366,0,0,1,.7.1ZM9.453-4.3a5.013,5.013,0,0,1,.484-2.242A3.546,3.546,0,0,1,11.332-8.07a4.069,4.069,0,0,1,2.113-.539,3.849,3.849,0,0,1,2.793,1.047,4.2,4.2,0,0,1,1.207,2.844l.016.578A4.418,4.418,0,0,1,16.375-1.02,3.775,3.775,0,0,1,13.461.156a3.793,3.793,0,0,1-2.918-1.172A4.5,4.5,0,0,1,9.453-4.2Zm2.258.16A3.16,3.16,0,0,0,12.164-2.3a1.5,1.5,0,0,0,1.3.638,1.5,1.5,0,0,0,1.281-.63A3.457,3.457,0,0,0,15.2-4.309a3.128,3.128,0,0,0-.461-1.831,1.5,1.5,0,0,0-1.3-.649,1.474,1.474,0,0,0-1.281.646A3.516,3.516,0,0,0,11.711-4.144Zm6.813-.145a4.954,4.954,0,0,1,.926-3.133,3,3,0,0,1,2.5-1.187,2.631,2.631,0,0,1,2.164.953l.094-.8H26.25V-.281a3.613,3.613,0,0,1-.5,1.93A3.236,3.236,0,0,1,24.328,2.9a4.985,4.985,0,0,1-2.141.43,4.635,4.635,0,0,1-1.812-.371A3.217,3.217,0,0,1,19.039,2l1-1.375a2.645,2.645,0,0,0,2.047.945,1.936,1.936,0,0,0,1.4-.48,1.8,1.8,0,0,0,.5-1.363V-.727A2.612,2.612,0,0,1,21.93.156a2.992,2.992,0,0,1-2.465-1.191,4.953,4.953,0,0,1-.941-3.16Zm2.258.161a3.1,3.1,0,0,0,.461,1.809,1.465,1.465,0,0,0,1.266.655,1.567,1.567,0,0,0,1.477-.777V-6.012a1.563,1.563,0,0,0-1.461-.777,1.474,1.474,0,0,0-1.277.667A3.5,3.5,0,0,0,20.781-4.128ZM32.734-6.336a6.134,6.134,0,0,0-.812-.062,1.654,1.654,0,0,0-1.68.867V0H27.984V-8.453h2.133l.063,1.008a2.092,2.092,0,0,1,1.883-1.164,2.366,2.366,0,0,1,.7.1ZM37.563.156A4.15,4.15,0,0,1,34.535-.984a4.054,4.054,0,0,1-1.168-3.039v-.219a5.106,5.106,0,0,1,.492-2.277,3.612,3.612,0,0,1,1.395-1.547,3.914,3.914,0,0,1,2.059-.543,3.508,3.508,0,0,1,2.73,1.094,4.444,4.444,0,0,1,1,3.1v.922H35.656a2.1,2.1,0,0,0,.66,1.328,2,2,0,0,0,1.395.5,2.437,2.437,0,0,0,2.039-.945l1.109,1.242A3.389,3.389,0,0,1,39.484-.246,4.511,4.511,0,0,1,37.563.156ZM37.3-6.789a1.411,1.411,0,0,0-1.09.455,2.357,2.357,0,0,0-.535,1.3H38.82v-.181a1.681,1.681,0,0,0-.406-1.165A1.456,1.456,0,0,0,37.3-6.789ZM46.9-2.336a.727.727,0,0,0-.41-.652,4.659,4.659,0,0,0-1.316-.426q-3.016-.633-3.016-2.562a2.323,2.323,0,0,1,.934-1.879,3.766,3.766,0,0,1,2.441-.754,4.053,4.053,0,0,1,2.574.758,2.388,2.388,0,0,1,.965,1.969H46.813a1.092,1.092,0,0,0-.312-.8A1.322,1.322,0,0,0,45.523-7a1.351,1.351,0,0,0-.883.258.814.814,0,0,0-.312.656.7.7,0,0,0,.355.605,3.657,3.657,0,0,0,1.2.4A9.8,9.8,0,0,1,47.3-4.7,2.336,2.336,0,0,1,49.094-2.43,2.2,2.2,0,0,1,48.1-.559a4.28,4.28,0,0,1-2.562.715,4.47,4.47,0,0,1-1.887-.379,3.166,3.166,0,0,1-1.293-1.039,2.414,2.414,0,0,1-.469-1.426h2.141a1.179,1.179,0,0,0,.445.922,1.766,1.766,0,0,0,1.109.32,1.635,1.635,0,0,0,.98-.246A.766.766,0,0,0,46.9-2.336ZM52.93,0H50.664V-8.453H52.93Zm-2.4-10.641a1.112,1.112,0,0,1,.34-.836A1.277,1.277,0,0,1,51.8-11.8a1.28,1.28,0,0,1,.922.328,1.105,1.105,0,0,1,.344.836,1.108,1.108,0,0,1-.348.844,1.283,1.283,0,0,1-.918.328,1.283,1.283,0,0,1-.918-.328A1.108,1.108,0,0,1,50.531-10.641Zm7.422,7.883,1.57-5.7h2.359L59.031,0H56.875L54.023-8.453h2.359ZM62.406-4.3a5.013,5.013,0,0,1,.484-2.242A3.546,3.546,0,0,1,64.285-8.07,4.069,4.069,0,0,1,66.4-8.609a3.849,3.849,0,0,1,2.793,1.047A4.2,4.2,0,0,1,70.4-4.719l.016.578A4.418,4.418,0,0,1,69.328-1.02,3.775,3.775,0,0,1,66.414.156,3.793,3.793,0,0,1,63.5-1.016,4.5,4.5,0,0,1,62.406-4.2Zm2.258.16A3.16,3.16,0,0,0,65.117-2.3a1.5,1.5,0,0,0,1.3.638,1.5,1.5,0,0,0,1.281-.63,3.457,3.457,0,0,0,.461-2.015A3.128,3.128,0,0,0,67.7-6.14a1.5,1.5,0,0,0-1.3-.649,1.474,1.474,0,0,0-1.281.646A3.516,3.516,0,0,0,64.664-4.144ZM-78.789,19.711a5.094,5.094,0,0,1,.887-3.148,2.877,2.877,0,0,1,2.426-1.172,2.589,2.589,0,0,1,2.039.922V12h2.266V24h-2.039l-.109-.9a2.657,2.657,0,0,1-2.172,1.055,2.869,2.869,0,0,1-2.395-1.176A5.258,5.258,0,0,1-78.789,19.711Zm2.258.161a3.355,3.355,0,0,0,.414,1.829,1.348,1.348,0,0,0,1.2.636,1.51,1.51,0,0,0,1.477-.887V18.1a1.489,1.489,0,0,0-1.461-.887Q-76.531,17.211-76.531,19.872Zm11,4.285a4.15,4.15,0,0,1-3.027-1.141,4.054,4.054,0,0,1-1.168-3.039v-.219a5.106,5.106,0,0,1,.492-2.277,3.612,3.612,0,0,1,1.395-1.547,3.914,3.914,0,0,1,2.059-.543,3.508,3.508,0,0,1,2.73,1.094,4.444,4.444,0,0,1,1,3.1v.922h-5.383a2.1,2.1,0,0,0,.66,1.328,2,2,0,0,0,1.395.5,2.437,2.437,0,0,0,2.039-.945l1.109,1.242a3.389,3.389,0,0,1-1.375,1.121A4.511,4.511,0,0,1-65.531,24.156Zm-.258-6.945a1.411,1.411,0,0,0-1.09.455,2.357,2.357,0,0,0-.535,1.3h3.141v-.181a1.681,1.681,0,0,0-.406-1.165A1.456,1.456,0,0,0-65.789,17.211Zm12.516,5.125a1.481,1.481,0,0,0,1.016-.344,1.2,1.2,0,0,0,.406-.914h2.117a2.9,2.9,0,0,1-.469,1.574,3.093,3.093,0,0,1-1.262,1.109,3.949,3.949,0,0,1-1.77.395A3.67,3.67,0,0,1-56.094,23a4.56,4.56,0,0,1-1.047-3.184v-.148A4.508,4.508,0,0,1-56.1,16.555a3.627,3.627,0,0,1,2.852-1.164,3.555,3.555,0,0,1,2.543.9,3.2,3.2,0,0,1,.973,2.4h-2.117a1.551,1.551,0,0,0-.406-1.072,1.354,1.354,0,0,0-1.031-.412,1.36,1.36,0,0,0-1.191.575,3.333,3.333,0,0,0-.4,1.866v.235a3.375,3.375,0,0,0,.4,1.878A1.377,1.377,0,0,0-53.273,22.336ZM-43.547,24a2.507,2.507,0,0,1-.227-.758,2.732,2.732,0,0,1-2.133.914,3,3,0,0,1-2.059-.719,2.312,2.312,0,0,1-.816-1.812,2.389,2.389,0,0,1,1-2.062,4.915,4.915,0,0,1,2.879-.727h1.039v-.484a1.393,1.393,0,0,0-.3-.937,1.183,1.183,0,0,0-.949-.352,1.345,1.345,0,0,0-.895.273.929.929,0,0,0-.324.75h-2.258a2.268,2.268,0,0,1,.453-1.359,3,3,0,0,1,1.281-.98A4.669,4.669,0,0,1-45,15.391a3.689,3.689,0,0,1,2.48.785,2.747,2.747,0,0,1,.918,2.207v3.664a4.041,4.041,0,0,0,.336,1.82V24Zm-1.867-1.57a1.945,1.945,0,0,0,.922-.223,1.462,1.462,0,0,0,.625-.6V20.156h-.844q-1.7,0-1.8,1.172l-.008.133a.9.9,0,0,0,.3.7A1.153,1.153,0,0,0-45.414,22.43Zm10.3-4.766a6.134,6.134,0,0,0-.812-.062,1.654,1.654,0,0,0-1.68.867V24h-2.258V15.547h2.133l.063,1.008a2.092,2.092,0,0,1,1.883-1.164,2.366,2.366,0,0,1,.7.1Zm.609,2.047a4.954,4.954,0,0,1,.926-3.133,3,3,0,0,1,2.5-1.187,2.631,2.631,0,0,1,2.164.953l.094-.8h2.047v8.172a3.613,3.613,0,0,1-.5,1.93A3.236,3.236,0,0,1-28.7,26.9a4.985,4.985,0,0,1-2.141.43,4.635,4.635,0,0,1-1.812-.371A3.217,3.217,0,0,1-33.992,26l1-1.375a2.645,2.645,0,0,0,2.047.945,1.936,1.936,0,0,0,1.4-.48,1.8,1.8,0,0,0,.5-1.363v-.453a2.612,2.612,0,0,1-2.055.883,2.992,2.992,0,0,1-2.465-1.191,4.953,4.953,0,0,1-.941-3.16Zm2.258.161a3.1,3.1,0,0,0,.461,1.809,1.465,1.465,0,0,0,1.266.655,1.567,1.567,0,0,0,1.477-.777V17.988a1.563,1.563,0,0,0-1.461-.777,1.474,1.474,0,0,0-1.277.667A3.5,3.5,0,0,0-32.25,19.872ZM-20.148,24a2.507,2.507,0,0,1-.227-.758,2.732,2.732,0,0,1-2.133.914,3,3,0,0,1-2.059-.719,2.312,2.312,0,0,1-.816-1.812,2.389,2.389,0,0,1,1-2.062,4.915,4.915,0,0,1,2.879-.727h1.039v-.484a1.393,1.393,0,0,0-.3-.937,1.183,1.183,0,0,0-.949-.352,1.345,1.345,0,0,0-.895.273.929.929,0,0,0-.324.75H-25.2a2.268,2.268,0,0,1,.453-1.359,3,3,0,0,1,1.281-.98,4.669,4.669,0,0,1,1.859-.355,3.689,3.689,0,0,1,2.48.785,2.747,2.747,0,0,1,.918,2.207v3.664a4.041,4.041,0,0,0,.336,1.82V24Zm-1.867-1.57a1.945,1.945,0,0,0,.922-.223,1.462,1.462,0,0,0,.625-.6V20.156h-.844q-1.7,0-1.8,1.172l-.008.133a.9.9,0,0,0,.3.7A1.153,1.153,0,0,0-22.016,22.43Zm13.422,1.727a4.15,4.15,0,0,1-3.027-1.141,4.054,4.054,0,0,1-1.168-3.039v-.219A5.106,5.106,0,0,1-12.3,17.48,3.612,3.612,0,0,1-10.9,15.934a3.914,3.914,0,0,1,2.059-.543,3.508,3.508,0,0,1,2.73,1.094,4.444,4.444,0,0,1,1,3.1v.922H-10.5a2.1,2.1,0,0,0,.66,1.328,2,2,0,0,0,1.395.5,2.437,2.437,0,0,0,2.039-.945L-5.3,22.633a3.389,3.389,0,0,1-1.375,1.121A4.511,4.511,0,0,1-8.594,24.156Zm-.258-6.945a1.411,1.411,0,0,0-1.09.455,2.357,2.357,0,0,0-.535,1.3h3.141v-.181a1.681,1.681,0,0,0-.406-1.165A1.456,1.456,0,0,0-8.852,17.211Zm7.094-1.664.07.977a2.951,2.951,0,0,1,2.43-1.133,2.453,2.453,0,0,1,2,.789,3.682,3.682,0,0,1,.672,2.359V24H1.156V18.581a1.47,1.47,0,0,0-.312-1.045A1.4,1.4,0,0,0-.2,17.211a1.553,1.553,0,0,0-1.43.814V24H-3.883V15.547ZM13,24.156a4.15,4.15,0,0,1-3.027-1.141A4.054,4.054,0,0,1,8.8,19.977v-.219A5.106,5.106,0,0,1,9.3,17.48a3.612,3.612,0,0,1,1.395-1.547,3.914,3.914,0,0,1,2.059-.543,3.508,3.508,0,0,1,2.73,1.094,4.444,4.444,0,0,1,1,3.1v.922H11.094a2.1,2.1,0,0,0,.66,1.328,2,2,0,0,0,1.395.5,2.437,2.437,0,0,0,2.039-.945L16.3,22.633a3.389,3.389,0,0,1-1.375,1.121A4.511,4.511,0,0,1,13,24.156Zm-.258-6.945a1.411,1.411,0,0,0-1.09.455,2.357,2.357,0,0,0-.535,1.3h3.141v-.181a1.681,1.681,0,0,0-.406-1.165A1.456,1.456,0,0,0,12.742,17.211ZM20.141,24H17.875V12h2.266Zm8.547-10.531v2.078h1.445V17.2H28.688v4.219a1.007,1.007,0,0,0,.18.672.9.9,0,0,0,.688.2,3.6,3.6,0,0,0,.664-.055v1.711a4.648,4.648,0,0,1-1.367.2,2.156,2.156,0,0,1-2.422-2.4V17.2H25.2V15.547H26.43V13.469ZM33.773,24H31.508V15.547h2.266Zm-2.4-10.641a1.112,1.112,0,0,1,.34-.836,1.465,1.465,0,0,1,1.848,0,1.193,1.193,0,0,1,0,1.68,1.448,1.448,0,0,1-1.836,0A1.108,1.108,0,0,1,31.375,13.359Zm8.148,10.8A4.15,4.15,0,0,1,36.5,23.016a4.054,4.054,0,0,1-1.168-3.039v-.219a5.106,5.106,0,0,1,.492-2.277,3.612,3.612,0,0,1,1.395-1.547,3.914,3.914,0,0,1,2.059-.543A3.508,3.508,0,0,1,42,16.484a4.444,4.444,0,0,1,1,3.1v.922H37.617a2.1,2.1,0,0,0,.66,1.328,2,2,0,0,0,1.395.5,2.437,2.437,0,0,0,2.039-.945l1.109,1.242a3.389,3.389,0,0,1-1.375,1.121A4.511,4.511,0,0,1,39.523,24.156Zm-.258-6.945a1.411,1.411,0,0,0-1.09.455,2.357,2.357,0,0,0-.535,1.3h3.141v-.181a1.681,1.681,0,0,0-.406-1.165A1.456,1.456,0,0,0,39.266,17.211ZM46.4,15.547l.07.945a2.971,2.971,0,0,1,2.43-1.1,2.255,2.255,0,0,1,2.242,1.289,2.9,2.9,0,0,1,2.539-1.289,2.521,2.521,0,0,1,2.047.8A3.681,3.681,0,0,1,56.4,18.6V24H54.133V18.6a1.616,1.616,0,0,0-.281-1.053,1.245,1.245,0,0,0-.992-.333,1.409,1.409,0,0,0-1.406.971L51.461,24H49.2V18.6a1.6,1.6,0,0,0-.289-1.065,1.257,1.257,0,0,0-.984-.329,1.463,1.463,0,0,0-1.391.8V24H44.281V15.547Zm19.344,4.3a5.07,5.07,0,0,1-.887,3.129,2.843,2.843,0,0,1-2.395,1.176,2.633,2.633,0,0,1-2.07-.891V27.25H58.133v-11.7h2.094l.078.828a2.654,2.654,0,0,1,2.141-.984,2.862,2.862,0,0,1,2.43,1.156,5.207,5.207,0,0,1,.867,3.188Zm-2.258-.172a3.345,3.345,0,0,0-.418-1.826,1.36,1.36,0,0,0-1.215-.643,1.478,1.478,0,0,0-1.461.815V21.5a1.5,1.5,0,0,0,1.477.839Q63.484,22.336,63.484,19.679Zm3.3.016a5.013,5.013,0,0,1,.484-2.242,3.546,3.546,0,0,1,1.395-1.523,4.069,4.069,0,0,1,2.113-.539,3.849,3.849,0,0,1,2.793,1.047,4.2,4.2,0,0,1,1.207,2.844l.016.578a4.418,4.418,0,0,1-1.086,3.121,4.209,4.209,0,0,1-5.832,0,4.5,4.5,0,0,1-1.09-3.187Zm2.258.16A3.16,3.16,0,0,0,69.5,21.7a1.628,1.628,0,0,0,2.578.008,3.457,3.457,0,0,0,.461-2.015,3.128,3.128,0,0,0-.461-1.831,1.5,1.5,0,0,0-1.3-.649,1.474,1.474,0,0,0-1.281.646A3.516,3.516,0,0,0,69.047,19.856Z" transform="translate(907.233 8019)" fill="#12263f"/>
      <rect id="Rectángulo_387423" data-name="Rectángulo 387423" width="210" height="71" rx="8" transform="translate(1044 7992)" fill="#c4f8cc"/>
      <path id="Trazado_839874" data-name="Trazado 839874" d="M-79.254-2.344h-4.109L-84.145,0h-2.492L-82.4-11.375h2.172L-75.973,0h-2.492Zm-3.477-1.9h2.844L-81.316-8.5ZM-70.082-.859A2.831,2.831,0,0,1-72.395.156a2.67,2.67,0,0,1-2.074-.781,3.335,3.335,0,0,1-.73-2.289V-8.453h2.258v5.467q0,1.322,1.2,1.322a1.63,1.63,0,0,0,1.578-.8V-8.453h2.266V0H-70.02Zm6.008-7.594.07.945a2.971,2.971,0,0,1,2.43-1.1A2.255,2.255,0,0,1-59.332-7.32a2.9,2.9,0,0,1,2.539-1.289,2.521,2.521,0,0,1,2.047.8,3.681,3.681,0,0,1,.672,2.41V0H-56.34V-5.4a1.616,1.616,0,0,0-.281-1.053,1.245,1.245,0,0,0-.992-.333,1.409,1.409,0,0,0-1.406.971L-59.012,0H-61.27V-5.4a1.6,1.6,0,0,0-.289-1.065,1.257,1.257,0,0,0-.984-.329,1.463,1.463,0,0,0-1.391.8V0h-2.258V-8.453ZM-48.449.156A4.15,4.15,0,0,1-51.477-.984a4.054,4.054,0,0,1-1.168-3.039v-.219a5.106,5.106,0,0,1,.492-2.277,3.612,3.612,0,0,1,1.395-1.547A3.914,3.914,0,0,1-48.7-8.609a3.508,3.508,0,0,1,2.73,1.094,4.444,4.444,0,0,1,1,3.1v.922h-5.383a2.1,2.1,0,0,0,.66,1.328,2,2,0,0,0,1.395.5,2.437,2.437,0,0,0,2.039-.945l1.109,1.242A3.389,3.389,0,0,1-46.527-.246,4.511,4.511,0,0,1-48.449.156Zm-.258-6.945a1.411,1.411,0,0,0-1.09.455,2.357,2.357,0,0,0-.535,1.3h3.141v-.181A1.681,1.681,0,0,0-47.6-6.377,1.456,1.456,0,0,0-48.707-6.789Zm7.094-1.664.07.977a2.951,2.951,0,0,1,2.43-1.133,2.453,2.453,0,0,1,2,.789,3.682,3.682,0,0,1,.672,2.359V0H-38.7V-5.419a1.47,1.47,0,0,0-.312-1.045,1.4,1.4,0,0,0-1.039-.325,1.553,1.553,0,0,0-1.43.814V0h-2.258V-8.453Zm9.586-2.078v2.078h1.445V-6.8h-1.445v4.219a1.007,1.007,0,0,0,.18.672.9.9,0,0,0,.688.2,3.6,3.6,0,0,0,.664-.055V-.047a4.648,4.648,0,0,1-1.367.2,2.156,2.156,0,0,1-2.422-2.4V-6.8H-35.52V-8.453h1.234v-2.078ZM-29.91-4.3a5.013,5.013,0,0,1,.484-2.242A3.546,3.546,0,0,1-28.031-8.07a4.069,4.069,0,0,1,2.113-.539,3.849,3.849,0,0,1,2.793,1.047,4.2,4.2,0,0,1,1.207,2.844l.016.578A4.418,4.418,0,0,1-22.988-1.02,3.775,3.775,0,0,1-25.9.156,3.793,3.793,0,0,1-28.82-1.016,4.5,4.5,0,0,1-29.91-4.2Zm2.258.16A3.16,3.16,0,0,0-27.2-2.3a1.5,1.5,0,0,0,1.3.638,1.5,1.5,0,0,0,1.281-.63,3.457,3.457,0,0,0,.461-2.015,3.128,3.128,0,0,0-.461-1.831,1.5,1.5,0,0,0-1.3-.649,1.474,1.474,0,0,0-1.281.646A3.516,3.516,0,0,0-27.652-4.144Zm14.281.949,1.563-5.258h2.422l-3.4,9.766-.187.445a2.577,2.577,0,0,1-2.5,1.656,3.552,3.552,0,0,1-1-.148V1.555l.344.008a1.857,1.857,0,0,0,.957-.2,1.283,1.283,0,0,0,.5-.648l.266-.7-2.961-8.477h2.43Zm8.508-1.094a5.094,5.094,0,0,1,.887-3.148A2.877,2.877,0,0,1-1.551-8.609a2.589,2.589,0,0,1,2.039.922V-12H2.754V0H.715L.605-.9A2.657,2.657,0,0,1-1.566.156,2.869,2.869,0,0,1-3.961-1.02,5.258,5.258,0,0,1-4.863-4.289Zm2.258.161A3.355,3.355,0,0,0-2.191-2.3a1.348,1.348,0,0,0,1.2.636A1.51,1.51,0,0,0,.488-2.551V-5.9A1.489,1.489,0,0,0-.973-6.789Q-2.605-6.789-2.605-4.128ZM6.887,0H4.621V-8.453H6.887Zm-2.4-10.641a1.112,1.112,0,0,1,.34-.836,1.277,1.277,0,0,1,.926-.328,1.28,1.28,0,0,1,.922.328,1.105,1.105,0,0,1,.344.836,1.108,1.108,0,0,1-.348.844,1.283,1.283,0,0,1-.918.328A1.283,1.283,0,0,1,4.836-9.8,1.108,1.108,0,0,1,4.488-10.641Zm8.836,8.3a.727.727,0,0,0-.41-.652A4.659,4.659,0,0,0,11.6-3.414Q8.582-4.047,8.582-5.977a2.323,2.323,0,0,1,.934-1.879,3.766,3.766,0,0,1,2.441-.754,4.053,4.053,0,0,1,2.574.758A2.388,2.388,0,0,1,15.5-5.883H13.238a1.092,1.092,0,0,0-.312-.8A1.322,1.322,0,0,0,11.949-7a1.351,1.351,0,0,0-.883.258.814.814,0,0,0-.312.656.7.7,0,0,0,.355.605,3.657,3.657,0,0,0,1.2.4A9.8,9.8,0,0,1,13.73-4.7,2.336,2.336,0,0,1,15.52-2.43a2.2,2.2,0,0,1-.992,1.871,4.28,4.28,0,0,1-2.562.715,4.47,4.47,0,0,1-1.887-.379A3.166,3.166,0,0,1,8.785-1.262a2.414,2.414,0,0,1-.469-1.426h2.141a1.179,1.179,0,0,0,.445.922,1.766,1.766,0,0,0,1.109.32,1.635,1.635,0,0,0,.98-.246A.766.766,0,0,0,13.324-2.336ZM19.09-8.453l.07.945a2.971,2.971,0,0,1,2.43-1.1A2.255,2.255,0,0,1,23.832-7.32a2.9,2.9,0,0,1,2.539-1.289,2.521,2.521,0,0,1,2.047.8A3.681,3.681,0,0,1,29.09-5.4V0H26.824V-5.4a1.616,1.616,0,0,0-.281-1.053,1.245,1.245,0,0,0-.992-.333,1.409,1.409,0,0,0-1.406.971L24.152,0H21.895V-5.4a1.6,1.6,0,0,0-.289-1.065,1.257,1.257,0,0,0-.984-.329,1.463,1.463,0,0,0-1.391.8V0H16.973V-8.453ZM33.207,0H30.941V-8.453h2.266Zm-2.4-10.641a1.112,1.112,0,0,1,.34-.836,1.277,1.277,0,0,1,.926-.328,1.28,1.28,0,0,1,.922.328,1.105,1.105,0,0,1,.344.836,1.108,1.108,0,0,1-.348.844,1.283,1.283,0,0,1-.918.328,1.283,1.283,0,0,1-.918-.328A1.108,1.108,0,0,1,30.809-10.641Zm6.336,2.188.07.977a2.951,2.951,0,0,1,2.43-1.133,2.453,2.453,0,0,1,2,.789,3.682,3.682,0,0,1,.672,2.359V0H40.059V-5.419a1.47,1.47,0,0,0-.312-1.045,1.4,1.4,0,0,0-1.039-.325,1.553,1.553,0,0,0-1.43.814V0H35.02V-8.453ZM49.09-.859A2.831,2.831,0,0,1,46.777.156,2.67,2.67,0,0,1,44.7-.625a3.335,3.335,0,0,1-.73-2.289V-8.453H46.23v5.467q0,1.322,1.2,1.322a1.63,1.63,0,0,0,1.578-.8V-8.453h2.266V0H49.152Zm7.406-.8a1.481,1.481,0,0,0,1.016-.344,1.2,1.2,0,0,0,.406-.914h2.117a2.9,2.9,0,0,1-.469,1.574A3.093,3.093,0,0,1,58.3-.238a3.949,3.949,0,0,1-1.77.395A3.67,3.67,0,0,1,53.676-1,4.56,4.56,0,0,1,52.629-4.18v-.148a4.508,4.508,0,0,1,1.039-3.117A3.627,3.627,0,0,1,56.52-8.609a3.555,3.555,0,0,1,2.543.9,3.2,3.2,0,0,1,.973,2.4H57.918a1.551,1.551,0,0,0-.406-1.072,1.354,1.354,0,0,0-1.031-.412,1.36,1.36,0,0,0-1.191.575,3.333,3.333,0,0,0-.4,1.866v.235a3.375,3.375,0,0,0,.4,1.878A1.377,1.377,0,0,0,56.5-1.664ZM63.707,0H61.441V-8.453h2.266Zm-2.4-10.641a1.112,1.112,0,0,1,.34-.836,1.277,1.277,0,0,1,.926-.328,1.28,1.28,0,0,1,.922.328,1.105,1.105,0,0,1,.344.836,1.108,1.108,0,0,1-.348.844,1.283,1.283,0,0,1-.918.328,1.283,1.283,0,0,1-.918-.328A1.108,1.108,0,0,1,61.309-10.641ZM65.215-4.3A5.013,5.013,0,0,1,65.7-6.547,3.546,3.546,0,0,1,67.094-8.07a4.069,4.069,0,0,1,2.113-.539A3.849,3.849,0,0,1,72-7.562a4.2,4.2,0,0,1,1.207,2.844l.016.578A4.418,4.418,0,0,1,72.137-1.02,3.775,3.775,0,0,1,69.223.156,3.793,3.793,0,0,1,66.3-1.016,4.5,4.5,0,0,1,65.215-4.2Zm2.258.16A3.16,3.16,0,0,0,67.926-2.3a1.5,1.5,0,0,0,1.3.638,1.5,1.5,0,0,0,1.281-.63,3.457,3.457,0,0,0,.461-2.015A3.128,3.128,0,0,0,70.5-6.14a1.5,1.5,0,0,0-1.3-.649,1.474,1.474,0,0,0-1.281.646A3.516,3.516,0,0,0,67.473-4.144ZM69.652-12h2.461L69.949-9.578H68.113Zm7.039,3.547.07.977a2.951,2.951,0,0,1,2.43-1.133,2.453,2.453,0,0,1,2,.789,3.682,3.682,0,0,1,.672,2.359V0H79.605V-5.419a1.47,1.47,0,0,0-.312-1.045,1.4,1.4,0,0,0-1.039-.325,1.553,1.553,0,0,0-1.43.814V0H74.566V-8.453ZM-65.289,24a2.507,2.507,0,0,1-.227-.758,2.732,2.732,0,0,1-2.133.914,3,3,0,0,1-2.059-.719,2.312,2.312,0,0,1-.816-1.812,2.389,2.389,0,0,1,1-2.062,4.915,4.915,0,0,1,2.879-.727h1.039v-.484a1.393,1.393,0,0,0-.3-.937,1.183,1.183,0,0,0-.949-.352,1.345,1.345,0,0,0-.895.273.929.929,0,0,0-.324.75h-2.258a2.268,2.268,0,0,1,.453-1.359,3,3,0,0,1,1.281-.98,4.669,4.669,0,0,1,1.859-.355,3.689,3.689,0,0,1,2.48.785,2.747,2.747,0,0,1,.918,2.207v3.664a4.041,4.041,0,0,0,.336,1.82V24Zm-1.867-1.57a1.945,1.945,0,0,0,.922-.223,1.462,1.462,0,0,0,.625-.6V20.156h-.844q-1.7,0-1.8,1.172l-.008.133a.9.9,0,0,0,.3.7A1.153,1.153,0,0,0-67.156,22.43Zm13.164-2.578a5.119,5.119,0,0,1-.867,3.168,2.872,2.872,0,0,1-2.422,1.137,2.639,2.639,0,0,1-2.2-1.055l-.1.9h-2.031V12h2.258v4.3a2.571,2.571,0,0,1,2.055-.914,2.9,2.9,0,0,1,2.426,1.137,5.126,5.126,0,0,1,.879,3.2Zm-2.258-.172a3.381,3.381,0,0,0-.406-1.877,1.372,1.372,0,0,0-1.211-.592,1.489,1.489,0,0,0-1.484.885v3.346a1.509,1.509,0,0,0,1.5.893,1.4,1.4,0,0,0,1.438-1.081A5.6,5.6,0,0,0-56.25,19.679Zm8.4-2.015a6.134,6.134,0,0,0-.812-.062,1.654,1.654,0,0,0-1.68.867V24H-52.6V15.547h2.133l.063,1.008a2.092,2.092,0,0,1,1.883-1.164,2.366,2.366,0,0,1,.7.1Zm6.148,5.477a2.831,2.831,0,0,1-2.312,1.016,2.67,2.67,0,0,1-2.074-.781,3.335,3.335,0,0,1-.73-2.289V15.547h2.258v5.467q0,1.322,1.2,1.322a1.63,1.63,0,0,0,1.578-.8V15.547h2.266V24h-2.125Zm11.5-3.289a5.07,5.07,0,0,1-.887,3.129,2.843,2.843,0,0,1-2.395,1.176,2.633,2.633,0,0,1-2.07-.891V27.25h-2.258v-11.7h2.094l.078.828a2.654,2.654,0,0,1,2.141-.984,2.862,2.862,0,0,1,2.43,1.156,5.207,5.207,0,0,1,.867,3.188Zm-2.258-.172a3.345,3.345,0,0,0-.418-1.826,1.36,1.36,0,0,0-1.215-.643,1.478,1.478,0,0,0-1.461.815V21.5a1.5,1.5,0,0,0,1.477.839Q-32.461,22.336-32.461,19.679Zm6.359-6.211v2.078h1.445V17.2H-26.1v4.219a1.007,1.007,0,0,0,.18.672.9.9,0,0,0,.688.2,3.6,3.6,0,0,0,.664-.055v1.711a4.648,4.648,0,0,1-1.367.2,2.156,2.156,0,0,1-2.422-2.4V17.2h-1.234V15.547h1.234V13.469ZM-18.5,24a2.507,2.507,0,0,1-.227-.758,2.732,2.732,0,0,1-2.133.914,3,3,0,0,1-2.059-.719,2.312,2.312,0,0,1-.816-1.812,2.389,2.389,0,0,1,1-2.062,4.915,4.915,0,0,1,2.879-.727h1.039v-.484a1.393,1.393,0,0,0-.3-.937,1.183,1.183,0,0,0-.949-.352,1.345,1.345,0,0,0-.895.273.929.929,0,0,0-.324.75h-2.258a2.268,2.268,0,0,1,.453-1.359,3,3,0,0,1,1.281-.98,4.669,4.669,0,0,1,1.859-.355,3.689,3.689,0,0,1,2.48.785,2.747,2.747,0,0,1,.918,2.207v3.664a4.041,4.041,0,0,0,.336,1.82V24Zm-1.867-1.57a1.945,1.945,0,0,0,.922-.223,1.462,1.462,0,0,0,.625-.6V20.156h-.844q-1.7,0-1.8,1.172l-.008.133a.9.9,0,0,0,.3.7A1.153,1.153,0,0,0-20.367,22.43Zm9.18-2.719a5.094,5.094,0,0,1,.887-3.148,2.877,2.877,0,0,1,2.426-1.172,2.589,2.589,0,0,1,2.039.922V12H-3.57V24H-5.609l-.109-.9a2.657,2.657,0,0,1-2.172,1.055,2.869,2.869,0,0,1-2.395-1.176A5.258,5.258,0,0,1-11.187,19.711Zm2.258.161A3.355,3.355,0,0,0-8.516,21.7a1.348,1.348,0,0,0,1.2.636,1.51,1.51,0,0,0,1.477-.887V18.1A1.489,1.489,0,0,0-7.3,17.211Q-8.93,17.211-8.93,19.872Zm11,4.285A4.15,4.15,0,0,1-.957,23.016a4.054,4.054,0,0,1-1.168-3.039v-.219a5.106,5.106,0,0,1,.492-2.277A3.612,3.612,0,0,1-.238,15.934a3.914,3.914,0,0,1,2.059-.543,3.508,3.508,0,0,1,2.73,1.094,4.444,4.444,0,0,1,1,3.1v.922H.164a2.1,2.1,0,0,0,.66,1.328,2,2,0,0,0,1.395.5,2.437,2.437,0,0,0,2.039-.945l1.109,1.242a3.389,3.389,0,0,1-1.375,1.121A4.511,4.511,0,0,1,2.07,24.156Zm-.258-6.945a1.411,1.411,0,0,0-1.09.455,2.357,2.357,0,0,0-.535,1.3H3.328v-.181a1.681,1.681,0,0,0-.406-1.165A1.456,1.456,0,0,0,1.813,17.211ZM13.2,24H10.93V12H13.2Zm6.758,0a2.507,2.507,0,0,1-.227-.758,2.732,2.732,0,0,1-2.133.914,3,3,0,0,1-2.059-.719,2.312,2.312,0,0,1-.816-1.812,2.389,2.389,0,0,1,1-2.062,4.915,4.915,0,0,1,2.879-.727h1.039v-.484a1.393,1.393,0,0,0-.3-.937,1.183,1.183,0,0,0-.949-.352,1.345,1.345,0,0,0-.895.273.929.929,0,0,0-.324.75H14.906a2.268,2.268,0,0,1,.453-1.359,3,3,0,0,1,1.281-.98,4.669,4.669,0,0,1,1.859-.355,3.689,3.689,0,0,1,2.48.785,2.747,2.747,0,0,1,.918,2.207v3.664a4.041,4.041,0,0,0,.336,1.82V24Zm-1.867-1.57a1.945,1.945,0,0,0,.922-.223,1.462,1.462,0,0,0,.625-.6V20.156h-.844q-1.7,0-1.8,1.172l-.008.133a.9.9,0,0,0,.3.7A1.153,1.153,0,0,0,18.086,22.43Zm13.047-.094a1.481,1.481,0,0,0,1.016-.344,1.2,1.2,0,0,0,.406-.914h2.117a2.9,2.9,0,0,1-.469,1.574,3.093,3.093,0,0,1-1.262,1.109,3.949,3.949,0,0,1-1.77.395A3.67,3.67,0,0,1,28.313,23a4.56,4.56,0,0,1-1.047-3.184v-.148A4.508,4.508,0,0,1,28.3,16.555a3.627,3.627,0,0,1,2.852-1.164,3.555,3.555,0,0,1,2.543.9,3.2,3.2,0,0,1,.973,2.4H32.555a1.551,1.551,0,0,0-.406-1.072,1.51,1.51,0,0,0-2.223.163,3.333,3.333,0,0,0-.4,1.866v.235a3.375,3.375,0,0,0,.4,1.878A1.377,1.377,0,0,0,31.133,22.336ZM40.859,24a2.507,2.507,0,0,1-.227-.758,2.732,2.732,0,0,1-2.133.914,3,3,0,0,1-2.059-.719,2.312,2.312,0,0,1-.816-1.812,2.389,2.389,0,0,1,1-2.062,4.915,4.915,0,0,1,2.879-.727h1.039v-.484a1.393,1.393,0,0,0-.3-.937,1.183,1.183,0,0,0-.949-.352,1.345,1.345,0,0,0-.895.273.929.929,0,0,0-.324.75H35.813a2.268,2.268,0,0,1,.453-1.359,3,3,0,0,1,1.281-.98,4.669,4.669,0,0,1,1.859-.355,3.689,3.689,0,0,1,2.48.785,2.747,2.747,0,0,1,.918,2.207v3.664a4.041,4.041,0,0,0,.336,1.82V24Zm-1.867-1.57a1.945,1.945,0,0,0,.922-.223,1.462,1.462,0,0,0,.625-.6V20.156H39.7q-1.7,0-1.8,1.172l-.008.133a.9.9,0,0,0,.3.7A1.153,1.153,0,0,0,38.992,22.43Zm10.3-4.766a6.134,6.134,0,0,0-.812-.062,1.654,1.654,0,0,0-1.68.867V24H44.539V15.547h2.133l.063,1.008a2.092,2.092,0,0,1,1.883-1.164,2.366,2.366,0,0,1,.7.1Zm.609,2.047a4.954,4.954,0,0,1,.926-3.133,3,3,0,0,1,2.5-1.187,2.631,2.631,0,0,1,2.164.953l.094-.8h2.047v8.172a3.613,3.613,0,0,1-.5,1.93A3.236,3.236,0,0,1,55.7,26.9a4.985,4.985,0,0,1-2.141.43,4.635,4.635,0,0,1-1.812-.371A3.217,3.217,0,0,1,50.414,26l1-1.375a2.645,2.645,0,0,0,2.047.945,1.936,1.936,0,0,0,1.4-.48,1.8,1.8,0,0,0,.5-1.363v-.453a2.612,2.612,0,0,1-2.055.883,2.992,2.992,0,0,1-2.465-1.191A4.953,4.953,0,0,1,49.9,19.8Zm2.258.161a3.1,3.1,0,0,0,.461,1.809,1.465,1.465,0,0,0,1.266.655,1.567,1.567,0,0,0,1.477-.777V17.988a1.563,1.563,0,0,0-1.461-.777,1.474,1.474,0,0,0-1.277.667A3.5,3.5,0,0,0,52.156,19.872ZM64.258,24a2.507,2.507,0,0,1-.227-.758,2.732,2.732,0,0,1-2.133.914,3,3,0,0,1-2.059-.719,2.312,2.312,0,0,1-.816-1.812,2.389,2.389,0,0,1,1-2.062,4.915,4.915,0,0,1,2.879-.727h1.039v-.484a1.393,1.393,0,0,0-.3-.937,1.183,1.183,0,0,0-.949-.352,1.345,1.345,0,0,0-.895.273.929.929,0,0,0-.324.75H59.211a2.268,2.268,0,0,1,.453-1.359,3,3,0,0,1,1.281-.98,4.669,4.669,0,0,1,1.859-.355,3.689,3.689,0,0,1,2.48.785,2.747,2.747,0,0,1,.918,2.207v3.664a4.041,4.041,0,0,0,.336,1.82V24Zm-1.867-1.57a1.945,1.945,0,0,0,.922-.223,1.462,1.462,0,0,0,.625-.6V20.156h-.844q-1.7,0-1.8,1.172l-.008.133a.9.9,0,0,0,.3.7A1.153,1.153,0,0,0,62.391,22.43Z" transform="translate(1150 8019)" fill="#12263f"/>
      <g id="Grupo_1095893" data-name="Grupo 1095893" transform="translate(16 6939)">
        <circle id="Elipse_9997-2" data-name="Elipse 9997" cx="14.5" cy="14.5" r="14.5" transform="translate(640 1114)" fill="#ffce00"/>
        <circle id="Elipse_9998-2" data-name="Elipse 9998" cx="6.5" cy="6.5" r="6.5" transform="translate(648 1122)" fill="#fff"/>
      </g>
      <g id="Grupo_1095894" data-name="Grupo 1095894" transform="translate(248 6939)">
        <circle id="Elipse_9997-3" data-name="Elipse 9997" cx="14.5" cy="14.5" r="14.5" transform="translate(640 1114)" fill="#ffce00"/>
        <circle id="Elipse_9998-3" data-name="Elipse 9998" cx="6.5" cy="6.5" r="6.5" transform="translate(648 1122)" fill="#fff"/>
      </g>
      <g id="Grupo_1095895" data-name="Grupo 1095895" transform="translate(494 6939)">
        <circle id="Elipse_9997-4" data-name="Elipse 9997" cx="14.5" cy="14.5" r="14.5" transform="translate(640 1114)" fill="#ffce00"/>
        <circle id="Elipse_9998-4" data-name="Elipse 9998" cx="6.5" cy="6.5" r="6.5" transform="translate(648 1122)" fill="#fff"/>
      </g>
    </g>
  </g>
</svg>
