<svg xmlns="http://www.w3.org/2000/svg" xmlns:xlink="http://www.w3.org/1999/xlink" width="190" height="157" viewBox="0 0 190 157">
  <defs>
    <linearGradient id="linear-gradient" x1="0.5" y1="-0.056" x2="0.5" y2="1" gradientUnits="objectBoundingBox">
      <stop offset="0" stop-color="#3ee2a8"/>
      <stop offset="0.56" stop-color="#3ee2a8"/>
      <stop offset="1" stop-color="#1682fb"/>
    </linearGradient>
  </defs>
  <g id="Grupo_1095790" data-name="Grupo 1095790" transform="translate(6653 2716)">
    <g id="Grupo_1095716" data-name="Grupo 1095716" transform="translate(-7568 -7318)">
      <g id="Grupo_1095436" data-name="Grupo 1095436" transform="translate(-258 3799)">
        <rect id="Rectángulo_386917" data-name="Rectángulo 386917" width="190" height="157" rx="15" transform="translate(1173 803)" fill="url(#linear-gradient)"/>
      </g>
    </g>
    <g id="noun-error-6647226" transform="translate(-6604.929 -2687.5)">
      <path id="Trazado_836402" data-name="Trazado 836402" d="M57.516,73.168h-2.77l.949,6.293H58.59a4.881,4.881,0,0,1,4.871,4.871V88.09A1.107,1.107,0,0,1,62.356,89.2l-35.238,0a1.107,1.107,0,0,1-1.105-1.105V84.336a4.881,4.881,0,0,1,4.871-4.871h2.895l.949-6.293-28.883,0a3.2,3.2,0,0,1-3.211-3.211V14.012A3.2,3.2,0,0,1,5.844,10.8H83.633a3.2,3.2,0,0,1,3.211,3.211v40l9.938,17.223a4.123,4.123,0,0,1,0,4.25,4.353,4.353,0,0,1-1.547,1.57,4.274,4.274,0,0,1-2.137.57H61.793a4.234,4.234,0,0,1-2.137-.57c-.02-.012-.043-.031-.062-.043a4.252,4.252,0,0,1-1.484-1.527.564.564,0,0,0-.043-.074,4.193,4.193,0,0,1-.547-2.062v-.191ZM50.969,38.609H77.633a1.105,1.105,0,1,0,0-2.211H50.969a1.105,1.105,0,1,0,0,2.211Zm0-7.672H77.633a1.105,1.105,0,0,0,0-2.211H50.969a1.105,1.105,0,0,0,0,2.211Zm0-7.672H65.274a1.105,1.105,0,0,0,0-2.211H50.969a1.105,1.105,0,1,0,0,2.211ZM11.844,65.546h5.117a1.105,1.105,0,1,0,0-2.211H11.844a1.105,1.105,0,1,0,0,2.211Zm8.863,0a1.105,1.105,0,0,1,0-2.211H62.664l3.3-5.727H20.707a1.105,1.105,0,0,1,0-2.211H67.254l3.3-5.727H20.707a1.105,1.105,0,0,1,0-2.211H71.832l1.914-3.328a4.293,4.293,0,0,1,1.547-1.57,4.288,4.288,0,0,1,4.273,0c.02.012.043.031.063.043a4.349,4.349,0,0,1,1.484,1.527l3.5,6.051V14.011a1,1,0,0,0-.988-.988l-77.777,0a1,1,0,0,0-.988.988V69.956a1,1,0,0,0,.988.988H58.266l3.117-5.4Zm-8.863-7.937h5.117a1.105,1.105,0,0,0,0-2.211H11.844a1.105,1.105,0,1,0,0,2.211Zm0-7.937h5.117a1.105,1.105,0,0,0,0-2.211H11.844a1.105,1.105,0,1,0,0,2.211Zm65.6,22.578a1.105,1.105,0,1,0-1.105-1.105A1.107,1.107,0,0,0,77.446,72.249ZM76.341,51.46v15.2a1.105,1.105,0,0,0,2.211,0V51.46a1.105,1.105,0,0,0-2.211,0ZM94.876,72.343,79.224,45.226a2.009,2.009,0,0,0-.7-.727l-.051-.031a2.039,2.039,0,0,0-1.02-.262,2.084,2.084,0,0,0-1.031.262,2.055,2.055,0,0,0-.738.758L60.037,72.343a2,2,0,0,0-.285,1.02,2.038,2.038,0,0,0,.254.98l.031.043a2.146,2.146,0,0,0,.7.738l.051.031a2.039,2.039,0,0,0,1.02.262H93.107a2.007,2.007,0,0,0,1.02-.262,2.055,2.055,0,0,0,.738-.758,1.965,1.965,0,0,0,0-2.039ZM29.61,21.843,25.156,36.96a1.109,1.109,0,0,0,2.125.633l4.453-15.117a1.109,1.109,0,0,0-2.125-.633Zm-8.988.379-8.715,6.609a1.106,1.106,0,0,0-.211,1.547.956.956,0,0,0,.23.223l8.7,6.6a1.1,1.1,0,0,0,1.336-1.758L14.4,29.718l7.559-5.727a1.1,1.1,0,1,0-1.336-1.758ZM34.937,23.98,42.5,29.707l-7.559,5.727a1.1,1.1,0,1,0,1.336,1.758l8.7-6.6a1.373,1.373,0,0,0,.23-.223,1.106,1.106,0,0,0-.211-1.547L36.273,22.21a1.1,1.1,0,1,0-1.336,1.758ZM52.515,73.16H36.968l-.949,6.293H53.46l-.949-6.293ZM58.6,81.676H30.886a2.654,2.654,0,0,0-2.652,2.652V86.98h33.02V84.328A2.654,2.654,0,0,0,58.6,81.676Z" fill-rule="evenodd"/>
    </g>
  </g>
</svg>
