<svg xmlns="http://www.w3.org/2000/svg" xmlns:xlink="http://www.w3.org/1999/xlink" width="173" height="173" viewBox="0 0 173 173">
  <defs>
    <clipPath id="clip-path">
      <rect id="Rectángulo_387198" data-name="Rectángulo 387198" width="135.456" height="135.576" fill="none"/>
    </clipPath>
    <clipPath id="clip-path-2">
      <rect id="Rectángulo_387213" data-name="Rectángulo 387213" width="31.33" height="31.33" fill="none"/>
    </clipPath>
    <clipPath id="clip-path-4">
      <rect id="Rectángulo_387210" data-name="Rectángulo 387210" width="9.633" height="8.935" fill="#bae9d9"/>
    </clipPath>
  </defs>
  <g id="Grupo_1096041" data-name="Grupo 1096041" transform="translate(-450 -1539.653)">
    <circle id="Elipse_11224" data-name="Elipse 11224" cx="86.5" cy="86.5" r="86.5" transform="translate(450 1539.653)" fill="#16276e"/>
    <g id="Grupo_1095410" data-name="Grupo 1095410" transform="translate(464.095 1545.447)">
      <g id="Grupo_1095376" data-name="Grupo 1095376">
        <g id="Grupo_1095375" data-name="Grupo 1095375" clip-path="url(#clip-path)">
          <path id="Trazado_830012" data-name="Trazado 830012" d="M128.3,107.24H27.589a5.827,5.827,0,0,0-5.827,5.827v64.518a6.373,6.373,0,0,0,6.374,6.374H69.958l.117-1.135H85.2l.117,1.135h42.427a6.373,6.373,0,0,0,6.374-6.373V113.067a5.827,5.827,0,0,0-5.827-5.827" transform="translate(-9.874 -48.656)" fill="#fff"/>
          <path id="Trazado_830013" data-name="Trazado 830013" d="M128.3,107.24H27.589a5.827,5.827,0,0,0-5.827,5.827v64.518a6.373,6.373,0,0,0,6.374,6.374H69.958l.117-1.135H85.2l.117,1.135h42.427a6.373,6.373,0,0,0,6.374-6.373V113.067A5.827,5.827,0,0,0,128.3,107.24Z" transform="translate(-9.874 -48.656)" fill="none" stroke="#263238" stroke-linecap="round" stroke-linejoin="round" stroke-width="1"/>
          <path id="Trazado_830014" data-name="Trazado 830014" d="M125.4,220.18H93.995a1.578,1.578,0,0,1-1.578-1.578v-19.16a1.578,1.578,0,0,1,1.578-1.578H125.4a1.578,1.578,0,0,1,1.578,1.578V218.6a1.578,1.578,0,0,1-1.578,1.578" transform="translate(-41.931 -89.773)" fill="#fff"/>
          <path id="Rectángulo_387134" data-name="Rectángulo 387134" d="M2.889,0H31.672A2.888,2.888,0,0,1,34.56,2.888v16.54a2.888,2.888,0,0,1-2.888,2.888H2.888A2.888,2.888,0,0,1,0,19.428V2.889A2.889,2.889,0,0,1,2.889,0Z" transform="translate(50.486 108.091)" fill="none" stroke="#263238" stroke-linecap="round" stroke-linejoin="round" stroke-width="1"/>
          <rect id="Rectángulo_387135" data-name="Rectángulo 387135" width="6.325" height="4.155" transform="translate(47.981 66.135)" fill="#263238"/>
          <rect id="Rectángulo_387136" data-name="Rectángulo 387136" width="5.873" height="5.826" transform="translate(27.943 91.764)" fill="#263238"/>
          <rect id="Rectángulo_387137" data-name="Rectángulo 387137" width="5.917" height="5.826" transform="translate(53.84 71.289)" fill="#263238"/>
          <rect id="Rectángulo_387138" data-name="Rectángulo 387138" width="6.325" height="4.155" transform="translate(40.656 66.135)" fill="#263238"/>
          <rect id="Rectángulo_387139" data-name="Rectángulo 387139" width="5.917" height="5.826" transform="translate(60.756 71.289)" fill="#263238"/>
          <rect id="Rectángulo_387140" data-name="Rectángulo 387140" width="6.325" height="4.155" transform="translate(55.305 66.135)" fill="#263238"/>
          <rect id="Rectángulo_387141" data-name="Rectángulo 387141" width="11.13" height="5.826" transform="translate(19.137 84.939)" fill="#263238"/>
          <rect id="Rectángulo_387142" data-name="Rectángulo 387142" width="5.917" height="5.826" transform="translate(40.007 71.289)" fill="#263238"/>
          <rect id="Rectángulo_387143" data-name="Rectángulo 387143" width="7.807" height="5.826" transform="translate(19.137 91.764)" fill="#263238"/>
          <rect id="Rectángulo_387144" data-name="Rectángulo 387144" width="6.325" height="4.155" transform="translate(62.63 66.135)" fill="#263238"/>
          <rect id="Rectángulo_387145" data-name="Rectángulo 387145" width="5.917" height="5.826" transform="translate(26.174 71.289)" fill="#263238"/>
          <rect id="Rectángulo_387146" data-name="Rectángulo 387146" width="6.325" height="4.155" transform="translate(26.008 66.135)" fill="#263238"/>
          <rect id="Rectángulo_387147" data-name="Rectángulo 387147" width="6.325" height="4.155" transform="translate(33.332 66.135)" fill="#263238"/>
          <rect id="Rectángulo_387148" data-name="Rectángulo 387148" width="5.917" height="5.826" transform="translate(33.09 71.289)" fill="#263238"/>
          <rect id="Rectángulo_387149" data-name="Rectángulo 387149" width="5.917" height="5.826" transform="translate(46.923 71.289)" fill="#263238"/>
          <rect id="Rectángulo_387150" data-name="Rectángulo 387150" width="6.325" height="4.155" transform="translate(91.928 66.135)" fill="#263238"/>
          <rect id="Rectángulo_387151" data-name="Rectángulo 387151" width="6.325" height="4.155" transform="translate(99.252 66.135)" fill="#263238"/>
          <rect id="Rectángulo_387152" data-name="Rectángulo 387152" width="5.917" height="5.826" transform="translate(95.338 71.289)" fill="#263238"/>
          <rect id="Rectángulo_387153" data-name="Rectángulo 387153" width="5.917" height="5.826" transform="translate(102.254 71.289)" fill="#263238"/>
          <rect id="Rectángulo_387154" data-name="Rectángulo 387154" width="8.713" height="5.826" transform="translate(110.401 91.764)" fill="#263238"/>
          <rect id="Rectángulo_387155" data-name="Rectángulo 387155" width="6.325" height="4.155" transform="translate(106.577 66.135)" fill="#263238"/>
          <rect id="Rectángulo_387156" data-name="Rectángulo 387156" width="6.038" height="5.826" transform="translate(19.138 71.289)" fill="#263238"/>
          <rect id="Rectángulo_387157" data-name="Rectángulo 387157" width="6.325" height="4.155" transform="translate(69.954 66.135)" fill="#263238"/>
          <rect id="Rectángulo_387158" data-name="Rectángulo 387158" width="6.325" height="4.155" transform="translate(77.279 66.135)" fill="#263238"/>
          <rect id="Rectángulo_387159" data-name="Rectángulo 387159" width="5.917" height="5.826" transform="translate(74.589 71.289)" fill="#263238"/>
          <rect id="Rectángulo_387160" data-name="Rectángulo 387160" width="5.917" height="5.826" transform="translate(88.421 71.289)" fill="#263238"/>
          <rect id="Rectángulo_387161" data-name="Rectángulo 387161" width="5.917" height="5.826" transform="translate(67.672 71.289)" fill="#263238"/>
          <rect id="Rectángulo_387162" data-name="Rectángulo 387162" width="5.917" height="5.826" transform="translate(81.505 71.289)" fill="#263238"/>
          <rect id="Rectángulo_387163" data-name="Rectángulo 387163" width="6.325" height="4.155" transform="translate(84.603 66.135)" fill="#263238"/>
          <rect id="Rectángulo_387164" data-name="Rectángulo 387164" width="5.873" height="5.826" transform="translate(76.044 91.764)" fill="#263238"/>
          <rect id="Rectángulo_387165" data-name="Rectángulo 387165" width="5.873" height="5.826" transform="translate(106.852 84.939)" fill="#263238"/>
          <rect id="Rectángulo_387166" data-name="Rectángulo 387166" width="5.873" height="5.826" transform="translate(99.981 84.939)" fill="#263238"/>
          <rect id="Rectángulo_387167" data-name="Rectángulo 387167" width="5.873" height="5.826" transform="translate(103.53 91.764)" fill="#263238"/>
          <rect id="Rectángulo_387168" data-name="Rectángulo 387168" width="5.873" height="5.826" transform="translate(96.658 91.764)" fill="#263238"/>
          <rect id="Rectángulo_387169" data-name="Rectángulo 387169" width="5.873" height="5.826" transform="translate(82.915 91.764)" fill="#263238"/>
          <rect id="Rectángulo_387170" data-name="Rectángulo 387170" width="5.873" height="5.826" transform="translate(89.787 91.764)" fill="#263238"/>
          <rect id="Rectángulo_387171" data-name="Rectángulo 387171" width="5.873" height="5.826" transform="translate(93.109 84.939)" fill="#263238"/>
          <rect id="Rectángulo_387172" data-name="Rectángulo 387172" width="5.873" height="5.826" transform="translate(86.238 84.939)" fill="#263238"/>
          <rect id="Rectángulo_387173" data-name="Rectángulo 387173" width="5.213" height="4.155" transform="translate(113.901 66.135)" fill="#263238"/>
          <rect id="Rectángulo_387174" data-name="Rectángulo 387174" width="5.872" height="4.155" transform="translate(19.138 66.135)" fill="#263238"/>
          <rect id="Rectángulo_387175" data-name="Rectángulo 387175" width="9.602" height="6.057" transform="translate(89.305 98.589)" fill="#263238"/>
          <rect id="Rectángulo_387176" data-name="Rectángulo 387176" width="6.647" height="6.057" transform="translate(28.496 98.589)" fill="#263238"/>
          <rect id="Rectángulo_387177" data-name="Rectángulo 387177" width="6.647" height="6.057" transform="translate(36.374 98.589)" fill="#263238"/>
          <rect id="Rectángulo_387178" data-name="Rectángulo 387178" width="43.822" height="6.057" transform="translate(44.252 98.589)" fill="#263238"/>
          <rect id="Rectángulo_387179" data-name="Rectángulo 387179" width="9.783" height="6.057" transform="translate(109.332 98.589)" fill="#263238"/>
          <rect id="Rectángulo_387180" data-name="Rectángulo 387180" width="7.963" height="6.057" transform="translate(100.137 98.589)" fill="#263238"/>
          <rect id="Rectángulo_387181" data-name="Rectángulo 387181" width="8.127" height="6.057" transform="translate(19.138 98.589)" fill="#263238"/>
          <rect id="Rectángulo_387182" data-name="Rectángulo 387182" width="9.944" height="5.826" transform="translate(109.17 71.289)" fill="#263238"/>
          <rect id="Rectángulo_387183" data-name="Rectángulo 387183" width="5.39" height="5.826" transform="translate(113.724 84.939)" fill="#263238"/>
          <path id="Trazado_830015" data-name="Trazado 830015" d="M127.957,148.773h-1V142.99h-5.873v5.784h-1V142.99h-5.873v5.784h-1V142.99h-5.873v5.784h-1V142.99h-5.873v5.784h-1V142.99H93.6v5.784h-1V142.99H86.728v5.784h-1V142.99H79.856v5.784h-1V142.99H72.985v5.784h-1V142.99H66.113v5.784h-1V142.99H59.242v5.784h-1V142.99H52.37v5.784h-1V142.99H45.5v5.784h-1V142.99H35.032v5.826h99.976V142.99h-7.051Z" transform="translate(-15.894 -64.876)" fill="#263238"/>
          <rect id="Rectángulo_387184" data-name="Rectángulo 387184" width="5.873" height="5.826" transform="translate(58.752 84.939)" fill="#263238"/>
          <rect id="Rectángulo_387185" data-name="Rectángulo 387185" width="5.873" height="5.826" transform="translate(79.366 84.939)" fill="#263238"/>
          <rect id="Rectángulo_387186" data-name="Rectángulo 387186" width="5.873" height="5.826" transform="translate(45.009 84.939)" fill="#263238"/>
          <rect id="Rectángulo_387187" data-name="Rectángulo 387187" width="5.873" height="5.826" transform="translate(48.558 91.764)" fill="#263238"/>
          <rect id="Rectángulo_387188" data-name="Rectángulo 387188" width="5.873" height="5.826" transform="translate(51.881 84.939)" fill="#263238"/>
          <rect id="Rectángulo_387189" data-name="Rectángulo 387189" width="5.873" height="5.826" transform="translate(38.137 84.939)" fill="#263238"/>
          <rect id="Rectángulo_387190" data-name="Rectángulo 387190" width="5.873" height="5.826" transform="translate(34.815 91.764)" fill="#263238"/>
          <rect id="Rectángulo_387191" data-name="Rectángulo 387191" width="5.873" height="5.826" transform="translate(41.686 91.764)" fill="#263238"/>
          <rect id="Rectángulo_387192" data-name="Rectángulo 387192" width="5.873" height="5.826" transform="translate(65.624 84.939)" fill="#263238"/>
          <rect id="Rectángulo_387193" data-name="Rectángulo 387193" width="5.873" height="5.826" transform="translate(69.172 91.764)" fill="#263238"/>
          <rect id="Rectángulo_387194" data-name="Rectángulo 387194" width="5.873" height="5.826" transform="translate(72.495 84.939)" fill="#263238"/>
          <rect id="Rectángulo_387195" data-name="Rectángulo 387195" width="5.873" height="5.826" transform="translate(55.429 91.764)" fill="#263238"/>
          <rect id="Rectángulo_387196" data-name="Rectángulo 387196" width="5.873" height="5.826" transform="translate(62.301 91.764)" fill="#263238"/>
          <rect id="Rectángulo_387197" data-name="Rectángulo 387197" width="5.873" height="5.826" transform="translate(31.266 84.939)" fill="#263238"/>
          <path id="Trazado_830016" data-name="Trazado 830016" d="M130.893.5H5.094C2.45.5-.071,1.741.614,5.246l9.8,49.2c.472,2.41,2.064,4.086,3.882,4.086H27.13v3.236h82.331V58.537H121.7c1.819,0,3.41-1.676,3.882-4.086l9.716-49.025c.686-3.5-1.756-4.926-4.4-4.926" transform="translate(-0.227 -0.227)" fill="#263238"/>
          <path id="Trazado_830017" data-name="Trazado 830017" d="M130.893.5H5.094C2.45.5-.071,1.741.614,5.246l9.8,49.2c.472,2.41,2.064,4.086,3.882,4.086H27.13v3.236h82.331V58.537H121.7c1.819,0,3.41-1.676,3.882-4.086l9.716-49.025C135.979,1.921,133.537.5,130.893.5Z" transform="translate(-0.227 -0.227)" fill="none" stroke="#263238" stroke-linecap="round" stroke-linejoin="round" stroke-width="1"/>
          <path id="Trazado_830018" data-name="Trazado 830018" d="M124.213,59.212H26.868L17.133,11.125H133.947Z" transform="translate(-7.774 -5.047)" fill="#3ee2a8"/>
          <path id="Trazado_830019" data-name="Trazado 830019" d="M124.213,59.212H26.868L17.133,11.125H133.947Z" transform="translate(-7.774 -5.047)" fill="none" stroke="#263238" stroke-linecap="round" stroke-linejoin="round" stroke-width="1"/>
          <path id="Trazado_830020" data-name="Trazado 830020" d="M123.355,59.654H55.509L49.149,18.3h80.566Z" transform="translate(-22.299 -8.301)" fill="#fff"/>
          <path id="Trazado_830021" data-name="Trazado 830021" d="M123.355,59.654H55.509L49.149,18.3h80.566Z" transform="translate(-22.299 -8.301)" fill="none" stroke="#263238" stroke-linecap="round" stroke-linejoin="round" stroke-width="1"/>
          <path id="Trazado_830022" data-name="Trazado 830022" d="M140.716,59.654H90.473L87.414,18.3h59.662Z" transform="translate(-39.661 -8.301)" fill="#fff"/>
          <path id="Trazado_830023" data-name="Trazado 830023" d="M140.716,59.654H90.473L87.414,18.3h59.662Z" transform="translate(-39.661 -8.301)" fill="none" stroke="#263238" stroke-linecap="round" stroke-linejoin="round" stroke-width="1"/>
          <line id="Línea_139" data-name="Línea 139" x2="12.143" transform="translate(32.36 18.906)" fill="none" stroke="#263238" stroke-linecap="round" stroke-linejoin="round" stroke-width="0.3"/>
          <line id="Línea_140" data-name="Línea 140" x2="11.972" transform="translate(32.848 22.459)" fill="none" stroke="#263238" stroke-linecap="round" stroke-linejoin="round" stroke-width="0.3"/>
          <line id="Línea_141" data-name="Línea 141" x2="11.807" transform="translate(33.322 25.914)" fill="none" stroke="#263238" stroke-linecap="round" stroke-linejoin="round" stroke-width="0.3"/>
          <line id="Línea_142" data-name="Línea 142" x2="11.645" transform="translate(33.784 29.274)" fill="none" stroke="#263238" stroke-linecap="round" stroke-linejoin="round" stroke-width="0.3"/>
          <line id="Línea_143" data-name="Línea 143" x2="11.488" transform="translate(34.233 32.543)" fill="none" stroke="#263238" stroke-linecap="round" stroke-linejoin="round" stroke-width="0.3"/>
          <line id="Línea_144" data-name="Línea 144" x2="9.103" transform="translate(37.296 40.113)" fill="none" stroke="#263238" stroke-linecap="round" stroke-linejoin="round" stroke-width="0.3"/>
          <path id="Trazado_830024" data-name="Trazado 830024" d="M65.08,72.929c.044.331-.323.6-.819.6s-.937-.267-.983-.6.32-.6.819-.6S65.036,72.6,65.08,72.929Z" transform="translate(-28.708 -32.816)" fill="none" stroke="#263238" stroke-linecap="round" stroke-linejoin="round" stroke-width="0.3"/>
          <line id="Línea_145" data-name="Línea 145" x2="9.007" transform="translate(37.609 42.539)" fill="none" stroke="#263238" stroke-linecap="round" stroke-linejoin="round" stroke-width="0.3"/>
          <path id="Trazado_830025" data-name="Trazado 830025" d="M65.684,77.382c.043.323-.321.585-.812.585s-.927-.262-.972-.585.318-.588.812-.588S65.641,77.057,65.684,77.382Z" transform="translate(-28.991 -34.842)" fill="none" stroke="#263238" stroke-linecap="round" stroke-linejoin="round" stroke-width="0.3"/>
          <line id="Línea_146" data-name="Línea 146" x2="8.914" transform="translate(37.914 44.916)" fill="none" stroke="#263238" stroke-linecap="round" stroke-linejoin="round" stroke-width="0.3"/>
          <path id="Trazado_830026" data-name="Trazado 830026" d="M66.277,81.742c.042.317-.318.573-.8.573s-.917-.256-.961-.573.315-.576.8-.576S66.235,81.424,66.277,81.742Z" transform="translate(-29.268 -36.826)" fill="none" stroke="#263238" stroke-linecap="round" stroke-linejoin="round" stroke-width="0.3"/>
          <line id="Línea_147" data-name="Línea 147" x2="8.823" transform="translate(38.214 47.243)" fill="none" stroke="#263238" stroke-linecap="round" stroke-linejoin="round" stroke-width="0.3"/>
          <path id="Trazado_830027" data-name="Trazado 830027" d="M66.858,86.011c.04.31-.316.561-.8.561s-.907-.251-.95-.561.313-.564.8-.564S66.817,85.7,66.858,86.011Z" transform="translate(-29.54 -38.768)" fill="none" stroke="#263238" stroke-linecap="round" stroke-linejoin="round" stroke-width="0.3"/>
          <path id="Trazado_830028" data-name="Trazado 830028" d="M97.486,33.736l-.028-.585H93.8l.037.585.252,4.029.056.89H103.7l-.119-4.919Z" transform="translate(-42.56 -15.041)" fill="#92e3a9"/>
          <path id="Trazado_830029" data-name="Trazado 830029" d="M97.486,33.736l-.028-.585H93.8l.037.585.252,4.029.056.89H103.7l-.119-4.919Z" transform="translate(-42.56 -15.041)" fill="none" stroke="#263238" stroke-linecap="round" stroke-linejoin="round" stroke-width="0.3"/>
          <path id="Trazado_830030" data-name="Trazado 830030" d="M103.776,39.94H94.229l-.247-3.958h9.7Z" transform="translate(-42.641 -16.325)" fill="#92e3a9"/>
          <path id="Trazado_830031" data-name="Trazado 830031" d="M103.776,39.94H94.229l-.247-3.958h9.7Z" transform="translate(-42.641 -16.325)" fill="none" stroke="#263238" stroke-linecap="round" stroke-linejoin="round" stroke-width="0.3"/>
          <path id="Trazado_830032" data-name="Trazado 830032" d="M122.06,33.736l0-.585H118.41l.006.585.039,4.029.008.89h9.547l.141-4.919Z" transform="translate(-53.724 -15.041)" fill="#92e3a9"/>
          <path id="Trazado_830033" data-name="Trazado 830033" d="M122.06,33.736l0-.585H118.41l.006.585.039,4.029.008.89h9.547l.141-4.919Z" transform="translate(-53.724 -15.041)" fill="none" stroke="#263238" stroke-linecap="round" stroke-linejoin="round" stroke-width="0.3"/>
          <path id="Trazado_830034" data-name="Trazado 830034" d="M128.022,39.94h-9.547l-.038-3.958h9.7Z" transform="translate(-53.737 -16.325)" fill="#92e3a9"/>
          <path id="Trazado_830035" data-name="Trazado 830035" d="M128.022,39.94h-9.547l-.038-3.958h9.7Z" transform="translate(-53.737 -16.325)" fill="none" stroke="#263238" stroke-linecap="round" stroke-linejoin="round" stroke-width="0.3"/>
          <path id="Trazado_830036" data-name="Trazado 830036" d="M146.437,33.736l.034-.585h-3.653l-.025.585-.175,4.029-.038.89h9.546l.4-4.919Z" transform="translate(-64.69 -15.041)" fill="#92e3a9"/>
          <path id="Trazado_830037" data-name="Trazado 830037" d="M146.437,33.736l.034-.585h-3.653l-.025.585-.175,4.029-.038.89h9.546l.4-4.919Z" transform="translate(-64.69 -15.041)" fill="none" stroke="#263238" stroke-linecap="round" stroke-linejoin="round" stroke-width="0.3"/>
          <path id="Trazado_830038" data-name="Trazado 830038" d="M152.126,39.94h-9.547l.172-3.958h9.7Z" transform="translate(-64.69 -16.325)" fill="#92e3a9" stroke="#707070" stroke-width="0.3"/>
          <path id="Trazado_830039" data-name="Trazado 830039" d="M152.126,39.94h-9.547l.172-3.958h9.7Z" transform="translate(-64.69 -16.325)" fill="none" stroke="#263238" stroke-linecap="round" stroke-linejoin="round" stroke-width="0.3"/>
          <path id="Trazado_830040" data-name="Trazado 830040" d="M170.769,33.736l.064-.585h-3.652l-.056.585-.388,4.029-.086.89H176.2l.663-4.919Z" transform="translate(-75.612 -15.041)" fill="#92e3a9"/>
          <path id="Trazado_830041" data-name="Trazado 830041" d="M170.769,33.736l.064-.585h-3.652l-.056.585-.388,4.029-.086.89H176.2l.663-4.919Z" transform="translate(-75.612 -15.041)" fill="none" stroke="#263238" stroke-linecap="round" stroke-linejoin="round" stroke-width="0.3"/>
          <path id="Trazado_830042" data-name="Trazado 830042" d="M176.2,39.94h-9.547l.381-3.958h9.7Z" transform="translate(-75.611 -16.325)" fill="#92e3a9"/>
          <path id="Trazado_830043" data-name="Trazado 830043" d="M176.2,39.94h-9.547l.381-3.958h9.7Z" transform="translate(-75.611 -16.325)" fill="none" stroke="#263238" stroke-linecap="round" stroke-linejoin="round" stroke-width="0.3"/>
          <path id="Trazado_830044" data-name="Trazado 830044" d="M98.343,49.4l-.026-.546h-3.53l.034.546.236,3.764.052.833h9.231l-.111-4.6Z" transform="translate(-43.006 -22.164)" fill="#92e3a9"/>
          <path id="Trazado_830045" data-name="Trazado 830045" d="M98.343,49.4l-.026-.546h-3.53l.034.546.236,3.764.052.833h9.231l-.111-4.6Z" transform="translate(-43.006 -22.164)" fill="none" stroke="#263238" stroke-linecap="round" stroke-linejoin="round" stroke-width="0.3"/>
          <path id="Trazado_830046" data-name="Trazado 830046" d="M104.415,55.191H95.184l-.231-3.7h9.373Z" transform="translate(-43.081 -23.363)" fill="#92e3a9"/>
          <path id="Trazado_830047" data-name="Trazado 830047" d="M104.415,55.191H95.184l-.231-3.7h9.373Z" transform="translate(-43.081 -23.363)" fill="none" stroke="#263238" stroke-linecap="round" stroke-linejoin="round" stroke-width="0.3"/>
          <path id="Trazado_830048" data-name="Trazado 830048" d="M122.088,49.4l0-.546h-3.53l0,.546.037,3.764.008.833h9.231l.132-4.6Z" transform="translate(-53.793 -22.164)" fill="#92e3a9"/>
          <path id="Trazado_830049" data-name="Trazado 830049" d="M122.088,49.4l0-.546h-3.53l0,.546.037,3.764.008.833h9.231l.132-4.6Z" transform="translate(-53.793 -22.164)" fill="none" stroke="#263238" stroke-linecap="round" stroke-linejoin="round" stroke-width="0.3"/>
          <path id="Trazado_830050" data-name="Trazado 830050" d="M127.853,55.191h-9.231l-.036-3.7h9.373Z" transform="translate(-53.804 -23.363)" fill="#92e3a9"/>
          <path id="Trazado_830051" data-name="Trazado 830051" d="M127.853,55.191h-9.231l-.036-3.7h9.373Z" transform="translate(-53.804 -23.363)" fill="none" stroke="#263238" stroke-linecap="round" stroke-linejoin="round" stroke-width="0.3"/>
          <path id="Trazado_830052" data-name="Trazado 830052" d="M145.649,49.4l.032-.546h-3.53l-.024.546-.163,3.764-.036.833h9.231l.376-4.6Z" transform="translate(-64.394 -22.164)" fill="#92e3a9"/>
          <path id="Trazado_830053" data-name="Trazado 830053" d="M145.649,49.4l.032-.546h-3.53l-.024.546-.163,3.764-.036.833h9.231l.376-4.6Z" transform="translate(-64.394 -22.164)" fill="none" stroke="#263238" stroke-linecap="round" stroke-linejoin="round" stroke-width="0.3"/>
          <path id="Trazado_830054" data-name="Trazado 830054" d="M151.159,55.191h-9.231l.161-3.7h9.373Z" transform="translate(-64.394 -23.363)" fill="#92e3a9"/>
          <path id="Trazado_830055" data-name="Trazado 830055" d="M151.159,55.191h-9.231l.161-3.7h9.373Z" transform="translate(-64.394 -23.363)" fill="none" stroke="#263238" stroke-linecap="round" stroke-linejoin="round" stroke-width="0.3"/>
          <path id="Trazado_830056" data-name="Trazado 830056" d="M169.168,49.4l.061-.546H165.7l-.053.546-.362,3.764-.08.833h9.231l.619-4.6Z" transform="translate(-74.955 -22.164)" fill="#92e3a9"/>
          <path id="Trazado_830057" data-name="Trazado 830057" d="M169.168,49.4l.061-.546H165.7l-.053.546-.362,3.764-.08.833h9.231l.619-4.6Z" transform="translate(-74.955 -22.164)" fill="none" stroke="#263238" stroke-linecap="round" stroke-linejoin="round" stroke-width="0.3"/>
          <path id="Trazado_830058" data-name="Trazado 830058" d="M174.435,55.191H165.2l.356-3.7h9.373Z" transform="translate(-74.955 -23.363)" fill="#92e3a9"/>
          <path id="Trazado_830059" data-name="Trazado 830059" d="M174.435,55.191H165.2l.356-3.7h9.373Z" transform="translate(-74.955 -23.363)" fill="none" stroke="#263238" stroke-linecap="round" stroke-linejoin="round" stroke-width="0.3"/>
          <path id="Trazado_830060" data-name="Trazado 830060" d="M99.144,64.032l-.025-.511H95.705l.032.511.22,3.525.049.78h8.935l-.1-4.3Z" transform="translate(-43.423 -28.82)" fill="#92e3a9"/>
          <path id="Trazado_830061" data-name="Trazado 830061" d="M99.144,64.032l-.025-.511H95.705l.032.511.22,3.525.049.78h8.935l-.1-4.3Z" transform="translate(-43.423 -28.82)" fill="none" stroke="#263238" stroke-linecap="round" stroke-linejoin="round" stroke-width="0.3"/>
          <path id="Trazado_830062" data-name="Trazado 830062" d="M105.013,69.459H96.077L95.861,66h9.068Z" transform="translate(-43.493 -29.943)" fill="#92e3a9"/>
          <path id="Trazado_830063" data-name="Trazado 830063" d="M105.013,69.459H96.077L95.861,66h9.068Z" transform="translate(-43.493 -29.943)" fill="none" stroke="#263238" stroke-linecap="round" stroke-linejoin="round" stroke-width="0.3"/>
          <path id="Trazado_830064" data-name="Trazado 830064" d="M122.115,64.032l0-.511H118.7l0,.511.034,3.525.008.78h8.935l.124-4.3Z" transform="translate(-53.857 -28.82)" fill="#92e3a9"/>
          <path id="Trazado_830065" data-name="Trazado 830065" d="M122.115,64.032l0-.511H118.7l0,.511.034,3.525.008.78h8.935l.124-4.3Z" transform="translate(-53.857 -28.82)" fill="none" stroke="#263238" stroke-linecap="round" stroke-linejoin="round" stroke-width="0.3"/>
          <path id="Trazado_830066" data-name="Trazado 830066" d="M127.7,69.459H118.76L118.726,66H127.8Z" transform="translate(-53.867 -29.943)" fill="#92e3a9" stroke="#707070" stroke-width="0.3"/>
          <path id="Trazado_830067" data-name="Trazado 830067" d="M127.7,69.459H118.76L118.726,66H127.8Z" transform="translate(-53.867 -29.943)" fill="none" stroke="#263238" stroke-linecap="round" stroke-linejoin="round" stroke-width="0.3"/>
          <path id="Trazado_830068" data-name="Trazado 830068" d="M144.911,64.032l.029-.511h-3.414l-.022.511-.153,3.525-.034.78h8.936l.352-4.3Z" transform="translate(-64.118 -28.82)" fill="#92e3a9"/>
          <path id="Trazado_830069" data-name="Trazado 830069" d="M144.911,64.032l.029-.511h-3.414l-.022.511-.153,3.525-.034.78h8.936l.352-4.3Z" transform="translate(-64.118 -28.82)" fill="none" stroke="#263238" stroke-linecap="round" stroke-linejoin="round" stroke-width="0.3"/>
          <path id="Trazado_830070" data-name="Trazado 830070" d="M150.254,69.459h-8.936l.15-3.463h9.068Z" transform="translate(-64.118 -29.943)" fill="#92e3a9"/>
          <path id="Trazado_830071" data-name="Trazado 830071" d="M150.254,69.459h-8.936l.15-3.463h9.068Z" transform="translate(-64.118 -29.943)" fill="none" stroke="#263238" stroke-linecap="round" stroke-linejoin="round" stroke-width="0.3"/>
          <path id="Trazado_830072" data-name="Trazado 830072" d="M167.67,64.032l.057-.511h-3.414l-.049.511-.339,3.525-.075.78h8.936l.58-4.3Z" transform="translate(-74.34 -28.82)" fill="#92e3a9"/>
          <path id="Trazado_830073" data-name="Trazado 830073" d="M167.67,64.032l.057-.511h-3.414l-.049.511-.339,3.525-.075.78h8.936l.58-4.3Z" transform="translate(-74.34 -28.82)" fill="none" stroke="#263238" stroke-linecap="round" stroke-linejoin="round" stroke-width="0.3"/>
          <path id="Trazado_830074" data-name="Trazado 830074" d="M172.784,69.459h-8.936L164.182,66h9.068Z" transform="translate(-74.34 -29.943)" fill="#92e3a9" stroke="#707070" stroke-width="0.3"/>
          <path id="Trazado_830075" data-name="Trazado 830075" d="M172.784,69.459h-8.936L164.182,66h9.068Z" transform="translate(-74.34 -29.943)" fill="none" stroke="#263238" stroke-linecap="round" stroke-linejoin="round" stroke-width="0.3"/>
          <path id="Trazado_830076" data-name="Trazado 830076" d="M99.895,77.745l-.023-.479H96.566l.03.479.206,3.307.046.732h8.658l-.1-4.039Z" transform="translate(-43.813 -35.056)" fill="#92e3a9"/>
          <path id="Trazado_830077" data-name="Trazado 830077" d="M99.895,77.745l-.023-.479H96.566l.03.479.206,3.307.046.732h8.658l-.1-4.039Z" transform="translate(-43.813 -35.056)" fill="none" stroke="#263238" stroke-linecap="round" stroke-linejoin="round" stroke-width="0.3"/>
          <path id="Trazado_830078" data-name="Trazado 830078" d="M105.572,82.836H96.914l-.2-3.25h8.783Z" transform="translate(-43.879 -36.109)" fill="#92e3a9"/>
          <path id="Trazado_830079" data-name="Trazado 830079" d="M105.572,82.836H96.914l-.2-3.25h8.783Z" transform="translate(-43.879 -36.109)" fill="none" stroke="#263238" stroke-linecap="round" stroke-linejoin="round" stroke-width="0.3"/>
          <path id="Trazado_830080" data-name="Trazado 830080" d="M122.139,77.745l0-.479h-3.306l0,.479.032,3.307.007.732h8.658l.116-4.039Z" transform="translate(-53.917 -35.056)" fill="#92e3a9"/>
          <path id="Trazado_830081" data-name="Trazado 830081" d="M122.139,77.745l0-.479h-3.306l0,.479.032,3.307.007.732h8.658l.116-4.039Z" transform="translate(-53.917 -35.056)" fill="none" stroke="#263238" stroke-linecap="round" stroke-linejoin="round" stroke-width="0.3"/>
          <path id="Trazado_830082" data-name="Trazado 830082" d="M127.547,82.836h-8.658l-.031-3.25h8.783Z" transform="translate(-53.927 -36.109)" fill="#92e3a9"/>
          <path id="Trazado_830083" data-name="Trazado 830083" d="M127.547,82.836h-8.658l-.031-3.25h8.783Z" transform="translate(-53.927 -36.109)" fill="none" stroke="#263238" stroke-linecap="round" stroke-linejoin="round" stroke-width="0.3"/>
          <path id="Trazado_830084" data-name="Trazado 830084" d="M144.221,77.745l.028-.479h-3.306l-.021.479-.144,3.307-.032.732H149.4l.33-4.039Z" transform="translate(-63.858 -35.056)" fill="#92e3a9"/>
          <path id="Trazado_830085" data-name="Trazado 830085" d="M144.221,77.745l.028-.479h-3.306l-.021.479-.144,3.307-.032.732H149.4l.33-4.039Z" transform="translate(-63.858 -35.056)" fill="none" stroke="#263238" stroke-linecap="round" stroke-linejoin="round" stroke-width="0.3"/>
          <path id="Trazado_830086" data-name="Trazado 830086" d="M149.4,82.836h-8.658l.141-3.25h8.783Z" transform="translate(-63.858 -36.109)" fill="#92e3a9"/>
          <path id="Trazado_830087" data-name="Trazado 830087" d="M149.4,82.836h-8.658l.141-3.25h8.783Z" transform="translate(-63.858 -36.109)" fill="none" stroke="#263238" stroke-linecap="round" stroke-linejoin="round" stroke-width="0.3"/>
          <path id="Trazado_830088" data-name="Trazado 830088" d="M166.266,77.745l.053-.479h-3.306l-.046.479-.318,3.307-.07.732h8.658l.544-4.039Z" transform="translate(-73.764 -35.056)" fill="#92e3a9"/>
          <path id="Trazado_830089" data-name="Trazado 830089" d="M166.266,77.745l.053-.479h-3.306l-.046.479-.318,3.307-.07.732h8.658l.544-4.039Z" transform="translate(-73.764 -35.056)" fill="none" stroke="#263238" stroke-linecap="round" stroke-linejoin="round" stroke-width="0.3"/>
          <path id="Trazado_830090" data-name="Trazado 830090" d="M171.237,82.836h-8.658l.313-3.25h8.783Z" transform="translate(-73.764 -36.109)" fill="#92e3a9"/>
          <path id="Trazado_830091" data-name="Trazado 830091" d="M171.237,82.836h-8.658l.313-3.25h8.783Z" transform="translate(-73.764 -36.109)" fill="none" stroke="#263238" stroke-linecap="round" stroke-linejoin="round" stroke-width="0.3"/>
          <path id="Trazado_830092" data-name="Trazado 830092" d="M128.931,23.395h-79l-.784-5.1h80.566Z" transform="translate(-22.299 -8.301)" fill="#263238"/>
          <path id="Trazado_830093" data-name="Trazado 830093" d="M128.931,23.395h-79l-.784-5.1h80.566Z" transform="translate(-22.299 -8.301)" fill="none" stroke="#263238" stroke-linecap="round" stroke-linejoin="round" stroke-width="1"/>
          <path id="Trazado_830094" data-name="Trazado 830094" d="M172.653,21.972a1.371,1.371,0,0,1-1.445.994c-.737,0-1.292-.444-1.237-.994a1.366,1.366,0,0,1,1.445-1c.743,0,1.3.449,1.237,1" transform="translate(-77.116 -9.515)" fill="#fff"/>
          <path id="Trazado_830095" data-name="Trazado 830095" d="M172.653,21.972a1.371,1.371,0,0,1-1.445.994c-.737,0-1.292-.444-1.237-.994a1.366,1.366,0,0,1,1.445-1C172.16,20.971,172.714,21.42,172.653,21.972Z" transform="translate(-77.116 -9.515)" fill="none" stroke="#263238" stroke-linecap="round" stroke-linejoin="round" stroke-width="1"/>
          <path id="Trazado_830096" data-name="Trazado 830096" d="M180.562,21.972a1.4,1.4,0,0,1-1.461.994c-.738,0-1.284-.444-1.221-.994a1.394,1.394,0,0,1,1.462-1c.743,0,1.29.449,1.22,1" transform="translate(-80.704 -9.515)" fill="#fff"/>
          <path id="Trazado_830097" data-name="Trazado 830097" d="M180.562,21.972a1.4,1.4,0,0,1-1.461.994c-.738,0-1.284-.444-1.221-.994a1.394,1.394,0,0,1,1.462-1C180.086,20.971,180.632,21.42,180.562,21.972Z" transform="translate(-80.704 -9.515)" fill="none" stroke="#263238" stroke-linecap="round" stroke-linejoin="round" stroke-width="1"/>
          <path id="Trazado_830098" data-name="Trazado 830098" d="M188.472,21.972a1.427,1.427,0,0,1-1.478.994c-.738,0-1.277-.444-1.2-.994a1.422,1.422,0,0,1,1.479-1c.744,0,1.282.449,1.2,1" transform="translate(-84.292 -9.515)" fill="#fff"/>
          <path id="Trazado_830099" data-name="Trazado 830099" d="M188.472,21.972a1.427,1.427,0,0,1-1.478.994c-.738,0-1.277-.444-1.2-.994a1.422,1.422,0,0,1,1.479-1C188.012,20.971,188.55,21.42,188.472,21.972Z" transform="translate(-84.292 -9.515)" fill="none" stroke="#263238" stroke-linecap="round" stroke-linejoin="round" stroke-width="1"/>
        </g>
      </g>
      <g id="Grupo_1095408" data-name="Grupo 1095408" transform="translate(125.645 76.83)">
        <g id="Grupo_1095407" data-name="Grupo 1095407" clip-path="url(#clip-path-2)">
          <g id="Grupo_1095406" data-name="Grupo 1095406">
            <g id="Grupo_1095405" data-name="Grupo 1095405" clip-path="url(#clip-path-2)">
              <path id="Trazado_830201" data-name="Trazado 830201" d="M15.665,0A15.665,15.665,0,1,0,31.33,15.665,15.665,15.665,0,0,0,15.665,0m0,20.125a4.46,4.46,0,1,1,4.46-4.46,4.46,4.46,0,0,1-4.46,4.46" fill="#3ee2a8"/>
              <path id="Trazado_830202" data-name="Trazado 830202" d="M62.3,56.444A5.861,5.861,0,1,0,68.166,62.3,5.861,5.861,0,0,0,62.3,56.444m0,10.321a4.46,4.46,0,1,1,4.46-4.46,4.46,4.46,0,0,1-4.46,4.46" transform="translate(-46.64 -46.64)" fill="#12263f"/>
              <g id="Grupo_1095401" data-name="Grupo 1095401" transform="translate(20.511 3.341)">
                <g id="Grupo_1095400" data-name="Grupo 1095400">
                  <g id="Grupo_1095399" data-name="Grupo 1095399" clip-path="url(#clip-path-4)">
                    <path id="Trazado_830203" data-name="Trazado 830203" d="M122.91,19.234l-4.828,7.6a6.176,6.176,0,0,1,1.014,1.337l8.619-2.6a15.738,15.738,0,0,0-4.8-6.338" transform="translate(-118.082 -19.234)" fill="#bae9d9"/>
                  </g>
                </g>
              </g>
              <g id="Grupo_1095404" data-name="Grupo 1095404" transform="translate(1.186 19.054)">
                <g id="Grupo_1095403" data-name="Grupo 1095403">
                  <g id="Grupo_1095402" data-name="Grupo 1095402" clip-path="url(#clip-path-4)">
                    <path id="Trazado_830204" data-name="Trazado 830204" d="M11.635,118.632l4.828-7.6a6.168,6.168,0,0,1-1.014-1.337l-8.619,2.6a15.738,15.738,0,0,0,4.8,6.338" transform="translate(-6.83 -109.697)" fill="#bae9d9"/>
                  </g>
                </g>
              </g>
            </g>
          </g>
        </g>
      </g>
    </g>
  </g>
</svg>
