<svg xmlns="http://www.w3.org/2000/svg" width="86.66" height="28.586" viewBox="0 0 86.66 28.586">
  <g id="Grupo_1096046" data-name="Grupo 1096046" transform="translate(-915 -2245.548)">
    <g id="Grupo_1072927" data-name="Grupo 1072927" transform="translate(915 2245.548)">
      <path id="Trazado_818457" data-name="Trazado 818457" d="M86.66,10.307l-1.45,1.652a9.1,9.1,0,0,1-14.04,0l-.873-.994a9.1,9.1,0,0,0-14.04,0,9.1,9.1,0,0,1-14.04,0l-.079-.09a9.1,9.1,0,0,0-14.04,0l-.714.813a9.1,9.1,0,0,1-14.04,0l-.554-.633A9.042,9.042,0,0,0,0,9.863v4.981a9.04,9.04,0,0,1,12.791,1.19l.554.633a9.1,9.1,0,0,0,14.04,0l.714-.813a9.1,9.1,0,0,1,14.04,0l.079.09a9.1,9.1,0,0,0,14.04,0,9.1,9.1,0,0,1,14.04,0l.873.994a9.1,9.1,0,0,0,14.04,0l1.45-1.652Z" transform="translate(0 8.336)" fill="#273a89"/>
      <path id="Trazado_818458" data-name="Trazado 818458" d="M86.66,2.744,85.21,4.4a9.1,9.1,0,0,1-14.04,0L70.3,3.4a9.1,9.1,0,0,0-14.04,0,9.1,9.1,0,0,1-14.04,0l-.079-.09a9.1,9.1,0,0,0-14.04,0l-.714.813a9.1,9.1,0,0,1-14.04,0l-.554-.633A9.042,9.042,0,0,0,0,2.3V7.28A9.042,9.042,0,0,1,12.791,8.471l.554.633a9.1,9.1,0,0,0,14.04,0l.714-.813a9.1,9.1,0,0,1,14.04,0l.079.09a9.1,9.1,0,0,0,14.04,0,9.1,9.1,0,0,1,14.04,0l.873.994a9.1,9.1,0,0,0,14.04,0l1.45-1.652Z" transform="translate(0 0.001)" fill="#273a89"/>
    </g>
  </g>
</svg>
