<svg xmlns="http://www.w3.org/2000/svg" xmlns:xlink="http://www.w3.org/1999/xlink" width="505" height="195.597" viewBox="0 0 505 195.597">
  <defs>
    <clipPath id="clip-path">
      <rect id="Rectángulo_387369" data-name="Rectángulo 387369" width="283.648" height="182.504" fill="none"/>
    </clipPath>
    <clipPath id="clip-path-3">
      <rect id="Rectángulo_387286" data-name="Rectángulo 387286" width="279.96" height="179.416" fill="#ffe888"/>
    </clipPath>
  </defs>
  <g id="Grupo_1095635" data-name="Grupo 1095635" transform="translate(-915 -5210.782)">
    <rect id="Rectángulo_387372" data-name="Rectángulo 387372" width="505" height="195.597" rx="8" transform="translate(915 5210.782)" fill="#ffce00"/>
    <g id="Grupo_1095634" data-name="Grupo 1095634" transform="translate(1026 5217.782)">
      <g id="Grupo_1095633" data-name="Grupo 1095633" clip-path="url(#clip-path)">
        <g id="Grupo_1095618" data-name="Grupo 1095618">
          <g id="Grupo_1095617" data-name="Grupo 1095617" clip-path="url(#clip-path)">
            <path id="Trazado_836103" data-name="Trazado 836103" d="M109.384,36.823c39.431-19.415,79.988-44.8,125.8-34.413a61.812,61.812,0,0,1,35.866,22.982c23.363,31.306,21.463,79.256,8.77,114.5a64.043,64.043,0,0,1-6.386,13.166c-12.884,19.885-34.593,20.822-55.533,15.073-17.721-4.865-33.42-9.87-51.725-4.924-10.139,2.74-19.964,6.506-30.065,9.372-13.753,3.9-27.931,6.553-42.254,6.821-37.892.711-81.176-18.619-84.533-60.935a66.708,66.708,0,0,1-.133-8.247C9.944,93.322,15.527,76.4,31,67.634,46.56,58.816,65.018,55.33,81.66,49.076c9.464-3.557,18.646-7.782,27.724-12.253" transform="translate(-5.429 0)" fill="#92e3a9"/>
            <g id="Grupo_1095616" data-name="Grupo 1095616" transform="translate(3.688)">
              <g id="Grupo_1095615" data-name="Grupo 1095615">
                <g id="Grupo_1095614" data-name="Grupo 1095614" clip-path="url(#clip-path-3)">
                  <path id="Trazado_836104" data-name="Trazado 836104" d="M109.384,36.823c39.431-19.415,79.988-44.8,125.8-34.413a61.812,61.812,0,0,1,35.866,22.982c23.363,31.306,21.463,79.256,8.77,114.5a64.043,64.043,0,0,1-6.386,13.166c-12.884,19.885-34.593,20.822-55.533,15.073-17.721-4.865-33.42-9.87-51.725-4.924-10.139,2.74-19.964,6.506-30.065,9.372-13.753,3.9-27.931,6.553-42.254,6.821-37.892.711-81.176-18.619-84.533-60.935a66.708,66.708,0,0,1-.133-8.247C9.944,93.322,15.527,76.4,31,67.634,46.56,58.816,65.018,55.33,81.66,49.076c9.464-3.557,18.646-7.782,27.724-12.253" transform="translate(-9.117 0)" fill="#ffe888"/>
                </g>
              </g>
            </g>
          </g>
        </g>
        <g id="Grupo_1095620" data-name="Grupo 1095620">
          <g id="Grupo_1095619" data-name="Grupo 1095619" clip-path="url(#clip-path)">
            <line id="Línea_239" data-name="Línea 239" x2="278.669" transform="translate(0.202 180.852)" fill="none" stroke="#263238" stroke-linecap="round" stroke-linejoin="round" stroke-width="1"/>
          </g>
        </g>
        <g id="Grupo_1095622" data-name="Grupo 1095622">
          <g id="Grupo_1095621" data-name="Grupo 1095621" clip-path="url(#clip-path)">
            <path id="Trazado_836105" data-name="Trazado 836105" d="M11.834,301.688s-.945,2.6-2.955,2.955S3.324,301.1,5.57,299.088s5.319,1.182,6.265,2.6" transform="translate(-2.888 -177.712)" fill="#92e3a9"/>
            <path id="Trazado_836106" data-name="Trazado 836106" d="M11.834,301.688s-.945,2.6-2.955,2.955S3.324,301.1,5.57,299.088,10.889,300.27,11.834,301.688Z" transform="translate(-2.888 -177.712)" fill="none" stroke="#263238" stroke-linecap="round" stroke-linejoin="round" stroke-width="1"/>
            <path id="Trazado_836107" data-name="Trazado 836107" d="M26.691,273.275s-2.956,7.21-1.773,10.756,8.511,6.146,10.638,1.536-2.6-11.111-4.373-12.529-3.9-.946-4.491.236" transform="translate(-14.672 -162.065)" fill="#92e3a9"/>
            <path id="Trazado_836108" data-name="Trazado 836108" d="M26.691,273.275s-2.956,7.21-1.773,10.756,8.511,6.146,10.638,1.536-2.6-11.111-4.373-12.529S27.282,272.093,26.691,273.275Z" transform="translate(-14.672 -162.065)" fill="none" stroke="#263238" stroke-linecap="round" stroke-linejoin="round" stroke-width="1"/>
            <path id="Trazado_836109" data-name="Trazado 836109" d="M63.92,281s-5.083,4.61-5.674,9.219,2.837,6.265,6.383,5.674,5.319-9.574,4.255-13.711S63.92,281,63.92,281" transform="translate(-34.644 -166.719)" fill="#92e3a9"/>
            <path id="Trazado_836110" data-name="Trazado 836110" d="M63.92,281s-5.083,4.61-5.674,9.219,2.837,6.265,6.383,5.674,5.319-9.574,4.255-13.711S63.92,281,63.92,281Z" transform="translate(-34.644 -166.719)" fill="none" stroke="#263238" stroke-linecap="round" stroke-linejoin="round" stroke-width="1"/>
            <path id="Trazado_836111" data-name="Trazado 836111" d="M65.988,345.619s-5.674.237-5.91,2.955,2.482,3.31,5.2.945,3.073-3.782.709-3.9" transform="translate(-35.766 -205.805)" fill="#92e3a9"/>
            <path id="Trazado_836112" data-name="Trazado 836112" d="M65.988,345.619s-5.674.237-5.91,2.955,2.482,3.31,5.2.945S68.352,345.737,65.988,345.619Z" transform="translate(-35.766 -205.805)" fill="none" stroke="#263238" stroke-linecap="round" stroke-linejoin="round" stroke-width="1"/>
            <path id="Trazado_836113" data-name="Trazado 836113" d="M60.331,350.991a41.543,41.543,0,0,1,6.485-2.4" transform="translate(-35.925 -207.574)" fill="none" stroke="#263238" stroke-miterlimit="10" stroke-width="1"/>
            <path id="Trazado_836114" data-name="Trazado 836114" d="M67.207,385.819s-4.167-3.857-6.262-2.108-.6,4.093,3,4.355,4.849-.487,3.266-2.247" transform="translate(-35.721 -228.216)" fill="#92e3a9"/>
            <path id="Trazado_836115" data-name="Trazado 836115" d="M67.207,385.819s-4.167-3.857-6.262-2.108-.6,4.093,3,4.355S68.79,387.579,67.207,385.819Z" transform="translate(-35.721 -228.216)" fill="none" stroke="#263238" stroke-linecap="round" stroke-linejoin="round" stroke-width="1"/>
            <path id="Trazado_836116" data-name="Trazado 836116" d="M61.382,385.674a41.558,41.558,0,0,1,6.275,2.907" transform="translate(-36.551 -229.656)" fill="none" stroke="#263238" stroke-miterlimit="10" stroke-width="1"/>
            <path id="Trazado_836117" data-name="Trazado 836117" d="M22.127,381.583s5.745-5.317,8.632-2.906.823,5.643-4.13,6-6.684-.671-4.5-3.1" transform="translate(-12.624 -225.116)" fill="#92e3a9"/>
            <path id="Trazado_836118" data-name="Trazado 836118" d="M22.127,381.583s5.745-5.317,8.632-2.906.823,5.643-4.13,6S19.946,384.009,22.127,381.583Z" transform="translate(-12.624 -225.116)" fill="none" stroke="#263238" stroke-linecap="round" stroke-linejoin="round" stroke-width="1"/>
            <path id="Trazado_836119" data-name="Trazado 836119" d="M33.44,381.384s-6.345,2.384-8.649,4.007" transform="translate(-14.762 -227.102)" fill="none" stroke="#263238" stroke-miterlimit="10" stroke-width="1"/>
            <path id="Trazado_836120" data-name="Trazado 836120" d="M29.356,356.157s-.591,2.837-2.718,3.9-5.91-1.182-3.9-4.61,5.555-.709,6.619.709" transform="translate(-13.199 -210.669)" fill="#92e3a9"/>
            <path id="Trazado_836121" data-name="Trazado 836121" d="M29.356,356.157s-.591,2.837-2.718,3.9-5.91-1.182-3.9-4.61S28.292,354.739,29.356,356.157Z" transform="translate(-13.199 -210.669)" fill="none" stroke="#263238" stroke-linecap="round" stroke-linejoin="round" stroke-width="1"/>
            <path id="Trazado_836122" data-name="Trazado 836122" d="M13.476,335.748s-1.064-2.364-5.2-.827-5.792,3.9-3.191,4.728,8.392-3.9,8.392-3.9" transform="translate(-2.284 -199.125)" fill="#92e3a9"/>
            <path id="Trazado_836123" data-name="Trazado 836123" d="M13.476,335.748s-1.064-2.364-5.2-.827-5.792,3.9-3.191,4.728S13.476,335.748,13.476,335.748Z" transform="translate(-2.284 -199.125)" fill="none" stroke="#263238" stroke-linecap="round" stroke-linejoin="round" stroke-width="1"/>
            <path id="Trazado_836124" data-name="Trazado 836124" d="M15.77,337.464s-4.382.474-6.751,2.488" transform="translate(-5.371 -200.949)" fill="none" stroke="#263238" stroke-miterlimit="10" stroke-width="1"/>
            <path id="Trazado_836125" data-name="Trazado 836125" d="M56.885,263.431s.709,1.655,2.127,1.3,1.773-2.482,4.019-1.891,4.137,3.191,4.137,2.009-2.837-4.255-6.028-4.255-4.137,1.3-4.255,2.837" transform="translate(-33.873 -155.175)" fill="#92e3a9"/>
            <path id="Trazado_836126" data-name="Trazado 836126" d="M56.885,263.431s.709,1.655,2.127,1.3,1.773-2.482,4.019-1.891,4.137,3.191,4.137,2.009-2.837-4.255-6.028-4.255S57,261.894,56.885,263.431Z" transform="translate(-33.873 -155.175)" fill="none" stroke="#263238" stroke-linecap="round" stroke-linejoin="round" stroke-width="1"/>
            <path id="Trazado_836127" data-name="Trazado 836127" d="M27.666,337.635s5.089-.977,7.209,4.675a15.715,15.715,0,0,1,.531,1.729" transform="translate(-16.474 -201.012)" fill="none" stroke="#263238" stroke-miterlimit="10" stroke-width="1"/>
            <path id="Trazado_836128" data-name="Trazado 836128" d="M80.173,322.214s1.064-2.364,5.2-.827,5.792,3.9,3.191,4.728-8.392-3.9-8.392-3.9" transform="translate(-47.74 -191.066)" fill="#92e3a9"/>
            <path id="Trazado_836129" data-name="Trazado 836129" d="M80.173,322.214s1.064-2.364,5.2-.827,5.792,3.9,3.191,4.728S80.173,322.214,80.173,322.214Z" transform="translate(-47.74 -191.066)" fill="none" stroke="#263238" stroke-linecap="round" stroke-linejoin="round" stroke-width="1"/>
            <path id="Trazado_836130" data-name="Trazado 836130" d="M82.51,324.572s4.264-.237,6.278,2.25" transform="translate(-49.132 -193.268)" fill="none" stroke="#263238" stroke-miterlimit="10" stroke-width="1"/>
            <path id="Trazado_836131" data-name="Trazado 836131" d="M74.987,324.1a6.555,6.555,0,0,0-3.523.48" transform="translate(-42.554 -192.953)" fill="none" stroke="#263238" stroke-miterlimit="10" stroke-width="1"/>
            <path id="Trazado_836132" data-name="Trazado 836132" d="M19.624,308.894a9.83,9.83,0,0,0-4.959-2.932S11.026,305,9.6,306.3" transform="translate(-5.719 -181.986)" fill="none" stroke="#263238" stroke-miterlimit="10" stroke-width="1"/>
            <line id="Línea_240" data-name="Línea 240" x1="0.221" y1="0.988" transform="translate(14.19 112.826)" fill="none" stroke="#263238" stroke-miterlimit="10" stroke-width="1"/>
            <path id="Trazado_836133" data-name="Trazado 836133" d="M41.725,335.143s.53-20.355,0-26.537a67.47,67.47,0,0,0-3-13.424L36.2,283.936" transform="translate(-21.558 -169.075)" fill="none" stroke="#263238" stroke-miterlimit="10" stroke-width="1"/>
            <line id="Línea_241" data-name="Línea 241" y1="0.976" x2="0.456" transform="translate(30.672 117.209)" fill="none" stroke="#263238" stroke-miterlimit="10" stroke-width="1"/>
            <path id="Trazado_836134" data-name="Trazado 836134" d="M52.909,341.641s.177-18.566.883-23.865,3.532-13.6,3.532-13.6l4.337-9.29" transform="translate(-31.506 -175.595)" fill="none" stroke="#263238" stroke-miterlimit="10" stroke-width="1"/>
            <path id="Trazado_836135" data-name="Trazado 836135" d="M57.472,354.525s-1.236,10.644-1.943,22.654" transform="translate(-33.066 -211.108)" fill="none" stroke="#263238" stroke-miterlimit="10" stroke-width="1"/>
            <path id="Trazado_836136" data-name="Trazado 836136" d="M35.627,379.876s.353-16.977-.353-19.273-1.892-1.285-1.892-1.285-3.269.384-4.454,2.279" transform="translate(-17.226 -213.83)" fill="none" stroke="#263238" stroke-miterlimit="10" stroke-width="1"/>
            <path id="Trazado_836137" data-name="Trazado 836137" d="M47.493,356.831c.924,5.178.072,21.714.072,21.714" transform="translate(-28.281 -212.481)" fill="none" stroke="#263238" stroke-miterlimit="10" stroke-width="1"/>
            <path id="Trazado_836138" data-name="Trazado 836138" d="M62.261,326.755a7.37,7.37,0,0,0-2.684,3.64c-2.119,5.652-1.878,30.249-1.878,30.249" transform="translate(-34.353 -194.572)" fill="none" stroke="#263238" stroke-miterlimit="10" stroke-width="1"/>
            <path id="Trazado_836139" data-name="Trazado 836139" d="M35.894,315.38a16.708,16.708,0,0,1,3,5.415c2.826,8.125,3.886,29.164,3.356,33.049" transform="translate(-21.374 -187.798)" fill="none" stroke="#263238" stroke-miterlimit="10" stroke-width="1"/>
            <path id="Trazado_836140" data-name="Trazado 836140" d="M53.2,334.175c-.172,10.254-.294,30.861-.294,30.861" transform="translate(-31.506 -198.99)" fill="none" stroke="#263238" stroke-miterlimit="10" stroke-width="1"/>
            <path id="Trazado_836141" data-name="Trazado 836141" d="M53.688,290.545c.117-6.78.254-13.415.391-16.984.353-9.184.9-8.669.9-8.669s.654-2.062,4.326-1.825" transform="translate(-31.969 -156.637)" fill="none" stroke="#263238" stroke-miterlimit="10" stroke-width="1"/>
            <path id="Trazado_836142" data-name="Trazado 836142" d="M39.487,342.216s-2.955-2.635-1.773-3.931,8.511-2.246,10.638-.562-2.6,4.061-4.373,4.579-3.9.345-4.492-.087" transform="translate(-22.291 -200.564)" fill="#92e3a9"/>
            <path id="Trazado_836143" data-name="Trazado 836143" d="M39.487,342.216s-2.955-2.635-1.773-3.931,8.511-2.246,10.638-.562-2.6,4.061-4.373,4.579S40.078,342.648,39.487,342.216Z" transform="translate(-22.291 -200.564)" fill="none" stroke="#263238" stroke-linecap="round" stroke-linejoin="round" stroke-width="1"/>
            <path id="Trazado_836144" data-name="Trazado 836144" d="M49.157,344.827a5.182,5.182,0,0,0-.066.787" transform="translate(-29.232 -205.333)" fill="none" stroke="#263238" stroke-miterlimit="10" stroke-width="1"/>
            <path id="Trazado_836145" data-name="Trazado 836145" d="M50.649,337.223a13.4,13.4,0,0,0-.758,1.957" transform="translate(-29.708 -200.805)" fill="none" stroke="#263238" stroke-miterlimit="10" stroke-width="1"/>
            <path id="Trazado_836146" data-name="Trazado 836146" d="M39.487,384.806s-2.955-2.635-1.773-3.931,8.511-2.246,10.638-.561-2.6,4.061-4.373,4.579-3.9.346-4.492-.087" transform="translate(-22.291 -225.925)" fill="#92e3a9"/>
            <path id="Trazado_836147" data-name="Trazado 836147" d="M39.487,384.806s-2.955-2.635-1.773-3.931,8.511-2.246,10.638-.561-2.6,4.061-4.373,4.579S40.078,385.238,39.487,384.806Z" transform="translate(-22.291 -225.925)" fill="none" stroke="#263238" stroke-linecap="round" stroke-linejoin="round" stroke-width="1"/>
            <path id="Trazado_836148" data-name="Trazado 836148" d="M50.173,379.813a10.713,10.713,0,0,0-1.082,3.863" transform="translate(-29.232 -226.166)" fill="none" stroke="#263238" stroke-miterlimit="10" stroke-width="1"/>
            <path id="Trazado_836149" data-name="Trazado 836149" d="M45.895,369.344s-2.006-1.789-1.2-2.669,5.778-1.525,7.223-.381-1.765,2.757-2.969,3.108a4.649,4.649,0,0,1-3.049-.058" transform="translate(-26.499 -217.75)" fill="#92e3a9"/>
            <path id="Trazado_836150" data-name="Trazado 836150" d="M45.895,369.344s-2.006-1.789-1.2-2.669,5.778-1.525,7.223-.381-1.765,2.757-2.969,3.108A4.649,4.649,0,0,1,45.895,369.344Z" transform="translate(-26.499 -217.75)" fill="none" stroke="#263238" stroke-linecap="round" stroke-linejoin="round" stroke-width="1"/>
            <path id="Trazado_836151" data-name="Trazado 836151" d="M53.15,365.954a7.275,7.275,0,0,0-.734,2.623" transform="translate(-31.212 -217.914)" fill="none" stroke="#263238" stroke-miterlimit="10" stroke-width="1"/>
            <rect id="Rectángulo_387289" data-name="Rectángulo 387289" width="7.999" height="17.737" transform="translate(16.62 163.115)" fill="#263238"/>
            <rect id="Rectángulo_387290" data-name="Rectángulo 387290" width="7.999" height="17.737" transform="translate(16.62 163.115)" fill="none" stroke="#263238" stroke-linecap="round" stroke-linejoin="round" stroke-width="1"/>
            <path id="Trazado_836152" data-name="Trazado 836152" d="M608.357,301.688s-.945,2.6-2.955,2.955-5.555-3.546-3.309-5.555,5.319,1.182,6.265,2.6" transform="translate(-358.098 -177.712)" fill="#92e3a9"/>
            <path id="Trazado_836153" data-name="Trazado 836153" d="M608.357,301.688s-.945,2.6-2.955,2.955-5.555-3.546-3.309-5.555S607.412,300.27,608.357,301.688Z" transform="translate(-358.098 -177.712)" fill="none" stroke="#263238" stroke-linecap="round" stroke-linejoin="round" stroke-width="1"/>
            <path id="Trazado_836154" data-name="Trazado 836154" d="M623.213,273.275s-2.955,7.21-1.773,10.756,8.511,6.146,10.638,1.536-2.6-11.111-4.373-12.529-3.9-.946-4.491.236" transform="translate(-369.881 -162.065)" fill="#92e3a9"/>
            <path id="Trazado_836155" data-name="Trazado 836155" d="M623.213,273.275s-2.955,7.21-1.773,10.756,8.511,6.146,10.638,1.536-2.6-11.111-4.373-12.529S623.8,272.093,623.213,273.275Z" transform="translate(-369.881 -162.065)" fill="none" stroke="#263238" stroke-linecap="round" stroke-linejoin="round" stroke-width="1"/>
            <path id="Trazado_836156" data-name="Trazado 836156" d="M660.443,281s-5.083,4.61-5.674,9.219,2.837,6.265,6.383,5.674,5.319-9.574,4.255-13.711S660.443,281,660.443,281" transform="translate(-389.854 -166.719)" fill="#92e3a9"/>
            <path id="Trazado_836157" data-name="Trazado 836157" d="M660.443,281s-5.083,4.61-5.674,9.219,2.837,6.265,6.383,5.674,5.319-9.574,4.255-13.711S660.443,281,660.443,281Z" transform="translate(-389.854 -166.719)" fill="none" stroke="#263238" stroke-linecap="round" stroke-linejoin="round" stroke-width="1"/>
            <path id="Trazado_836158" data-name="Trazado 836158" d="M662.511,345.619s-5.674.237-5.91,2.955,2.482,3.31,5.2.945,3.073-3.782.709-3.9" transform="translate(-390.976 -205.805)" fill="#92e3a9"/>
            <path id="Trazado_836159" data-name="Trazado 836159" d="M662.511,345.619s-5.674.237-5.91,2.955,2.482,3.31,5.2.945S664.875,345.737,662.511,345.619Z" transform="translate(-390.976 -205.805)" fill="none" stroke="#263238" stroke-linecap="round" stroke-linejoin="round" stroke-width="1"/>
            <path id="Trazado_836160" data-name="Trazado 836160" d="M656.854,350.991a41.542,41.542,0,0,1,6.485-2.4" transform="translate(-391.135 -207.574)" fill="none" stroke="#263238" stroke-miterlimit="10" stroke-width="1"/>
            <path id="Trazado_836161" data-name="Trazado 836161" d="M663.73,385.819s-4.168-3.857-6.262-2.108-.6,4.093,3,4.355,4.849-.487,3.266-2.247" transform="translate(-390.931 -228.216)" fill="#92e3a9"/>
            <path id="Trazado_836162" data-name="Trazado 836162" d="M663.73,385.819s-4.168-3.857-6.262-2.108-.6,4.093,3,4.355S665.313,387.579,663.73,385.819Z" transform="translate(-390.931 -228.216)" fill="none" stroke="#263238" stroke-linecap="round" stroke-linejoin="round" stroke-width="1"/>
            <path id="Trazado_836163" data-name="Trazado 836163" d="M657.905,385.674a41.563,41.563,0,0,1,6.275,2.907" transform="translate(-391.761 -229.656)" fill="none" stroke="#263238" stroke-miterlimit="10" stroke-width="1"/>
            <path id="Trazado_836164" data-name="Trazado 836164" d="M618.65,381.583s5.745-5.317,8.632-2.906.823,5.643-4.13,6-6.684-.671-4.5-3.1" transform="translate(-367.833 -225.116)" fill="#92e3a9"/>
            <path id="Trazado_836165" data-name="Trazado 836165" d="M618.65,381.583s5.745-5.317,8.632-2.906.823,5.643-4.13,6S616.469,384.009,618.65,381.583Z" transform="translate(-367.833 -225.116)" fill="none" stroke="#263238" stroke-linecap="round" stroke-linejoin="round" stroke-width="1"/>
            <path id="Trazado_836166" data-name="Trazado 836166" d="M629.963,381.384s-6.345,2.384-8.649,4.007" transform="translate(-369.972 -227.102)" fill="none" stroke="#263238" stroke-miterlimit="10" stroke-width="1"/>
            <path id="Trazado_836167" data-name="Trazado 836167" d="M625.879,356.157s-.591,2.837-2.718,3.9-5.91-1.182-3.9-4.61,5.555-.709,6.619.709" transform="translate(-368.409 -210.669)" fill="#92e3a9"/>
            <path id="Trazado_836168" data-name="Trazado 836168" d="M625.879,356.157s-.591,2.837-2.718,3.9-5.91-1.182-3.9-4.61S624.815,354.739,625.879,356.157Z" transform="translate(-368.409 -210.669)" fill="none" stroke="#263238" stroke-linecap="round" stroke-linejoin="round" stroke-width="1"/>
            <path id="Trazado_836169" data-name="Trazado 836169" d="M610,335.748s-1.064-2.364-5.2-.827-5.792,3.9-3.191,4.728,8.392-3.9,8.392-3.9" transform="translate(-357.494 -199.125)" fill="#92e3a9"/>
            <path id="Trazado_836170" data-name="Trazado 836170" d="M610,335.748s-1.064-2.364-5.2-.827-5.792,3.9-3.191,4.728S610,335.748,610,335.748Z" transform="translate(-357.494 -199.125)" fill="none" stroke="#263238" stroke-linecap="round" stroke-linejoin="round" stroke-width="1"/>
            <path id="Trazado_836171" data-name="Trazado 836171" d="M612.293,337.464s-4.382.474-6.751,2.488" transform="translate(-360.58 -200.949)" fill="none" stroke="#263238" stroke-miterlimit="10" stroke-width="1"/>
            <path id="Trazado_836172" data-name="Trazado 836172" d="M653.407,263.431s.709,1.655,2.127,1.3,1.773-2.482,4.019-1.891,4.137,3.191,4.137,2.009-2.836-4.255-6.028-4.255-4.137,1.3-4.255,2.837" transform="translate(-389.082 -155.175)" fill="#92e3a9"/>
            <path id="Trazado_836173" data-name="Trazado 836173" d="M653.407,263.431s.709,1.655,2.127,1.3,1.773-2.482,4.019-1.891,4.137,3.191,4.137,2.009-2.836-4.255-6.028-4.255S653.525,261.894,653.407,263.431Z" transform="translate(-389.082 -155.175)" fill="none" stroke="#263238" stroke-linecap="round" stroke-linejoin="round" stroke-width="1"/>
            <path id="Trazado_836174" data-name="Trazado 836174" d="M624.189,337.635s5.089-.977,7.209,4.675a15.748,15.748,0,0,1,.531,1.729" transform="translate(-371.684 -201.012)" fill="none" stroke="#263238" stroke-miterlimit="10" stroke-width="1"/>
            <path id="Trazado_836175" data-name="Trazado 836175" d="M676.7,322.214s1.064-2.364,5.2-.827,5.792,3.9,3.191,4.728-8.392-3.9-8.392-3.9" transform="translate(-402.95 -191.066)" fill="#92e3a9"/>
            <path id="Trazado_836176" data-name="Trazado 836176" d="M676.7,322.214s1.064-2.364,5.2-.827,5.792,3.9,3.191,4.728S676.7,322.214,676.7,322.214Z" transform="translate(-402.95 -191.066)" fill="none" stroke="#263238" stroke-linecap="round" stroke-linejoin="round" stroke-width="1"/>
            <path id="Trazado_836177" data-name="Trazado 836177" d="M679.033,324.572s4.264-.237,6.278,2.25" transform="translate(-404.342 -193.268)" fill="none" stroke="#263238" stroke-miterlimit="10" stroke-width="1"/>
            <path id="Trazado_836178" data-name="Trazado 836178" d="M671.51,324.1a6.555,6.555,0,0,0-3.523.48" transform="translate(-397.764 -192.953)" fill="none" stroke="#263238" stroke-miterlimit="10" stroke-width="1"/>
            <path id="Trazado_836179" data-name="Trazado 836179" d="M616.148,308.894a9.83,9.83,0,0,0-4.959-2.932s-3.64-.963-5.061.339" transform="translate(-360.929 -181.986)" fill="none" stroke="#263238" stroke-miterlimit="10" stroke-width="1"/>
            <line id="Línea_242" data-name="Línea 242" x1="0.221" y1="0.988" transform="translate(255.503 112.826)" fill="none" stroke="#263238" stroke-miterlimit="10" stroke-width="1"/>
            <path id="Trazado_836180" data-name="Trazado 836180" d="M638.248,335.143s.53-20.355,0-26.537a67.475,67.475,0,0,0-3-13.424l-2.519-11.247" transform="translate(-376.768 -169.075)" fill="none" stroke="#263238" stroke-miterlimit="10" stroke-width="1"/>
            <line id="Línea_243" data-name="Línea 243" y1="0.976" x2="0.455" transform="translate(271.985 117.209)" fill="none" stroke="#263238" stroke-miterlimit="10" stroke-width="1"/>
            <path id="Trazado_836181" data-name="Trazado 836181" d="M649.431,341.641s.177-18.566.883-23.865,3.532-13.6,3.532-13.6l4.337-9.29" transform="translate(-386.715 -175.595)" fill="none" stroke="#263238" stroke-miterlimit="10" stroke-width="1"/>
            <path id="Trazado_836182" data-name="Trazado 836182" d="M653.995,354.525s-1.236,10.644-1.943,22.654" transform="translate(-388.276 -211.108)" fill="none" stroke="#263238" stroke-miterlimit="10" stroke-width="1"/>
            <path id="Trazado_836183" data-name="Trazado 836183" d="M632.149,379.876S632.5,362.9,631.8,360.6s-1.892-1.285-1.892-1.285-3.269.384-4.453,2.279" transform="translate(-372.435 -213.83)" fill="none" stroke="#263238" stroke-miterlimit="10" stroke-width="1"/>
            <path id="Trazado_836184" data-name="Trazado 836184" d="M644.015,356.831c.924,5.178.072,21.714.072,21.714" transform="translate(-383.49 -212.481)" fill="none" stroke="#263238" stroke-miterlimit="10" stroke-width="1"/>
            <path id="Trazado_836185" data-name="Trazado 836185" d="M658.784,326.755a7.37,7.37,0,0,0-2.685,3.64c-2.119,5.652-1.878,30.249-1.878,30.249" transform="translate(-389.563 -194.572)" fill="none" stroke="#263238" stroke-miterlimit="10" stroke-width="1"/>
            <path id="Trazado_836186" data-name="Trazado 836186" d="M632.416,315.38a16.709,16.709,0,0,1,3,5.415c2.826,8.125,3.885,29.164,3.356,33.049" transform="translate(-376.583 -187.798)" fill="none" stroke="#263238" stroke-miterlimit="10" stroke-width="1"/>
            <path id="Trazado_836187" data-name="Trazado 836187" d="M649.726,334.175c-.172,10.254-.294,30.861-.294,30.861" transform="translate(-386.715 -198.99)" fill="none" stroke="#263238" stroke-miterlimit="10" stroke-width="1"/>
            <path id="Trazado_836188" data-name="Trazado 836188" d="M650.211,290.545c.116-6.78.254-13.415.391-16.984.353-9.184.9-8.669.9-8.669s.654-2.062,4.326-1.825" transform="translate(-387.179 -156.637)" fill="none" stroke="#263238" stroke-miterlimit="10" stroke-width="1"/>
            <path id="Trazado_836189" data-name="Trazado 836189" d="M636.009,342.216s-2.955-2.635-1.773-3.931,8.511-2.246,10.638-.562-2.6,4.061-4.373,4.579-3.9.345-4.492-.087" transform="translate(-377.501 -200.564)" fill="#92e3a9"/>
            <path id="Trazado_836190" data-name="Trazado 836190" d="M636.009,342.216s-2.955-2.635-1.773-3.931,8.511-2.246,10.638-.562-2.6,4.061-4.373,4.579S636.6,342.648,636.009,342.216Z" transform="translate(-377.501 -200.564)" fill="none" stroke="#263238" stroke-linecap="round" stroke-linejoin="round" stroke-width="1"/>
            <path id="Trazado_836191" data-name="Trazado 836191" d="M645.68,344.827a5.175,5.175,0,0,0-.066.787" transform="translate(-384.442 -205.333)" fill="none" stroke="#263238" stroke-miterlimit="10" stroke-width="1"/>
            <path id="Trazado_836192" data-name="Trazado 836192" d="M647.172,337.223a13.389,13.389,0,0,0-.758,1.957" transform="translate(-384.918 -200.805)" fill="none" stroke="#263238" stroke-miterlimit="10" stroke-width="1"/>
            <path id="Trazado_836193" data-name="Trazado 836193" d="M636.009,384.806s-2.955-2.635-1.773-3.931,8.511-2.246,10.638-.561-2.6,4.061-4.373,4.579-3.9.346-4.492-.087" transform="translate(-377.501 -225.925)" fill="#92e3a9"/>
            <path id="Trazado_836194" data-name="Trazado 836194" d="M636.009,384.806s-2.955-2.635-1.773-3.931,8.511-2.246,10.638-.561-2.6,4.061-4.373,4.579S636.6,385.238,636.009,384.806Z" transform="translate(-377.501 -225.925)" fill="none" stroke="#263238" stroke-linecap="round" stroke-linejoin="round" stroke-width="1"/>
            <path id="Trazado_836195" data-name="Trazado 836195" d="M646.7,379.813a10.713,10.713,0,0,0-1.082,3.863" transform="translate(-384.442 -226.166)" fill="none" stroke="#263238" stroke-miterlimit="10" stroke-width="1"/>
            <path id="Trazado_836196" data-name="Trazado 836196" d="M642.417,369.344s-2.006-1.789-1.2-2.669,5.778-1.525,7.222-.381-1.765,2.757-2.969,3.108a4.649,4.649,0,0,1-3.049-.058" transform="translate(-381.709 -217.75)" fill="#92e3a9"/>
            <path id="Trazado_836197" data-name="Trazado 836197" d="M642.417,369.344s-2.006-1.789-1.2-2.669,5.778-1.525,7.222-.381-1.765,2.757-2.969,3.108A4.649,4.649,0,0,1,642.417,369.344Z" transform="translate(-381.709 -217.75)" fill="none" stroke="#263238" stroke-linecap="round" stroke-linejoin="round" stroke-width="1"/>
            <path id="Trazado_836198" data-name="Trazado 836198" d="M649.673,365.954a7.276,7.276,0,0,0-.734,2.623" transform="translate(-386.422 -217.914)" fill="none" stroke="#263238" stroke-miterlimit="10" stroke-width="1"/>
            <rect id="Rectángulo_387291" data-name="Rectángulo 387291" width="7.999" height="17.737" transform="translate(257.933 163.115)" fill="#263238"/>
            <rect id="Rectángulo_387292" data-name="Rectángulo 387292" width="7.999" height="17.737" transform="translate(257.933 163.115)" fill="none" stroke="#263238" stroke-linecap="round" stroke-linejoin="round" stroke-width="1"/>
          </g>
        </g>
        <rect id="Rectángulo_387295" data-name="Rectángulo 387295" width="81.415" height="60.559" transform="translate(187.154 15.761)" fill="none"/>
        <rect id="Rectángulo_387296" data-name="Rectángulo 387296" width="76.791" height="57.119" transform="translate(189.466 17.481)" fill="#fff"/>
        <rect id="Rectángulo_387299" data-name="Rectángulo 387299" width="89.204" height="60.559" transform="translate(95.94 15.761)" fill="none"/>
        <path id="Trazado_839869" data-name="Trazado 839869" d="M0,0H84.138V57.119H0V0Z" transform="translate(98.473 17.481)" fill="#fff"/>
        <rect id="Rectángulo_387304" data-name="Rectángulo 387304" width="76.791" height="57.119" transform="translate(15.078 17.481)" fill="#fff"/>
        <rect id="Rectángulo_387305" data-name="Rectángulo 387305" width="76.791" height="57.119" transform="translate(15.078 17.481)" fill="none"/>
        <line id="Línea_244" data-name="Línea 244" x2="8.371" transform="translate(193.193 27.855)" fill="none" stroke="#263238" stroke-linecap="round" stroke-linejoin="round" stroke-width="1"/>
        <line id="Línea_245" data-name="Línea 245" x2="8.371" transform="translate(193.193 29.716)" fill="none" stroke="#263238" stroke-linecap="round" stroke-linejoin="round" stroke-width="1"/>
        <line id="Línea_246" data-name="Línea 246" x2="8.371" transform="translate(193.193 31.576)" fill="none" stroke="#263238" stroke-linecap="round" stroke-linejoin="round" stroke-width="1"/>
        <line id="Línea_247" data-name="Línea 247" x2="8.371" transform="translate(243.976 65.112)" fill="none" stroke="#263238" stroke-linecap="round" stroke-linejoin="round" stroke-width="1"/>
        <line id="Línea_248" data-name="Línea 248" x2="8.371" transform="translate(243.976 66.972)" fill="none" stroke="#263238" stroke-linecap="round" stroke-linejoin="round" stroke-width="1"/>
        <line id="Línea_249" data-name="Línea 249" x2="8.371" transform="translate(243.976 68.833)" fill="none" stroke="#263238" stroke-linecap="round" stroke-linejoin="round" stroke-width="1"/>
        <line id="Línea_250" data-name="Línea 250" x2="8.371" transform="translate(193.193 54.671)" fill="none" stroke="#263238" stroke-linecap="round" stroke-linejoin="round" stroke-width="1"/>
        <line id="Línea_251" data-name="Línea 251" x2="8.371" transform="translate(193.193 56.531)" fill="none" stroke="#263238" stroke-linecap="round" stroke-linejoin="round" stroke-width="1"/>
        <line id="Línea_252" data-name="Línea 252" x2="8.371" transform="translate(193.193 58.391)" fill="none" stroke="#263238" stroke-linecap="round" stroke-linejoin="round" stroke-width="1"/>
        <g id="Grupo_1095624" data-name="Grupo 1095624">
          <g id="Grupo_1095623" data-name="Grupo 1095623" clip-path="url(#clip-path)">
            <path id="Trazado_836199" data-name="Trazado 836199" d="M564.879,60.779a19.459,19.459,0,1,0,19.459,19.459,19.459,19.459,0,0,0-19.459-19.459m0,27.271a7.812,7.812,0,1,1,7.812-7.812,7.812,7.812,0,0,1-7.812,7.812" transform="translate(-324.78 -36.192)" fill="#fff"/>
            <path id="Trazado_836200" data-name="Trazado 836200" d="M564.879,60.779a19.459,19.459,0,1,0,19.459,19.459A19.459,19.459,0,0,0,564.879,60.779Zm0,27.271a7.812,7.812,0,1,1,7.812-7.812A7.812,7.812,0,0,1,564.879,88.05Z" transform="translate(-324.78 -36.192)" fill="none" stroke="#263238" stroke-linecap="round" stroke-linejoin="round" stroke-width="1"/>
            <path id="Trazado_836201" data-name="Trazado 836201" d="M572.564,76.4,558.325,58.124l8.543-3.8Z" transform="translate(-332.464 -32.35)" fill="#92e3a9"/>
            <path id="Trazado_836202" data-name="Trazado 836202" d="M572.564,76.4,558.325,58.124l8.543-3.8Z" transform="translate(-332.464 -32.35)" fill="none" stroke="#263238" stroke-linecap="round" stroke-linejoin="round" stroke-width="1"/>
            <path id="Trazado_836203" data-name="Trazado 836203" d="M566.975,108.882,548.94,124.307l4.271,3.322Z" transform="translate(-326.876 -64.836)" fill="#92e3a9"/>
            <path id="Trazado_836204" data-name="Trazado 836204" d="M566.975,108.882,548.94,124.307l4.271,3.322Z" transform="translate(-326.876 -64.836)" fill="none" stroke="#263238" stroke-linecap="round" stroke-linejoin="round" stroke-width="1"/>
            <path id="Trazado_836205" data-name="Trazado 836205" d="M593.523,108.882l17.323,18.747,6.17-15.425Z" transform="translate(-353.423 -64.836)" fill="#92e3a9"/>
            <path id="Trazado_836206" data-name="Trazado 836206" d="M593.523,108.882l17.323,18.747,6.17-15.425Z" transform="translate(-353.423 -64.836)" fill="none" stroke="#263238" stroke-linecap="round" stroke-linejoin="round" stroke-width="1"/>
            <path id="Trazado_836207" data-name="Trazado 836207" d="M516.673,53.767l-1.187-2.373h-29.9V56.14" transform="translate(-289.151 -30.603)" fill="#fff"/>
            <path id="Trazado_836208" data-name="Trazado 836208" d="M516.673,53.767l-1.187-2.373h-29.9V56.14" transform="translate(-289.151 -30.603)" fill="none" stroke="#263238" stroke-linecap="round" stroke-linejoin="round" stroke-width="1"/>
            <path id="Trazado_836209" data-name="Trazado 836209" d="M511.452,151.368l-2.373,2.373H485.586v-3.8" transform="translate(-289.15 -89.287)" fill="#fff"/>
            <path id="Trazado_836210" data-name="Trazado 836210" d="M511.452,151.368l-2.373,2.373H485.586v-3.8" transform="translate(-289.15 -89.287)" fill="none" stroke="#263238" stroke-linecap="round" stroke-linejoin="round" stroke-width="1"/>
            <line id="Línea_253" data-name="Línea 253" y2="10.916" transform="translate(254.1 56.149)" fill="#fff"/>
            <line id="Línea_254" data-name="Línea 254" y2="10.916" transform="translate(254.1 56.149)" fill="none" stroke="#263238" stroke-linecap="round" stroke-linejoin="round" stroke-width="1"/>
          </g>
        </g>
        <line id="Línea_255" data-name="Línea 255" x2="74.569" transform="translate(103.813 65.312)" fill="none" stroke="#263238" stroke-linecap="round" stroke-linejoin="round" stroke-width="1"/>
        <line id="Línea_256" data-name="Línea 256" y1="1.24" transform="translate(107.843 64.382)" fill="none" stroke="#263238" stroke-linecap="round" stroke-linejoin="round" stroke-width="1"/>
        <line id="Línea_257" data-name="Línea 257" y1="1.24" transform="translate(113.269 64.382)" fill="none" stroke="#263238" stroke-linecap="round" stroke-linejoin="round" stroke-width="1"/>
        <line id="Línea_258" data-name="Línea 258" y1="1.24" transform="translate(118.695 64.382)" fill="none" stroke="#263238" stroke-linecap="round" stroke-linejoin="round" stroke-width="1"/>
        <line id="Línea_259" data-name="Línea 259" y1="1.24" transform="translate(124.121 64.382)" fill="none" stroke="#263238" stroke-linecap="round" stroke-linejoin="round" stroke-width="1"/>
        <line id="Línea_260" data-name="Línea 260" y1="1.24" transform="translate(129.547 64.382)" fill="none" stroke="#263238" stroke-linecap="round" stroke-linejoin="round" stroke-width="1"/>
        <line id="Línea_261" data-name="Línea 261" y1="1.24" transform="translate(134.973 64.382)" fill="none" stroke="#263238" stroke-linecap="round" stroke-linejoin="round" stroke-width="1"/>
        <line id="Línea_262" data-name="Línea 262" y1="1.24" transform="translate(140.399 64.382)" fill="none" stroke="#263238" stroke-linecap="round" stroke-linejoin="round" stroke-width="1"/>
        <line id="Línea_263" data-name="Línea 263" y1="1.24" transform="translate(145.825 64.382)" fill="none" stroke="#263238" stroke-linecap="round" stroke-linejoin="round" stroke-width="1"/>
        <line id="Línea_264" data-name="Línea 264" y1="1.24" transform="translate(151.251 64.382)" fill="none" stroke="#263238" stroke-linecap="round" stroke-linejoin="round" stroke-width="1"/>
        <line id="Línea_265" data-name="Línea 265" y1="1.24" transform="translate(156.677 64.382)" fill="none" stroke="#263238" stroke-linecap="round" stroke-linejoin="round" stroke-width="1"/>
        <line id="Línea_266" data-name="Línea 266" y1="1.24" transform="translate(162.103 64.382)" fill="none" stroke="#263238" stroke-linecap="round" stroke-linejoin="round" stroke-width="1"/>
        <line id="Línea_267" data-name="Línea 267" y1="1.24" transform="translate(167.529 64.382)" fill="none" stroke="#263238" stroke-linecap="round" stroke-linejoin="round" stroke-width="1"/>
        <line id="Línea_268" data-name="Línea 268" y1="1.24" transform="translate(172.955 64.382)" fill="none" stroke="#263238" stroke-linecap="round" stroke-linejoin="round" stroke-width="1"/>
        <path id="Trazado_836211" data-name="Trazado 836211" d="M271.953,136.8l5.891-2.326,5.116,2.171,6.511-4.651,4.961-4.651,5.116,8.371,5.581-2.79,5.271,4.341,5.116-7.907L321.1,138.5l5.891-2.325,5.426-4.186" transform="translate(-161.939 -75.828)" fill="none" stroke="#263238" stroke-linecap="round" stroke-linejoin="round" stroke-width="1"/>
        <path id="Trazado_836212" data-name="Trazado 836212" d="M271.953,132.876l5.891-2.325,5.116-5.891,6.511,3.411,4.961,1.705,5.116,7.286,5.581,5.581,5.271-9.3,5.116,2.325,5.581-1.085,5.891-6.666,5.426.155" transform="translate(-161.939 -74.231)" fill="none" stroke="#92e3a9" stroke-linecap="round" stroke-linejoin="round" stroke-width="1"/>
        <rect id="Rectángulo_387307" data-name="Rectángulo 387307" width="3.267" height="16.539" transform="translate(103.73 29.092)" fill="#92e3a9"/>
        <rect id="Rectángulo_387308" data-name="Rectángulo 387308" width="3.267" height="16.539" transform="translate(103.73 29.092)" fill="none" stroke="#263238" stroke-linecap="round" stroke-linejoin="round" stroke-width="1"/>
        <rect id="Rectángulo_387309" data-name="Rectángulo 387309" width="3.267" height="10.263" transform="translate(108.504 35.368)" fill="#fff"/>
        <rect id="Rectángulo_387310" data-name="Rectángulo 387310" width="3.267" height="10.263" transform="translate(108.504 35.368)" fill="none" stroke="#263238" stroke-linecap="round" stroke-linejoin="round" stroke-width="1"/>
        <rect id="Rectángulo_387311" data-name="Rectángulo 387311" width="3.267" height="9.155" transform="translate(113.278 36.476)" fill="#92e3a9"/>
        <rect id="Rectángulo_387312" data-name="Rectángulo 387312" width="3.267" height="9.155" transform="translate(113.278 36.476)" fill="none" stroke="#263238" stroke-linecap="round" stroke-linejoin="round" stroke-width="1"/>
        <rect id="Rectángulo_387313" data-name="Rectángulo 387313" width="3.267" height="11.74" transform="translate(118.052 33.892)" fill="#fff"/>
        <rect id="Rectángulo_387314" data-name="Rectángulo 387314" width="3.267" height="11.74" transform="translate(118.052 33.892)" fill="none" stroke="#263238" stroke-linecap="round" stroke-linejoin="round" stroke-width="1"/>
        <rect id="Rectángulo_387315" data-name="Rectángulo 387315" width="3.267" height="12.109" transform="translate(122.827 33.522)" fill="#92e3a9"/>
        <rect id="Rectángulo_387316" data-name="Rectángulo 387316" width="3.267" height="12.109" transform="translate(122.827 33.522)" fill="none" stroke="#263238" stroke-linecap="round" stroke-linejoin="round" stroke-width="1"/>
        <rect id="Rectángulo_387317" data-name="Rectángulo 387317" width="3.267" height="20.354" transform="translate(127.601 25.278)" fill="#fff"/>
        <rect id="Rectángulo_387318" data-name="Rectángulo 387318" width="3.267" height="20.354" transform="translate(127.601 25.278)" fill="none" stroke="#263238" stroke-linecap="round" stroke-linejoin="round" stroke-width="1"/>
        <rect id="Rectángulo_387319" data-name="Rectángulo 387319" width="3.267" height="11.124" transform="translate(132.375 34.507)" fill="#92e3a9"/>
        <rect id="Rectángulo_387320" data-name="Rectángulo 387320" width="3.267" height="11.124" transform="translate(132.375 34.507)" fill="none" stroke="#263238" stroke-linecap="round" stroke-linejoin="round" stroke-width="1"/>
        <rect id="Rectángulo_387321" data-name="Rectángulo 387321" width="3.267" height="14.324" transform="translate(137.15 31.307)" fill="#fff"/>
        <rect id="Rectángulo_387322" data-name="Rectángulo 387322" width="3.267" height="14.324" transform="translate(137.15 31.307)" fill="none" stroke="#263238" stroke-linecap="round" stroke-linejoin="round" stroke-width="1"/>
        <rect id="Rectángulo_387323" data-name="Rectángulo 387323" width="3.267" height="6.941" transform="translate(141.924 38.691)" fill="#92e3a9"/>
        <rect id="Rectángulo_387324" data-name="Rectángulo 387324" width="3.267" height="6.941" transform="translate(141.924 38.691)" fill="none" stroke="#263238" stroke-linecap="round" stroke-linejoin="round" stroke-width="1"/>
        <rect id="Rectángulo_387325" data-name="Rectángulo 387325" width="21.129" height="2.466" transform="translate(158.958 26.948)" fill="#fff"/>
        <rect id="Rectángulo_387326" data-name="Rectángulo 387326" width="21.129" height="2.466" transform="translate(158.958 26.948)" fill="none" stroke="#263238" stroke-linecap="round" stroke-linejoin="round" stroke-width="1"/>
        <rect id="Rectángulo_387327" data-name="Rectángulo 387327" width="21.129" height="2.466" transform="translate(158.958 31.002)" fill="#fff"/>
        <rect id="Rectángulo_387328" data-name="Rectángulo 387328" width="21.129" height="2.466" transform="translate(158.958 31.002)" fill="none" stroke="#263238" stroke-linecap="round" stroke-linejoin="round" stroke-width="1"/>
        <rect id="Rectángulo_387329" data-name="Rectángulo 387329" width="21.129" height="2.466" transform="translate(158.958 35.056)" fill="#fff"/>
        <rect id="Rectángulo_387330" data-name="Rectángulo 387330" width="21.129" height="2.466" transform="translate(158.958 35.056)" fill="none" stroke="#263238" stroke-linecap="round" stroke-linejoin="round" stroke-width="1"/>
        <rect id="Rectángulo_387331" data-name="Rectángulo 387331" width="21.129" height="2.466" transform="translate(158.958 39.111)" fill="#fff"/>
        <rect id="Rectángulo_387332" data-name="Rectángulo 387332" width="21.129" height="2.466" transform="translate(158.958 39.111)" fill="none" stroke="#263238" stroke-linecap="round" stroke-linejoin="round" stroke-width="1"/>
        <rect id="Rectángulo_387333" data-name="Rectángulo 387333" width="21.129" height="2.466" transform="translate(158.958 43.165)" fill="#fff"/>
        <rect id="Rectángulo_387334" data-name="Rectángulo 387334" width="21.129" height="2.466" transform="translate(158.958 43.165)" fill="none" stroke="#263238" stroke-linecap="round" stroke-linejoin="round" stroke-width="1"/>
        <rect id="Rectángulo_387335" data-name="Rectángulo 387335" width="12.757" height="2.466" transform="translate(158.958 26.948)" fill="#92e3a9"/>
        <rect id="Rectángulo_387336" data-name="Rectángulo 387336" width="12.757" height="2.466" transform="translate(158.958 26.948)" fill="none" stroke="#263238" stroke-linecap="round" stroke-linejoin="round" stroke-width="1"/>
        <rect id="Rectángulo_387337" data-name="Rectángulo 387337" width="8.416" height="2.466" transform="translate(158.958 31.002)" fill="#92e3a9"/>
        <rect id="Rectángulo_387338" data-name="Rectángulo 387338" width="8.416" height="2.466" transform="translate(158.958 31.002)" fill="none" stroke="#263238" stroke-linecap="round" stroke-linejoin="round" stroke-width="1"/>
        <rect id="Rectángulo_387339" data-name="Rectángulo 387339" width="18.493" height="2.466" transform="translate(158.958 35.056)" fill="#92e3a9"/>
        <rect id="Rectángulo_387340" data-name="Rectángulo 387340" width="18.493" height="2.466" transform="translate(158.958 35.056)" fill="none" stroke="#263238" stroke-linecap="round" stroke-linejoin="round" stroke-width="1"/>
        <rect id="Rectángulo_387341" data-name="Rectángulo 387341" width="16.788" height="2.466" transform="translate(158.958 39.111)" fill="#92e3a9"/>
        <rect id="Rectángulo_387342" data-name="Rectángulo 387342" width="16.788" height="2.466" transform="translate(158.958 39.111)" fill="none" stroke="#263238" stroke-linecap="round" stroke-linejoin="round" stroke-width="1"/>
        <rect id="Rectángulo_387343" data-name="Rectángulo 387343" width="13.997" height="2.466" transform="translate(158.958 43.165)" fill="#92e3a9"/>
        <rect id="Rectángulo_387344" data-name="Rectángulo 387344" width="13.997" height="2.466" transform="translate(158.958 43.165)" fill="none" stroke="#263238" stroke-linecap="round" stroke-linejoin="round" stroke-width="1"/>
        <line id="Línea_269" data-name="Línea 269" x2="8.371" transform="translate(103.73 20.974)" fill="none" stroke="#263238" stroke-linecap="round" stroke-linejoin="round" stroke-width="1"/>
        <line id="Línea_270" data-name="Línea 270" x2="8.371" transform="translate(103.73 22.834)" fill="none" stroke="#263238" stroke-linecap="round" stroke-linejoin="round" stroke-width="1"/>
        <line id="Línea_271" data-name="Línea 271" x2="8.371" transform="translate(103.73 24.694)" fill="none" stroke="#263238" stroke-linecap="round" stroke-linejoin="round" stroke-width="1"/>
        <line id="Línea_272" data-name="Línea 272" x2="8.371" transform="translate(159.097 20.974)" fill="none" stroke="#263238" stroke-linecap="round" stroke-linejoin="round" stroke-width="1"/>
        <line id="Línea_273" data-name="Línea 273" x2="8.371" transform="translate(159.097 22.834)" fill="none" stroke="#263238" stroke-linecap="round" stroke-linejoin="round" stroke-width="1"/>
        <line id="Línea_274" data-name="Línea 274" x2="8.371" transform="translate(159.097 24.694)" fill="none" stroke="#263238" stroke-linecap="round" stroke-linejoin="round" stroke-width="1"/>
        <line id="Línea_275" data-name="Línea 275" x2="8.371" transform="translate(73.893 50.271)" fill="none" stroke="#263238" stroke-linecap="round" stroke-linejoin="round" stroke-width="1"/>
        <line id="Línea_276" data-name="Línea 276" x2="8.371" transform="translate(73.893 52.131)" fill="none" stroke="#263238" stroke-linecap="round" stroke-linejoin="round" stroke-width="1"/>
        <line id="Línea_277" data-name="Línea 277" x2="8.371" transform="translate(73.893 53.992)" fill="none" stroke="#263238" stroke-linecap="round" stroke-linejoin="round" stroke-width="1"/>
        <line id="Línea_278" data-name="Línea 278" x2="8.371" transform="translate(19.612 24.209)" fill="none" stroke="#263238" stroke-linecap="round" stroke-linejoin="round" stroke-width="1"/>
        <line id="Línea_279" data-name="Línea 279" x2="8.371" transform="translate(19.612 26.069)" fill="none" stroke="#263238" stroke-linecap="round" stroke-linejoin="round" stroke-width="1"/>
        <line id="Línea_280" data-name="Línea 280" x2="8.371" transform="translate(19.612 27.93)" fill="none" stroke="#263238" stroke-linecap="round" stroke-linejoin="round" stroke-width="1"/>
        <path id="Trazado_836213" data-name="Trazado 836213" d="M64.494,121.876V93.043h52" transform="translate(-38.404 -55.404)" fill="none" stroke="#263238" stroke-linecap="round" stroke-linejoin="round" stroke-width="1"/>
        <line id="Línea_281" data-name="Línea 281" y2="12.696" transform="translate(78.122 31.351)" fill="none" stroke="#263238" stroke-linecap="round" stroke-linejoin="round" stroke-width="1"/>
        <line id="Línea_282" data-name="Línea 282" y2="4.494" transform="translate(60.544 37.809)" fill="none" stroke="#263238" stroke-linecap="round" stroke-linejoin="round" stroke-width="1"/>
        <line id="Línea_283" data-name="Línea 283" y2="4.494" transform="translate(53.175 32.956)" fill="none" stroke="#263238" stroke-linecap="round" stroke-linejoin="round" stroke-width="1"/>
        <line id="Línea_284" data-name="Línea 284" y2="4.494" transform="translate(43.469 37.809)" fill="none" stroke="#263238" stroke-linecap="round" stroke-linejoin="round" stroke-width="1"/>
        <rect id="Rectángulo_387345" data-name="Rectángulo 387345" width="17.086" height="8.78" transform="translate(44.931 23.875)" fill="#92e3a9"/>
        <rect id="Rectángulo_387346" data-name="Rectángulo 387346" width="17.086" height="8.78" transform="translate(44.931 23.875)" fill="none" stroke="#263238" stroke-linecap="round" stroke-linejoin="round" stroke-width="1"/>
        <rect id="Rectángulo_387347" data-name="Rectángulo 387347" width="14.315" height="7.356" transform="translate(18.933 40.012)" fill="#fff"/>
        <rect id="Rectángulo_387348" data-name="Rectángulo 387348" width="14.315" height="7.356" transform="translate(18.933 40.012)" fill="none" stroke="#263238" stroke-linecap="round" stroke-linejoin="round" stroke-width="1"/>
        <rect id="Rectángulo_387349" data-name="Rectángulo 387349" width="14.315" height="7.356" transform="translate(18.933 51.403)" fill="#92e3a9"/>
        <rect id="Rectángulo_387350" data-name="Rectángulo 387350" width="14.315" height="7.356" transform="translate(18.933 51.403)" fill="none" stroke="#263238" stroke-linecap="round" stroke-linejoin="round" stroke-width="1"/>
        <rect id="Rectángulo_387351" data-name="Rectángulo 387351" width="14.315" height="7.356" transform="translate(18.933 62.793)" fill="#fff"/>
        <rect id="Rectángulo_387352" data-name="Rectángulo 387352" width="14.315" height="7.356" transform="translate(18.933 62.793)" fill="none" stroke="#263238" stroke-linecap="round" stroke-linejoin="round" stroke-width="1"/>
        <rect id="Rectángulo_387353" data-name="Rectángulo 387353" width="14.315" height="7.356" transform="translate(36.276 40.012)" fill="#fff"/>
        <rect id="Rectángulo_387354" data-name="Rectángulo 387354" width="14.315" height="7.356" transform="translate(36.276 40.012)" fill="none" stroke="#263238" stroke-linecap="round" stroke-linejoin="round" stroke-width="1"/>
        <rect id="Rectángulo_387355" data-name="Rectángulo 387355" width="14.315" height="7.356" transform="translate(53.621 40.012)" fill="#92e3a9"/>
        <rect id="Rectángulo_387356" data-name="Rectángulo 387356" width="14.315" height="7.356" transform="translate(53.621 40.012)" fill="none" stroke="#263238" stroke-linecap="round" stroke-linejoin="round" stroke-width="1"/>
        <rect id="Rectángulo_387357" data-name="Rectángulo 387357" width="14.315" height="7.356" transform="translate(70.965 40.012)" fill="#fff"/>
        <rect id="Rectángulo_387358" data-name="Rectángulo 387358" width="14.315" height="7.356" transform="translate(70.965 40.012)" fill="none" stroke="#263238" stroke-linecap="round" stroke-linejoin="round" stroke-width="1"/>
        <rect id="Rectángulo_387359" data-name="Rectángulo 387359" width="14.315" height="7.356" transform="translate(70.965 27.672)" fill="#92e3a9"/>
        <rect id="Rectángulo_387360" data-name="Rectángulo 387360" width="14.315" height="7.356" transform="translate(70.965 27.672)" fill="none" stroke="#263238" stroke-linecap="round" stroke-linejoin="round" stroke-width="1"/>
        <g id="Grupo_1095626" data-name="Grupo 1095626">
          <g id="Grupo_1095625" data-name="Grupo 1095625" clip-path="url(#clip-path)">
            <path id="Trazado_836214" data-name="Trazado 836214" d="M530.618,209.772s-2.117-6.718-2.117-6.856a18.383,18.383,0,0,0-.69-3.083,13.7,13.7,0,0,0-2.025-2.025l-.736,8.237,1.2,1.242,1.15,1.059.323,3.313Z" transform="translate(-312.65 -117.788)" fill="#fff"/>
            <path id="Trazado_836215" data-name="Trazado 836215" d="M530.618,209.772s-2.117-6.718-2.117-6.856a18.383,18.383,0,0,0-.69-3.083,13.7,13.7,0,0,0-2.025-2.025l-.736,8.237,1.2,1.242,1.15,1.059.323,3.313Z" transform="translate(-312.65 -117.788)" fill="none" stroke="#263238" stroke-linecap="round" stroke-linejoin="round" stroke-width="1"/>
            <rect id="Rectángulo_387361" data-name="Rectángulo 387361" width="5.044" height="10.674" transform="translate(208.382 78.236) rotate(-6.113)" fill="#263238"/>
            <rect id="Rectángulo_387362" data-name="Rectángulo 387362" width="5.044" height="10.674" transform="translate(208.382 78.236) rotate(-6.113)" fill="none" stroke="#263238" stroke-linecap="round" stroke-linejoin="round" stroke-width="1"/>
            <path id="Trazado_836216" data-name="Trazado 836216" d="M528.481,207.233a28.6,28.6,0,0,0-.828-2.991,30.2,30.2,0,0,1-1.933-2.439c-.46-.874-1.013-.092-1.013.966a1.916,1.916,0,0,0,1.1,1.565,18.261,18.261,0,0,0,.553,2.991,12.1,12.1,0,0,0,1.013,1.059" transform="translate(-312.446 -119.943)" fill="#fff"/>
            <path id="Trazado_836217" data-name="Trazado 836217" d="M528.481,207.233a28.6,28.6,0,0,0-.828-2.991,30.2,30.2,0,0,1-1.933-2.439c-.46-.874-1.013-.092-1.013.966a1.916,1.916,0,0,0,1.1,1.565,18.261,18.261,0,0,0,.553,2.991,12.1,12.1,0,0,0,1.013,1.059" transform="translate(-312.446 -119.943)" fill="none" stroke="#263238" stroke-linecap="round" stroke-linejoin="round" stroke-width="1"/>
            <path id="Trazado_836218" data-name="Trazado 836218" d="M539.347,178.98s-.871,1.96-.508,2.759a2.436,2.436,0,0,1-.508,2.324c-.436.581-.871,1.161-.363,1.67s.944.871.944.871.653,3.558,1.234,3.921,2.759.073,2.759.073l.436,3.122,8.06-1.743-1.452-5.228s-1.162-6.1-3.267-8.422-6.39-.581-7.333.653" transform="translate(-320.206 -105.508)" fill="#fff"/>
            <path id="Trazado_836219" data-name="Trazado 836219" d="M539.347,178.98s-.871,1.96-.508,2.759a2.436,2.436,0,0,1-.508,2.324c-.436.581-.871,1.161-.363,1.67s.944.871.944.871.653,3.558,1.234,3.921,2.759.073,2.759.073l.436,3.122,8.06-1.743-1.452-5.228s-1.162-6.1-3.267-8.422S540.291,177.746,539.347,178.98Z" transform="translate(-320.206 -105.508)" fill="none" stroke="#263238" stroke-linecap="round" stroke-linejoin="round" stroke-width="1"/>
            <path id="Trazado_836220" data-name="Trazado 836220" d="M544.941,207.809s-.073-.072.581-.363a6.479,6.479,0,0,0,1.525-1.235l.145,1.67s-1.743-.072-2.251-.072" transform="translate(-324.493 -122.792)" fill="#263238"/>
            <path id="Trazado_836221" data-name="Trazado 836221" d="M544.941,207.809s-.073-.072.581-.363a6.479,6.479,0,0,0,1.525-1.235l.145,1.67S545.45,207.809,544.941,207.809Z" transform="translate(-324.493 -122.792)" fill="none" stroke="#263238" stroke-linecap="round" stroke-linejoin="round" stroke-width="1"/>
            <path id="Trazado_836222" data-name="Trazado 836222" d="M540.907,168.208a3.742,3.742,0,0,0-3.049.944c-1.67,1.307-2.251,3.122-1.67,3.413a13.114,13.114,0,0,0,3.049.29s-.29,1.089.218,1.6a1.956,1.956,0,0,0,.944.581s-.29,1.162,0,1.379c0,0,.653-1.234,1.016-1.161s.654,1.525.654,2.106a7.126,7.126,0,0,0,1.234,3.049,6,6,0,0,0,3.848,1.452,4.822,4.822,0,0,0,2.251-1.089c.073-.218,2.469-2.614,2.614-4.937s.436-4.937-1.525-6.462-3.412-2.614-3.412-2.614-1.452-1.379-2.178-1.016a4.333,4.333,0,0,0-1.307,1.161,2.7,2.7,0,0,0-3.049-.29c-1.67.944.363,1.6.363,1.6" transform="translate(-319.152 -98.656)" fill="#263238"/>
            <path id="Trazado_836223" data-name="Trazado 836223" d="M540.907,168.208a3.742,3.742,0,0,0-3.049.944c-1.67,1.307-2.251,3.122-1.67,3.413a13.114,13.114,0,0,0,3.049.29s-.29,1.089.218,1.6a1.956,1.956,0,0,0,.944.581s-.29,1.162,0,1.379c0,0,.653-1.234,1.016-1.161s.654,1.525.654,2.106a7.126,7.126,0,0,0,1.234,3.049,6,6,0,0,0,3.848,1.452,4.822,4.822,0,0,0,2.251-1.089c.073-.218,2.469-2.614,2.614-4.937s.436-4.937-1.525-6.462-3.412-2.614-3.412-2.614-1.452-1.379-2.178-1.016a4.333,4.333,0,0,0-1.307,1.161,2.7,2.7,0,0,0-3.049-.29C538.874,167.554,540.907,168.208,540.907,168.208Z" transform="translate(-319.152 -98.656)" fill="none" stroke="#263238" stroke-linecap="round" stroke-linejoin="round" stroke-width="1"/>
            <path id="Trazado_836224" data-name="Trazado 836224" d="M549.551,194.546s.073,1.307-.29,1.6a.761.761,0,0,1-.726.145" transform="translate(-326.634 -115.846)" fill="none" stroke="#263238" stroke-linecap="round" stroke-linejoin="round" stroke-width="1"/>
            <path id="Trazado_836225" data-name="Trazado 836225" d="M546.565,212.781l-.363,2.468s4.211-1.452,6.462-2.178a17.344,17.344,0,0,1,5.736-.363l-.944-2.468a10.186,10.186,0,0,0-5.01.29c-2.251.871-5.881,2.251-5.881,2.251" transform="translate(-325.245 -125.078)" fill="#3ee2a8"/>
            <path id="Trazado_836226" data-name="Trazado 836226" d="M546.565,212.781l-.363,2.468s4.211-1.452,6.462-2.178a17.344,17.344,0,0,1,5.736-.363l-.944-2.468a10.186,10.186,0,0,0-5.01.29C550.2,211.4,546.565,212.781,546.565,212.781Z" transform="translate(-325.245 -125.078)" fill="none" stroke="#263238" stroke-linecap="round" stroke-linejoin="round" stroke-width="1"/>
            <path id="Trazado_836227" data-name="Trazado 836227" d="M533.078,291.106s-1.742,14.231-.29,23.379,4.138,19.821,5.228,23.887a55.8,55.8,0,0,1,1.379,9.511s-.581.508-.581.871a11.822,11.822,0,0,0,.072,1.67c.073.218-1.016,1.089-2.4,1.815s-3.267,1.017-3.34,1.6-.218.508,2.468,1.379,8.35.145,8.35.145a9.369,9.369,0,0,0,2.614.072,1.023,1.023,0,0,0,.654-.944,17.689,17.689,0,0,0,3.7.145c.871-.218.8-1.742.653-3.122s-.944-10.092-.8-14.739-1.96-14.957-1.96-14.957l2.832-18.732s.871-6.534.436-8.567a17.654,17.654,0,0,1-.436-3.34Z" transform="translate(-316.913 -173.344)" fill="#273a89"/>
            <path id="Trazado_836228" data-name="Trazado 836228" d="M533.078,291.106s-1.742,14.231-.29,23.379,4.138,19.821,5.228,23.887a55.8,55.8,0,0,1,1.379,9.511s-.581.508-.581.871a11.822,11.822,0,0,0,.072,1.67c.073.218-1.016,1.089-2.4,1.815s-3.267,1.017-3.34,1.6-.218.508,2.468,1.379,8.35.145,8.35.145a9.369,9.369,0,0,0,2.614.072,1.023,1.023,0,0,0,.654-.944,17.689,17.689,0,0,0,3.7.145c.871-.218.8-1.742.653-3.122s-.944-10.092-.8-14.739-1.96-14.957-1.96-14.957l2.832-18.732s.871-6.534.436-8.567a17.654,17.654,0,0,1-.436-3.34Z" transform="translate(-316.913 -173.344)" fill="none" stroke="#263238" stroke-linecap="round" stroke-linejoin="round" stroke-width="1"/>
            <path id="Trazado_836229" data-name="Trazado 836229" d="M563.38,324.31l-2.468,1.815s-1.452,12.924-.581,17.425,2.178,6.752,2.178,13.432,1.016,15.683,1.016,15.683" transform="translate(-333.492 -193.116)" fill="none" stroke="#fff" stroke-linecap="round" stroke-linejoin="round" stroke-width="1"/>
            <path id="Trazado_836230" data-name="Trazado 836230" d="M533.889,218.7s-7.479,3.195-7.406,3.921-2.178,23.161-2.178,23.161a4.505,4.505,0,0,0,2.4,1.017,6.54,6.54,0,0,0,2.977,0s1.452,1.307,7.7,1.307,9.366-1.016,9.584-1.6a11.232,11.232,0,0,0,.218-2.9c0-1.017,2.759-16.554,2.831-16.917s.581-6.1.218-7.406-4.865-2.977-4.865-2.977a26.984,26.984,0,0,0-5.518-.145,11.515,11.515,0,0,0-5.953,2.541" transform="translate(-312.206 -128.675)" fill="#3ee2a8"/>
            <path id="Trazado_836231" data-name="Trazado 836231" d="M533.889,218.7s-7.479,3.195-7.406,3.921-2.178,23.161-2.178,23.161a4.505,4.505,0,0,0,2.4,1.017,6.54,6.54,0,0,0,2.977,0s1.452,1.307,7.7,1.307,9.366-1.016,9.584-1.6a11.232,11.232,0,0,0,.218-2.9c0-1.017,2.759-16.554,2.831-16.917s.581-6.1.218-7.406-4.865-2.977-4.865-2.977a26.984,26.984,0,0,0-5.518-.145A11.515,11.515,0,0,0,533.889,218.7Z" transform="translate(-312.206 -128.675)" fill="none" stroke="#263238" stroke-linecap="round" stroke-linejoin="round" stroke-width="1"/>
            <line id="Línea_285" data-name="Línea 285" y1="1.127" x2="0.283" transform="translate(221.908 99.32)" fill="none" stroke="#263238" stroke-linecap="round" stroke-linejoin="round" stroke-width="1"/>
            <line id="Línea_286" data-name="Línea 286" y1="16.14" x2="4.051" transform="translate(217.471 101.985)" fill="none" stroke="#263238" stroke-linecap="round" stroke-linejoin="round" stroke-width="1"/>
            <path id="Trazado_836232" data-name="Trazado 836232" d="M567.019,249.465c-1.017,1.659-2.56,4.091-3.946,5.954" transform="translate(-335.291 -148.548)" fill="none" stroke="#263238" stroke-linecap="round" stroke-linejoin="round" stroke-width="1"/>
            <path id="Trazado_836233" data-name="Trazado 836233" d="M574.782,244.8s-.217.371-.58.973" transform="translate(-341.918 -145.77)" fill="none" stroke="#263238" stroke-linecap="round" stroke-linejoin="round" stroke-width="1"/>
            <path id="Trazado_836234" data-name="Trazado 836234" d="M564.553,259.159s-3.776,3.993-3.993,4.211" transform="translate(-333.795 -154.321)" fill="none" stroke="#263238" stroke-linecap="round" stroke-linejoin="round" stroke-width="1"/>
            <path id="Trazado_836235" data-name="Trazado 836235" d="M523.408,293.439s.145,12.924.29,14.013.508,3.412.653,4.429.29,2.178.581,2.323,1.6,1.089,2.033,1.017,1.017-.436.871-.944-.871-.654-.871-.654a12.429,12.429,0,0,1,.073-2.178,4.337,4.337,0,0,0,.073-2.614A14.6,14.6,0,0,0,526.022,306l2.541-11.4Z" transform="translate(-311.672 -174.733)" fill="#fff"/>
            <path id="Trazado_836236" data-name="Trazado 836236" d="M523.408,293.439s.145,12.924.29,14.013.508,3.412.653,4.429.29,2.178.581,2.323,1.6,1.089,2.033,1.017,1.017-.436.871-.944-.871-.654-.871-.654a12.429,12.429,0,0,1,.073-2.178,4.337,4.337,0,0,0,.073-2.614A14.6,14.6,0,0,0,526.022,306l2.541-11.4Z" transform="translate(-311.672 -174.733)" fill="none" stroke="#263238" stroke-linecap="round" stroke-linejoin="round" stroke-width="1"/>
            <path id="Trazado_836237" data-name="Trazado 836237" d="M522.194,282.85a8.249,8.249,0,0,0,3.122,1.525,11.417,11.417,0,0,0,3.776.29,19.515,19.515,0,0,1-.654,3.776c-.363.653-1.742.871-3.63.218s-2.614-.944-2.686-1.379.072-4.429.072-4.429" transform="translate(-310.894 -168.428)" fill="#fff"/>
            <path id="Trazado_836238" data-name="Trazado 836238" d="M522.194,282.85a8.249,8.249,0,0,0,3.122,1.525,11.417,11.417,0,0,0,3.776.29,19.515,19.515,0,0,1-.654,3.776c-.363.653-1.742.871-3.63.218s-2.614-.944-2.686-1.379S522.194,282.85,522.194,282.85Z" transform="translate(-310.894 -168.428)" fill="none" stroke="#263238" stroke-linecap="round" stroke-linejoin="round" stroke-width="1"/>
          </g>
        </g>
        <g id="Grupo_1095628" data-name="Grupo 1095628">
          <g id="Grupo_1095627" data-name="Grupo 1095627" clip-path="url(#clip-path)">
            <path id="Trazado_836239" data-name="Trazado 836239" d="M437.822,347.225s.709,6.243.9,7.345l.466,2.644a48.625,48.625,0,0,0,.965,12.56c1.4,5.582,3.11,11.532,3.091,12.119a10.067,10.067,0,0,1-.532,1.983,16.215,16.215,0,0,1-2.878,2.424c-1.205.661-2.013.661-2.094,1.175s1.083.588,1.388.514,6.757,0,6.757,0,1.3.147,1.487-.587a16.336,16.336,0,0,0-.1-4.04,19.63,19.63,0,0,1-.37-2.791c.035-.22-.444-13.074-.122-16.526a47.782,47.782,0,0,0-.452-8.814l.871-7.419Z" transform="translate(-260.66 -206.761)" fill="#fff"/>
            <path id="Trazado_836240" data-name="Trazado 836240" d="M437.822,347.225s.709,6.243.9,7.345l.466,2.644a48.625,48.625,0,0,0,.965,12.56c1.4,5.582,3.11,11.532,3.091,12.119a10.067,10.067,0,0,1-.532,1.983,16.215,16.215,0,0,1-2.878,2.424c-1.205.661-2.013.661-2.094,1.175s1.083.588,1.388.514,6.757,0,6.757,0,1.3.147,1.487-.587a16.336,16.336,0,0,0-.1-4.04,19.63,19.63,0,0,1-.37-2.791c.035-.22-.444-13.074-.122-16.526a47.782,47.782,0,0,0-.452-8.814l.871-7.419Z" transform="translate(-260.66 -206.761)" fill="none" stroke="#263238" stroke-linecap="round" stroke-linejoin="round" stroke-width="1"/>
            <path id="Trazado_836241" data-name="Trazado 836241" d="M440.669,442.268a6.772,6.772,0,0,1-.831.559c-1.205.661-2.013.661-2.094,1.175s1.083.587,1.388.514,6.757,0,6.757,0,1.3.147,1.488-.588a8.57,8.57,0,0,0,.083-1.773l-5.967.892Z" transform="translate(-260.66 -263.289)" fill="#263238"/>
            <path id="Trazado_836242" data-name="Trazado 836242" d="M440.669,442.268a6.772,6.772,0,0,1-.831.559c-1.205.661-2.013.661-2.094,1.175s1.083.587,1.388.514,6.757,0,6.757,0,1.3.147,1.488-.588a8.57,8.57,0,0,0,.083-1.773l-5.967.892Z" transform="translate(-260.66 -263.289)" fill="none" stroke="#263238" stroke-linecap="round" stroke-linejoin="round" stroke-width="1"/>
            <path id="Trazado_836243" data-name="Trazado 836243" d="M455.093,345.919s-1.448,4.61-1.28,6.813,3.438,26.68,3.552,28.3.734,3.746.831,4.994,1.142,1.616,1.83,1.91,2.3.808,2.655-1.469-1.988-5.582-2.205-6.537,1.375-11.091,1.6-14.837a44.749,44.749,0,0,0-.472-9.622,16.037,16.037,0,0,1-.381-2.717L464,345.772Z" transform="translate(-270.223 -205.896)" fill="#fff"/>
            <path id="Trazado_836244" data-name="Trazado 836244" d="M455.093,345.919s-1.448,4.61-1.28,6.813,3.438,26.68,3.552,28.3.734,3.746.831,4.994,1.142,1.616,1.83,1.91,2.3.808,2.655-1.469-1.988-5.582-2.205-6.537,1.375-11.091,1.6-14.837a44.749,44.749,0,0,0-.472-9.622,16.037,16.037,0,0,1-.381-2.717L464,345.772Z" transform="translate(-270.223 -205.896)" fill="none" stroke="#263238" stroke-linecap="round" stroke-linejoin="round" stroke-width="1"/>
            <path id="Trazado_836245" data-name="Trazado 836245" d="M469.006,441.765a6.184,6.184,0,0,0-.607-3.121,7.082,7.082,0,0,1-.191,1.652c-.2.367-1.646.661-2.307.661a4.547,4.547,0,0,1-1.479-.38c.045.269.082.526.1.747.1,1.248,1.142,1.616,1.83,1.909s2.3.808,2.655-1.469" transform="translate(-276.548 -261.198)" fill="#263238"/>
            <path id="Trazado_836246" data-name="Trazado 836246" d="M469.006,441.765a6.184,6.184,0,0,0-.607-3.121,7.082,7.082,0,0,1-.191,1.652c-.2.367-1.646.661-2.307.661a4.547,4.547,0,0,1-1.479-.38c.045.269.082.526.1.747.1,1.248,1.142,1.616,1.83,1.909S468.649,444.042,469.006,441.765Z" transform="translate(-276.548 -261.198)" fill="none" stroke="#263238" stroke-linecap="round" stroke-linejoin="round" stroke-width="1"/>
            <path id="Trazado_836247" data-name="Trazado 836247" d="M422.547,208.3a29.9,29.9,0,0,0-5-.244c-1.646.183-4.754.854-4.754.854l-6.4.365-4.266-2.742-2.56,3.291s3.413,4.084,5.059,4.571,10,.853,10,.853a20.731,20.731,0,0,0,.3,4.266c.366,1.158.426,8.471.487,9.873s-1.95,6.4-2.072,6.643-1.89,3.9-1.95,10.483,2.377,18.649,2.377,18.649h18.162a63.633,63.633,0,0,0,3.055-16.566c.182-8.167-1.531-11.713-2.689-15.065s-.366-5.058-.366-5.058-.731-2.011.183-5.79,2.926-7.5,3.047-8.471-7.862-5.3-7.862-5.3Z" transform="translate(-237.931 -122.982)" fill="#263238"/>
            <path id="Trazado_836248" data-name="Trazado 836248" d="M422.547,208.3a29.9,29.9,0,0,0-5-.244c-1.646.183-4.754.854-4.754.854l-6.4.365-4.266-2.742-2.56,3.291s3.413,4.084,5.059,4.571,10,.853,10,.853a20.731,20.731,0,0,0,.3,4.266c.366,1.158.426,8.471.487,9.873s-1.95,6.4-2.072,6.643-1.89,3.9-1.95,10.483,2.377,18.649,2.377,18.649h18.162a63.633,63.633,0,0,0,3.055-16.566c.182-8.167-1.531-11.713-2.689-15.065s-.366-5.058-.366-5.058-.731-2.011.183-5.79,2.926-7.5,3.047-8.471-7.862-5.3-7.862-5.3Z" transform="translate(-237.931 -122.982)" fill="none" stroke="#263238" stroke-linecap="round" stroke-linejoin="round" stroke-width="1"/>
            <path id="Trazado_836249" data-name="Trazado 836249" d="M450.825,209.91s-.792,1.036-1.158,1.585a48.781,48.781,0,0,0-1.585,4.876l3.413-.61,4.388,1.829s1.889-4.144,1.524-5.973a2.772,2.772,0,0,0-2.316-2.072Z" transform="translate(-266.818 -124.777)" fill="#fff"/>
            <path id="Trazado_836250" data-name="Trazado 836250" d="M450.825,209.91s-.792,1.036-1.158,1.585a48.781,48.781,0,0,0-1.585,4.876l3.413-.61,4.388,1.829s1.889-4.144,1.524-5.973a2.772,2.772,0,0,0-2.316-2.072Z" transform="translate(-266.818 -124.777)" fill="none" stroke="#263238" stroke-linecap="round" stroke-linejoin="round" stroke-width="1"/>
            <path id="Trazado_836251" data-name="Trazado 836251" d="M444.679,176.628a4.3,4.3,0,0,0-1.036,2.255,10.5,10.5,0,0,1-.244,2.621c-.243.366-2.377,1.95-2.255,2.316s1.341,1.28,1.341,1.28.61,3.6.975,3.779a7.4,7.4,0,0,0,2.133-.122,12.813,12.813,0,0,1,.975,2.133c.3.975.244,5.3.792,4.754s3.779-4.632,4.022-5.485a8.876,8.876,0,0,0,0-2.621,8.972,8.972,0,0,0,2.072-5.607c-.061-3.23-3.108-5.485-4.937-6.034a5.373,5.373,0,0,0-3.839.731" transform="translate(-262.684 -104.659)" fill="#fff"/>
            <path id="Trazado_836252" data-name="Trazado 836252" d="M444.679,176.628a4.3,4.3,0,0,0-1.036,2.255,10.5,10.5,0,0,1-.244,2.621c-.243.366-2.377,1.95-2.255,2.316s1.341,1.28,1.341,1.28.61,3.6.975,3.779a7.4,7.4,0,0,0,2.133-.122,12.813,12.813,0,0,1,.975,2.133c.3.975.244,5.3.792,4.754s3.779-4.632,4.022-5.485a8.876,8.876,0,0,0,0-2.621,8.972,8.972,0,0,0,2.072-5.607c-.061-3.23-3.108-5.485-4.937-6.034A5.373,5.373,0,0,0,444.679,176.628Z" transform="translate(-262.684 -104.659)" fill="none" stroke="#263238" stroke-linecap="round" stroke-linejoin="round" stroke-width="1"/>
            <path id="Trazado_836253" data-name="Trazado 836253" d="M448.585,169.518s-4.51,1.4-4.022,2.377,4.632,4.449,4.632,4.449l.67,1.1s-.183.914.244,1.1,1.4-1.462,1.4-1.462a1.9,1.9,0,0,1,1.585,2.194,3.313,3.313,0,0,1-1.158,2.56,11.57,11.57,0,0,0,1.463,1.95c.3.122,2.682-1.89,4.205-3.962s1.585-3.839.67-5.607-2.194-3.657-4.754-4.327a14.513,14.513,0,0,0-4.936-.366" transform="translate(-264.7 -100.901)" fill="#263238"/>
            <path id="Trazado_836254" data-name="Trazado 836254" d="M448.585,169.518s-4.51,1.4-4.022,2.377,4.632,4.449,4.632,4.449l.67,1.1s-.183.914.244,1.1,1.4-1.462,1.4-1.462a1.9,1.9,0,0,1,1.585,2.194,3.313,3.313,0,0,1-1.158,2.56,11.57,11.57,0,0,0,1.463,1.95c.3.122,2.682-1.89,4.205-3.962s1.585-3.839.67-5.607-2.194-3.657-4.754-4.327A14.513,14.513,0,0,0,448.585,169.518Z" transform="translate(-264.7 -100.901)" fill="none" stroke="#263238" stroke-linecap="round" stroke-linejoin="round" stroke-width="1"/>
            <path id="Trazado_836255" data-name="Trazado 836255" d="M476.617,178.039a3.139,3.139,0,0,1,1.463-1.158,3.369,3.369,0,0,1,3.23.548,6.5,6.5,0,0,1,.914,3.9,4.283,4.283,0,0,1-2.864,2.926,3.013,3.013,0,0,1-2.5-2.194,12.628,12.628,0,0,1-.244-4.022" transform="translate(-283.773 -105.217)" fill="#263238"/>
            <path id="Trazado_836256" data-name="Trazado 836256" d="M476.617,178.039a3.139,3.139,0,0,1,1.463-1.158,3.369,3.369,0,0,1,3.23.548,6.5,6.5,0,0,1,.914,3.9,4.283,4.283,0,0,1-2.864,2.926,3.013,3.013,0,0,1-2.5-2.194A12.628,12.628,0,0,1,476.617,178.039Z" transform="translate(-283.773 -105.217)" fill="none" stroke="#263238" stroke-linecap="round" stroke-linejoin="round" stroke-width="1"/>
            <path id="Trazado_836257" data-name="Trazado 836257" d="M446.877,199a3.343,3.343,0,0,0,1.4-.61" transform="translate(-266.101 -118.138)" fill="none" stroke="#263238" stroke-linecap="round" stroke-linejoin="round" stroke-width="1"/>
            <path id="Trazado_836258" data-name="Trazado 836258" d="M449.083,188.414c0,.354-.123.64-.274.64s-.274-.286-.274-.64.123-.64.274-.64.274.286.274.64" transform="translate(-267.087 -111.813)" fill="#263238"/>
            <path id="Trazado_836259" data-name="Trazado 836259" d="M448.685,185.54a.565.565,0,0,1,.975.122" transform="translate(-267.177 -110.341)" fill="none" stroke="#263238" stroke-linecap="round" stroke-linejoin="round" stroke-width="1"/>
            <path id="Trazado_836260" data-name="Trazado 836260" d="M460.335,199.783l-1.341-.183-.366,1.1" transform="translate(-273.098 -118.855)" fill="none" stroke="#263238" stroke-linecap="round" stroke-linejoin="round" stroke-width="1"/>
            <path id="Trazado_836261" data-name="Trazado 836261" d="M452.15,207.617l1.28-.183-.549,1.646Z" transform="translate(-269.24 -123.52)" fill="#263238"/>
            <path id="Trazado_836262" data-name="Trazado 836262" d="M452.15,207.617l1.28-.183-.549,1.646Z" transform="translate(-269.24 -123.52)" fill="none" stroke="#263238" stroke-linecap="round" stroke-linejoin="round" stroke-width="1"/>
            <path id="Trazado_836263" data-name="Trazado 836263" d="M482.082,225.513s.853-.183,1.524,5.485,1.074,11.628,1.28,12.007c.258.475-2.064,1.051-3.169,1.4a20.114,20.114,0,0,1-2.5.426l-.853-3.29,2.255-.792-1.585-6.765s1.89-6.7,3.047-8.471" transform="translate(-284.85 -134.285)" fill="#263238"/>
            <path id="Trazado_836264" data-name="Trazado 836264" d="M482.082,225.513s.853-.183,1.524,5.485,1.074,11.628,1.28,12.007c.258.475-2.064,1.051-3.169,1.4a20.114,20.114,0,0,1-2.5.426l-.853-3.29,2.255-.792-1.585-6.765S480.924,227.28,482.082,225.513Z" transform="translate(-284.85 -134.285)" fill="none" stroke="#263238" stroke-linecap="round" stroke-linejoin="round" stroke-width="1"/>
            <path id="Trazado_836265" data-name="Trazado 836265" d="M445.99,258.523l-1.524-3.6,2.438-.487,1.219,3.839Z" transform="translate(-264.665 -151.51)" fill="#fff"/>
            <path id="Trazado_836266" data-name="Trazado 836266" d="M445.99,258.523l-1.524-3.6,2.438-.487,1.219,3.839Z" transform="translate(-264.665 -151.51)" fill="none" stroke="#263238" stroke-linecap="round" stroke-linejoin="round" stroke-width="1"/>
            <path id="Trazado_836267" data-name="Trazado 836267" d="M456.957,262.814l-5.729.3a23.17,23.17,0,0,0-1.341-2.072c-.183-.122-2.072-.731-2.072-.731l.366,1.036-3.413.487a2.1,2.1,0,0,0,.244.975,1.144,1.144,0,0,0,.853.366,23.051,23.051,0,0,0,2.316,1.706,6.612,6.612,0,0,0,2.194.244l7.314.914Z" transform="translate(-264.845 -155.009)" fill="#fff"/>
            <path id="Trazado_836268" data-name="Trazado 836268" d="M456.957,262.814l-5.729.3a23.17,23.17,0,0,0-1.341-2.072c-.183-.122-2.072-.731-2.072-.731l.366,1.036-3.413.487a2.1,2.1,0,0,0,.244.975,1.144,1.144,0,0,0,.853.366,23.051,23.051,0,0,0,2.316,1.706,6.612,6.612,0,0,0,2.194.244l7.314.914Z" transform="translate(-264.845 -155.009)" fill="none" stroke="#263238" stroke-linecap="round" stroke-linejoin="round" stroke-width="1"/>
            <path id="Trazado_836269" data-name="Trazado 836269" d="M475.443,262.877l-2.8.853L474.407,268l2.316-.426Z" transform="translate(-281.441 -156.534)" fill="#fff"/>
            <path id="Trazado_836270" data-name="Trazado 836270" d="M475.443,262.877l-2.8.853L474.407,268l2.316-.426Z" transform="translate(-281.441 -156.534)" fill="none" stroke="#263238" stroke-linecap="round" stroke-linejoin="round" stroke-width="1"/>
            <path id="Trazado_836271" data-name="Trazado 836271" d="M382.445,186.68,374.1,179s-2.926-3.474-4.388-4.266-2.377-.792-2.133-.183a2.334,2.334,0,0,0,1.157.975l1.159,1.158a9.757,9.757,0,0,0,.3,2.986c.366.61,1.951.975,1.951.975l.975.366,6.582,8.776Z" transform="translate(-218.855 -103.68)" fill="#fff"/>
            <path id="Trazado_836272" data-name="Trazado 836272" d="M382.445,186.68,374.1,179s-2.926-3.474-4.388-4.266-2.377-.792-2.133-.183a2.334,2.334,0,0,0,1.157.975l1.159,1.158a9.757,9.757,0,0,0,.3,2.986c.366.61,1.951.975,1.951.975l.975.366,6.582,8.776Z" transform="translate(-218.855 -103.68)" fill="none" stroke="#263238" stroke-linecap="round" stroke-linejoin="round" stroke-width="1"/>
            <path id="Trazado_836273" data-name="Trazado 836273" d="M380.51,179.3a15.657,15.657,0,0,0-1.1-2.926,15.816,15.816,0,0,1-1.4-2.133c-.244-.609-.061-1.828-.366-1.767s-.975.122-.975,1.036a5.53,5.53,0,0,0,.609,2.072s0,2.194.548,2.865" transform="translate(-224.295 -102.704)" fill="#fff"/>
            <path id="Trazado_836274" data-name="Trazado 836274" d="M380.51,179.3a15.657,15.657,0,0,0-1.1-2.926,15.816,15.816,0,0,1-1.4-2.133c-.244-.609-.061-1.828-.366-1.767s-.975.122-.975,1.036a5.53,5.53,0,0,0,.609,2.072s0,2.194.548,2.865" transform="translate(-224.295 -102.704)" fill="none" stroke="#263238" stroke-linecap="round" stroke-linejoin="round" stroke-width="1"/>
            <path id="Trazado_836275" data-name="Trazado 836275" d="M370.9,179.623s-.135.766.045.991,1.487.676,1.712.27.135-.991-.225-1.126-1.216-.5-1.532-.135" transform="translate(-220.832 -106.867)" fill="#fff"/>
            <path id="Trazado_836276" data-name="Trazado 836276" d="M370.9,179.623s-.135.766.045.991,1.487.676,1.712.27.135-.991-.225-1.126S371.22,179.263,370.9,179.623Z" transform="translate(-220.832 -106.867)" fill="none" stroke="#263238" stroke-linecap="round" stroke-linejoin="round" stroke-width="1"/>
            <path id="Trazado_836277" data-name="Trazado 836277" d="M370.914,183.039s-.766-.18-.721.36.09.9.315.991a3.469,3.469,0,0,0,1.623-.18.58.58,0,0,0,.225-.811,5.584,5.584,0,0,0-1.442-.36" transform="translate(-220.437 -108.977)" fill="#fff"/>
            <path id="Trazado_836278" data-name="Trazado 836278" d="M370.914,183.039s-.766-.18-.721.36.09.9.315.991a3.469,3.469,0,0,0,1.623-.18.58.58,0,0,0,.225-.811A5.584,5.584,0,0,0,370.914,183.039Z" transform="translate(-220.437 -108.977)" fill="none" stroke="#263238" stroke-linecap="round" stroke-linejoin="round" stroke-width="1"/>
            <path id="Trazado_836279" data-name="Trazado 836279" d="M370.976,186.158s.135.631.406.766,1.261.135,1.487-.225-.27-.721-.27-.721-1.4.136-1.622.18" transform="translate(-220.904 -110.744)" fill="#fff"/>
            <path id="Trazado_836280" data-name="Trazado 836280" d="M370.976,186.158s.135.631.406.766,1.261.135,1.487-.225-.27-.721-.27-.721S371.2,186.114,370.976,186.158Z" transform="translate(-220.904 -110.744)" fill="none" stroke="#263238" stroke-linecap="round" stroke-linejoin="round" stroke-width="1"/>
            <path id="Trazado_836281" data-name="Trazado 836281" d="M399.486,203.819l-3.23,3.6,1.585,2.194L401.5,205.4Z" transform="translate(-235.957 -121.367)" fill="#fff"/>
            <path id="Trazado_836282" data-name="Trazado 836282" d="M399.486,203.819l-3.23,3.6,1.585,2.194L401.5,205.4Z" transform="translate(-235.957 -121.367)" fill="none" stroke="#263238" stroke-linecap="round" stroke-linejoin="round" stroke-width="1"/>
          </g>
        </g>
        <g id="Grupo_1095630" data-name="Grupo 1095630">
          <g id="Grupo_1095629" data-name="Grupo 1095629" clip-path="url(#clip-path)">
            <path id="Trazado_836283" data-name="Trazado 836283" d="M326,212.584s.979.1,1.157,4.276.978,8.553.534,12.163-.623,6.367-1.068,7.127a2.476,2.476,0,0,1-2.491.76,6.366,6.366,0,0,1-1.69-.95L322,234.25Z" transform="translate(-191.741 -126.587)" fill="#3ee2a8"/>
            <path id="Trazado_836284" data-name="Trazado 836284" d="M326,212.584s.979.1,1.157,4.276.978,8.553.534,12.163-.623,6.367-1.068,7.127a2.476,2.476,0,0,1-2.491.76,6.366,6.366,0,0,1-1.69-.95L322,234.25Z" transform="translate(-191.741 -126.587)" fill="none" stroke="#263238" stroke-linecap="round" stroke-linejoin="round" stroke-width="1"/>
            <path id="Trazado_836285" data-name="Trazado 836285" d="M265.3,262.234s3.1,4.733,3.459,4.915a1.331,1.331,0,0,0,1.911-1.183c.182-1.547-1.547-4.551-1.547-4.551Z" transform="translate(-157.974 -155.664)" fill="#fff"/>
            <path id="Trazado_836286" data-name="Trazado 836286" d="M265.3,262.234s3.1,4.733,3.459,4.915a1.331,1.331,0,0,0,1.911-1.183c.182-1.547-1.547-4.551-1.547-4.551Z" transform="translate(-157.974 -155.664)" fill="none" stroke="#263238" stroke-linecap="round" stroke-linejoin="round" stroke-width="1"/>
            <rect id="Rectángulo_387365" data-name="Rectángulo 387365" width="17.113" height="1.001" transform="translate(101.95 105.842)" fill="#fff"/>
            <rect id="Rectángulo_387366" data-name="Rectángulo 387366" width="17.113" height="1.001" transform="translate(101.95 105.842)" fill="none" stroke="#263238" stroke-linecap="round" stroke-linejoin="round" stroke-width="1"/>
            <path id="Trazado_836287" data-name="Trazado 836287" d="M261.968,235.312H248.313l1.541,10.651h13.654Z" transform="translate(-147.862 -140.12)" fill="#fff"/>
            <path id="Trazado_836288" data-name="Trazado 836288" d="M261.968,235.312H248.313l1.541,10.651h13.654Z" transform="translate(-147.862 -140.12)" fill="none" stroke="#263238" stroke-linecap="round" stroke-linejoin="round" stroke-width="1"/>
            <path id="Trazado_836289" data-name="Trazado 836289" d="M262.488,236.647h-12.27l1.385,9.57h12.27Z" transform="translate(-148.997 -140.915)" fill="#263238"/>
            <path id="Trazado_836290" data-name="Trazado 836290" d="M262.488,236.647h-12.27l1.385,9.57h12.27Z" transform="translate(-148.997 -140.915)" fill="none" stroke="#263238" stroke-linecap="round" stroke-linejoin="round" stroke-width="1"/>
            <path id="Trazado_836291" data-name="Trazado 836291" d="M303.608,359.242s4.733,17.022,5.007,18.024.091,3.186.273,4.005.091,1.547.911,1.638,2.822.546,3.459-.455-.091-2.549-.365-3.368-.91-3.55-.91-3.55.637-11.47-.546-17.2-2.822-11.379-2.822-11.379a61.155,61.155,0,0,0,3.732-8.739s-11.379-1.275-11.379,0-1.365,11.652,2.64,21.028" transform="translate(-179.083 -201.058)" fill="#fff"/>
            <path id="Trazado_836292" data-name="Trazado 836292" d="M303.608,359.242s4.733,17.022,5.007,18.024.091,3.186.273,4.005.091,1.547.911,1.638,2.822.546,3.459-.455-.091-2.549-.365-3.368-.91-3.55-.91-3.55.637-11.47-.546-17.2-2.822-11.379-2.822-11.379a61.155,61.155,0,0,0,3.732-8.739s-11.379-1.275-11.379,0S299.6,349.866,303.608,359.242Z" transform="translate(-179.083 -201.058)" fill="none" stroke="#263238" stroke-linecap="round" stroke-linejoin="round" stroke-width="1"/>
            <path id="Trazado_836293" data-name="Trazado 836293" d="M320.758,444.278c.182.819.091,1.547.91,1.639s2.822.546,3.459-.456a2.524,2.524,0,0,0,.1-2h-4.547a5.037,5.037,0,0,0,.081.819" transform="translate(-190.953 -264.065)" fill="#263238"/>
            <path id="Trazado_836294" data-name="Trazado 836294" d="M320.758,444.278c.182.819.091,1.547.91,1.639s2.822.546,3.459-.456a2.524,2.524,0,0,0,.1-2h-4.547A5.037,5.037,0,0,0,320.758,444.278Z" transform="translate(-190.953 -264.065)" fill="none" stroke="#263238" stroke-linecap="round" stroke-linejoin="round" stroke-width="1"/>
            <path id="Trazado_836295" data-name="Trazado 836295" d="M280.371,341.748l3.186,13.29a34.711,34.711,0,0,0,.637,7.464c.819,4.643,2.913,18.57,2.913,18.57a14.551,14.551,0,0,1-1.912,2.549c-.819.728-2.276.91-1.82,1.456a2.761,2.761,0,0,0,1.82.637h5.189s.91.456,1-.728-.546-3.368-.546-4.278.182-5.28.819-10.378,1-11.743.091-15.2a36.2,36.2,0,0,1-1.183-5.462c0-.364.637-7.191.637-7.191Z" transform="translate(-166.952 -203.5)" fill="#fff"/>
            <path id="Trazado_836296" data-name="Trazado 836296" d="M280.371,341.748l3.186,13.29a34.711,34.711,0,0,0,.637,7.464c.819,4.643,2.913,18.57,2.913,18.57a14.551,14.551,0,0,1-1.912,2.549c-.819.728-2.276.91-1.82,1.456a2.761,2.761,0,0,0,1.82.637h5.189s.91.456,1-.728-.546-3.368-.546-4.278.182-5.28.819-10.378,1-11.743.091-15.2a36.2,36.2,0,0,1-1.183-5.462c0-.364.637-7.191.637-7.191Z" transform="translate(-166.952 -203.5)" fill="none" stroke="#263238" stroke-linecap="round" stroke-linejoin="round" stroke-width="1"/>
            <path id="Trazado_836297" data-name="Trazado 836297" d="M295.681,446.624a6.55,6.55,0,0,0-.091-1.365h-6.1c-.819.728-2.276.91-1.82,1.456a2.761,2.761,0,0,0,1.82.637h5.189s.91.455,1-.728" transform="translate(-171.247 -265.137)" fill="#263238"/>
            <path id="Trazado_836298" data-name="Trazado 836298" d="M295.681,446.624a6.55,6.55,0,0,0-.091-1.365h-6.1c-.819.728-2.276.91-1.82,1.456a2.761,2.761,0,0,0,1.82.637h5.189S295.59,447.808,295.681,446.624Z" transform="translate(-171.247 -265.137)" fill="none" stroke="#263238" stroke-linecap="round" stroke-linejoin="round" stroke-width="1"/>
            <path id="Trazado_836299" data-name="Trazado 836299" d="M278.014,265.513a54.4,54.4,0,0,0-2.822,17.3,66.2,66.2,0,0,0,1.639,15.111,80.493,80.493,0,0,0,11.288.729c6.645,0,9.285-1.821,9.285-1.821s4.642-12.38,2.64-19.389a62.893,62.893,0,0,0-4.916-12.2Z" transform="translate(-163.866 -157.942)" fill="#273a89"/>
            <path id="Trazado_836300" data-name="Trazado 836300" d="M278.014,265.513a54.4,54.4,0,0,0-2.822,17.3,66.2,66.2,0,0,0,1.639,15.111,80.493,80.493,0,0,0,11.288.729c6.645,0,9.285-1.821,9.285-1.821s4.642-12.38,2.64-19.389a62.893,62.893,0,0,0-4.916-12.2Z" transform="translate(-163.866 -157.942)" fill="none" stroke="#263238" stroke-linecap="round" stroke-linejoin="round" stroke-width="1"/>
            <path id="Trazado_836301" data-name="Trazado 836301" d="M280.088,208.3s-6.554,3.186-6.554,3.914-1.274,21.483-.91,22.211a3.932,3.932,0,0,0,3,2c1.365,0,2.913-.91,3.186-1.911s.819-3.1.819-3.1l13.927-.455s3.459-18.479,3.459-19.48a2.853,2.853,0,0,0-.364-1.821c-.273-.364-5.917-1.911-5.917-1.911s-8.466-.364-10.651.546" transform="translate(-162.299 -123.667)" fill="#3ee2a8"/>
            <path id="Trazado_836302" data-name="Trazado 836302" d="M280.088,208.3s-6.554,3.186-6.554,3.914-1.274,21.483-.91,22.211a3.932,3.932,0,0,0,3,2c1.365,0,2.913-.91,3.186-1.911s.819-3.1.819-3.1l13.927-.455s3.459-18.479,3.459-19.48a2.853,2.853,0,0,0-.364-1.821c-.273-.364-5.917-1.911-5.917-1.911S282.273,207.389,280.088,208.3Z" transform="translate(-162.299 -123.667)" fill="none" stroke="#263238" stroke-linecap="round" stroke-linejoin="round" stroke-width="1"/>
            <line id="Línea_287" data-name="Línea 287" y1="11.106" x2="1.456" transform="translate(117.334 96.648)" fill="#fff"/>
            <line id="Línea_288" data-name="Línea 288" y1="11.106" x2="1.456" transform="translate(117.334 96.648)" fill="none" stroke="#263238" stroke-linecap="round" stroke-linejoin="round" stroke-width="1"/>
            <path id="Trazado_836303" data-name="Trazado 836303" d="M287.454,187.166s-1,.182-.273,1.547a3.891,3.891,0,0,0,2.64,1.639L291,193.629l5.826-.455.911-3.459a2.479,2.479,0,0,0,2.093-1.73c.546-1.638-.273-2.184-1.365-2s-11.015,1.183-11.015,1.183" transform="translate(-170.849 -110.727)" fill="#fff"/>
            <path id="Trazado_836304" data-name="Trazado 836304" d="M287.454,187.166s-1,.182-.273,1.547a3.891,3.891,0,0,0,2.64,1.639L291,193.629l5.826-.455.911-3.459a2.479,2.479,0,0,0,2.093-1.73c.546-1.638-.273-2.184-1.365-2S287.454,187.166,287.454,187.166Z" transform="translate(-170.849 -110.727)" fill="none" stroke="#263238" stroke-linecap="round" stroke-linejoin="round" stroke-width="1"/>
            <path id="Trazado_836305" data-name="Trazado 836305" d="M301.458,202.415a10.09,10.09,0,0,0-4.187-.455,29,29,0,0,0-5.917,1.274l-.182,1.639a60.17,60.17,0,0,1,6.008-.638c1.82,0,4.642.091,4.642.091Z" transform="translate(-173.383 -120.241)" fill="#fff"/>
            <path id="Trazado_836306" data-name="Trazado 836306" d="M301.458,202.415a10.09,10.09,0,0,0-4.187-.455,29,29,0,0,0-5.917,1.274l-.182,1.639a60.17,60.17,0,0,1,6.008-.638c1.82,0,4.642.091,4.642.091Z" transform="translate(-173.383 -120.241)" fill="none" stroke="#263238" stroke-linecap="round" stroke-linejoin="round" stroke-width="1"/>
            <path id="Trazado_836307" data-name="Trazado 836307" d="M287.823,161.964s-1.638-.364-3.732,2.094-1.456,3.277-.91,4.824,3.823,5.189,5.462,5.917l1.639.729s-4.005,5.553-4.005,8.466,2.276,6.645,5.644,7.009,6.1-7.555,4.642-10.013-3.277-5.735-3.277-5.735,3.277-2.093,3.368-5.28.273-6.1-2-8.284-4.551-2.458-5.553-1.456a5.584,5.584,0,0,0-1.274,1.729" transform="translate(-168.305 -95.083)" fill="#263238"/>
            <path id="Trazado_836308" data-name="Trazado 836308" d="M287.823,161.964s-1.638-.364-3.732,2.094-1.456,3.277-.91,4.824,3.823,5.189,5.462,5.917l1.639.729s-4.005,5.553-4.005,8.466,2.276,6.645,5.644,7.009,6.1-7.555,4.642-10.013-3.277-5.735-3.277-5.735,3.277-2.093,3.368-5.28.273-6.1-2-8.284-4.551-2.458-5.553-1.456A5.584,5.584,0,0,0,287.823,161.964Z" transform="translate(-168.305 -95.083)" fill="none" stroke="#263238" stroke-linecap="round" stroke-linejoin="round" stroke-width="1"/>
          </g>
        </g>
        <g id="Grupo_1095632" data-name="Grupo 1095632">
          <g id="Grupo_1095631" data-name="Grupo 1095631" clip-path="url(#clip-path)">
            <path id="Trazado_836309" data-name="Trazado 836309" d="M144.168,175.99a12.521,12.521,0,0,1,.937,2.89,5.463,5.463,0,0,0,0,1.952,4.253,4.253,0,0,1,.234,2.655c-.312,1.328-.547,3.748-1.25,4.3s-2.03-.078-2.03-.078l-.078,2.733-6.326.234-.625-4.373a14.714,14.714,0,0,1,.468-8.591c1.718-4.061,8.2-2.421,8.669-1.718" transform="translate(-80.145 -104.244)" fill="#fff"/>
            <path id="Trazado_836310" data-name="Trazado 836310" d="M144.168,175.99a12.521,12.521,0,0,1,.937,2.89,5.463,5.463,0,0,0,0,1.952,4.253,4.253,0,0,1,.234,2.655c-.312,1.328-.547,3.748-1.25,4.3s-2.03-.078-2.03-.078l-.078,2.733-6.326.234-.625-4.373a14.714,14.714,0,0,1,.468-8.591C137.218,173.646,143.7,175.286,144.168,175.99Z" transform="translate(-80.145 -104.244)" fill="none" stroke="#263238" stroke-linecap="round" stroke-linejoin="round" stroke-width="1"/>
            <path id="Trazado_836311" data-name="Trazado 836311" d="M153.245,196.59a1.4,1.4,0,0,0,.7.547c.469.156.547-1.25.547-1.25" transform="translate(-91.252 -116.644)" fill="none" stroke="#263238" stroke-linecap="round" stroke-linejoin="round" stroke-width="1"/>
            <line id="Línea_289" data-name="Línea 289" y1="1.172" x2="3.592" transform="translate(62.852 75.416)" fill="none" stroke="#263238" stroke-linecap="round" stroke-linejoin="round" stroke-width="1"/>
            <path id="Trazado_836312" data-name="Trazado 836312" d="M160.773,183.919a1.718,1.718,0,0,1,.417,3.385" transform="translate(-95.735 -109.518)" fill="none" stroke="#263238" stroke-linecap="round" stroke-linejoin="round" stroke-width="1"/>
            <path id="Trazado_836313" data-name="Trazado 836313" d="M138.377,170.228a3.9,3.9,0,0,1-.156,2.03,9.529,9.529,0,0,1-1.25,1.718s.39.859.234,1.093-.39-.312-.7-.312-.937,0-.781,1.25a11.153,11.153,0,0,0,.625,2.421,4.025,4.025,0,0,1-1.953,2.655,6.309,6.309,0,0,1-4.92.469c-.781-.391-4.608-5.623-4.608-9.294s5.7-6.872,8.825-6.872,6.872,1.562,6.872,3.124-2.187,1.718-2.187,1.718" transform="translate(-74.354 -98.482)" fill="#263238"/>
            <path id="Trazado_836314" data-name="Trazado 836314" d="M138.377,170.228a3.9,3.9,0,0,1-.156,2.03,9.529,9.529,0,0,1-1.25,1.718s.39.859.234,1.093-.39-.312-.7-.312-.937,0-.781,1.25a11.153,11.153,0,0,0,.625,2.421,4.025,4.025,0,0,1-1.953,2.655,6.309,6.309,0,0,1-4.92.469c-.781-.391-4.608-5.623-4.608-9.294s5.7-6.872,8.825-6.872,6.872,1.562,6.872,3.124S138.377,170.228,138.377,170.228Z" transform="translate(-74.354 -98.482)" fill="none" stroke="#263238" stroke-linecap="round" stroke-linejoin="round" stroke-width="1"/>
            <path id="Trazado_836315" data-name="Trazado 836315" d="M131.714,210.566l-1.25,2.343s3.124-.391,6.091-.469a30.959,30.959,0,0,1,5,.234l-.781-2.108s-6.326-1.172-9.059,0" transform="translate(-77.687 -125.075)" fill="#92e3a9"/>
            <path id="Trazado_836316" data-name="Trazado 836316" d="M131.714,210.566l-1.25,2.343s3.124-.391,6.091-.469a30.959,30.959,0,0,1,5,.234l-.781-2.108S134.447,209.394,131.714,210.566Z" transform="translate(-77.687 -125.075)" fill="none" stroke="#263238" stroke-linecap="round" stroke-linejoin="round" stroke-width="1"/>
            <path id="Trazado_836317" data-name="Trazado 836317" d="M113.3,225.039s-1.718,7.419-1.718,12.183-.468,7.653.547,8.044,4.764-1.406,4.764-1.406l-1.952-17.337Z" transform="translate(-66.377 -134.003)" fill="#3ee2a8"/>
            <path id="Trazado_836318" data-name="Trazado 836318" d="M113.3,225.039s-1.718,7.419-1.718,12.183-.468,7.653.547,8.044,4.764-1.406,4.764-1.406l-1.952-17.337Z" transform="translate(-66.377 -134.003)" fill="none" stroke="#263238" stroke-linecap="round" stroke-linejoin="round" stroke-width="1"/>
            <path id="Trazado_836319" data-name="Trazado 836319" d="M117.723,274.653s-2.577,1.952-3.748,9.684,1.171,20.227,2.655,23.429,1.8,4.373,1.718,5.467-1.952,3.28-.625,9.059,2.89,15.853,2.89,15.853v.937s-.468.312-.312.625a11.677,11.677,0,0,1,.391,1.64l3.436.078a5.551,5.551,0,0,0,.859-2.421c0-1.093-.156-2.812-.156-2.812l-.078-3.046.859-32.566.312-6.56,6.17,19.992,7.653,25.615a26.97,26.97,0,0,0,2.89.078c.78-.078,2.03-.312,2.03-.312a4.017,4.017,0,0,0,.078-1.562,11.14,11.14,0,0,0-1.015-2.343c-.468-.859-1.093-7.029-1.25-7.966s-.624-10.231-1.327-12.417a22.66,22.66,0,0,0-1.875-4.139s-.937-22.726-2.733-28.739-2.89-7.107-2.89-7.107a58.639,58.639,0,0,1-15.932-.468" transform="translate(-67.679 -163.547)" fill="#273a89"/>
            <path id="Trazado_836320" data-name="Trazado 836320" d="M117.723,274.653s-2.577,1.952-3.748,9.684,1.171,20.227,2.655,23.429,1.8,4.373,1.718,5.467-1.952,3.28-.625,9.059,2.89,15.853,2.89,15.853v.937s-.468.312-.312.625a11.677,11.677,0,0,1,.391,1.64l3.436.078a5.551,5.551,0,0,0,.859-2.421c0-1.093-.156-2.812-.156-2.812l-.078-3.046.859-32.566.312-6.56,6.17,19.992,7.653,25.615a26.97,26.97,0,0,0,2.89.078c.78-.078,2.03-.312,2.03-.312a4.017,4.017,0,0,0,.078-1.562,11.14,11.14,0,0,0-1.015-2.343c-.468-.859-1.093-7.029-1.25-7.966s-.624-10.231-1.327-12.417a22.66,22.66,0,0,0-1.875-4.139s-.937-22.726-2.733-28.739-2.89-7.107-2.89-7.107A58.639,58.639,0,0,1,117.723,274.653Z" transform="translate(-67.679 -163.547)" fill="none" stroke="#263238" stroke-linecap="round" stroke-linejoin="round" stroke-width="1"/>
            <path id="Trazado_836321" data-name="Trazado 836321" d="M121.842,216.106s-5.857,2.812-5.857,3.2,3.124,20.071,3.124,20.071a15.3,15.3,0,0,0,8.747,1.64,31.689,31.689,0,0,0,7.185-1.171s3.9-20.774,3.514-21.4-5.623-2.577-5.623-2.577-7.419-1.172-11.089.234" transform="translate(-69.065 -128.272)" fill="#3ee2a8"/>
            <path id="Trazado_836322" data-name="Trazado 836322" d="M121.842,216.106s-5.857,2.812-5.857,3.2,3.124,20.071,3.124,20.071a15.3,15.3,0,0,0,8.747,1.64,31.689,31.689,0,0,0,7.185-1.171s3.9-20.774,3.514-21.4-5.623-2.577-5.623-2.577S125.513,214.7,121.842,216.106Z" transform="translate(-69.065 -128.272)" fill="none" stroke="#263238" stroke-linecap="round" stroke-linejoin="round" stroke-width="1"/>
            <path id="Trazado_836323" data-name="Trazado 836323" d="M171.628,214.228l8.747,1.328-3.983,13.823-8.669-2.265Z" transform="translate(-99.874 -127.566)" fill="#263238"/>
            <path id="Trazado_836324" data-name="Trazado 836324" d="M171.628,214.228l8.747,1.328-3.983,13.823-8.669-2.265Z" transform="translate(-99.874 -127.566)" fill="none" stroke="#263238" stroke-linecap="round" stroke-linejoin="round" stroke-width="1"/>
            <path id="Trazado_836325" data-name="Trazado 836325" d="M176.658,243.16s2.343-4.373,2.577-4.53-.39-2.265-.313-2.812a7.467,7.467,0,0,1,.547-1.8c.312-.781-.078-1.484.468-1.328s.7.468.625,1.25-.078,1.328-.078,1.328l2.03-1.718.624-1.953a5.373,5.373,0,0,1,.547,1.874,3.782,3.782,0,0,1-.234,1.406,7.256,7.256,0,0,1-.859,3.2c-.859,1.327-1.25,1.562-1.406,1.952a44.632,44.632,0,0,1-1.406,6.013c-.937,2.577-1.874,4.764-3.124,5.154s-2.187-2.812-1.64-4.686a12.038,12.038,0,0,1,1.64-3.358" transform="translate(-104.123 -137.911)" fill="#fff"/>
            <path id="Trazado_836326" data-name="Trazado 836326" d="M176.658,243.16s2.343-4.373,2.577-4.53-.39-2.265-.313-2.812a7.467,7.467,0,0,1,.547-1.8c.312-.781-.078-1.484.468-1.328s.7.468.625,1.25-.078,1.328-.078,1.328l2.03-1.718.624-1.953a5.373,5.373,0,0,1,.547,1.874,3.782,3.782,0,0,1-.234,1.406,7.256,7.256,0,0,1-.859,3.2c-.859,1.327-1.25,1.562-1.406,1.952a44.632,44.632,0,0,1-1.406,6.013c-.937,2.577-1.874,4.764-3.124,5.154s-2.187-2.812-1.64-4.686A12.038,12.038,0,0,1,176.658,243.16Z" transform="translate(-104.123 -137.911)" fill="none" stroke="#263238" stroke-linecap="round" stroke-linejoin="round" stroke-width="1"/>
            <path id="Trazado_836327" data-name="Trazado 836327" d="M158.264,232.619s3.827,10.309,4.92,11.793a2.951,2.951,0,0,0,4.53-.312c.625-1.328.156-3.671-.078-4.842s-1.718-9.528-2.108-12.183a15.408,15.408,0,0,0-1.8-5s-1.8-1.172-2.968-.156" transform="translate(-94.241 -131.899)" fill="#3ee2a8"/>
            <path id="Trazado_836328" data-name="Trazado 836328" d="M158.264,232.619s3.827,10.309,4.92,11.793a2.951,2.951,0,0,0,4.53-.312c.625-1.328.156-3.671-.078-4.842s-1.718-9.528-2.108-12.183a15.408,15.408,0,0,0-1.8-5s-1.8-1.172-2.968-.156" transform="translate(-94.241 -131.899)" fill="none" stroke="#263238" stroke-linecap="round" stroke-linejoin="round" stroke-width="1"/>
            <line id="Línea_290" data-name="Línea 290" x1="4.272" y1="1.818" transform="translate(53.972 128.657)" fill="none" stroke="#fff" stroke-linecap="round" stroke-linejoin="round" stroke-width="1"/>
            <path id="Trazado_836329" data-name="Trazado 836329" d="M130.842,439.52l-.137,4.359h4.064l-.491-4.281Z" transform="translate(-77.831 -261.72)" fill="#fff"/>
            <path id="Trazado_836330" data-name="Trazado 836330" d="M130.842,439.52l-.137,4.359h4.064l-.491-4.281Z" transform="translate(-77.831 -261.72)" fill="none" stroke="#263238" stroke-linecap="round" stroke-linejoin="round" stroke-width="1"/>
            <path id="Trazado_836331" data-name="Trazado 836331" d="M130.705,448.721h4.064l-.123-1.069h-3.907Z" transform="translate(-77.831 -266.562)" fill="#fff"/>
            <path id="Trazado_836332" data-name="Trazado 836332" d="M130.705,448.721h4.064l-.123-1.069h-3.907Z" transform="translate(-77.831 -266.562)" fill="none" stroke="#263238" stroke-linecap="round" stroke-linejoin="round" stroke-width="1"/>
            <path id="Trazado_836333" data-name="Trazado 836333" d="M177.07,434.928s-1.013,4.223-.657,4.437,3.137.713,4.064,1a19.768,19.768,0,0,0,3.992.784c.927,0,2.424,0,2.5-.5s.142-.856-.214-1.07a23.612,23.612,0,0,1-3.137-2.566,7.922,7.922,0,0,1-1.624-2.319Z" transform="translate(-105.003 -258.846)" fill="#fff"/>
            <path id="Trazado_836334" data-name="Trazado 836334" d="M177.07,434.928s-1.013,4.223-.657,4.437,3.137.713,4.064,1a19.768,19.768,0,0,0,3.992.784c.927,0,2.424,0,2.5-.5s.142-.856-.214-1.07a23.612,23.612,0,0,1-3.137-2.566,7.922,7.922,0,0,1-1.624-2.319Z" transform="translate(-105.003 -258.846)" fill="none" stroke="#263238" stroke-linecap="round" stroke-linejoin="round" stroke-width="1"/>
            <path id="Trazado_836335" data-name="Trazado 836335" d="M180.548,444.1a10.118,10.118,0,0,0-4.121-.976c-.1.665-.134,1.19-.014,1.262.356.214,3.137.713,4.063,1a19.769,19.769,0,0,0,3.992.784c.927,0,2.424,0,2.5-.5a3.985,3.985,0,0,0,.056-.546,12.249,12.249,0,0,1-6.473-1.022" transform="translate(-105.003 -263.862)" fill="#fff"/>
            <path id="Trazado_836336" data-name="Trazado 836336" d="M180.548,444.1a10.118,10.118,0,0,0-4.121-.976c-.1.665-.134,1.19-.014,1.262.356.214,3.137.713,4.063,1a19.769,19.769,0,0,0,3.992.784c.927,0,2.424,0,2.5-.5a3.985,3.985,0,0,0,.056-.546A12.249,12.249,0,0,1,180.548,444.1Z" transform="translate(-105.003 -263.862)" fill="none" stroke="#263238" stroke-linecap="round" stroke-linejoin="round" stroke-width="1"/>
          </g>
        </g>
      </g>
    </g>
  </g>
</svg>
