<svg xmlns="http://www.w3.org/2000/svg" xmlns:xlink="http://www.w3.org/1999/xlink" width="505" height="358" viewBox="0 0 505 358">
  <defs>
    <clipPath id="clip-path">
      <rect id="Rectángulo_387243" data-name="Rectángulo 387243" width="339.124" height="314.737" fill="none"/>
    </clipPath>
    <clipPath id="clip-path-3">
      <rect id="Rectángulo_387238" data-name="Rectángulo 387238" width="339.124" height="301.262" fill="#ffe888"/>
    </clipPath>
  </defs>
  <g id="Grupo_1096068" data-name="Grupo 1096068" transform="translate(-915 -3720)">
    <rect id="Rectángulo_387379" data-name="Rectángulo 387379" width="505" height="358" rx="8" transform="translate(915 3720)" fill="#ffce00"/>
    <g id="Grupo_1095648" data-name="Grupo 1095648" transform="translate(998 3742)">
      <g id="Grupo_1095481" data-name="Grupo 1095481" clip-path="url(#clip-path)">
        <g id="Grupo_1095474" data-name="Grupo 1095474">
          <g id="Grupo_1095473" data-name="Grupo 1095473" clip-path="url(#clip-path)">
            <path id="Trazado_835766" data-name="Trazado 835766" d="M338.752,181.017c4.228-63.45-27.822-124.195-83.372-155.148A165.107,165.107,0,0,0,222.588,12C133.673-14.812,100.507,7.769,77.22,36s-1.411,76.213-28.227,95.971-59.276,47.986-45.869,89.62S49.7,290.744,80.748,287.921s63.51-39.518,85.386-15.525,91.737,47.28,137.606,7.057c24.513-21.5,32.7-63.75,35.012-98.436" transform="translate(0 0)" fill="#92e3a9"/>
            <g id="Grupo_1095472" data-name="Grupo 1095472" opacity="0.996">
              <g id="Grupo_1095471" data-name="Grupo 1095471">
                <g id="Grupo_1095470" data-name="Grupo 1095470" clip-path="url(#clip-path-3)">
                  <path id="Trazado_835767" data-name="Trazado 835767" d="M338.752,181.017c4.228-63.45-27.822-124.195-83.372-155.148A165.107,165.107,0,0,0,222.588,12C133.673-14.812,100.507,7.769,77.22,36s-1.411,76.213-28.227,95.971-59.276,47.986-45.869,89.62S49.7,290.744,80.748,287.921s63.51-39.518,85.386-15.525,91.737,47.28,137.606,7.057c24.513-21.5,32.7-63.75,35.012-98.436" transform="translate(0 0)" fill="#ffe888"/>
                </g>
              </g>
            </g>
          </g>
        </g>
        <g id="Grupo_1095478" data-name="Grupo 1095478">
          <g id="Grupo_1095477" data-name="Grupo 1095477" clip-path="url(#clip-path)">
            <path id="Trazado_835769" data-name="Trazado 835769" d="M296.753,166.547c4.169.778,8.721-1.893,11.323-6.19,1.951-3.226,2.639-6.414,3.436-10.061.867-4,31.858-148.066,32.17-149.494H186.728l-31.953,148.48-1.3,5.993a11.456,11.456,0,0,1-1.4,3.506l-.95,1.575A10.585,10.585,0,0,1,132.4,159.2a16.762,16.762,0,0,0-15.039-9.92c-.1-.006-.2-.006-.3-.006s-.191,0-.287.006a16.78,16.78,0,0,0-16,12.846L87.8,215.936H244.756l11.909-49.389" transform="translate(-25.843 -0.236)" fill="#fff"/>
            <path id="Trazado_835770" data-name="Trazado 835770" d="M296.753,166.547c4.169.778,8.721-1.893,11.323-6.19,1.951-3.226,2.639-6.414,3.436-10.061.867-4,31.858-148.066,32.17-149.494H186.728l-31.953,148.48-1.3,5.993a11.456,11.456,0,0,1-1.4,3.506l-.95,1.575A10.585,10.585,0,0,1,132.4,159.2a16.762,16.762,0,0,0-15.039-9.92c-.1-.006-.2-.006-.3-.006s-.191,0-.287.006a16.78,16.78,0,0,0-16,12.846L87.8,215.936H244.756l11.909-49.389" transform="translate(-25.843 -0.236)" fill="none" stroke="#263238" stroke-linecap="round" stroke-linejoin="round" stroke-width="1"/>
            <path id="Trazado_835771" data-name="Trazado 835771" d="M295.31,23.167l-.229,1.188h-1.4l.243-1.263c.229-1.187-.1-1.9-1.178-1.9-1.056,0-1.684.717-1.913,1.9l-1.344,6.975c-.229,1.188.123,1.9,1.178,1.9,1.075,0,1.684-.716,1.913-1.9l.33-1.715h1.4l-.316,1.64c-.385,2-1.581,3.318-3.618,3.318-2.017,0-2.7-1.32-2.319-3.318l1.315-6.824c.385-2,1.581-3.317,3.6-3.317,2.037,0,2.725,1.32,2.339,3.317" transform="translate(-84.753 -5.842)" fill="#263238"/>
            <path id="Trazado_835772" data-name="Trazado 835772" d="M299.526,23.167c.389-2.017,1.639-3.317,3.655-3.317,2.037,0,2.785,1.3,2.4,3.317l-1.315,6.824a3.64,3.64,0,0,1-3.675,3.318c-2.016,0-2.761-1.32-2.376-3.318Zm.121,6.9c-.233,1.206.142,1.9,1.2,1.9,1.075,0,1.7-.7,1.931-1.9l1.345-6.975c.229-1.187-.123-1.9-1.2-1.9-1.055,0-1.7.717-1.931,1.9Z" transform="translate(-87.743 -5.842)" fill="#263238"/>
            <path id="Trazado_835773" data-name="Trazado 835773" d="M309.226,33.232h-1.32l2.543-13.195h1.867l1.215,9.538,1.839-9.538h1.3l-2.543,13.195H312.6l-1.317-10.669Z" transform="translate(-90.625 -5.897)" fill="#263238"/>
            <path id="Trazado_835774" data-name="Trazado 835774" d="M321.5,33.232l2.286-11.857h-2.432l.258-1.338h6.314l-.258,1.338h-2.432l-2.286,11.857Z" transform="translate(-94.583 -5.897)" fill="#263238"/>
            <path id="Trazado_835775" data-name="Trazado 835775" d="M333.961,20.037c2.074,0,2.738,1.056,2.36,3.016l-.207,1.075a3.119,3.119,0,0,1-2.164,2.714c1.138.358,1.4,1.339,1.129,2.752l-.4,2.055a3.169,3.169,0,0,0-.042,1.583h-1.49a3.327,3.327,0,0,1,.064-1.6l.4-2.073c.287-1.49-.32-1.961-1.545-1.961h-1.037l-1.086,5.636h-1.471l2.543-13.195Zm-1.576,6.22a1.94,1.94,0,0,0,2.215-1.81l.243-1.262c.229-1.188-.085-1.809-1.178-1.809h-1.433l-.941,4.882Z" transform="translate(-96.68 -5.897)" fill="#263238"/>
            <path id="Trazado_835776" data-name="Trazado 835776" d="M340.848,30.574l-1.021,2.658h-1.358l5.07-13.195h2.13l-.018,13.195h-1.471l0-2.658Zm.432-1.263h2.941L344.2,21.7Z" transform="translate(-99.621 -5.897)" fill="#263238"/>
            <path id="Trazado_835777" data-name="Trazado 835777" d="M358.171,23.167l-.229,1.188h-1.4l.243-1.263c.229-1.187-.1-1.9-1.178-1.9-1.056,0-1.684.717-1.913,1.9l-1.344,6.975c-.229,1.188.123,1.9,1.178,1.9,1.075,0,1.684-.716,1.913-1.9l.33-1.715h1.4l-.316,1.64c-.385,2-1.581,3.318-3.618,3.318-2.017,0-2.7-1.32-2.32-3.318l1.315-6.824c.385-2,1.581-3.317,3.6-3.317,2.036,0,2.725,1.32,2.339,3.317" transform="translate(-103.255 -5.842)" fill="#263238"/>
            <path id="Trazado_835778" data-name="Trazado 835778" d="M363.039,33.232l2.286-11.857h-2.432l.258-1.338h6.316l-.258,1.338h-2.432l-2.285,11.857Z" transform="translate(-106.81 -5.897)" fill="#263238"/>
            <line id="Línea_149" data-name="Línea 149" x2="138.444" transform="translate(164.93 33.778)" fill="none" stroke="#263238" stroke-miterlimit="10" stroke-width="1"/>
            <line id="Línea_150" data-name="Línea 150" x2="32.395" transform="translate(266.546 49.123)" fill="none" stroke="#263238" stroke-miterlimit="10" stroke-width="1"/>
            <line id="Línea_151" data-name="Línea 151" x2="47.398" transform="translate(215.738 49.123)" fill="none" stroke="#263238" stroke-miterlimit="10" stroke-width="1"/>
            <line id="Línea_152" data-name="Línea 152" x2="28.985" transform="translate(184.025 49.123)" fill="none" stroke="#263238" stroke-miterlimit="10" stroke-width="1"/>
            <line id="Línea_153" data-name="Línea 153" x2="20.8" transform="translate(160.497 49.123)" fill="none" stroke="#263238" stroke-miterlimit="10" stroke-width="1"/>
            <line id="Línea_154" data-name="Línea 154" x2="34.781" transform="translate(262.454 56.966)" fill="none" stroke="#263238" stroke-miterlimit="10" stroke-width="1"/>
            <line id="Línea_155" data-name="Línea 155" x2="75.359" transform="translate(183.684 56.966)" fill="none" stroke="#263238" stroke-miterlimit="10" stroke-width="1"/>
            <line id="Línea_156" data-name="Línea 156" x2="21.824" transform="translate(158.792 56.966)" fill="none" stroke="#263238" stroke-miterlimit="10" stroke-width="1"/>
            <line id="Línea_157" data-name="Línea 157" x2="40.237" transform="translate(255.293 64.809)" fill="none" stroke="#263238" stroke-miterlimit="10" stroke-width="1"/>
            <line id="Línea_158" data-name="Línea 158" x2="57.628" transform="translate(194.937 64.809)" fill="none" stroke="#263238" stroke-miterlimit="10" stroke-width="1"/>
            <line id="Línea_159" data-name="Línea 159" x2="35.122" transform="translate(157.087 64.809)" fill="none" stroke="#263238" stroke-miterlimit="10" stroke-width="1"/>
            <line id="Línea_160" data-name="Línea 160" x2="25.233" transform="translate(268.592 72.651)" fill="none" stroke="#263238" stroke-miterlimit="10" stroke-width="1"/>
            <line id="Línea_161" data-name="Línea 161" x2="35.123" transform="translate(230.06 72.651)" fill="none" stroke="#263238" stroke-miterlimit="10" stroke-width="1"/>
            <line id="Línea_162" data-name="Línea 162" x2="33.759" transform="translate(192.891 72.651)" fill="none" stroke="#263238" stroke-miterlimit="10" stroke-width="1"/>
            <line id="Línea_163" data-name="Línea 163" x2="24.893" transform="translate(164.93 72.651)" fill="none" stroke="#263238" stroke-miterlimit="10" stroke-width="1"/>
            <line id="Línea_164" data-name="Línea 164" x2="6.479" transform="translate(155.382 72.651)" fill="none" stroke="#263238" stroke-miterlimit="10" stroke-width="1"/>
            <line id="Línea_165" data-name="Línea 165" x2="5.797" transform="translate(286.323 80.494)" fill="none" stroke="#263238" stroke-miterlimit="10" stroke-width="1"/>
            <line id="Línea_166" data-name="Línea 166" x2="53.195" transform="translate(228.696 80.494)" fill="none" stroke="#263238" stroke-miterlimit="10" stroke-width="1"/>
            <line id="Línea_167" data-name="Línea 167" x2="37.168" transform="translate(188.117 80.494)" fill="none" stroke="#263238" stroke-miterlimit="10" stroke-width="1"/>
            <line id="Línea_168" data-name="Línea 168" x2="30.69" transform="translate(153.677 80.494)" fill="none" stroke="#263238" stroke-miterlimit="10" stroke-width="1"/>
            <line id="Línea_169" data-name="Línea 169" x2="11.593" transform="translate(278.822 88.337)" fill="none" stroke="#263238" stroke-miterlimit="10" stroke-width="1"/>
            <line id="Línea_170" data-name="Línea 170" x2="30.69" transform="translate(245.063 88.337)" fill="none" stroke="#263238" stroke-miterlimit="10" stroke-width="1"/>
            <line id="Línea_171" data-name="Línea 171" x2="6.82" transform="translate(234.833 88.337)" fill="none" stroke="#263238" stroke-miterlimit="10" stroke-width="1"/>
            <line id="Línea_172" data-name="Línea 172" x2="47.398" transform="translate(185.73 88.337)" fill="none" stroke="#263238" stroke-miterlimit="10" stroke-width="1"/>
            <line id="Línea_173" data-name="Línea 173" x2="31.031" transform="translate(151.972 88.337)" fill="none" stroke="#263238" stroke-miterlimit="10" stroke-width="1"/>
            <line id="Línea_174" data-name="Línea 174" x2="138.444" transform="translate(150.267 96.18)" fill="none" stroke="#263238" stroke-miterlimit="10" stroke-width="1"/>
            <line id="Línea_175" data-name="Línea 175" x2="7.161" transform="translate(279.845 104.023)" fill="none" stroke="#263238" stroke-miterlimit="10" stroke-width="1"/>
            <line id="Línea_176" data-name="Línea 176" x2="26.938" transform="translate(248.473 104.023)" fill="none" stroke="#263238" stroke-miterlimit="10" stroke-width="1"/>
            <line id="Línea_177" data-name="Línea 177" x2="40.237" transform="translate(203.462 104.023)" fill="none" stroke="#263238" stroke-miterlimit="10" stroke-width="1"/>
            <line id="Línea_178" data-name="Línea 178" x2="6.82" transform="translate(193.573 104.023)" fill="none" stroke="#263238" stroke-miterlimit="10" stroke-width="1"/>
            <line id="Línea_179" data-name="Línea 179" x2="27.621" transform="translate(162.202 104.023)" fill="none" stroke="#263238" stroke-miterlimit="10" stroke-width="1"/>
            <line id="Línea_180" data-name="Línea 180" x2="9.548" transform="translate(148.562 104.023)" fill="none" stroke="#263238" stroke-miterlimit="10" stroke-width="1"/>
            <line id="Línea_181" data-name="Línea 181" x2="34.781" transform="translate(250.519 111.866)" fill="none" stroke="#263238" stroke-miterlimit="10" stroke-width="1"/>
            <line id="Línea_182" data-name="Línea 182" x2="32.395" transform="translate(213.692 111.866)" fill="none" stroke="#263238" stroke-miterlimit="10" stroke-width="1"/>
            <line id="Línea_183" data-name="Línea 183" x2="24.893" transform="translate(185.389 111.866)" fill="none" stroke="#263238" stroke-miterlimit="10" stroke-width="1"/>
            <line id="Línea_184" data-name="Línea 184" x2="35.122" transform="translate(146.857 111.866)" fill="none" stroke="#263238" stroke-miterlimit="10" stroke-width="1"/>
            <line id="Línea_185" data-name="Línea 185" x2="10.912" transform="translate(272.684 119.708)" fill="none" stroke="#263238" stroke-miterlimit="10" stroke-width="1"/>
            <line id="Línea_186" data-name="Línea 186" x2="32.395" transform="translate(236.538 119.708)" fill="none" stroke="#263238" stroke-miterlimit="10" stroke-width="1"/>
            <line id="Línea_187" data-name="Línea 187" x2="20.8" transform="translate(213.351 119.708)" fill="none" stroke="#263238" stroke-miterlimit="10" stroke-width="1"/>
            <line id="Línea_188" data-name="Línea 188" x2="15.345" transform="translate(194.596 119.708)" fill="none" stroke="#263238" stroke-miterlimit="10" stroke-width="1"/>
            <line id="Línea_189" data-name="Línea 189" x2="15.004" transform="translate(176.865 119.708)" fill="none" stroke="#263238" stroke-miterlimit="10" stroke-width="1"/>
            <line id="Línea_190" data-name="Línea 190" x2="18.755" transform="translate(154.359 119.708)" fill="none" stroke="#263238" stroke-miterlimit="10" stroke-width="1"/>
            <line id="Línea_191" data-name="Línea 191" x2="6.138" transform="translate(145.152 119.708)" fill="none" stroke="#263238" stroke-miterlimit="10" stroke-width="1"/>
            <line id="Línea_192" data-name="Línea 192" x2="18.414" transform="translate(263.477 127.551)" fill="none" stroke="#263238" stroke-miterlimit="10" stroke-width="1"/>
            <line id="Línea_193" data-name="Línea 193" x2="28.302" transform="translate(231.082 127.551)" fill="none" stroke="#263238" stroke-miterlimit="10" stroke-width="1"/>
            <line id="Línea_194" data-name="Línea 194" x2="26.257" transform="translate(200.734 127.551)" fill="none" stroke="#263238" stroke-miterlimit="10" stroke-width="1"/>
            <line id="Línea_195" data-name="Línea 195" x2="31.371" transform="translate(165.271 127.551)" fill="none" stroke="#263238" stroke-miterlimit="10" stroke-width="1"/>
            <line id="Línea_196" data-name="Línea 196" x2="18.414" transform="translate(143.447 127.551)" fill="none" stroke="#263238" stroke-miterlimit="10" stroke-width="1"/>
            <line id="Línea_197" data-name="Línea 197" x2="17.731" transform="translate(262.454 135.394)" fill="none" stroke="#263238" stroke-miterlimit="10" stroke-width="1"/>
            <line id="Línea_198" data-name="Línea 198" x2="27.279" transform="translate(231.764 135.394)" fill="none" stroke="#263238" stroke-miterlimit="10" stroke-width="1"/>
            <line id="Línea_199" data-name="Línea 199" x2="26.938" transform="translate(200.052 135.394)" fill="none" stroke="#263238" stroke-miterlimit="10" stroke-width="1"/>
            <line id="Línea_200" data-name="Línea 200" x2="18.755" transform="translate(178.229 135.394)" fill="none" stroke="#263238" stroke-miterlimit="10" stroke-width="1"/>
            <line id="Línea_201" data-name="Línea 201" x2="19.095" transform="translate(155.723 135.394)" fill="none" stroke="#263238" stroke-miterlimit="10" stroke-width="1"/>
            <line id="Línea_202" data-name="Línea 202" x2="11.935" transform="translate(141.742 135.394)" fill="none" stroke="#263238" stroke-miterlimit="10" stroke-width="1"/>
            <line id="Línea_203" data-name="Línea 203" x2="10.23" transform="translate(268.251 143.237)" fill="none" stroke="#263238" stroke-miterlimit="10" stroke-width="1"/>
            <line id="Línea_204" data-name="Línea 204" x2="31.371" transform="translate(233.469 143.237)" fill="none" stroke="#263238" stroke-miterlimit="10" stroke-width="1"/>
            <line id="Línea_205" data-name="Línea 205" x2="23.529" transform="translate(205.849 143.237)" fill="none" stroke="#263238" stroke-miterlimit="10" stroke-width="1"/>
            <line id="Línea_206" data-name="Línea 206" x2="14.322" transform="translate(187.776 143.237)" fill="none" stroke="#263238" stroke-miterlimit="10" stroke-width="1"/>
            <line id="Línea_207" data-name="Línea 207" x2="23.869" transform="translate(158.792 143.237)" fill="none" stroke="#263238" stroke-miterlimit="10" stroke-width="1"/>
            <line id="Línea_208" data-name="Línea 208" x2="16.368" transform="translate(140.037 143.237)" fill="none" stroke="#263238" stroke-miterlimit="10" stroke-width="1"/>
            <path id="Trazado_835779" data-name="Trazado 835779" d="M272.642,211.212v.051a16.782,16.782,0,0,0-14.912,12.8l-12.974,53.808H87.8l12.974-53.808a16.78,16.78,0,0,1,16-12.846Z" transform="translate(-25.843 -62.166)" fill="#fff"/>
            <path id="Trazado_835780" data-name="Trazado 835780" d="M272.642,211.212v.051a16.782,16.782,0,0,0-14.912,12.8l-12.974,53.808H87.8l12.974-53.808a16.78,16.78,0,0,1,16-12.846Z" transform="translate(-25.843 -62.166)" fill="none" stroke="#263238" stroke-linecap="round" stroke-linejoin="round" stroke-width="1"/>
            <path id="Trazado_835781" data-name="Trazado 835781" d="M367.184,228.474H327.1l1.065-4.418a16.8,16.8,0,0,1,14.912-12.8q.688-.057,1.377-.057c6.363,0,12.879,3.475,15.339,9.926,1.741,4.559,4.469,6.8,7.4,7.345" transform="translate(-96.274 -62.163)" fill="#263238"/>
            <path id="Trazado_835782" data-name="Trazado 835782" d="M367.184,228.474H327.1l1.065-4.418a16.8,16.8,0,0,1,14.912-12.8q.688-.057,1.377-.057c6.363,0,12.879,3.475,15.339,9.926C361.529,225.688,364.257,227.925,367.184,228.474Z" transform="translate(-96.274 -62.163)" fill="none" stroke="#263238" stroke-linecap="round" stroke-linejoin="round" stroke-width="1"/>
            <path id="Trazado_835783" data-name="Trazado 835783" d="M302.953,224.641c0,.517-1.272.909-1.367,1.4s.945,1.331.761,1.806-1.514.388-1.778.828.447,1.56.116,1.956-1.565-.1-1.948.246,0,1.617-.428,1.913-1.492-.5-1.948-.251-.38,1.57-.86,1.764-1.351-.809-1.848-.665-.692,1.459-1.2,1.553-1.169-1.058-1.684-1.011-.955,1.3-1.471,1.3-.97-1.256-1.471-1.3-1.19,1.1-1.684,1.011-.718-1.413-1.2-1.553-1.382.854-1.848.665-.417-1.526-.86-1.764-1.536.538-1.948.251-.056-1.578-.429-1.915-1.625.139-1.948-.246.376-1.524.117-1.956-1.595-.356-1.778-.828.857-1.3.761-1.805-1.367-.888-1.367-1.4,1.272-.909,1.367-1.4-.945-1.33-.761-1.806,1.514-.388,1.778-.828-.447-1.56-.116-1.956,1.564.1,1.947-.246,0-1.617.428-1.913,1.491.5,1.947.251.38-1.57.86-1.764,1.351.809,1.848.665.692-1.458,1.2-1.553,1.169,1.058,1.684,1.011.955-1.3,1.471-1.3.97,1.256,1.471,1.3,1.19-1.1,1.684-1.011.718,1.413,1.2,1.553,1.382-.853,1.848-.665.417,1.527.86,1.764,1.536-.538,1.948-.251.057,1.578.429,1.914,1.626-.139,1.948.246-.376,1.525-.117,1.956,1.595.356,1.778.828-.857,1.3-.761,1.805,1.367.888,1.367,1.4" transform="translate(-81.13 -62.926)" fill="#3ee2a8"/>
            <path id="Trazado_835784" data-name="Trazado 835784" d="M301.035,225.773c0,4.491-4.64,8.132-10.364,8.132s-10.364-3.641-10.364-8.132,4.641-8.131,10.364-8.131,10.364,3.641,10.364,8.131" transform="translate(-82.502 -64.058)" fill="#fff"/>
            <path id="Trazado_835785" data-name="Trazado 835785" d="M299.884,226.42c0,3.636-3.756,6.583-8.39,6.583s-8.39-2.948-8.39-6.583,3.756-6.583,8.39-6.583,8.39,2.947,8.39,6.583" transform="translate(-83.325 -64.704)" fill="#3ee2a8"/>
            <line id="Línea_209" data-name="Línea 209" x1="68.151" transform="translate(145.925 201.329)" fill="none" stroke="#263238" stroke-linecap="round" stroke-linejoin="round" stroke-width="1"/>
            <line id="Línea_210" data-name="Línea 210" x1="48.837" transform="translate(75.412 201.329)" fill="none" stroke="#263238" stroke-linecap="round" stroke-linejoin="round" stroke-width="1"/>
            <path id="Trazado_835786" data-name="Trazado 835786" d="M227.739,268.422s12.866-14.244,16.53-28.216-5.351-6.4-8.957,9.105-3.606,19.472,0,16.587a37.584,37.584,0,0,0,7.4-8.63c.508-.8.934-1.549,1.253-2.188,1.442-2.884-3.245-1.081-4.326,4.688s5.408-2.524,7.211-5.408,5.409-4.327,2.524,3.245-7.212,6.13-3.245,1.082,8.294-15.5,8.654-9.735-1.082,12.26-3.967,14.063,5.409-8.294,7.933-7.573,3.606,3.606,1.082,5.77-2.524-5.048,16.587-4.327" transform="translate(-67.03 -68.536)" fill="none" stroke="#263238" stroke-linecap="round" stroke-linejoin="round" stroke-width="1"/>
          </g>
        </g>
        <g id="Grupo_1095480" data-name="Grupo 1095480">
          <g id="Grupo_1095479" data-name="Grupo 1095479" clip-path="url(#clip-path)">
            <path id="Trazado_835787" data-name="Trazado 835787" d="M290.867,255.061l10.573,8.493a.658.658,0,0,1-.577,1.15l-13.4-3.48Z" transform="translate(-84.61 -75.072)" fill="#fff"/>
            <path id="Trazado_835788" data-name="Trazado 835788" d="M290.867,255.061l10.573,8.493a.658.658,0,0,1-.577,1.15l-13.4-3.48Z" transform="translate(-84.61 -75.072)" fill="none" stroke="#263238" stroke-linecap="round" stroke-linejoin="round" stroke-width="1"/>
            <path id="Trazado_835789" data-name="Trazado 835789" d="M261.174,235.114,199.328,198.5l-6.916,11.757,64.033,34.688a3.19,3.19,0,0,0,.509.276c2.126.888,4.793-.654,5.959-3.444s.386-5.771-1.74-6.659" transform="translate(-56.632 -58.423)" fill="#1682fb"/>
            <path id="Trazado_835790" data-name="Trazado 835790" d="M261.174,235.114,199.328,198.5l-6.916,11.757,64.033,34.688a3.19,3.19,0,0,0,.509.276c2.126.888,4.793-.654,5.959-3.444S263.3,236,261.174,235.114Z" transform="translate(-56.632 -58.423)" fill="none" stroke="#263238" stroke-linecap="round" stroke-linejoin="round" stroke-width="1"/>
            <path id="Trazado_835791" data-name="Trazado 835791" d="M171.438,187.342c-1.8,4.329-5.942,6.719-9.238,5.343a5.178,5.178,0,0,1-.9-.5L97.912,156.862l-5.17-2.882-.631-.351.159-.382,7.268-17.4.312-.74.835.5,7.242,4.412,60.813,37c3.3,1.377,4.508,6,2.7,10.328" transform="translate(-27.111 -39.765)" fill="#fff"/>
            <path id="Trazado_835792" data-name="Trazado 835792" d="M171.438,187.342c-1.8,4.329-5.942,6.719-9.238,5.343a5.178,5.178,0,0,1-.9-.5L97.912,156.862l-5.17-2.882-.631-.351.159-.382,7.268-17.4.312-.74.835.5,7.242,4.412,60.813,37C172.038,178.392,173.249,183.014,171.438,187.342Z" transform="translate(-27.111 -39.765)" fill="none" stroke="#263238" stroke-linecap="round" stroke-linejoin="round" stroke-width="1"/>
            <path id="Trazado_835793" data-name="Trazado 835793" d="M168.136,176.647l-60.209-36.628-7.242-4.412-.836-.5-.313.74-7.268,17.4-.159.382.632.351,5.17,2.882,61.937,34.516c3.3.978,7.223-1.447,8.987-5.678,1.41-3.372,1.036-6.915-.7-9.054" transform="translate(-27.111 -39.765)" fill="#273a89"/>
            <path id="Trazado_835794" data-name="Trazado 835794" d="M168.136,176.647l-60.209-36.628-7.242-4.412-.836-.5-.313.74-7.268,17.4-.159.382.632.351,5.17,2.882,61.937,34.516c3.3.978,7.223-1.447,8.987-5.678C170.246,182.328,169.872,178.786,168.136,176.647Z" transform="translate(-27.111 -39.765)" fill="none" stroke="#263238" stroke-linecap="round" stroke-linejoin="round" stroke-width="1"/>
            <path id="Trazado_835795" data-name="Trazado 835795" d="M97.48,157.073c3.755.16,7.778-2.767,9.722-7.421a12.355,12.355,0,0,0,.294-9.423l-7.242-4.412a8.183,8.183,0,0,0-1.147.236,12.987,12.987,0,0,0-7.268,17.4,7.179,7.179,0,0,0,.471.733" transform="translate(-26.678 -39.975)" fill="#fff"/>
            <path id="Trazado_835796" data-name="Trazado 835796" d="M97.48,157.073c3.755.16,7.778-2.767,9.722-7.421a12.355,12.355,0,0,0,.294-9.423l-7.242-4.412a8.183,8.183,0,0,0-1.147.236,12.987,12.987,0,0,0-7.268,17.4,7.179,7.179,0,0,0,.471.733" transform="translate(-26.678 -39.975)" fill="none" stroke="#263238" stroke-linecap="round" stroke-linejoin="round" stroke-width="1"/>
            <path id="Trazado_835797" data-name="Trazado 835797" d="M107.151,150.83l47.025,30.606a1.389,1.389,0,0,1-1.464,2.36l-48.371-28.6Z" transform="translate(-30.711 -44.394)" fill="#fff"/>
            <path id="Trazado_835798" data-name="Trazado 835798" d="M107.151,150.83l47.025,30.606a1.389,1.389,0,0,1-1.464,2.36l-48.371-28.6Z" transform="translate(-30.711 -44.394)" fill="none" stroke="#263238" stroke-linecap="round" stroke-linejoin="round" stroke-width="1"/>
            <path id="Trazado_835799" data-name="Trazado 835799" d="M101.3,147.122c-2.137,5.118-7.03,7.946-10.929,6.317s-5.327-7.1-3.19-12.214,7.031-7.945,10.929-6.317,5.326,7.1,3.19,12.214" transform="translate(-25.367 -39.572)" fill="#8c8c8c"/>
            <path id="Trazado_835800" data-name="Trazado 835800" d="M101.3,147.122c-2.137,5.118-7.03,7.946-10.929,6.317s-5.327-7.1-3.19-12.214,7.031-7.945,10.929-6.317S103.433,142,101.3,147.122Z" transform="translate(-25.367 -39.572)" fill="none" stroke="#263238" stroke-linecap="round" stroke-linejoin="round" stroke-width="1"/>
            <path id="Trazado_835801" data-name="Trazado 835801" d="M96.831,146.393c-1.677,4.014-5.514,6.232-8.572,4.955S74.693,140,76.369,135.984s14.9-.449,17.961.828,4.178,5.566,2.5,9.58" transform="translate(-22.425 -39.478)" fill="#fff"/>
            <path id="Trazado_835802" data-name="Trazado 835802" d="M96.831,146.393c-1.677,4.014-5.514,6.232-8.572,4.955S74.693,140,76.369,135.984s14.9-.449,17.961.828S98.507,142.379,96.831,146.393Z" transform="translate(-22.425 -39.478)" fill="none" stroke="#263238" stroke-linecap="round" stroke-linejoin="round" stroke-width="1"/>
            <path id="Trazado_835803" data-name="Trazado 835803" d="M245.533,245.048l3.813-1.779a3.687,3.687,0,0,1,2.415.762c1.144.89,3.3,2.288,3.3,2.288s4.322.254,4.449.89-2.542,1.4-2.924,1.4h-2.8s3.94,2.033,4.322,2.288,5.846,1.906,5.083,2.414-5.846.382-6.99.636a21.912,21.912,0,0,1-3.432.254l-4.321-3.94-3.05-3.3s-1.017-1.143.127-1.906" transform="translate(-72.107 -71.599)" fill="#fff"/>
            <path id="Trazado_835804" data-name="Trazado 835804" d="M245.533,245.048l3.813-1.779a3.687,3.687,0,0,1,2.415.762c1.144.89,3.3,2.288,3.3,2.288s4.322.254,4.449.89-2.542,1.4-2.924,1.4h-2.8s3.94,2.033,4.322,2.288,5.846,1.906,5.083,2.414-5.846.382-6.99.636a21.912,21.912,0,0,1-3.432.254l-4.321-3.94-3.05-3.3S244.389,245.811,245.533,245.048Z" transform="translate(-72.107 -71.599)" fill="none" stroke="#263238" stroke-linecap="round" stroke-linejoin="round" stroke-width="1"/>
            <path id="Trazado_835805" data-name="Trazado 835805" d="M104.414,175.033s-.254-3.432-.254-5.084-.89-4.83-1.271-5.084-4.321-1.779-5.465-2.8-2.542.382-2.034,1.271,3.432,2.542,3.432,2.542l-.763,1.144-2.8-2.415s-2.923-4.575-3.686-4.194-.508,1.017,0,1.906.254,6.609,1.653,7.753,5.592,2.541,5.592,2.541L99.2,175.8s3.94.254,4.448.381.763-1.144.763-1.144" transform="translate(-26.812 -47.209)" fill="#fff"/>
            <path id="Trazado_835806" data-name="Trazado 835806" d="M104.414,175.033s-.254-3.432-.254-5.084-.89-4.83-1.271-5.084-4.321-1.779-5.465-2.8-2.542.382-2.034,1.271,3.432,2.542,3.432,2.542l-.763,1.144-2.8-2.415s-2.923-4.575-3.686-4.194-.508,1.017,0,1.906.254,6.609,1.653,7.753,5.592,2.541,5.592,2.541L99.2,175.8s3.94.254,4.448.381S104.414,175.033,104.414,175.033Z" transform="translate(-26.812 -47.209)" fill="none" stroke="#263238" stroke-linecap="round" stroke-linejoin="round" stroke-width="1"/>
            <path id="Trazado_835807" data-name="Trazado 835807" d="M98.081,185.789l.508-3.432s-.127-1.143,2.8-1.652a10.989,10.989,0,0,1,5.084.254,1,1,0,0,1,.636.89,21.877,21.877,0,0,1-.381,3.686s-4.576-1.78-8.642.254" transform="translate(-28.868 -53.135)" fill="#fff"/>
            <path id="Trazado_835808" data-name="Trazado 835808" d="M98.081,185.789l.508-3.432s-.127-1.143,2.8-1.652a10.989,10.989,0,0,1,5.084.254,1,1,0,0,1,.636.89,21.877,21.877,0,0,1-.381,3.686S102.148,183.755,98.081,185.789Z" transform="translate(-28.868 -53.135)" fill="none" stroke="#263238" stroke-linecap="round" stroke-linejoin="round" stroke-width="1"/>
            <path id="Trazado_835809" data-name="Trazado 835809" d="M170.321,425.951v9.138s2.125,1.063,8.288,1.063a47.885,47.885,0,0,0,16.151-3.187c2.975-1.275,4.037-4.038,2.975-4.463s-6.376-.638-7.438-1.488-5.525-3.613-5.525-3.613-10.625,3.188-14.451,2.55" transform="translate(-50.13 -124.619)" fill="#92e3a9"/>
            <path id="Trazado_835810" data-name="Trazado 835810" d="M170.321,425.951v9.138s2.125,1.063,8.288,1.063a47.885,47.885,0,0,0,16.151-3.187c2.975-1.275,4.037-4.038,2.975-4.463s-6.376-.638-7.438-1.488-5.525-3.613-5.525-3.613S174.146,426.589,170.321,425.951Z" transform="translate(-50.13 -124.619)" fill="none" stroke="#263238" stroke-linecap="round" stroke-linejoin="round" stroke-width="1"/>
            <path id="Trazado_835811" data-name="Trazado 835811" d="M198.125,431.821a47.687,47.687,0,0,1-14.1,4.119c-7.342.948-11.862.136-13.7-.344v1.972s2.125,1.063,8.288,1.063a47.881,47.881,0,0,0,16.151-3.188c2.133-.914,3.276-2.588,3.365-3.621" transform="translate(-50.13 -127.097)" fill="#fff"/>
            <path id="Trazado_835812" data-name="Trazado 835812" d="M198.125,431.821a47.687,47.687,0,0,1-14.1,4.119c-7.342.948-11.862.136-13.7-.344v1.972s2.125,1.063,8.288,1.063a47.881,47.881,0,0,0,16.151-3.188C196.892,434.529,198.036,432.855,198.125,431.821Z" transform="translate(-50.13 -127.097)" fill="none" stroke="#263238" stroke-linecap="round" stroke-linejoin="round" stroke-width="1"/>
            <path id="Trazado_835813" data-name="Trazado 835813" d="M146.21,300.958l1.062,2.975s4.463,8.5,7.651,14.663,6.587,19.338,7.65,20.613.85,2.975.212,4.888-5.737,35.277-5.737,36.127-.426.85.213,1.912.849,4.463.849,4.463a9.475,9.475,0,0,1-5.1,2.55,74.335,74.335,0,0,1-9.987.638s-.85-4.038-.639-4.676.85-4.675.85-4.675,2.125-10.413,1.7-15.726.637-17.213,1.063-18.488a19.559,19.559,0,0,0,.424-4.25l-1.274-2.338v-1.7s-10.2-10.413-14.238-14.451-8.076-8.925-8.076-8.925-4.675,20.826-5.95,25.289-1.913,6.375-2.763,7.65-9.563,12.751-12.751,17.426-8.075,12.962-8.075,12.962a26.105,26.105,0,0,0,.212,3.613c.212.85-2.125,4.038-2.125,4.038l-.851.85s-5.1-5.1-7.012-5.525-5.95.212-5.95.212,2.55-7.013,3.188-8.5S87.345,356,89.044,353.023s2.976-8.926,5.951-11.263,6.375-5.1,6.375-5.1l-.425-23.8-.426-6.587a21.668,21.668,0,0,1-.638-5.1v-4.25s19.34,4.463,28.9,4.038,15.3-2.975,15.3-2.975Z" transform="translate(-22.831 -87.392)" fill="#273a89"/>
            <path id="Trazado_835814" data-name="Trazado 835814" d="M146.21,300.958l1.062,2.975s4.463,8.5,7.651,14.663,6.587,19.338,7.65,20.613.85,2.975.212,4.888-5.737,35.277-5.737,36.127-.426.85.213,1.912.849,4.463.849,4.463a9.475,9.475,0,0,1-5.1,2.55,74.335,74.335,0,0,1-9.987.638s-.85-4.038-.639-4.676.85-4.675.85-4.675,2.125-10.413,1.7-15.726.637-17.213,1.063-18.488a19.559,19.559,0,0,0,.424-4.25l-1.274-2.338v-1.7s-10.2-10.413-14.238-14.451-8.076-8.925-8.076-8.925-4.675,20.826-5.95,25.289-1.913,6.375-2.763,7.65-9.563,12.751-12.751,17.426-8.075,12.962-8.075,12.962a26.105,26.105,0,0,0,.212,3.613c.212.85-2.125,4.038-2.125,4.038l-.851.85s-5.1-5.1-7.012-5.525-5.95.212-5.95.212,2.55-7.013,3.188-8.5S87.345,356,89.044,353.023s2.976-8.926,5.951-11.263,6.375-5.1,6.375-5.1l-.425-23.8-.426-6.587a21.668,21.668,0,0,1-.638-5.1v-4.25s19.34,4.463,28.9,4.038,15.3-2.975,15.3-2.975Z" transform="translate(-22.831 -87.392)" fill="none" stroke="#263238" stroke-linecap="round" stroke-linejoin="round" stroke-width="1"/>
            <path id="Trazado_835815" data-name="Trazado 835815" d="M155.808,201.663s-11.056-4.83-16.9-4.83-9.023.127-15.25.382a25.59,25.59,0,0,0-9.913,2.16l-9.15,3.051.763-16.649a14.255,14.255,0,0,0-5.719-.381,7.853,7.853,0,0,0-4.194,2.287s-3.431,22.622-3.3,24.655,2.8,2.415,2.8,2.415l20.716-.381-1.526,23.13-15.5,26.943s.127,4.194,12.835,8.388,28.341,2.8,33.171,1.525,12.556-6.985,13.192-7.875.025-5.47.025-7.376-3.178-19.954-2.669-20.843,3.3-12.836,3.3-12.836,25.8,16.776,27.324,16.521,17.03-7.879,17.411-8.134,1.4-1.652-.127-3.94a6.387,6.387,0,0,0-4.957-2.669c-.762,0-11.183.89-11.183.89s-13.09-11.565-13.472-12.2-2.414-5.974-3.3-7.371-14.361-6.863-14.361-6.863" transform="translate(-27.117 -54.521)" fill="#3ee2a8"/>
            <path id="Trazado_835816" data-name="Trazado 835816" d="M155.808,201.663s-11.056-4.83-16.9-4.83-9.023.127-15.25.382a25.59,25.59,0,0,0-9.913,2.16l-9.15,3.051.763-16.649a14.255,14.255,0,0,0-5.719-.381,7.853,7.853,0,0,0-4.194,2.287s-3.431,22.622-3.3,24.655,2.8,2.415,2.8,2.415l20.716-.381-1.526,23.13-15.5,26.943s.127,4.194,12.835,8.388,28.341,2.8,33.171,1.525,12.556-6.985,13.192-7.875.025-5.47.025-7.376-3.178-19.954-2.669-20.843,3.3-12.836,3.3-12.836,25.8,16.776,27.324,16.521,17.03-7.879,17.411-8.134,1.4-1.652-.127-3.94a6.387,6.387,0,0,0-4.957-2.669c-.762,0-11.183.89-11.183.89s-13.09-11.565-13.472-12.2-2.414-5.974-3.3-7.371S155.808,201.663,155.808,201.663Z" transform="translate(-27.117 -54.521)" fill="none" stroke="#263238" stroke-linecap="round" stroke-linejoin="round" stroke-width="1"/>
            <path id="Trazado_835817" data-name="Trazado 835817" d="M226.49,245.973s4.173,2.379,5.005,3.835" transform="translate(-66.662 -72.397)" fill="#92e3a9"/>
            <path id="Trazado_835818" data-name="Trazado 835818" d="M226.49,245.973s4.173,2.379,5.005,3.835" transform="translate(-66.662 -72.397)" fill="none" stroke="#263238" stroke-linecap="round" stroke-linejoin="round" stroke-width="1"/>
            <path id="Trazado_835819" data-name="Trazado 835819" d="M199.477,218.238s-3.815.308-7.769,4.47" transform="translate(-56.425 -64.234)" fill="#92e3a9"/>
            <path id="Trazado_835820" data-name="Trazado 835820" d="M199.477,218.238s-3.815.308-7.769,4.47" transform="translate(-56.425 -64.234)" fill="none" stroke="#263238" stroke-linecap="round" stroke-linejoin="round" stroke-width="1"/>
            <path id="Trazado_835821" data-name="Trazado 835821" d="M188.706,220.74a8.745,8.745,0,0,0-4.37,6.243" transform="translate(-54.255 -64.97)" fill="#92e3a9"/>
            <path id="Trazado_835822" data-name="Trazado 835822" d="M188.706,220.74a8.745,8.745,0,0,0-4.37,6.243" transform="translate(-54.255 -64.97)" fill="none" stroke="#263238" stroke-linecap="round" stroke-linejoin="round" stroke-width="1"/>
            <path id="Trazado_835823" data-name="Trazado 835823" d="M125.3,222.547l-.381-9.532.381,9.532" transform="translate(-36.766 -62.697)" fill="none" stroke="#263238" stroke-linecap="round" stroke-linejoin="round" stroke-width="1"/>
            <path id="Trazado_835824" data-name="Trazado 835824" d="M176.048,246.278l6.019-4.087-9.786,3.05" transform="translate(-50.707 -71.284)" fill="none" stroke="#263238" stroke-linecap="round" stroke-linejoin="round" stroke-width="1"/>
            <line id="Línea_211" data-name="Línea 211" y1="1.411" x2="2.077" transform="translate(121.065 176.487)" fill="none" stroke="#263238" stroke-linecap="round" stroke-linejoin="round" stroke-width="1"/>
            <path id="Trazado_835825" data-name="Trazado 835825" d="M164.867,210.559a19.771,19.771,0,0,0-6.393,3.767c-4.957,4.449-7.625,4.067-7.625,4.067" transform="translate(-44.399 -61.973)" fill="none" stroke="#263238" stroke-linecap="round" stroke-linejoin="round" stroke-width="1"/>
            <path id="Trazado_835826" data-name="Trazado 835826" d="M176.75,208.873a16.849,16.849,0,0,0-2.24.388" transform="translate(-51.363 -61.477)" fill="none" stroke="#263238" stroke-linecap="round" stroke-linejoin="round" stroke-width="1"/>
            <path id="Trazado_835827" data-name="Trazado 835827" d="M157.077,213.376a32.88,32.88,0,0,1-8.388,5.592" transform="translate(-43.763 -62.803)" fill="none" stroke="#263238" stroke-linecap="round" stroke-linejoin="round" stroke-width="1"/>
            <path id="Trazado_835828" data-name="Trazado 835828" d="M96.841,212.853a3.034,3.034,0,0,0-.742,1.766" transform="translate(-28.284 -62.649)" fill="none" stroke="#263238" stroke-linecap="round" stroke-linejoin="round" stroke-width="1"/>
            <path id="Trazado_835829" data-name="Trazado 835829" d="M106.74,209.271l-1.779.127a9.772,9.772,0,0,0-3.432-.89,5.215,5.215,0,0,0-2.1,1.315" transform="translate(-29.266 -61.367)" fill="none" stroke="#263238" stroke-linecap="round" stroke-linejoin="round" stroke-width="1"/>
            <path id="Trazado_835830" data-name="Trazado 835830" d="M97.689,208.873A4.514,4.514,0,0,0,95.02,211.8" transform="translate(-27.967 -61.477)" fill="none" stroke="#263238" stroke-linecap="round" stroke-linejoin="round" stroke-width="1"/>
            <path id="Trazado_835831" data-name="Trazado 835831" d="M179.594,260.381s-1.8,12.205-2.6,15.973-1.883,13.053-1.883,13.053a19.23,19.23,0,0,1,4.171-1.076,4.7,4.7,0,0,1,2.96.269s1.615-3.9,0-10.63a161.936,161.936,0,0,1-2.643-17.588" transform="translate(-51.539 -76.637)" fill="#92e3a9"/>
            <path id="Trazado_835832" data-name="Trazado 835832" d="M179.594,260.381s-1.8,12.205-2.6,15.973-1.883,13.053-1.883,13.053a19.23,19.23,0,0,1,4.171-1.076,4.7,4.7,0,0,1,2.96.269s1.615-3.9,0-10.63A161.936,161.936,0,0,1,179.594,260.381Z" transform="translate(-51.539 -76.637)" fill="none" stroke="#263238" stroke-linecap="round" stroke-linejoin="round" stroke-width="1"/>
            <path id="Trazado_835833" data-name="Trazado 835833" d="M89.358,421.236s.85,4.038,1.7,4.463,4.888,1.275,5.313,2.338-3.825,2.975-6.588,3.4a20.455,20.455,0,0,1-8.287-1.063c-.638-.425-2.125-2.55-4.038-3.188s-4.25-1.488-3.825-4.038,2.763-7.225,2.763-7.225a13.749,13.749,0,0,1,8.713.213c4.675,1.7,4.25,5.1,4.25,5.1" transform="translate(-21.657 -122.241)" fill="#92e3a9"/>
            <path id="Trazado_835834" data-name="Trazado 835834" d="M89.358,421.236s.85,4.038,1.7,4.463,4.888,1.275,5.313,2.338-3.825,2.975-6.588,3.4a20.455,20.455,0,0,1-8.287-1.063c-.638-.425-2.125-2.55-4.038-3.188s-4.25-1.488-3.825-4.038,2.763-7.225,2.763-7.225a13.749,13.749,0,0,1,8.713.213C89.783,417.836,89.358,421.236,89.358,421.236Z" transform="translate(-21.657 -122.241)" fill="none" stroke="#263238" stroke-linecap="round" stroke-linejoin="round" stroke-width="1"/>
            <path id="Trazado_835835" data-name="Trazado 835835" d="M89.784,433.653c2.763-.425,7.013-2.338,6.587-3.4a.852.852,0,0,0-.182-.258,8.437,8.437,0,0,1-6.942-.2c-2.869-1.594-3.825-5.1-7.65-6.376a18.659,18.659,0,0,0-7.306-.388,14.591,14.591,0,0,0-.658,2.335c-.425,2.55,1.912,3.4,3.825,4.038s3.4,2.763,4.037,3.188a20.46,20.46,0,0,0,8.288,1.063" transform="translate(-21.657 -124.457)" fill="#fff"/>
            <path id="Trazado_835836" data-name="Trazado 835836" d="M89.784,433.653c2.763-.425,7.013-2.338,6.587-3.4a.852.852,0,0,0-.182-.258,8.437,8.437,0,0,1-6.942-.2c-2.869-1.594-3.825-5.1-7.65-6.376a18.659,18.659,0,0,0-7.306-.388,14.591,14.591,0,0,0-.658,2.335c-.425,2.55,1.912,3.4,3.825,4.038s3.4,2.763,4.037,3.188A20.46,20.46,0,0,0,89.784,433.653Z" transform="translate(-21.657 -124.457)" fill="none" stroke="#263238" stroke-linecap="round" stroke-linejoin="round" stroke-width="1"/>
            <path id="Trazado_835837" data-name="Trazado 835837" d="M88.565,433.232c-2.338-1.063-4.463-3.825-7.863-5.95-3.11-1.944-6.389.2-6.928.577.486,1.477,2.24,2.111,3.739,2.611,1.913.638,3.4,2.763,4.038,3.188a20.46,20.46,0,0,0,8.288,1.063,13.432,13.432,0,0,0,1.666-.38,27.509,27.509,0,0,1-2.941-1.108" transform="translate(-21.714 -125.524)" fill="#263238"/>
            <path id="Trazado_835838" data-name="Trazado 835838" d="M88.565,433.232c-2.338-1.063-4.463-3.825-7.863-5.95-3.11-1.944-6.389.2-6.928.577.486,1.477,2.24,2.111,3.739,2.611,1.913.638,3.4,2.763,4.038,3.188a20.46,20.46,0,0,0,8.288,1.063,13.432,13.432,0,0,0,1.666-.38A27.509,27.509,0,0,1,88.565,433.232Z" transform="translate(-21.714 -125.524)" fill="none" stroke="#263238" stroke-linecap="round" stroke-linejoin="round" stroke-width="1"/>
            <path id="Trazado_835839" data-name="Trazado 835839" d="M178.166,196.832l-3.813,2.669s-4.957-3.3-8.388-3.94-5.211-.763-5.211-.763l2.669-4.7a12.414,12.414,0,0,0,4.321-5.592c1.144-3.432,2.288-4.83,4.83-3.559s3.558,6.355,3.558,9.531a13.776,13.776,0,0,0,2.034,6.355" transform="translate(-47.315 -53.121)" fill="#fff"/>
            <path id="Trazado_835840" data-name="Trazado 835840" d="M178.166,196.832l-3.813,2.669s-4.957-3.3-8.388-3.94-5.211-.763-5.211-.763l2.669-4.7a12.414,12.414,0,0,0,4.321-5.592c1.144-3.432,2.288-4.83,4.83-3.559s3.558,6.355,3.558,9.531A13.776,13.776,0,0,0,178.166,196.832Z" transform="translate(-47.315 -53.121)" fill="none" stroke="#263238" stroke-linecap="round" stroke-linejoin="round" stroke-width="1"/>
            <path id="Trazado_835841" data-name="Trazado 835841" d="M178.789,167.021a23.649,23.649,0,0,1,2.415,4.321c.254,1.144-.89,3.432-.89,3.432s2.542,3.686,2.669,4.575-1.525,2.542-1.525,2.542.381,3.686.89,4.576a3.38,3.38,0,0,1,.381,3.3c-.635,1.144-1.525,1.907-4.194,2.288s-4.83-.89-5.338-3.559-.509-8.388-.89-9.15-2.16-2.542-3.05-1.143-.254,2.8.381,4.067a4.055,4.055,0,0,0,1.779,1.779l-2.8,1.4a7.573,7.573,0,0,1-5.338.254,5.042,5.042,0,0,1-2.8-2.669c-.127-.381-1.4-3.558-1.779-4.194s-3.05-4.448-3.178-8.9,5.211-9.532,12.074-10.929,10.04,1.652,11.565,1.779,0-1.271,1.271-.381,1.525,5.846-1.652,6.609" transform="translate(-45.777 -46.695)" fill="#fff"/>
            <path id="Trazado_835842" data-name="Trazado 835842" d="M178.789,167.021a23.649,23.649,0,0,1,2.415,4.321c.254,1.144-.89,3.432-.89,3.432s2.542,3.686,2.669,4.575-1.525,2.542-1.525,2.542.381,3.686.89,4.576a3.38,3.38,0,0,1,.381,3.3c-.635,1.144-1.525,1.907-4.194,2.288s-4.83-.89-5.338-3.559-.509-8.388-.89-9.15-2.16-2.542-3.05-1.143-.254,2.8.381,4.067a4.055,4.055,0,0,0,1.779,1.779l-2.8,1.4a7.573,7.573,0,0,1-5.338.254,5.042,5.042,0,0,1-2.8-2.669c-.127-.381-1.4-3.558-1.779-4.194s-3.05-4.448-3.178-8.9,5.211-9.532,12.074-10.929,10.04,1.652,11.565,1.779,0-1.271,1.271-.381S181.966,166.258,178.789,167.021Z" transform="translate(-45.777 -46.695)" fill="none" stroke="#263238" stroke-linecap="round" stroke-linejoin="round" stroke-width="1"/>
            <path id="Trazado_835843" data-name="Trazado 835843" d="M181.457,181.89s.14-.141.333-.358c-.514.067-2.059.276-3,.486-1.144.254-1.652,3.686-2.669,2.8s-1.525-8.388-1.779-8.769.889-1.653.889-1.653,1.78-2.415,1.78-3.431-1.78-2.161-1.144-2.415,2.923-1.525,2.923-1.525c3.177-.763,2.923-5.719,1.652-6.609s.254.508-1.271.381-4.7-3.177-11.565-1.779-12.2,6.482-12.073,10.929,2.8,8.261,3.178,8.9,1.652,3.813,1.779,4.194a5.044,5.044,0,0,0,2.8,2.669,7.577,7.577,0,0,0,5.338-.254l2.8-1.4a4.059,4.059,0,0,1-1.779-1.78c-.635-1.271-1.271-2.669-.381-4.067s2.669.381,3.05,1.144.381,6.482.89,9.15,2.669,3.94,5.338,3.559,3.558-1.144,4.194-2.288a3.383,3.383,0,0,0-.381-3.3c-.509-.889-.89-4.575-.89-4.575" transform="translate(-45.777 -46.695)" fill="#263238"/>
            <path id="Trazado_835844" data-name="Trazado 835844" d="M181.457,181.89s.14-.141.333-.358c-.514.067-2.059.276-3,.486-1.144.254-1.652,3.686-2.669,2.8s-1.525-8.388-1.779-8.769.889-1.653.889-1.653,1.78-2.415,1.78-3.431-1.78-2.161-1.144-2.415,2.923-1.525,2.923-1.525c3.177-.763,2.923-5.719,1.652-6.609s.254.508-1.271.381-4.7-3.177-11.565-1.779-12.2,6.482-12.073,10.929,2.8,8.261,3.178,8.9,1.652,3.813,1.779,4.194a5.044,5.044,0,0,0,2.8,2.669,7.577,7.577,0,0,0,5.338-.254l2.8-1.4a4.059,4.059,0,0,1-1.779-1.78c-.635-1.271-1.271-2.669-.381-4.067s2.669.381,3.05,1.144.381,6.482.89,9.15,2.669,3.94,5.338,3.559,3.558-1.144,4.194-2.288a3.383,3.383,0,0,0-.381-3.3C181.839,185.576,181.457,181.89,181.457,181.89Z" transform="translate(-45.777 -46.695)" fill="none" stroke="#263238" stroke-linecap="round" stroke-linejoin="round" stroke-width="1"/>
            <path id="Trazado_835845" data-name="Trazado 835845" d="M190.682,178.257a1.829,1.829,0,0,0-1.652,1.017" transform="translate(-55.637 -52.466)" fill="none" stroke="#263238" stroke-linecap="round" stroke-linejoin="round" stroke-width="1"/>
            <path id="Trazado_835846" data-name="Trazado 835846" d="M190.227,181.816c0,.772-.228,1.4-.508,1.4s-.509-.626-.509-1.4.228-1.4.509-1.4.508.626.508,1.4" transform="translate(-55.69 -53.102)" fill="#263238"/>
            <path id="Trazado_835847" data-name="Trazado 835847" d="M191.36,195.768s-2.161.763-3.05-.763" transform="translate(-55.425 -57.395)" fill="none" stroke="#fff" stroke-linecap="round" stroke-linejoin="round" stroke-width="1"/>
            <path id="Trazado_835848" data-name="Trazado 835848" d="M157.778,200.45c5.846,0,16.9,4.83,16.9,4.83l.423.173a3.87,3.87,0,0,0-.677-1.571,17.333,17.333,0,0,0-6.228-4.7,21.822,21.822,0,0,0-7.88-1.652c-.9,0-3.46,2.359-4.064,2.926.49,0,.991,0,1.521,0" transform="translate(-45.991 -58.138)" fill="#92e3a9"/>
            <path id="Trazado_835849" data-name="Trazado 835849" d="M157.778,200.45c5.846,0,16.9,4.83,16.9,4.83l.423.173a3.87,3.87,0,0,0-.677-1.571,17.333,17.333,0,0,0-6.228-4.7,21.822,21.822,0,0,0-7.88-1.652c-.9,0-3.46,2.359-4.064,2.926C156.747,200.451,157.248,200.45,157.778,200.45Z" transform="translate(-45.991 -58.138)" fill="none" stroke="#263238" stroke-linecap="round" stroke-linejoin="round" stroke-width="1"/>
          </g>
        </g>
      </g>
    </g>
  </g>
</svg>
