<svg xmlns="http://www.w3.org/2000/svg" xmlns:xlink="http://www.w3.org/1999/xlink" width="190" height="157" viewBox="0 0 190 157">
  <defs>
    <linearGradient id="linear-gradient" x1="0.5" y1="-0.056" x2="0.5" y2="1" gradientUnits="objectBoundingBox">
      <stop offset="0" stop-color="#3ee2a8"/>
      <stop offset="0.56" stop-color="#3ee2a8"/>
      <stop offset="1" stop-color="#1682fb"/>
    </linearGradient>
  </defs>
  <g id="Grupo_1095589" data-name="Grupo 1095589" transform="translate(-915 -4602)">
    <g id="Grupo_1095436" data-name="Grupo 1095436" transform="translate(-258 3799)">
      <rect id="Rectángulo_386917" data-name="Rectángulo 386917" width="190" height="157" rx="15" transform="translate(1173 803)" fill="url(#linear-gradient)"/>
    </g>
    <g id="noun-fill-rate-4620316" transform="translate(967.584 4635.132)">
      <path id="Trazado_836069" data-name="Trazado 836069" d="M57.976,87.609H6.873a3.815,3.815,0,0,1-3.817-3.817V6.943A3.815,3.815,0,0,1,6.873,3.126H65.527a3.824,3.824,0,0,1,3.817,3.817V52.05a1.013,1.013,0,1,0,2.026,0V6.943A5.852,5.852,0,0,0,65.527,1.1H6.873A5.852,5.852,0,0,0,1.03,6.943V83.792a5.852,5.852,0,0,0,5.843,5.843h51.1a1.013,1.013,0,1,0,0-2.026Z"/>
      <path id="Trazado_836070" data-name="Trazado 836070" d="M58.272,49.186a1.013,1.013,0,0,0,0-2.026H56.829V24.7a2.123,2.123,0,0,0-2.124-2.124H49.056A2.123,2.123,0,0,0,46.933,24.7v22.47h-2.72V33.336a2.123,2.123,0,0,0-2.124-2.124H36.44a2.124,2.124,0,0,0-2.124,2.124V47.174H31.583V27.188a2.123,2.123,0,0,0-2.124-2.124H23.81a2.123,2.123,0,0,0-2.124,2.124V47.16H18.952V39.041a2.123,2.123,0,0,0-2.124-2.124H11.18a2.123,2.123,0,0,0-2.124,2.124V47.16H7.613a1.013,1.013,0,0,0,0,2.026ZM48.959,24.7a.1.1,0,0,1,.1-.1h5.649a.1.1,0,0,1,.1.1v22.47H48.959ZM11.083,47.16V39.041a.1.1,0,0,1,.1-.1h5.649a.1.1,0,0,1,.1.1V47.16Zm12.616,0V27.188a.1.1,0,0,1,.1-.1h5.649a.1.1,0,0,1,.1.1V47.16Zm12.63,0V33.322a.1.1,0,0,1,.1-.1h5.649a.1.1,0,0,1,.1.1V47.16Z" transform="translate(2.161 8.332)"/>
      <path id="Trazado_836071" data-name="Trazado 836071" d="M11.435,25.68A1.016,1.016,0,0,0,13,26.971c3.026-3.636,8.91-9.41,11.839-9.41,1.763,0,3.678,2.3,5.51,4.525,2.137,2.582,4.358,5.26,7.064,5.26h.056c5.01-.056,12.575-9.729,13.421-10.84a1.015,1.015,0,0,0-1.61-1.235c-2.137,2.776-8.425,10.007-11.839,10.035h-.028c-1.763,0-3.664-2.3-5.51-4.525-2.137-2.582-4.358-5.26-7.078-5.26C20.012,15.534,12.3,24.639,11.435,25.68Z" transform="translate(3.946 5.344)"/>
      <path id="Trazado_836072" data-name="Trazado 836072" d="M7.343,8.786H20.931a1.013,1.013,0,0,0,0-2.026H7.343a1.013,1.013,0,1,0,0,2.026Z" transform="translate(2.056 2.196)"/>
      <path id="Trazado_836073" data-name="Trazado 836073" d="M7.343,12.326H20.931a1.013,1.013,0,0,0,0-2.026H7.343a1.013,1.013,0,1,0,0,2.026Z" transform="translate(2.056 3.569)"/>
      <path id="Trazado_836074" data-name="Trazado 836074" d="M46.78,45.99H7.613a1.013,1.013,0,1,0,0,2.026H46.78a1.013,1.013,0,1,0,0-2.026Z" transform="translate(2.161 17.414)"/>
      <path id="Trazado_836075" data-name="Trazado 836075" d="M47.793,52.673A1.019,1.019,0,0,0,46.78,51.66H7.613a1.013,1.013,0,0,0,0,2.026H46.78A1.019,1.019,0,0,0,47.793,52.673Z" transform="translate(2.161 19.613)"/>
      <path id="Trazado_836076" data-name="Trazado 836076" d="M7.613,57.33a1.013,1.013,0,0,0,0,2.026H39.258a1.013,1.013,0,1,0,0-2.026Z" transform="translate(2.161 21.813)"/>
      <path id="Trazado_836077" data-name="Trazado 836077" d="M57.868,46.223a1.02,1.02,0,0,0-1.332.541L49.693,63.058a1.02,1.02,0,0,0,.541,1.332.979.979,0,0,0,.389.083.992.992,0,0,0,.93-.625l6.842-16.294A1,1,0,0,0,57.868,46.223Z" transform="translate(18.846 17.472)"/>
      <path id="Trazado_836078" data-name="Trazado 836078" d="M57.222,54.23A3.872,3.872,0,1,0,61.095,58.1,3.874,3.874,0,0,0,57.222,54.23Zm0,5.7a1.828,1.828,0,0,1-1.846-1.846,1.846,1.846,0,1,1,1.846,1.846Z" transform="translate(20.296 20.61)"/>
      <path id="Trazado_836079" data-name="Trazado 836079" d="M54.435,49.542a3.872,3.872,0,1,0-3.872,3.872A3.874,3.874,0,0,0,54.435,49.542Zm-3.872,1.846a1.828,1.828,0,0,1-1.846-1.846,1.846,1.846,0,1,1,1.846,1.846Z" transform="translate(17.712 17.289)"/>
      <path id="Trazado_836080" data-name="Trazado 836080" d="M57.537,40.58A16.87,16.87,0,1,0,74.4,57.457,16.9,16.9,0,0,0,57.537,40.58Zm0,31.714A14.844,14.844,0,1,1,72.374,57.457,14.93,14.93,0,0,1,57.537,72.294Z" transform="translate(15.373 15.315)"/>
    </g>
  </g>
</svg>
