<svg xmlns="http://www.w3.org/2000/svg" xmlns:xlink="http://www.w3.org/1999/xlink" width="190" height="157" viewBox="0 0 190 157">
  <defs>
    <linearGradient id="linear-gradient" x1="0.5" y1="-0.056" x2="0.5" y2="1" gradientUnits="objectBoundingBox">
      <stop offset="0" stop-color="#3ee2a8"/>
      <stop offset="0.56" stop-color="#3ee2a8"/>
      <stop offset="1" stop-color="#1682fb"/>
    </linearGradient>
  </defs>
  <g id="Grupo_1095590" data-name="Grupo 1095590" transform="translate(-915 -4602)">
    <g id="Grupo_1095436" data-name="Grupo 1095436" transform="translate(-258 3799)">
      <rect id="Rectángulo_386917" data-name="Rectángulo 386917" width="190" height="157" rx="15" transform="translate(1173 803)" fill="url(#linear-gradient)"/>
    </g>
    <g id="noun-time-4219202" transform="translate(962.25 4635.192)">
      <g id="Grupo_1095591" data-name="Grupo 1095591" transform="translate(2.75 4.577)">
        <path id="Trazado_836081" data-name="Trazado 836081" d="M64.226,18.647c-.016-.018-.021-.04-.038-.057s-.044-.024-.063-.042a32.187,32.187,0,0,0-45.46,0c-.021.019-.049.026-.07.046s-.025.045-.043.065a32.171,32.171,0,0,0,.018,45.492c.011.011.014.027.025.038s.028.015.04.027a32.211,32.211,0,0,0,45.52,0c.01-.009.023-.012.033-.022s.011-.021.02-.03a32.172,32.172,0,0,0,.018-45.507ZM68.807,42.78h1.98a29.267,29.267,0,0,1-7.634,18.4l-1.391-1.392a1.393,1.393,0,1,0-1.97,1.97l1.39,1.391a29.317,29.317,0,0,1-18.4,7.621V68.8A1.393,1.393,0,0,0,40,68.8v1.967a29.317,29.317,0,0,1-18.4-7.622l1.389-1.39a1.393,1.393,0,1,0-1.97-1.97l-1.39,1.391A29.267,29.267,0,0,1,12,42.78h1.98a1.393,1.393,0,1,0,0-2.787H12A29.305,29.305,0,0,1,19.635,21.6l1.386,1.386a1.393,1.393,0,1,0,1.97-1.97L21.606,19.63A29.3,29.3,0,0,1,40,12v1.967a1.393,1.393,0,1,0,2.787,0V12a29.3,29.3,0,0,1,18.392,7.624l-1.386,1.386a1.393,1.393,0,1,0,1.97,1.97L63.149,21.6a29.3,29.3,0,0,1,7.637,18.395H68.807a1.393,1.393,0,1,0,0,2.787Z" transform="translate(2.732 -0.656)"/>
        <path id="Trazado_836082" data-name="Trazado 836082" d="M45.313,65.081A37.986,37.986,0,0,1,7.357,27.15a1.393,1.393,0,1,0-2.787,0A40.776,40.776,0,0,0,45.313,67.868a1.393,1.393,0,1,0,0-2.787Z" transform="translate(-1.188 13.593)"/>
        <path id="Trazado_836083" data-name="Trazado 836083" d="M9.922,27.03a1.393,1.393,0,1,0,1.97-1.97L8.507,21.674a1.393,1.393,0,0,0-1.97,0L3.158,25.05a1.393,1.393,0,0,0,1.97,1.97l2.393-2.391Z" transform="translate(-2.75 9.74)"/>
        <path id="Trazado_836084" data-name="Trazado 836084" d="M27.143,7.364A38,38,0,0,1,65.1,45.32a1.393,1.393,0,1,0,2.787,0A40.79,40.79,0,0,0,27.143,4.577a1.393,1.393,0,1,0,0,2.787Z" transform="translate(16.982 -4.577)"/>
        <path id="Trazado_836085" data-name="Trazado 836085" d="M54.252,28.725a1.393,1.393,0,0,0-1.97,0l-2.4,2.4-2.391-2.391a1.393,1.393,0,0,0-1.97,1.97l3.377,3.377a1.393,1.393,0,0,0,1.97,0L54.252,30.7A1.393,1.393,0,0,0,54.252,28.725Z" transform="translate(33.59 15.789)"/>
        <path id="Trazado_836086" data-name="Trazado 836086" d="M38.9,19.5l-8.49,9.086a4.633,4.633,0,1,0-3.157,8.7v9a1.393,1.393,0,0,0,2.787,0v-9a4.6,4.6,0,0,0,2.511-6.913L40.937,21.4A1.393,1.393,0,1,0,38.9,19.5ZM28.648,34.74a1.858,1.858,0,1,1,1.865-1.851A1.86,1.86,0,0,1,28.648,34.74Z" transform="translate(15.477 7.848)"/>
      </g>
    </g>
  </g>
</svg>
