<svg xmlns="http://www.w3.org/2000/svg" xmlns:xlink="http://www.w3.org/1999/xlink" width="190" height="157" viewBox="0 0 190 157">
  <defs>
    <linearGradient id="linear-gradient" x1="0.5" y1="-0.056" x2="0.5" y2="1" gradientUnits="objectBoundingBox">
      <stop offset="0" stop-color="#3ee2a8"/>
      <stop offset="0.56" stop-color="#3ee2a8"/>
      <stop offset="1" stop-color="#1682fb"/>
    </linearGradient>
  </defs>
  <g id="Grupo_1095741" data-name="Grupo 1095741" transform="translate(-915 -6054)">
    <g id="Grupo_1095643" data-name="Grupo 1095643" transform="translate(0 1452)">
      <g id="Grupo_1095436" data-name="Grupo 1095436" transform="translate(-258 3799)">
        <rect id="Rectángulo_386917" data-name="Rectángulo 386917" width="190" height="157" rx="15" transform="translate(1173 803)" fill="url(#linear-gradient)"/>
      </g>
    </g>
    <g id="noun-time-4480841" transform="translate(974.918 6097.5)">
      <g id="_01" data-name="01" transform="translate(2.5 2.5)">
        <path id="Trazado_836339" data-name="Trazado 836339" d="M66.457,33.875a1.207,1.207,0,0,0-1.207,1.207V49.563a3.624,3.624,0,0,1-3.62,3.62H8.534a3.624,3.624,0,0,1-3.62-3.62V8.534a3.624,3.624,0,0,1,3.62-3.62H35.082a1.207,1.207,0,0,0,0-2.413H8.534A6.04,6.04,0,0,0,2.5,8.534V49.563A6.04,6.04,0,0,0,8.534,55.6H26.369l-1.931,9.654H18.188a1.207,1.207,0,0,0,0,2.413H51.976a1.207,1.207,0,0,0,0-2.413H45.725L43.795,55.6H61.63a6.04,6.04,0,0,0,6.034-6.034V35.082A1.207,1.207,0,0,0,66.457,33.875ZM43.264,65.251H26.9L28.831,55.6h12.5Z" transform="translate(-2.5 -2.5)"/>
        <path id="Trazado_836340" data-name="Trazado 836340" d="M32.394,2.5A16.894,16.894,0,1,0,49.289,19.394,16.894,16.894,0,0,0,32.394,2.5Zm0,31.375A14.481,14.481,0,1,1,46.875,19.394,14.481,14.481,0,0,1,32.394,33.875Z" transform="translate(15.875 -2.5)"/>
        <path id="Trazado_836341" data-name="Trazado 836341" d="M29.93,12.938H24.413V7.421a1.207,1.207,0,1,0-2.413,0v6.724a1.207,1.207,0,0,0,1.207,1.207H29.93a1.207,1.207,0,0,0,0-2.413Z" transform="translate(25.063 2.75)"/>
      </g>
    </g>
  </g>
</svg>
