<svg xmlns="http://www.w3.org/2000/svg" xmlns:xlink="http://www.w3.org/1999/xlink" width="190" height="157" viewBox="0 0 190 157">
  <defs>
    <linearGradient id="linear-gradient" x1="0.5" y1="-0.056" x2="0.5" y2="1" gradientUnits="objectBoundingBox">
      <stop offset="0" stop-color="#3ee2a8"/>
      <stop offset="0.56" stop-color="#3ee2a8"/>
      <stop offset="1" stop-color="#1682fb"/>
    </linearGradient>
  </defs>
  <g id="Grupo_1095816" data-name="Grupo 1095816" transform="translate(6653 4372)">
    <g id="Grupo_1095684" data-name="Grupo 1095684" transform="translate(-7568 -8974)">
      <g id="Grupo_1095436" data-name="Grupo 1095436" transform="translate(-258 3799)">
        <rect id="Rectángulo_386917" data-name="Rectángulo 386917" width="190" height="157" rx="15" transform="translate(1173 803)" fill="url(#linear-gradient)"/>
      </g>
    </g>
    <g id="noun-loading-109396" transform="translate(-6610.532 -4344.5)">
      <path id="Trazado_836362" data-name="Trazado 836362" d="M88.774,41.154a1.553,1.553,0,0,0-2.179.24L81.5,47.749a32.569,32.569,0,0,0-64.969,3.319l0,.54a1.551,1.551,0,0,0,1.551,1.528h.023a1.551,1.551,0,0,0,1.528-1.574l0-.494A29.462,29.462,0,0,1,78.47,48.8l-7.137-5.72a1.551,1.551,0,0,0-1.94,2.42l9.683,7.758a1.551,1.551,0,0,0,2.179-.241l7.758-9.68A1.552,1.552,0,0,0,88.774,41.154Z"/>
      <path id="Trazado_836363" data-name="Trazado 836363" d="M76.058,61.038A1.549,1.549,0,0,0,74,61.807l-.207.445a1.55,1.55,0,0,0,.737,2.066,1.533,1.533,0,0,0,.663.15,1.549,1.549,0,0,0,1.4-.886l.226-.489A1.549,1.549,0,0,0,76.058,61.038Z" transform="translate(1.937 1.438)"/>
      <path id="Trazado_836364" data-name="Trazado 836364" d="M46.844,78.474q-.5-.022-.987-.06a1.551,1.551,0,0,0-.237,3.093c.362.027.724.05,1.088.065h.068a1.551,1.551,0,0,0,.068-3.1Z" transform="translate(0.938 2.031)"/>
      <path id="Trazado_836365" data-name="Trazado 836365" d="M55.345,77.573c-.317.084-.637.161-.957.235a1.551,1.551,0,0,0,.341,3.063,1.569,1.569,0,0,0,.344-.038q.534-.121,1.06-.258a1.552,1.552,0,0,0-.788-3Z" transform="translate(1.243 2.001)"/>
      <path id="Trazado_836366" data-name="Trazado 836366" d="M69.669,68.609q-.323.375-.659.74a1.551,1.551,0,0,0,2.284,2.1q.369-.4.725-.813a1.552,1.552,0,0,0-2.35-2.026Z" transform="translate(1.766 1.681)"/>
      <path id="Trazado_836367" data-name="Trazado 836367" d="M38.456,76.83q-.465-.167-.923-.352a1.551,1.551,0,0,0-1.156,2.879q.509.2,1.025.39a1.551,1.551,0,0,0,1.055-2.918Z" transform="translate(0.64 1.962)"/>
      <path id="Trazado_836368" data-name="Trazado 836368" d="M63.187,74.182q-.417.262-.844.509a1.551,1.551,0,0,0,.779,2.893,1.531,1.531,0,0,0,.775-.209q.473-.274.936-.563a1.551,1.551,0,0,0-1.646-2.629Z" transform="translate(1.527 1.88)"/>
      <path id="Trazado_836369" data-name="Trazado 836369" d="M20.783,58.083a1.551,1.551,0,1,0-2.976.874c.1.35.212.7.325,1.042a1.551,1.551,0,0,0,2.945-.974Q20.923,58.558,20.783,58.083Z" transform="translate(0.041 1.304)"/>
      <path id="Trazado_836370" data-name="Trazado 836370" d="M30.941,72.758c-.264-.2-.524-.405-.782-.613a1.55,1.55,0,1,0-1.95,2.411q.422.343.855.671a1.551,1.551,0,1,0,1.877-2.469Z" transform="translate(0.376 1.807)"/>
      <path id="Trazado_836371" data-name="Trazado 836371" d="M24.405,65.826a1.551,1.551,0,0,0-2.582,1.72q.3.454.621.9a1.551,1.551,0,1,0,2.52-1.809Q24.678,66.237,24.405,65.826Z" transform="translate(0.171 1.581)"/>
    </g>
  </g>
</svg>
