<svg xmlns="http://www.w3.org/2000/svg" width="63.569" height="118.231" viewBox="0 0 63.569 118.231">
  <g id="java-4" transform="translate(-6.527 -4.399)">
    <path id="Trazado_839655" data-name="Trazado 839655" d="M283.512,430.054h-.445V429.8h1.2v.249h-.443V431.3h-.311Zm2.392.065H285.9l-.442,1.179h-.2l-.438-1.179h-.005V431.3h-.294v-1.492h.432l.407,1.057.405-1.057h.43V431.3H285.9Z" transform="translate(-216.094 -332.421)" fill="#e76f00"/>
    <path id="Trazado_839656" data-name="Trazado 839656" d="M80.142,259.583s-3.1,1.8,2.205,2.412a46.407,46.407,0,0,0,16.792-.712,29.218,29.218,0,0,0,4.462,2.179c-15.875,6.8-35.929-.394-23.46-3.878M78.2,250.7s-3.476,2.573,1.833,3.122a65.509,65.509,0,0,0,21.667-1.04,9.619,9.619,0,0,0,3.338,2.035c-19.195,5.613-40.574.443-26.837-4.116" transform="translate(-52.598 -192.468)" fill="#5382a1"/>
    <path id="Trazado_839657" data-name="Trazado 839657" d="M155.8,102.39c3.912,4.5-1.028,8.557-1.028,8.557s9.932-5.127,5.371-11.548c-4.26-5.988-7.527-8.963,10.159-19.221,0,0-27.762,6.934-14.5,22.212" transform="translate(-113.84 -59.215)" fill="#e76f00"/>
    <path id="Trazado_839658" data-name="Trazado 839658" d="M69.228,230.461s2.293,1.89-2.526,3.351c-9.164,2.776-38.139,3.614-46.189.111-2.894-1.259,2.533-3.006,4.24-3.372a11.007,11.007,0,0,1,2.8-.314c-3.218-2.267-20.8,4.451-8.93,6.375,32.368,5.249,59-2.364,50.608-6.151m-33.92-24.645s-14.739,3.5-5.219,4.772c4.019.538,12.032.416,19.5-.209,6.1-.515,12.225-1.608,12.225-1.608a25.886,25.886,0,0,0-3.707,1.983c-14.967,3.937-43.881,2.105-35.557-1.921a27.888,27.888,0,0,1,12.763-3.017M61.748,220.6c15.215-7.906,8.18-15.5,3.27-14.48a11.388,11.388,0,0,0-1.74.468,2.774,2.774,0,0,1,1.3-1c9.714-3.415,17.184,10.072-3.136,15.414a1.322,1.322,0,0,0,.306-.4" transform="translate(-6.273 -156.779)" fill="#5382a1"/>
    <path id="Trazado_839659" data-name="Trazado 839659" d="M121.479,4.4s8.426,8.429-7.992,21.391c-13.166,10.4-3,16.325-.005,23.1-7.685-6.934-13.325-13.038-9.541-18.718,5.553-8.339,20.938-12.382,17.538-25.771" transform="translate(-75.177)" fill="#e76f00"/>
    <path id="Trazado_839660" data-name="Trazado 839660" d="M75.35,347.688c14.6.935,37.031-.519,37.562-7.429,0,0-1.021,2.619-12.07,4.7a120.08,120.08,0,0,1-36.958.568s1.867,1.545,11.465,2.16" transform="translate(-44.821 -262.448)" fill="#5382a1"/>
    <path id="Trazado_839661" data-name="Trazado 839661" d="M28.136,420.383A6.629,6.629,0,0,1,24,422.248a2.639,2.639,0,0,1-2.871-2.91c0-1.939,1.079-3.357,5.407-3.357h1.6v4.4m3.8,4.289V411.395c0-3.392-1.934-5.63-6.6-5.63a17.382,17.382,0,0,0-7.047,1.53l.56,2.35a16.378,16.378,0,0,1,5.441-1.082c2.687,0,3.843,1.082,3.843,3.318v1.678H26.8c-6.528,0-9.473,2.534-9.473,6.337,0,3.283,1.941,5.148,5.594,5.148a8.438,8.438,0,0,0,5.741-2.389l.3,2.016h2.983Zm12.687,0H39.884L34.177,406.1h4.141l3.541,11.41.787,3.431A71.34,71.34,0,0,0,46.338,406.1h4.028a75.421,75.421,0,0,1-5.741,18.57m18.189-4.289a6.647,6.647,0,0,1-4.144,1.866,2.64,2.64,0,0,1-2.87-2.91c0-1.939,1.081-3.357,5.409-3.357h1.6v4.4m3.8,4.289V411.395c0-3.392-1.939-5.63-6.6-5.63a17.381,17.381,0,0,0-7.048,1.53l.559,2.35a16.4,16.4,0,0,1,5.444-1.082c2.685,0,3.842,1.082,3.842,3.318v1.678H61.47c-6.53,0-9.473,2.534-9.473,6.337,0,3.283,1.939,5.148,5.592,5.148a8.448,8.448,0,0,0,5.744-2.389l.3,2.016Zm-53.46,3.153a9.988,9.988,0,0,1-4.75,3.542l-1.877-2.209a7.878,7.878,0,0,0,3.291-3.083c.5-1,.711-2.292.711-5.378V399.5h4.039v20.911c0,4.126-.33,5.792-1.413,7.418" transform="translate(0 -308.738)" fill="#e76f00"/>
  </g>
</svg>
