<svg xmlns="http://www.w3.org/2000/svg" xmlns:xlink="http://www.w3.org/1999/xlink" width="190" height="157" viewBox="0 0 190 157">
  <defs>
    <linearGradient id="linear-gradient" x1="0.5" y1="-0.056" x2="0.5" y2="1" gradientUnits="objectBoundingBox">
      <stop offset="0" stop-color="#3ee2a8"/>
      <stop offset="0.56" stop-color="#3ee2a8"/>
      <stop offset="1" stop-color="#1682fb"/>
    </linearGradient>
  </defs>
  <g id="Grupo_1095797" data-name="Grupo 1095797" transform="translate(6653 1430)">
    <g id="Grupo_1095740" data-name="Grupo 1095740" transform="translate(-7568 -6032)">
      <g id="Grupo_1095436" data-name="Grupo 1095436" transform="translate(-258 3799)">
        <rect id="Rectángulo_386917" data-name="Rectángulo 386917" width="190" height="157" rx="15" transform="translate(1173 803)" fill="url(#linear-gradient)"/>
      </g>
    </g>
    <g id="noun-hdd-1951140" transform="translate(-6609.7 -1400.5)">
      <g id="Grupo_1095796" data-name="Grupo 1095796" transform="translate(21.2 15)">
        <path id="Trazado_836460" data-name="Trazado 836460" d="M44.4,69.6H42.3a1,1,0,1,0,0,2h2.1a.945.945,0,0,0,1-1A1.075,1.075,0,0,0,44.4,69.6Z" transform="translate(-21.2 -15)"/>
        <path id="Trazado_836461" data-name="Trazado 836461" d="M72.4,20.3H41.8a.945.945,0,0,0-1,1V61.5a.908.908,0,0,0,.3.7l7.8,8.1a.908.908,0,0,0,.7.3H72.4a.945.945,0,0,0,1-1V21.3A1.075,1.075,0,0,0,72.4,20.3Zm-1,48.3H50l-7.3-7.5V22.3H71.3V68.6Z" transform="translate(-21.2 -15)"/>
        <path id="Trazado_836462" data-name="Trazado 836462" d="M48.6,42.6H65.5a2.946,2.946,0,0,0,3-3V29.5a2.946,2.946,0,0,0-3-3H48.6a2.946,2.946,0,0,0-3,3V39.6A2.946,2.946,0,0,0,48.6,42.6Zm-1-13.1a.945.945,0,0,1,1-1H65.5a.945.945,0,0,1,1,1V39.6a.945.945,0,0,1-1,1H48.6a.945.945,0,0,1-1-1Z" transform="translate(-21.2 -15)"/>
        <path id="Trazado_836463" data-name="Trazado 836463" d="M50.4,58.1a5.014,5.014,0,0,0,5-5,5,5,0,1,0-10,0A5.014,5.014,0,0,0,50.4,58.1Zm0-8a3,3,0,1,1,0,6,3.076,3.076,0,0,1-3-3A2.946,2.946,0,0,1,50.4,50.1Z" transform="translate(-21.2 -15)"/>
        <path id="Trazado_836464" data-name="Trazado 836464" d="M60.1,63a5,5,0,1,0,10,0,5.081,5.081,0,0,0-5-5A4.951,4.951,0,0,0,60.1,63Zm8.1,0a3,3,0,1,1-6,0,3.076,3.076,0,0,1,3-3A2.945,2.945,0,0,1,68.2,63Z" transform="translate(-21.2 -15)"/>
        <path id="Trazado_836465" data-name="Trazado 836465" d="M75.8,15H37.7a2.946,2.946,0,0,0-3,3V73.1a2.946,2.946,0,0,0,3,3H71.4V80a3.009,3.009,0,0,1-3,3h-38c-.1,0-.2,0-.2.1a.756.756,0,0,0-.4-.1,3.009,3.009,0,0,1-3-3V38.7H29a.945.945,0,0,0,1-1V24.5a.945.945,0,0,0-1-1H22.2a.945.945,0,0,0-1,1V37.7a.945.945,0,0,0,1,1h2.5V80a5.014,5.014,0,0,0,5,5c.1,0,.2,0,.2-.1a.349.349,0,0,1,.2.1h38a4.951,4.951,0,0,0,5-5h0V76.1h2.4a2.946,2.946,0,0,0,3-3V18A2.608,2.608,0,0,0,75.8,15ZM23.2,36.7V25.5H28V36.7ZM76.8,73.1a.945.945,0,0,1-1,1H37.7a.945.945,0,0,1-1-1V18a.945.945,0,0,1,1-1H75.8a.945.945,0,0,1,1,1Z" transform="translate(-21.2 -15)"/>
        <path id="Trazado_836466" data-name="Trazado 836466" d="M22.4,22.3h6.8a1,1,0,0,0,0-2H22.4a1,1,0,0,0,0,2Z" transform="translate(-21.2 -15)"/>
      </g>
    </g>
  </g>
</svg>
