<svg xmlns="http://www.w3.org/2000/svg" width="73" height="73" viewBox="0 0 73 73">
  <g id="Grupo_1096065" data-name="Grupo 1096065" transform="translate(-212 -2224)">
    <circle id="Elipse_9964" data-name="Elipse 9964" cx="36.5" cy="36.5" r="36.5" transform="translate(212 2224)" fill="#1682fb"/>
    <g id="noun-like-5648239" transform="translate(219.299 2226.743)">
      <path id="Trazado_830205" data-name="Trazado 830205" d="M16.338,28.16H7.823A2.832,2.832,0,0,0,5,30.992V48.345a2.832,2.832,0,0,0,2.823,2.823h8.515A2.823,2.823,0,0,0,19.144,48.7a2.4,2.4,0,0,0,0-.359V30.992a2.51,2.51,0,0,0-.081-.69A2.814,2.814,0,0,0,16.338,28.16Z" transform="translate(0 -1.864)" fill="#fff"/>
      <path id="Trazado_830206" data-name="Trazado 830206" d="M55.228,26.153a4.2,4.2,0,0,0-4.195-4.195H40.143a17.873,17.873,0,0,0,.4-7.233,5.638,5.638,0,0,0-7.968-3.989.834.834,0,0,0-.493.771v4.625a6.552,6.552,0,0,1-.421,2.33,18.581,18.581,0,0,1-6.176,8.067l-.9.762a4.84,4.84,0,0,1-1.972,1.022,4.329,4.329,0,0,1,.081.843v.9A6.516,6.516,0,0,0,25.712,28.6l.843-.735a20.32,20.32,0,0,0,6.713-8.793,8.443,8.443,0,0,0,.52-2.931V12.107a3.908,3.908,0,0,1,2.976.233,3.836,3.836,0,0,1,2.062,2.689,17.586,17.586,0,0,1-.627,7.538.861.861,0,0,0,.825,1.129H51.033A2.465,2.465,0,0,1,53.5,26.153v1.694a.609.609,0,0,1-.609.6H44.41a.9.9,0,1,0,0,1.73h8.13a.9.9,0,0,1,.9.9,3.585,3.585,0,0,1-3.54,3.54H44.114a.834.834,0,0,0-.663.332.816.816,0,0,0-.206.538.9.9,0,0,0,.9.9h7.5a.9.9,0,0,1,.9.9,3.962,3.962,0,0,1-3.962,3.962H44.033a.9.9,0,0,0-.9.9h0a.9.9,0,0,0,0,.152,1.39,1.39,0,0,0,0,.188l.063.081a.789.789,0,0,0,.735.448h5.584a5.512,5.512,0,0,1-5.441,4.643H28.751a4.213,4.213,0,0,1-2.689-.995l-.09-.063a5.979,5.979,0,0,0-3.218-1.362v1.327a3.182,3.182,0,0,1,0,.412,4.186,4.186,0,0,1,2.133.9l.081.081a6.05,6.05,0,0,0,3.845,1.389H44.177a7.26,7.26,0,0,0,7.242-7.171h0a5.71,5.71,0,0,0,2.85-4.93,2.617,2.617,0,0,0-1.022-2.062h0a5.27,5.27,0,0,0,1.981-4.1,2.689,2.689,0,0,0-.592-1.667,2.393,2.393,0,0,0,.592-1.56Z" transform="translate(-1.827)" fill="#fff"/>
    </g>
  </g>
</svg>
