<svg xmlns="http://www.w3.org/2000/svg" width="73" height="73" viewBox="0 0 73 73">
  <g id="Grupo_1096067" data-name="Grupo 1096067" transform="translate(-212 -2465)">
    <circle id="Elipse_9966" data-name="Elipse 9966" cx="36.5" cy="36.5" r="36.5" transform="translate(212 2465)" fill="#ffce00"/>
    <g id="noun-money-285330" transform="translate(221.54 2473.9)">
      <path id="Trazado_830207" data-name="Trazado 830207" d="M27.218,6.1A21.758,21.758,0,1,0,48.977,27.858,21.758,21.758,0,0,0,27.218,6.1Zm0,41.25A19.492,19.492,0,1,1,46.71,27.858,19.492,19.492,0,0,1,27.218,47.35Z" transform="translate(0 0)" fill="#fff"/>
      <path id="Trazado_830208" data-name="Trazado 830208" d="M44.337,37.637V31.421a6.711,6.711,0,0,1,3.216,1.469.9.9,0,0,0,1.224-1.317,8.17,8.17,0,0,0-4.445-1.992V27.936a.906.906,0,0,0-1.811,0v1.63c-3.084.318-5.257,2.359-5.257,5.032,0,2.991,3.426,3.945,5.257,4.406v6.882a10.911,10.911,0,0,1-4.126-1.86.9.9,0,0,0-1.268,1.268,11.591,11.591,0,0,0,5.384,2.4v1.5a.906.906,0,0,0,1.811,0V47.726c2.31-.274,5.257-1.63,5.257-4.714C49.657,40.628,47.739,38.68,44.337,37.637Zm-1.811-.49c-1.469-.406-3.427-1.087-3.427-2.541,0-1.9,1.679-2.937,3.427-3.216v5.747Zm1.811,8.811V39.542c1.63.587,3.426,1.679,3.426,3.534.064,2-2.154,2.629-3.426,2.854Z" transform="translate(-16.032 -10.685)" fill="#fff"/>
    </g>
  </g>
</svg>
